<svg width="1440" height="282" viewBox="0 0 1440 282" fill="none" xmlns="http://www.w3.org/2000/svg">
<g opacity="0.7">
<g opacity="0.2">
<path opacity="0.5" d="M-1.98438 92.4796C-1.98438 92.4796 56.1159 261.009 88.154 261.009C120.192 261.009 133.367 83.1636 168.016 60.4079C202.664 37.6522 214.7 88.2301 218.016 92.4796C221.331 96.7292 257.857 249.366 284.016 253.055C310.174 256.744 348.088 173.618 371.918 143.267C405.355 100.679 450.516 131.195 475.016 170.195C499.516 209.195 508.016 219.195 525.016 239.195C542.016 259.195 572.072 275.405 604.506 239.195C636.94 202.986 682.295 87.5915 699.74 60.4079C717.184 33.2243 738.601 21.5781 767.364 69.8176C796.127 118.057 829.444 178.933 829.444 178.933C829.444 178.933 842.769 206.734 873.905 203.303C905.042 199.871 912.612 174.048 929.29 157.138C945.967 140.229 975.172 117.383 1015.34 157.138C1055.5 196.893 1059.03 198.322 1094.02 211.197C1136.79 226.937 1173.02 268.197 1210.59 216.58C1248.17 164.963 1255.52 154.904 1289.32 115.697C1323.12 76.4899 1345.75 93.2183 1365.02 115.697C1390.11 144.972 1379.72 198.585 1439.02 227.197" stroke="white" stroke-width="2" stroke-linecap="round"/>
<path opacity="0.5" d="M1434.02 95.1954C1434.02 95.1954 1393.05 217.196 1361.02 217.196C1328.98 217.196 1319.02 117.196 1294.55 85.2152C1269.02 34.1958 1252.02 74.6765 1235.02 102.936C1218.02 131.196 1168.17 261.268 1142.02 264.196C1115.86 267.123 1086.88 216.885 1053.02 153.937C1032.02 114.902 996.825 61.2715 974.016 85.2152C951.206 109.159 908.094 153.936 908.094 153.936C908.094 153.936 883.105 193.972 850.676 165.239C818.248 136.506 769.719 45.2169 761.359 28.9115C752.998 12.606 718.361 -19.1601 689.603 19.1186C660.845 57.3972 640.892 94.5179 625.016 125.195C609.14 155.873 596.147 203.918 565.016 201.195C533.884 198.472 522.968 157.462 500.016 116.23C483.674 86.8742 468.016 80.0526 435.029 105.964C394.87 137.51 344.286 199.36 324.516 216.195C304.745 233.031 241.493 281.738 207.96 220.467C174.427 159.195 183.016 142.596 174.427 116.23C164.759 86.5517 127.233 70.8547 101.337 103.095C75.4406 135.336 56.5034 182.075 -1.98425 188.387" stroke="white" stroke-linecap="round"/>
</g>
<g opacity="0.5">
<path d="M1139.66 281.294C1129.92 281.294 1122.02 273.393 1122.02 263.647C1122.02 253.901 1129.92 246 1139.66 246C1149.41 246 1157.31 253.901 1157.31 263.647C1157.31 273.393 1149.41 281.294 1139.66 281.294Z" fill="#2BB7A4" fill-opacity="0.45"/>
<path d="M1139.66 275.412C1133.17 275.412 1127.9 270.144 1127.9 263.647C1127.9 257.15 1133.17 251.882 1139.66 251.882C1146.16 251.882 1151.43 257.15 1151.43 263.647C1151.43 270.144 1146.16 275.412 1139.66 275.412Z" fill="#2BB9A4"/>
<path d="M1139.66 269.529C1136.41 269.529 1133.78 266.896 1133.78 263.647C1133.78 260.398 1136.41 257.765 1139.66 257.765C1142.91 257.765 1145.54 260.398 1145.54 263.647C1145.54 266.896 1142.91 269.529 1139.66 269.529Z" fill="white"/>
</g>
<g opacity="0.5">
<path d="M564.663 276.294C554.916 276.294 547.015 268.393 547.015 258.647C547.015 248.901 554.916 241 564.663 241C574.409 241 582.31 248.901 582.31 258.647C582.31 268.393 574.409 276.294 564.663 276.294Z" fill="#2BB7A4" fill-opacity="0.45"/>
<path d="M564.663 270.412C558.165 270.412 552.898 265.144 552.898 258.647C552.898 252.15 558.165 246.882 564.663 246.882C571.16 246.882 576.427 252.15 576.427 258.647C576.427 265.144 571.16 270.412 564.663 270.412Z" fill="#2BB9A4"/>
<path d="M564.663 264.529C561.414 264.529 558.78 261.896 558.78 258.647C558.78 255.398 561.414 252.765 564.663 252.765C567.911 252.765 570.545 255.398 570.545 258.647C570.545 261.896 567.911 264.529 564.663 264.529Z" fill="white"/>
</g>
<g opacity="0.5">
<path d="M186.663 72.2941C176.916 72.2941 169.015 64.3933 169.015 54.6471C169.015 44.9009 176.916 37 186.663 37C196.409 37 204.31 44.9009 204.31 54.6471C204.31 64.3933 196.409 72.2941 186.663 72.2941Z" fill="#2BB7A4" fill-opacity="0.45"/>
<path d="M186.663 66.4117C180.165 66.4117 174.898 61.1445 174.898 54.647C174.898 48.1496 180.165 42.8823 186.663 42.8823C193.16 42.8823 198.427 48.1496 198.427 54.647C198.427 61.1445 193.16 66.4117 186.663 66.4117Z" fill="#2BB9A4"/>
<path d="M186.663 60.5294C183.414 60.5294 180.78 57.8957 180.78 54.647C180.78 51.3983 183.414 48.7646 186.663 48.7646C189.911 48.7646 192.545 51.3983 192.545 54.647C192.545 57.8957 189.911 60.5294 186.663 60.5294Z" fill="white"/>
</g>
<g opacity="0.5">
<path d="M1327.66 109.294C1317.92 109.294 1310.02 101.393 1310.02 91.6471C1310.02 81.9009 1317.92 74 1327.66 74C1337.41 74 1345.31 81.9009 1345.31 91.6471C1345.31 101.393 1337.41 109.294 1327.66 109.294Z" fill="#2BB7A4" fill-opacity="0.45"/>
<path d="M1327.66 103.412C1321.17 103.412 1315.9 98.1445 1315.9 91.647C1315.9 85.1496 1321.17 79.8823 1327.66 79.8823C1334.16 79.8823 1339.43 85.1496 1339.43 91.647C1339.43 98.1445 1334.16 103.412 1327.66 103.412Z" fill="#2BB9A4"/>
<path d="M1327.66 97.5294C1324.41 97.5294 1321.78 94.8957 1321.78 91.647C1321.78 88.3983 1324.41 85.7646 1327.66 85.7646C1330.91 85.7646 1333.54 88.3983 1333.54 91.647C1333.54 94.8957 1330.91 97.5294 1327.66 97.5294Z" fill="white"/>
</g>
</g>
</svg>
