<svg width="359" height="178" viewBox="0 0 359 178" fill="none" xmlns="http://www.w3.org/2000/svg">
<g opacity="0.5">
<path d="M492 147.417C492 147.417 455.568 60.4774 435.478 60.4774C415.388 60.4774 399.454 135.678 377.727 147.417C356.001 159.156 344.599 152.649 339.636 147.417C334.674 142.184 315.491 104.721 299.088 102.818C282.685 100.915 268.568 126.527 253.625 142.184C232.658 164.154 212.267 139.255 195.874 126.487C179.482 113.72 174.966 110.179 170.981 107.715C157.98 99.6766 150.98 82.6312 117.978 102.818C91.9765 122.566 80.4758 129.215 62.9409 142.184C45.4061 155.154 27.8964 160.233 1.37614 131.139C-25.1441 102.045 -29.3533 102.818 -29.3533 102.818C-29.3533 102.818 -37.7088 88.4761 -57.2334 90.2463C-76.758 92.0165 -81.5046 105.338 -91.9624 114.061C-102.42 122.785 -120.733 134.57 -145.92 114.061C-171.106 93.5528 -186.491 75.5257 -198.89 64.5806C-211.29 53.6354 -236.769 34.9634 -271.99 61.8037C-296.167 83.8674 -296.53 84.1371 -317.722 104.363C-335.806 121.622 -344.102 115.959 -356.186 104.363C-371.922 89.261 -382.819 75.2377 -420 60.4774" stroke="url(#paint0_linear)" stroke-width="3" stroke-linecap="round"/>
<path opacity="0.3" d="M483 171.387C483 171.387 459.944 118.394 439.867 118.394C419.79 118.394 391.585 163.219 369.872 171.387C348.158 179.555 337.871 176.148 325.664 166.873C313.457 157.597 302.762 136.289 286.369 134.964C269.976 133.64 271.019 142.528 241.535 166.873C222.513 179.812 210.501 175.38 196.204 164.549C181.907 153.719 150.421 113.265 150.421 113.265C150.421 113.265 134.759 95.155 114.433 108.152C94.1076 121.149 73.1432 151.187 57.0487 160.344C39.5341 171.387 20.1631 161.843 2.13803 144.528C-15.8871 127.213 -31.9444 113.265 -31.9444 113.265C-31.9444 113.265 -42.7273 97.3728 -62.24 98.6044C-81.7526 99.8361 -81.7115 128.895 -92.163 134.964C-102.614 141.034 -120.916 149.234 -146.087 134.964C-171.258 120.695 -186.633 108.152 -199.025 100.537C-211.417 92.9211 -236.881 79.9294 -272.08 98.6044C-299.6 119.248 -292.229 118.168 -309.429 130.321C-323.408 140.198 -339.009 150.846 -355.24 136.262C-371.471 121.678 -383.341 100.537 -420 97.6816" stroke="url(#paint1_linear)" stroke-width="3" stroke-linecap="round"/>
</g>
<g opacity="0.8">
<path d="M295.218 111.272C290.127 111.272 286 106.958 286 101.636C286 96.3142 290.127 92 295.218 92C300.309 92 304.436 96.3142 304.436 101.636C304.436 106.958 300.309 111.272 295.218 111.272Z" fill="#23DCF5" fill-opacity="0.4"/>
<path d="M295.218 108.06C291.824 108.06 289.072 105.184 289.072 101.636C289.072 98.0881 291.824 95.2119 295.218 95.2119C298.611 95.2119 301.363 98.0881 301.363 101.636C301.363 105.184 298.611 108.06 295.218 108.06Z" fill="#24DAE6" fill-opacity="0.8"/>
<path d="M295.218 104.848C293.521 104.848 292.145 103.41 292.145 101.636C292.145 99.8621 293.521 98.4241 295.218 98.4241C296.915 98.4241 298.291 99.8621 298.291 101.636C298.291 103.41 296.915 104.848 295.218 104.848Z" fill="white"/>
</g>
<g opacity="0.8">
<path d="M145.218 102.272C140.127 102.272 136 97.958 136 92.6361C136 87.3142 140.127 83 145.218 83C150.309 83 154.436 87.3142 154.436 92.6361C154.436 97.958 150.309 102.272 145.218 102.272Z" fill="#23DCF5" fill-opacity="0.4"/>
<path d="M145.218 99.06C141.824 99.06 139.072 96.1839 139.072 92.636C139.072 89.0881 141.824 86.2119 145.218 86.2119C148.611 86.2119 151.363 89.0881 151.363 92.636C151.363 96.1839 148.611 99.06 145.218 99.06Z" fill="#24DAE6" fill-opacity="0.8"/>
<path d="M145.218 95.8481C143.521 95.8481 142.145 94.4101 142.145 92.6361C142.145 90.8621 143.521 89.4241 145.218 89.4241C146.915 89.4241 148.291 90.8621 148.291 92.6361C148.291 94.4101 146.915 95.8481 145.218 95.8481Z" fill="white"/>
</g>
<defs>
<linearGradient id="paint0_linear" x1="382.656" y1="77.9939" x2="382.656" y2="182.3" gradientUnits="userSpaceOnUse">
<stop stop-color="#40BAFF"/>
<stop offset="1" stop-color="#650A51"/>
</linearGradient>
<linearGradient id="paint1_linear" x1="97.2586" y1="-164.953" x2="198.38" y2="246.74" gradientUnits="userSpaceOnUse">
<stop stop-color="#1AB1E0"/>
<stop offset="1" stop-color="#005069"/>
</linearGradient>
</defs>
</svg>
