<svg width="1440" height="360" viewBox="0 0 1440 360" fill="none" xmlns="http://www.w3.org/2000/svg">
	<g opacity="0.5">
		<path d="M-149.979 273.323C-149.979 273.323 -61.4381 83.6864 -22.9795 83.6864C15.4791 83.6864 39.0205 183 53.0205 217C67.0205 251 77.0205 273.323 121.021 251C165.021 228.677 193.021 83.6864 251.021 83.6864C282.695 83.6864 324.415 202.848 353.021 237C393.159 284.922 429.021 217 465.021 148.62C479.561 121 495.021 92 495.021 92C495.021 92 538.087 -8.33326 577.021 32.4117C615.954 73.1567 671.433 278.824 692.373 309.412C713.314 340 739.023 353.105 773.55 298.824C808.077 244.542 848.07 176.042 848.07 176.042C848.07 176.042 864.066 144.759 901.443 148.62C938.819 152.481 947.906 181.539 967.926 200.566C987.946 219.594 1023 245.3 1071.22 200.566C1119.43 155.832 1134.28 141.874 1158.02 118C1181.76 94.126 1247.6 64.4546 1315.02 123C1361.3 171.127 1372.45 190.882 1413.02 235C1447.64 272.647 1471.89 265.294 1495.02 240C1525.15 207.059 1524.73 115.882 1595.9 83.6864" stroke="url(#paint0_linear)" stroke-width="3" stroke-linecap="round"/>
		<path opacity="0.8" d="M-133.508 335.918C-133.508 335.918 -89.3525 220.494 -50.9006 220.494C-12.4486 220.494 31.0068 272 71.0078 311C86.4794 326.085 109.005 346 140.012 326.085C171.019 306.17 200.617 202.884 232.013 200C263.409 197.116 272.475 273.06 328.941 326.085C365.372 354.268 388.377 344.614 415.758 321.024C443.139 297.434 521.021 174 521.021 174C521.021 174 550.093 106.691 589.021 135C627.948 163.309 669.98 310.02 680.016 326.085C690.052 342.15 731.198 379.863 765.719 342.149C800.24 304.435 848.2 239.546 848.2 239.546C848.2 239.546 864.193 217.811 901.563 220.494C938.933 223.177 948.019 243.365 968.035 256.585C988.051 269.805 1023.1 287.666 1071.31 256.585C1119.52 225.505 1157.02 199.4 1199.02 163C1229.02 137 1252.02 100 1286.02 117C1330.02 139 1352.02 206 1384.14 246.471C1405.49 273.374 1449.93 319.765 1481.02 288C1512.11 256.235 1525.69 181.598 1595.9 175.38" stroke="#AD87FF" stroke-width="3" stroke-linecap="round"/>
	</g>
	<g opacity="0.8">
		<path d="M243.647 102.294C253.393 102.294 261.294 94.3933 261.294 84.6471C261.294 74.9009 253.393 67 243.647 67C233.901 67 226 74.9009 226 84.6471C226 94.3933 233.901 102.294 243.647 102.294Z" fill="#2BB7A4" fill-opacity="0.45"/>
		<path d="M243.647 96.4117C250.144 96.4117 255.412 91.1445 255.412 84.647C255.412 78.1496 250.144 72.8823 243.647 72.8823C237.15 72.8823 231.882 78.1496 231.882 84.647C231.882 91.1445 237.15 96.4117 243.647 96.4117Z" fill="#2BB9A4"/>
		<path d="M243.647 90.5294C246.896 90.5294 249.529 87.8957 249.529 84.647C249.529 81.3983 246.896 78.7646 243.647 78.7646C240.398 78.7646 237.765 81.3983 237.765 84.647C237.765 87.8957 240.398 90.5294 243.647 90.5294Z" fill="white"/>
		<animate
			attributeName="opacity"
			attributeType="XML"
	        values="1; .3; 1"
	        begin="0.5s" 
	        dur="4.0s"
	        repeatCount="indefinite"
	    />
	</g>
	<g opacity="0.8">
		<path d="M560.652 40.2941C570.399 40.2941 578.299 32.3933 578.299 22.6471C578.299 12.9009 570.399 5 560.652 5C550.906 5 543.005 12.9009 543.005 22.6471C543.005 32.3933 550.906 40.2941 560.652 40.2941Z" fill="#2BBAA4" fill-opacity="0.46"/>
		<path d="M560.652 34.4117C567.15 34.4117 572.417 29.1445 572.417 22.647C572.417 16.1496 567.15 10.8823 560.652 10.8823C554.155 10.8823 548.888 16.1496 548.888 22.647C548.888 29.1445 554.155 34.4117 560.652 34.4117Z" fill="#2BBCA4"/>
		<path d="M560.652 28.5294C563.901 28.5294 566.535 25.8957 566.535 22.647C566.535 19.3983 563.901 16.7646 560.652 16.7646C557.404 16.7646 554.77 19.3983 554.77 22.647C554.77 25.8957 557.404 28.5294 560.652 28.5294Z" fill="white"/>
		<animate
			attributeName="opacity"
			attributeType="XML"
			values="1; .3; 1"
			begin="2s" 
			dur="4s"
			repeatCount="indefinite"
		/>
	</g>
	<g>
		<path d="M906.652 236.294C916.399 236.294 924.299 228.393 924.299 218.647C924.299 208.901 916.399 201 906.652 201C896.906 201 889.005 208.901 889.005 218.647C889.005 228.393 896.906 236.294 906.652 236.294Z" fill="#2BB8A4" fill-opacity="0.4"/>
		<path d="M906.652 230.412C913.15 230.412 918.417 225.144 918.417 218.647C918.417 212.15 913.15 206.882 906.652 206.882C900.155 206.882 894.888 212.15 894.888 218.647C894.888 225.144 900.155 230.412 906.652 230.412Z" fill="#2BBAA4"/>
		<path d="M906.652 224.529C909.901 224.529 912.535 221.896 912.535 218.647C912.535 215.398 909.901 212.765 906.652 212.765C903.404 212.765 900.77 215.398 900.77 218.647C900.77 221.896 903.404 224.529 906.652 224.529Z" fill="white"/>
		<animate
			attributeName="opacity"
			attributeType="XML"
	        values="1; .2; 1"
		    begin="2s" 
		    dur="4s"
	        repeatCount="indefinite"
	    />
	</g>
	<defs>
		<linearGradient id="paint0_linear" x1="59.3433" y1="132.482" x2="59.3433" y2="360" gradientUnits="userSpaceOnUse">
			<stop stop-color="#1CCFB1"/>
			<stop offset="1" stop-color="#F1904A"/>
			<animate 
				attributeName="x1" 
				attributeType="XML" 
				from="59.3433" 
				to="2000" 
				begin="0s" 
				dur="3s" 
				repeatCount="indefinite"
			/>
		</linearGradient>
	</defs>
</svg>
