<svg width="20" height="20" viewBox="0 0 20 20" fill="none" xmlns="http://www.w3.org/2000/svg">
<g clip-path="url(#clip0)">
<path d="M18.6571 9.02074C17.8189 8.16719 16.7078 7.67305 15.5175 7.62184C15.5119 7.54746 15.5077 7.44496 15.5077 7.30469C15.5077 6.73 15.9447 4.97402 16.2202 4.00219L16.5021 3.00781H13.0809L12.8517 3.37707C12.7608 3.52355 10.6249 7.02547 10.6249 12.3047C10.6249 14.8894 12.7277 16.9922 15.3124 16.9922C17.8971 16.9922 19.9999 14.8894 19.9999 12.3047C19.9999 11.0687 19.523 9.90246 18.6571 9.02074ZM15.3124 15.4297C13.5893 15.4297 12.1874 14.0278 12.1874 12.3047C12.1874 8.425 13.47 5.55336 13.9769 4.57031H14.4507C14.2262 5.4525 13.9452 6.68129 13.9452 7.30469C13.9452 7.79938 13.9819 8.1968 14.1612 8.52852C14.321 8.82398 14.655 9.1759 15.3403 9.17965L15.3744 9.18051C17.0633 9.21324 18.4374 10.6147 18.4374 12.3047C18.4374 14.0278 17.0355 15.4297 15.3124 15.4297Z" fill="white"/>
<path d="M8.03214 9.02074C7.19394 8.16719 6.08277 7.67305 4.8925 7.62184C4.88687 7.54746 4.88269 7.44496 4.88269 7.30469C4.88269 6.73 5.31972 4.97402 5.59523 4.00219L5.87714 3.00781H2.45589L2.22671 3.37707C2.13582 3.52355 -0.00012207 7.02547 -0.00012207 12.3047C-0.00012207 14.8894 2.10269 16.9922 4.68738 16.9922C7.27207 16.9922 9.37488 14.8894 9.37488 12.3047C9.37488 11.0687 8.898 9.90246 8.03214 9.02074ZM4.68738 15.4297C2.96425 15.4297 1.56238 14.0278 1.56238 12.3047C1.56238 8.425 2.84503 5.55336 3.35191 4.57031H3.8257C3.60121 5.4525 3.32019 6.68129 3.32019 7.30469C3.32019 7.79938 3.35691 8.1968 3.53625 8.52852C3.69597 8.82398 4.03003 9.1759 4.71527 9.17965L4.74937 9.18051C6.43832 9.21324 7.81238 10.6147 7.81238 12.3047C7.81238 14.0278 6.4105 15.4297 4.68738 15.4297Z" fill="white"/>
</g>
<defs>
<clipPath id="clip0">
<rect x="-0.00012207" width="20" height="20" fill="white"/>
</clipPath>
</defs>
</svg>
