<svg width="20" height="20" viewBox="0 0 20 20" fill="none" xmlns="http://www.w3.org/2000/svg">
<g clip-path="url(#clip0)">
<path d="M4.68738 3.00781C2.10269 3.00781 -0.00012207 5.11063 -0.00012207 7.69531C-0.00012207 8.93129 0.476753 10.0975 1.34261 10.9793C2.18082 11.8328 3.29199 12.327 4.48226 12.3782C4.48789 12.4525 4.49207 12.555 4.49207 12.6953C4.49207 13.27 4.05503 15.026 3.77953 15.9978L3.49761 16.9922H6.91886L7.14804 16.6229C7.23894 16.4764 9.37488 12.9745 9.37488 7.69531C9.37488 5.11063 7.27207 3.00781 4.68738 3.00781ZM6.02289 15.4297H5.54906C5.77355 14.5475 6.05457 13.3187 6.05457 12.6953C6.05457 12.2006 6.01785 11.8032 5.83851 11.4715C5.67878 11.176 5.34472 10.8241 4.65949 10.8204L4.62539 10.8195C2.93644 10.7868 1.56238 9.38527 1.56238 7.69531C1.56238 5.97219 2.96425 4.57031 4.68738 4.57031C6.4105 4.57031 7.81238 5.97219 7.81238 7.69531C7.81238 11.575 6.52972 14.4466 6.02289 15.4297Z" fill="white"/>
<path d="M15.3124 3.00781C12.7277 3.00781 10.6249 5.11063 10.6249 7.69531C10.6249 8.93129 11.1018 10.0975 11.9676 10.9793C12.8058 11.8328 13.917 12.327 15.1073 12.3782C15.1129 12.4525 15.1171 12.555 15.1171 12.6953C15.1171 13.27 14.68 15.026 14.4045 15.9978L14.1226 16.9922H17.5439L17.773 16.6229C17.8639 16.4764 19.9999 12.9745 19.9999 7.69531C19.9999 5.11063 17.8971 3.00781 15.3124 3.00781ZM16.6479 15.4297H16.1741C16.3985 14.5475 16.6796 13.3187 16.6796 12.6953C16.6796 12.2006 16.6428 11.8032 16.4635 11.4715C16.3038 11.176 15.9697 10.8241 15.2845 10.8204L15.2504 10.8195C13.5614 10.7868 12.1874 9.38527 12.1874 7.69531C12.1874 5.97219 13.5893 4.57031 15.3124 4.57031C17.0355 4.57031 18.4374 5.97219 18.4374 7.69531C18.4374 11.575 17.1547 14.4466 16.6479 15.4297Z" fill="white"/>
</g>
<defs>
<clipPath id="clip0">
<rect x="-0.00012207" width="20" height="20" fill="white"/>
</clipPath>
</defs>
</svg>
