<svg width="20" height="20" viewBox="0 0 20 20" fill="none" xmlns="http://www.w3.org/2000/svg">
<g clip-path="url(#clip0)">
<path d="M14.375 0H5.625C4.59106 0 3.75 0.841061 3.75 1.875V18.125C3.75 19.1589 4.59106 20 5.625 20H14.375C15.4089 20 16.25 19.1589 16.25 18.125V1.875C16.25 0.841061 15.4089 0 14.375 0ZM5.625 1.25H14.375C14.7198 1.25 15 1.53015 15 1.875V15H5V1.875C5 1.53015 5.28015 1.25 5.625 1.25ZM14.375 18.75H5.625C5.28015 18.75 5 18.4698 5 18.125V16.25H15V18.125C15 18.4698 14.7198 18.75 14.375 18.75Z" fill="#C5C5C5"/>
<path d="M10.4419 17.0581C10.686 17.3022 10.686 17.6979 10.4419 17.942C10.1978 18.186 9.80212 18.186 9.55804 17.942C9.31395 17.6979 9.31395 17.3022 9.55804 17.0581C9.80212 16.814 10.1978 16.814 10.4419 17.0581Z" fill="#C5C5C5"/>
</g>
<defs>
<clipPath id="clip0">
<rect width="20" height="20" fill="white"/>
</clipPath>
</defs>
</svg>
