<svg width="20" height="20" viewBox="0 0 20 20" fill="none" xmlns="http://www.w3.org/2000/svg">
<path d="M17.8125 0H2.1875C1.00281 0 0.0390625 0.963745 0.0390625 2.14844V14.3359C0.0390625 15.5206 1.00281 16.4844 2.1875 16.4844H7.07031V18.8281H5.3125C4.98886 18.8281 4.72656 19.0904 4.72656 19.4141C4.72656 19.7377 4.98886 20 5.3125 20H14.6875C15.0111 20 15.2734 19.7377 15.2734 19.4141C15.2734 19.0904 15.0111 18.8281 14.6875 18.8281H12.9297V16.4844H17.8125C18.9972 16.4844 19.9609 15.5206 19.9609 14.3359V2.14844C19.9609 0.963745 18.9972 0 17.8125 0ZM1.21094 2.14844C1.21094 1.60995 1.64902 1.17188 2.1875 1.17188H17.8125C18.351 1.17188 18.7891 1.60995 18.7891 2.14844V11.7969H1.21094V2.14844ZM11.7578 18.8281H8.24219V16.4844H11.7578V18.8281ZM18.7891 14.3359C18.7891 14.8744 18.351 15.3125 17.8125 15.3125H2.1875C1.64902 15.3125 1.21094 14.8744 1.21094 14.3359V12.9688H18.7891V14.3359Z" fill="#C5C5C5"/>
</svg>
