<svg width="36" height="40" viewBox="0 0 36 40" fill="none" xmlns="http://www.w3.org/2000/svg">
<path d="M5.2932 31.3515C5.17273 31.8831 5.10938 32.432 5.10938 32.9688C5.10938 36.8458 8.26359 40 12.1406 40C14.5837 40 16.7393 38.7473 18 36.8509C19.2607 38.7473 21.4163 40 23.8594 40C27.7364 40 30.8906 36.8458 30.8906 32.9688C30.8906 32.432 30.8273 31.8831 30.7068 31.3515C33.5627 30.4369 35.5781 27.7799 35.5781 24.6875C35.5781 22.9282 34.9312 21.2794 33.7684 20C34.9312 18.7206 35.5781 17.0718 35.5781 15.3125C35.5781 12.2201 33.5627 9.56312 30.7068 8.64852C30.8273 8.11687 30.8906 7.56805 30.8906 7.03125C30.8906 3.15422 27.7364 0 23.8594 0C21.4163 0 19.2607 1.25266 18 3.14914C16.7393 1.25266 14.5837 0 12.1406 0C8.26359 0 5.10938 3.15422 5.10938 7.03125C5.10938 7.56805 5.17273 8.11687 5.2932 8.64852C2.43734 9.56312 0.421875 12.2201 0.421875 15.3125C0.421875 17.0718 1.06883 18.7206 2.23164 20C1.06883 21.2794 0.421875 22.9282 0.421875 24.6875C0.421875 27.7799 2.43734 30.4369 5.2932 31.3515ZM28.5391 29.375H26.2031V31.7188H28.3834C28.4889 32.1274 28.5469 32.5579 28.5469 32.9688C28.5469 35.5534 26.4441 37.6562 23.8594 37.6562C21.2747 37.6562 19.1719 35.5534 19.1719 32.9688V28.2031H15.6562C15.0101 28.2031 14.4844 27.6774 14.4844 27.0312C14.4844 26.3851 15.0101 25.8594 15.6562 25.8594H19.1719V21.1719H21.5156V22.3438C21.5156 24.2823 23.0927 25.8594 25.0312 25.8594C26.9698 25.8594 28.5469 24.2823 28.5469 22.3438V21.1719H31.6164C32.6483 22.0669 33.2344 23.3283 33.2344 24.6875C33.2344 29.2923 28.5895 29.3502 28.5391 29.375ZM23.8594 2.34375C26.4441 2.34375 28.5469 4.44656 28.5469 7.03125C28.5469 7.44211 28.4889 7.87258 28.3834 8.28125H26.2031V10.625H28.5391C28.5469 10.6288 33.2344 10.8677 33.2344 15.3125C33.2344 16.6717 32.6483 17.9332 31.6164 18.8281H26.2031V22.3438C26.2031 22.9899 25.6774 23.5156 25.0312 23.5156C24.3851 23.5156 23.8594 22.9899 23.8594 22.3438V18.8281H19.1719V16.4844H20.3438C22.2823 16.4844 23.8594 14.9073 23.8594 12.9688C23.8594 11.0302 22.2823 9.45312 20.3438 9.45312H19.1719V7.03125C19.1719 4.44656 21.2747 2.34375 23.8594 2.34375ZM7.46094 10.625H9.79688V8.28125H7.61664C7.51109 7.87258 7.45312 7.44211 7.45312 7.03125C7.45312 4.44656 9.55594 2.34375 12.1406 2.34375C14.7253 2.34375 16.8281 4.44656 16.8281 7.03125V11.7969H20.3438C20.9899 11.7969 21.5156 12.3226 21.5156 12.9688C21.5156 13.6149 20.9899 14.1406 20.3438 14.1406H16.8281V18.8281H14.4844V17.6562C14.4844 15.7177 12.9073 14.1406 10.9688 14.1406C9.03023 14.1406 7.45312 15.7177 7.45312 17.6562V18.8281H4.38359C3.35172 17.9332 2.76562 16.6717 2.76562 15.3125C2.76562 10.7077 7.41047 10.6498 7.46094 10.625ZM4.38359 21.1719H9.79688V17.6562C9.79688 17.0101 10.3226 16.4844 10.9688 16.4844C11.6149 16.4844 12.1406 17.0101 12.1406 17.6562V21.1719H16.8281V23.5156H15.6562C13.7177 23.5156 12.1406 25.0927 12.1406 27.0312C12.1406 28.9698 13.7177 30.5469 15.6562 30.5469H16.8281V32.9688C16.8281 35.5534 14.7253 37.6562 12.1406 37.6562C9.55594 37.6562 7.45312 35.5534 7.45312 32.9688C7.45312 32.5579 7.51109 32.1274 7.61664 31.7188H9.79688V29.375H7.46094C7.45312 29.3712 2.76562 29.1323 2.76562 24.6875C2.76562 23.3283 3.35172 22.0669 4.38359 21.1719Z" fill="url(#paint0_linear)"/>
<defs>
<linearGradient id="paint0_linear" x1="18" y1="0" x2="18" y2="40" gradientUnits="userSpaceOnUse">
<stop stop-color="#3CDDC0"/>
<stop offset="1" stop-color="#6851F1"/>
</linearGradient>
</defs>
</svg>
