<svg width="780" height="470" viewBox="0 0 780 470" fill="none" xmlns="http://www.w3.org/2000/svg">
<circle cx="531" cy="249" r="195" fill="white" fill-opacity="0.6"/>
<circle cx="714" cy="386" r="66" fill="white" fill-opacity="0.6"/>
<path d="M664.035 174.557C676.232 195.682 682.018 217.251 683.295 241.611C684.571 265.972 680.065 290.289 670.143 312.574C660.221 334.859 645.166 354.479 626.208 369.83C607.25 385.182 589.039 394.431 565.178 399.503L560.15 396.584L564.092 391.961C586.59 387.179 602.778 377.446 620.653 362.971C638.528 348.496 652.724 329.996 662.079 308.984C671.435 287.971 675.684 265.043 674.481 242.073C673.277 219.104 667.877 198.898 656.377 178.978L661.821 179.919L664.035 174.557Z" fill="#FFBC31"/>
<path d="M561.102 400.224C529.167 406.991 495.781 404.172 465.968 390.876C436.155 377.58 411.316 355.187 395.013 326.906C378.709 298.626 371.776 265.91 375.209 233.447C378.642 200.985 391.317 172.498 413.175 148.253L418.655 147.132L418.986 152.658C398.376 175.519 387.223 203.766 383.986 234.375C380.75 264.984 387.286 295.832 402.659 322.498C418.032 349.163 441.452 370.278 469.563 382.815C497.674 395.352 529.598 399.24 559.709 392.859L556.175 397.35L561.102 400.224Z" fill="#FF4E83"/>
<path d="M415.225 145.435C431.363 127.143 449.39 114.933 472.074 105.96C494.758 96.9877 516.993 94.0451 541.277 96.3489L545.333 100.543L540.125 103.549C517.227 101.377 496.709 105.708 475.32 114.168C453.932 122.628 436.607 133.205 421.39 150.454L421.317 143.96L415.225 145.435Z" fill="#00C297"/>
<path d="M544.283 95.8671C568.547 98.2867 591.895 106.415 612.416 119.586C632.938 132.758 650.051 150.6 662.355 171.652L660.23 177.164L654.738 176.105C643.136 156.254 627 139.431 607.65 127.012C588.301 114.592 566.286 106.928 543.407 104.647L549.691 101.019L544.283 95.8671Z" fill="#AB34F4"/>
<circle cx="238.752" cy="228.752" r="116.673" transform="rotate(45 238.752 228.752)" fill="white" fill-opacity="0.6"/>
<path d="M304.157 165.908C314.212 175.964 320.725 187.236 325.119 200.76C329.513 214.285 330.645 228.658 328.42 242.703C326.195 256.749 320.678 270.069 312.319 281.573C303.961 293.078 295.102 301.034 282.431 307.49L279.159 306.605L280.681 303.407C292.629 297.32 300.275 289.397 308.157 278.549C316.038 267.701 321.24 255.142 323.338 241.898C325.435 228.655 324.369 215.103 320.225 202.35C316.082 189.598 309.993 179.035 300.511 169.553L303.719 169.262L304.157 165.908Z" fill="#FFBC31"/>
<path d="M280.244 308.511C263.283 317.139 244.058 320.589 225.265 317.601C206.471 314.612 189.106 305.75 175.658 292.285C162.211 278.821 153.371 261.444 150.406 242.647C147.441 223.85 150.28 205.896 158.93 188.946L161.846 187.488L162.867 190.55C154.711 206.533 152.693 224.121 155.488 241.845C158.284 259.569 166.619 275.954 179.299 288.649C191.979 301.345 208.352 309.701 226.073 312.519C243.793 315.337 262.356 312.71 278.349 304.574L277.037 307.636L280.244 308.511Z" fill="#FF4E83"/>
<path d="M159.659 187.05C165.986 174.315 174.294 164.72 185.714 156.245C197.133 147.77 209.21 142.758 223.232 140.391L226.148 142.141L223.669 144.62C210.448 146.851 199.548 152.386 188.78 160.377C178.013 168.368 169.853 176.938 163.887 188.946L162.867 185.301L159.659 187.05Z" fill="#00C297"/>
<path d="M224.852 139.666C238.88 137.368 253.253 138.422 266.796 142.742C280.339 147.063 292.667 154.528 302.772 164.526L302.407 167.95L299.155 168.182C289.627 158.755 278.002 151.716 265.233 147.643C252.463 143.569 238.911 142.575 225.683 144.742L228.674 141.751L224.852 139.666Z" fill="#AB34F4"/>
<circle cx="85.5" cy="331.5" r="85.5" fill="white" fill-opacity="0.6"/>
<path d="M56.6291 323.54C52.3651 323.54 49.4531 324.97 49.4531 328.766C49.4531 333.55 52.8331 333.966 57.4611 335.344C58.9431 335.786 59.4631 336.098 59.4631 337.164C59.4631 337.684 59.1771 338.776 56.6291 338.776C54.8351 338.776 51.8191 338.256 50.0251 337.71L49.5311 341.116C51.3511 341.844 54.2111 342.26 56.6031 342.26C60.7371 342.26 63.9611 340.882 63.9611 336.852C63.9611 331.756 60.2691 331.574 55.6931 330.04C54.6011 329.676 53.9511 329.312 53.9511 328.454C53.9511 327.518 54.7051 326.894 56.8891 326.894C58.3971 326.894 60.9191 327.258 62.8691 327.804L63.3631 324.398C61.4391 323.904 59.1771 323.54 56.6291 323.54ZM65.3064 331.808H67.1264V338.282C67.1264 341.22 68.5304 342.26 71.7284 342.26C73.4184 342.26 74.7964 341.922 75.4464 341.74L74.9524 339.166C74.1984 339.348 73.6784 339.426 72.7684 339.426C71.8064 339.426 71.2864 338.854 71.2864 337.528V331.808H74.9264V329H71.2864V325.36L67.1264 325.776V329H65.3064V331.808ZM88.2262 338.802C86.9522 339.166 84.6382 339.478 83.2862 339.478C81.6222 339.478 80.3222 339.296 80.3222 337.268V336.462H88.9802V333.914C88.9802 329.884 85.9122 328.74 82.6102 328.74C78.1902 328.74 76.1362 330.768 76.1362 334.85V336.982C76.1362 341.22 79.4382 342.26 82.8182 342.26C85.0282 342.26 87.0042 341.948 88.6422 341.558L88.2262 338.802ZM80.3222 333.888C80.3222 331.886 81.0242 331.314 82.6102 331.314C84.1962 331.314 85.1062 331.808 85.1062 333.706V334.33H80.3222V333.888ZM95.261 347.2V341.116C96.197 341.506 97.237 342.104 99.187 342.104C102.463 342.104 104.231 340.388 104.231 335.5C104.231 330.534 102.385 328.636 99.187 328.636C97.237 328.636 95.911 329.468 95.261 329.884V329H91.101V347.2H95.261ZM97.081 331.678C98.693 331.678 100.045 332.432 100.045 335.5C100.045 338.516 98.771 339.296 97.419 339.296C96.483 339.296 95.781 339.01 95.261 338.802V332.198C95.677 331.99 96.275 331.678 97.081 331.678ZM115.397 330.248L116.541 333.628L121.741 329.208V342H126.213V323.8H122.287L115.397 330.248Z" fill="#4A4A4A"/>
<path d="M191.159 216.28C185.911 216.28 182.327 218.04 182.327 222.712C182.327 228.6 186.487 229.112 192.183 230.808C194.007 231.352 194.647 231.736 194.647 233.048C194.647 233.688 194.295 235.032 191.159 235.032C188.951 235.032 185.239 234.392 183.031 233.72L182.423 237.912C184.663 238.808 188.183 239.32 191.127 239.32C196.215 239.32 200.183 237.624 200.183 232.664C200.183 226.392 195.639 226.168 190.007 224.28C188.663 223.832 187.863 223.384 187.863 222.328C187.863 221.176 188.791 220.408 191.479 220.408C193.335 220.408 196.439 220.856 198.839 221.528L199.447 217.336C197.079 216.728 194.295 216.28 191.159 216.28ZM201.839 226.456H204.079V234.424C204.079 238.04 205.807 239.32 209.743 239.32C211.823 239.32 213.519 238.904 214.319 238.68L213.711 235.512C212.783 235.736 212.143 235.832 211.023 235.832C209.839 235.832 209.199 235.128 209.199 233.496V226.456H213.679V223H209.199V218.52L204.079 219.032V223H201.839V226.456ZM230.048 235.064C228.48 235.512 225.632 235.896 223.968 235.896C221.92 235.896 220.32 235.672 220.32 233.176V232.184H230.976V229.048C230.976 224.088 227.2 222.68 223.136 222.68C217.696 222.68 215.168 225.176 215.168 230.2V232.824C215.168 238.04 219.232 239.32 223.392 239.32C226.112 239.32 228.544 238.936 230.56 238.456L230.048 235.064ZM220.32 229.016C220.32 226.552 221.184 225.848 223.136 225.848C225.088 225.848 226.208 226.456 226.208 228.792V229.56H220.32V229.016ZM238.706 245.4V237.912C239.858 238.392 241.138 239.128 243.538 239.128C247.57 239.128 249.746 237.016 249.746 231C249.746 224.888 247.474 222.552 243.538 222.552C241.138 222.552 239.506 223.576 238.706 224.088V223H233.586V245.4H238.706ZM240.946 226.296C242.93 226.296 244.594 227.224 244.594 231C244.594 234.712 243.026 235.672 241.362 235.672C240.21 235.672 239.346 235.32 238.706 235.064V226.936C239.218 226.68 239.954 226.296 240.946 226.296ZM269.824 216.28C266.688 216.28 263.552 216.952 261.728 217.624L262.656 222.008C264.928 221.24 266.88 220.696 269.504 220.696C271.936 220.696 273.184 221.656 273.184 223.096C273.184 225.048 269.472 226.328 267.456 227.32C263.456 229.304 261.376 231 261.376 237.592V239H278.912V234.648H267.072C267.072 232.28 269.312 231.064 271.616 230.008C274.912 228.504 278.72 226.904 278.72 222.424C278.72 217.464 274.72 216.28 269.824 216.28Z" fill="#4A4A4A"/>
<path d="M468.248 226.5C460.048 226.5 454.448 229.25 454.448 236.55C454.448 245.75 460.948 246.55 469.848 249.2C472.698 250.05 473.698 250.65 473.698 252.7C473.698 253.7 473.148 255.8 468.248 255.8C464.798 255.8 458.998 254.8 455.548 253.75L454.598 260.3C458.098 261.7 463.598 262.5 468.198 262.5C476.148 262.5 482.348 259.85 482.348 252.1C482.348 242.3 475.248 241.95 466.448 239C464.348 238.3 463.098 237.6 463.098 235.95C463.098 234.15 464.548 232.95 468.748 232.95C471.648 232.95 476.498 233.65 480.248 234.7L481.198 228.15C477.498 227.2 473.148 226.5 468.248 226.5ZM484.935 242.4H488.435V254.85C488.435 260.5 491.135 262.5 497.285 262.5C500.535 262.5 503.185 261.85 504.435 261.5L503.485 256.55C502.035 256.9 501.035 257.05 499.285 257.05C497.435 257.05 496.435 255.95 496.435 253.4V242.4H503.435V237H496.435V230L488.435 230.8V237H484.935V242.4ZM529.012 255.85C526.562 256.55 522.112 257.15 519.512 257.15C516.312 257.15 513.812 256.8 513.812 252.9V251.35H530.462V246.45C530.462 238.7 524.562 236.5 518.212 236.5C509.712 236.5 505.762 240.4 505.762 248.25V252.35C505.762 260.5 512.112 262.5 518.612 262.5C522.862 262.5 526.662 261.9 529.812 261.15L529.012 255.85ZM513.812 246.4C513.812 242.55 515.162 241.45 518.212 241.45C521.262 241.45 523.012 242.4 523.012 246.05V247.25H513.812V246.4ZM542.54 272V260.3C544.34 261.05 546.34 262.2 550.09 262.2C556.39 262.2 559.79 258.9 559.79 249.5C559.79 239.95 556.24 236.3 550.09 236.3C546.34 236.3 543.79 237.9 542.54 238.7V237H534.54V272H542.54ZM546.04 242.15C549.14 242.15 551.74 243.6 551.74 249.5C551.74 255.3 549.29 256.8 546.69 256.8C544.89 256.8 543.54 256.25 542.54 255.85V243.15C543.34 242.75 544.49 242.15 546.04 242.15ZM577.863 260.9C578.963 261.4 584.713 262.5 588.563 262.5C598.263 262.5 605.463 260.85 605.463 252.2C605.463 246 602.013 243.9 597.663 242.7C600.813 241.7 603.513 239.45 603.513 235C603.513 228.15 597.963 226.5 589.063 226.5C585.463 226.5 580.013 227.3 578.213 227.95L579.563 234.5C581.813 233.85 586.413 233.5 589.163 233.5C592.913 233.5 595.113 234.35 595.113 237.05C595.113 239.75 592.763 241.1 589.263 241.1H584.263L585.213 246.5H588.913C592.213 246.5 596.763 246.85 596.763 251.3C596.763 254.85 593.613 255.5 589.163 255.5C585.463 255.5 581.063 254.75 578.913 254.3L577.863 260.9Z" fill="#4A4A4A"/>
<path d="M687.109 378.38C683.501 378.38 681.037 379.59 681.037 382.802C681.037 386.85 683.897 387.202 687.813 388.368C689.067 388.742 689.507 389.006 689.507 389.908C689.507 390.348 689.265 391.272 687.109 391.272C685.591 391.272 683.039 390.832 681.521 390.37L681.103 393.252C682.643 393.868 685.063 394.22 687.087 394.22C690.585 394.22 693.313 393.054 693.313 389.644C693.313 385.332 690.189 385.178 686.317 383.88C685.393 383.572 684.843 383.264 684.843 382.538C684.843 381.746 685.481 381.218 687.329 381.218C688.605 381.218 690.739 381.526 692.389 381.988L692.807 379.106C691.179 378.688 689.265 378.38 687.109 378.38ZM694.452 385.376H695.992V390.854C695.992 393.34 697.18 394.22 699.886 394.22C701.316 394.22 702.482 393.934 703.032 393.78L702.614 391.602C701.976 391.756 701.536 391.822 700.766 391.822C699.952 391.822 699.512 391.338 699.512 390.216V385.376H702.592V383H699.512V379.92L695.992 380.272V383H694.452V385.376ZM713.845 391.294C712.767 391.602 710.809 391.866 709.665 391.866C708.257 391.866 707.157 391.712 707.157 389.996V389.314H714.483V387.158C714.483 383.748 711.887 382.78 709.093 382.78C705.353 382.78 703.615 384.496 703.615 387.95V389.754C703.615 393.34 706.409 394.22 709.269 394.22C711.139 394.22 712.811 393.956 714.197 393.626L713.845 391.294ZM707.157 387.136C707.157 385.442 707.751 384.958 709.093 384.958C710.435 384.958 711.205 385.376 711.205 386.982V387.51H707.157V387.136ZM719.798 398.4V393.252C720.59 393.582 721.47 394.088 723.12 394.088C725.892 394.088 727.388 392.636 727.388 388.5C727.388 384.298 725.826 382.692 723.12 382.692C721.47 382.692 720.348 383.396 719.798 383.748V383H716.278V398.4H719.798ZM721.338 385.266C722.702 385.266 723.846 385.904 723.846 388.5C723.846 391.052 722.768 391.712 721.624 391.712C720.832 391.712 720.238 391.47 719.798 391.294V385.706C720.15 385.53 720.656 385.266 721.338 385.266ZM741.852 378.6L734.878 388.192V390.92H742.358V394H746.142V390.92H747.484L747.946 387.906H746.142V378.6H741.852ZM742.358 382.142V387.884H738.266L742.358 382.142Z" fill="#4A4A4A"/>
</svg>
