<svg width="40" height="40" viewBox="0 0 40 40" fill="none" xmlns="http://www.w3.org/2000/svg">
<path d="M33.9853 13.8657C33.9853 13.8739 33.9841 13.8815 33.9841 13.8895C33.978 17.6263 32.5464 20.177 31.2985 21.9824C30.9952 22.421 30.5075 22.6566 30.0119 22.6566C29.7055 22.6566 29.3961 22.5668 29.1248 22.3792C28.4149 21.8887 28.2373 20.9155 28.728 20.2057C30.2219 18.0441 30.8594 16.1481 30.8594 13.8657C30.8594 13.8608 30.86 13.8562 30.8603 13.8513C30.8563 10.9805 29.7296 8.28339 27.6859 6.25458C25.6506 4.23462 22.9578 3.125 20.0955 3.125C20.0681 3.125 20.0409 3.12531 20.0134 3.12531C20.0058 3.12561 19.9982 3.12561 19.9905 3.12531C17.0688 3.10547 14.3173 4.22943 12.2366 6.29456C10.1892 8.32703 9.06158 11.0159 9.06158 13.8657C9.06158 17.6996 10.9921 20.0882 13.0359 22.6169C14.7385 24.7232 16.4896 26.8912 16.9763 29.8367H18.9062C19.7693 29.8367 20.4688 30.5362 20.4688 31.3992C20.4688 32.262 19.7693 32.9617 18.9062 32.9617H17.1094V35.5972C17.1094 36.3019 17.6718 36.875 18.3633 36.875H21.5585C22.2504 36.875 22.8134 36.3016 22.8134 35.5972V31.4883C22.8134 31.4822 22.8125 31.4761 22.8125 31.47C22.8125 31.452 22.8134 31.434 22.8134 31.4157V31.3281C22.8134 31.3132 22.8152 31.2988 22.8156 31.2842C22.8479 29.5367 23.3347 27.8635 24.3039 26.1752C24.7336 25.4266 25.6885 25.1685 26.4368 25.5978C27.1854 26.0275 27.4435 26.9827 27.0139 27.731C26.29 28.9923 25.9479 30.1648 25.9384 31.416V35.5972C25.9384 38.0249 23.9737 40 21.5585 40H18.3633C15.9488 40 13.9844 38.0249 13.9844 35.5972V31.47C13.9844 28.7616 12.4185 26.8243 10.6055 24.5813C8.41705 21.8735 5.93658 18.8046 5.93658 13.866C5.93658 10.1767 7.39197 6.70044 10.0348 4.07684C12.6859 1.44562 16.1884 0 19.9072 0C19.939 0 19.9701 0.000305176 20.0018 0.000305176C20.0333 0.000305176 20.065 0 20.0961 0C23.7891 0 27.2623 1.43097 29.8874 4.03687C32.5299 6.65985 33.9853 10.1508 33.9853 13.8657ZM38.4375 12.4219C37.5745 12.4219 36.875 13.1213 36.875 13.9844C36.875 14.8474 37.5745 15.5469 38.4375 15.5469C39.3005 15.5469 40 14.8474 40 13.9844C40 13.1213 39.3005 12.4219 38.4375 12.4219ZM36.4844 20.8594C35.6213 20.8594 34.9219 21.5588 34.9219 22.4219C34.9219 23.2849 35.6213 23.9844 36.4844 23.9844C37.3474 23.9844 38.0469 23.2849 38.0469 22.4219C38.0469 21.5588 37.3474 20.8594 36.4844 20.8594ZM36.4062 6.875C37.2693 6.875 37.9688 6.17554 37.9688 5.3125C37.9688 4.44946 37.2693 3.75 36.4062 3.75C35.5432 3.75 34.8438 4.44946 34.8438 5.3125C34.8438 6.17554 35.5432 6.875 36.4062 6.875ZM3.125 13.9844C3.125 13.1213 2.42554 12.4219 1.5625 12.4219C0.699463 12.4219 0 13.1213 0 13.9844C0 14.8474 0.699463 15.5469 1.5625 15.5469C2.42554 15.5469 3.125 14.8474 3.125 13.9844ZM3.4375 20.8594C2.57446 20.8594 1.875 21.5588 1.875 22.4219C1.875 23.2849 2.57446 23.9844 3.4375 23.9844C4.30054 23.9844 5 23.2849 5 22.4219C5 21.5588 4.30054 20.8594 3.4375 20.8594ZM3.51562 3.75C2.65259 3.75 1.95312 4.44946 1.95312 5.3125C1.95312 6.17554 2.65259 6.875 3.51562 6.875C4.37866 6.875 5.07812 6.17554 5.07812 5.3125C5.07812 4.44946 4.37866 3.75 3.51562 3.75ZM19.9225 23.5938C19.0598 23.5938 18.36 24.2932 18.36 25.1562C18.36 26.0193 19.0598 26.7188 19.9225 26.7188C20.7855 26.7188 21.485 26.0193 21.485 25.1562C21.485 24.2932 20.7855 23.5938 19.9225 23.5938ZM22.4362 18.6044C24.801 17.5949 26.3287 15.2811 26.3281 12.71C26.3281 12.6868 26.3275 12.6639 26.3266 12.641C26.2894 9.14124 23.4308 6.30585 19.9225 6.30585C18.2132 6.30585 16.6077 6.95923 15.4025 8.14606C14.1873 9.34265 13.5181 10.9442 13.5181 12.6562C13.5181 13.5193 14.2175 14.2188 15.0806 14.2188C15.9436 14.2188 16.6431 13.5193 16.6431 12.6562C16.6431 10.8475 18.0835 9.43085 19.9225 9.43085C21.7307 9.43085 23.2019 10.9021 23.2019 12.7103C23.2019 12.7271 23.2022 12.7435 23.2028 12.7603C23.1836 14.0576 22.4054 15.2197 21.2091 15.7306C19.4785 16.4694 18.36 18.1772 18.36 20.0812C18.36 20.9442 19.0594 21.6437 19.9225 21.6437C20.7855 21.6437 21.485 20.9442 21.485 20.0812C21.485 19.4308 21.8585 18.851 22.4362 18.6044Z" fill="url(#paint0_linear)"/>
<defs>
<linearGradient id="paint0_linear" x1="20" y1="0" x2="20" y2="40" gradientUnits="userSpaceOnUse">
<stop stop-color="#0EB5A4"/>
<stop offset="1" stop-color="#3139B4"/>
</linearGradient>
</defs>
</svg>
