<svg width="37" height="36" viewBox="0 0 37 36" fill="none" xmlns="http://www.w3.org/2000/svg">
<g clip-path="url(#clip0)">
<path d="M32.8516 0C32.341 0 3.68835 0 3.17969 0C1.43506 0 0.015625 1.41943 0.015625 3.16406V4.77109C0.015625 7.37402 0.911011 9.92697 2.53726 11.9594C3.88968 13.65 5.81339 14.9741 7.95407 15.6877L9.07193 16.0601C10.3702 18.1755 12.4066 19.8051 14.8516 20.579V22.2188C14.8516 22.8002 14.3783 23.2734 13.7969 23.2734C12.0522 23.2734 10.6328 24.6929 10.6328 26.4375V27.4922H9.57812C8.99557 27.4922 8.52344 27.9643 8.52344 28.5469V33.8906H7.46875C6.8862 33.8906 6.41406 34.3628 6.41406 34.9453C6.41406 35.5279 6.8862 36 7.46875 36H28.5625C29.1451 36 29.6172 35.5279 29.6172 34.9453C29.6172 34.3628 29.1451 33.8906 28.5625 33.8906H27.5078V28.5469C27.5078 27.9643 27.0357 27.4922 26.4531 27.4922H25.3984V26.4375C25.3984 24.6929 23.979 23.2734 22.2344 23.2734C21.6529 23.2734 21.1797 22.8002 21.1797 22.2188V20.579C23.6219 19.8059 25.6563 18.1794 26.9549 16.0672L28.1338 15.692C28.1382 15.6907 28.1428 15.689 28.1472 15.6877C30.2563 14.9845 32.1053 13.6953 33.494 11.9594C35.1202 9.92697 36.0156 7.37402 36.0156 4.77109V3.16406C36.0156 1.41943 34.5962 0 32.8516 0ZM4.18439 10.6416C2.85641 8.9816 2.125 6.89694 2.125 4.77109V3.16406C2.125 2.58261 2.59824 2.10938 3.17969 2.10938H6.52475L7.59811 11.7697C7.66101 12.3346 7.7706 12.8864 7.92056 13.422C6.44565 12.8021 5.13745 11.8328 4.18439 10.6416ZM10.6328 33.8906V29.6016H25.3984V33.8906H10.6328ZM19.8885 18.7465C19.4095 18.8567 19.0703 19.2829 19.0703 19.7743V22.2188C19.0703 23.9634 20.4897 25.3828 22.2344 25.3828C22.8158 25.3828 23.2891 25.856 23.2891 26.4375V27.4922H12.7422V26.4375C12.7422 25.856 13.2154 25.3828 13.7969 25.3828C15.5415 25.3828 16.9609 23.9634 16.9609 22.2188V19.7743C16.9609 19.2829 16.6217 18.8567 16.1427 18.7465C12.6763 17.9489 10.0851 15.0515 9.69458 11.5367L8.64703 2.10938H27.3842L26.3367 11.5367C25.9461 15.0515 23.355 17.9489 19.8885 18.7465ZM33.9062 4.77109C33.9062 6.89694 33.1748 8.9816 31.8469 10.6416C30.8512 11.8864 29.5658 12.8493 28.1013 13.4547C28.2563 12.9087 28.3689 12.3462 28.4331 11.7697L29.5065 2.10938H32.8516C33.433 2.10938 33.9062 2.58261 33.9062 3.16406V4.77109Z" fill="url(#paint0_linear)"/>
<path d="M22.3824 7.22186L20.0124 6.88568L18.9569 4.79773C18.7776 4.4426 18.4134 4.21875 18.0157 4.21875C17.6179 4.21875 17.2537 4.4426 17.0744 4.79773L16.0189 6.88568L13.6486 7.22186C13.2484 7.27872 12.9158 7.55942 12.7925 7.94449C12.6692 8.32956 12.7768 8.75143 13.0696 9.02994L14.7697 10.6479L14.3696 12.9257C14.3004 13.3201 14.4602 13.7197 14.7824 13.9573C15.1054 14.1952 15.5344 14.2289 15.8898 14.0466L18.0157 12.9554L20.1412 14.0466C20.4975 14.2295 20.9265 14.1949 21.2487 13.9573C21.5711 13.7195 21.731 13.3201 21.6617 12.9257L21.2616 10.6479L22.9614 9.02994C23.2545 8.75116 23.3621 8.32956 23.2388 7.94449C23.1155 7.55942 22.7829 7.27872 22.3824 7.22186ZM19.398 9.50949C19.142 9.75311 19.025 10.1082 19.0863 10.4562L19.217 11.2011L18.4971 10.8317C18.195 10.6765 17.8363 10.6765 17.5339 10.8317L16.814 11.2011L16.945 10.4562C17.006 10.1082 16.889 9.75311 16.6333 9.50949L16.1024 9.00439L16.8602 8.89673C17.2016 8.84839 17.4976 8.63608 17.6531 8.32846L18.0157 7.61133L18.3779 8.32819C18.5337 8.63608 18.8297 8.84839 19.1711 8.89673L19.9289 9.00412L19.398 9.50949Z" fill="url(#paint1_linear)"/>
</g>
<defs>
<linearGradient id="paint0_linear" x1="18.0156" y1="0" x2="18.0156" y2="36" gradientUnits="userSpaceOnUse">
<stop stop-color="#0EBC84"/>
<stop offset="1" stop-color="#0A859D"/>
</linearGradient>
<linearGradient id="paint1_linear" x1="18.0156" y1="4.21875" x2="18.0156" y2="14.163" gradientUnits="userSpaceOnUse">
<stop stop-color="#0EB5A4"/>
<stop offset="1" stop-color="#3822B7"/>
</linearGradient>
<clipPath id="clip0">
<rect x="0.015625" width="36" height="36" fill="white"/>
</clipPath>
</defs>
</svg>
