<svg width="379" height="50" viewBox="0 0 379 50" fill="none" xmlns="http://www.w3.org/2000/svg">
<path d="M13.0078 0.120117V3.48012C5.83978 3.59212 0.0717773 6.61612 0.0717773 15.2401C0.0717773 23.2481 6.23178 26.1041 13.0078 26.6641V33.3281C9.14378 33.2721 4.15978 32.7681 1.47178 31.8721L0.351778 39.6561C3.59978 40.8321 8.41578 41.5041 13.0078 41.5601V45.4801H19.1678V41.5601C27.1198 41.2241 31.9358 38.0881 31.9358 29.7441C31.9358 21.1761 26.0558 18.0961 19.1678 17.5361V11.1521C22.6398 11.2081 26.7278 11.7681 29.5838 12.4401L30.7038 5.10412C27.3438 4.26412 23.5358 3.64812 19.1678 3.48012V0.120117H13.0078ZM20.1758 27.1121C22.0238 27.1681 23.1438 28.4561 23.1438 30.3601C23.1438 31.4241 22.8078 33.1601 19.1678 33.3281V27.1681C19.5038 27.1121 19.8398 27.1121 20.1758 27.1121ZM11.8318 16.8641C10.0958 16.4161 9.03178 15.4081 9.03178 13.8401C9.03178 12.2161 10.0398 11.2641 13.0078 11.1521V16.9761C12.6158 16.9761 12.2238 16.9201 11.8318 16.8641Z" fill="url(#paint0_linear)"/>
<path d="M41.4868 15.6321L44.1188 23.8641L55.0388 14.9041V41.0001H65.9028V1.80012H56.4388L41.4868 15.6321Z" fill="url(#paint1_linear)"/>
<path d="M74.9547 24.7601C74.9547 36.3521 81.7867 41.5601 92.4267 41.5601C103.179 41.5601 109.899 36.2401 109.899 24.7601V18.4321C109.899 6.78412 103.011 1.24012 92.4267 1.24012C81.8987 1.24012 74.9547 6.84012 74.9547 18.4321V24.7601ZM92.4267 9.58412C96.9627 9.58412 98.6427 13.3921 98.6427 17.8161V25.0401C98.6427 29.9681 96.9627 33.2161 92.4267 33.2161C87.8907 33.2161 86.2107 29.9681 86.2107 25.0401V17.7601C86.2107 13.4481 87.8907 9.58412 92.4267 9.58412Z" fill="url(#paint2_linear)"/>
<path d="M115.143 31.2561V41.0001H118.783C118.783 43.6881 117.719 45.8721 116.151 47.6641L119.679 49.6241C122.927 47.2161 126.343 42.1201 126.343 37.1921V31.2561H115.143Z" fill="url(#paint3_linear)"/>
<path d="M131.583 24.7601C131.583 36.3521 138.415 41.5601 149.055 41.5601C159.807 41.5601 166.527 36.2401 166.527 24.7601V18.4321C166.527 6.78412 159.639 1.24012 149.055 1.24012C138.527 1.24012 131.583 6.84012 131.583 18.4321V24.7601ZM149.055 9.58412C153.591 9.58412 155.271 13.3921 155.271 17.8161V25.0401C155.271 29.9681 153.591 33.2161 149.055 33.2161C144.519 33.2161 142.839 29.9681 142.839 25.0401V17.7601C142.839 13.4481 144.519 9.58412 149.055 9.58412Z" fill="url(#paint4_linear)"/>
<path d="M170.314 24.7601C170.314 36.3521 177.146 41.5601 187.786 41.5601C198.538 41.5601 205.258 36.2401 205.258 24.7601V18.4321C205.258 6.78412 198.37 1.24012 187.786 1.24012C177.258 1.24012 170.314 6.84012 170.314 18.4321V24.7601ZM187.786 9.58412C192.322 9.58412 194.002 13.3921 194.002 17.8161V25.0401C194.002 29.9681 192.322 33.2161 187.786 33.2161C183.25 33.2161 181.57 29.9681 181.57 25.0401V17.7601C181.57 13.4481 183.25 9.58412 187.786 9.58412Z" fill="url(#paint5_linear)"/>
<path d="M209.046 24.7601C209.046 36.3521 215.878 41.5601 226.518 41.5601C237.27 41.5601 243.99 36.2401 243.99 24.7601V18.4321C243.99 6.78412 237.102 1.24012 226.518 1.24012C215.99 1.24012 209.046 6.84012 209.046 18.4321V24.7601ZM226.518 9.58412C231.054 9.58412 232.734 13.3921 232.734 17.8161V25.0401C232.734 29.9681 231.054 33.2161 226.518 33.2161C221.982 33.2161 220.302 29.9681 220.302 25.0401V17.7601C220.302 13.4481 221.982 9.58412 226.518 9.58412Z" fill="url(#paint6_linear)"/>
<path d="M249.234 31.2561V41.0001H252.874C252.874 43.6881 251.81 45.8721 250.242 47.6641L253.77 49.6241C257.018 47.2161 260.434 42.1201 260.434 37.1921V31.2561H249.234Z" fill="url(#paint7_linear)"/>
<path d="M265.674 24.7601C265.674 36.3521 272.506 41.5601 283.146 41.5601C293.898 41.5601 300.618 36.2401 300.618 24.7601V18.4321C300.618 6.78412 293.73 1.24012 283.146 1.24012C272.618 1.24012 265.674 6.84012 265.674 18.4321V24.7601ZM283.146 9.58412C287.682 9.58412 289.362 13.3921 289.362 17.8161V25.0401C289.362 29.9681 287.682 33.2161 283.146 33.2161C278.61 33.2161 276.93 29.9681 276.93 25.0401V17.7601C276.93 13.4481 278.61 9.58412 283.146 9.58412Z" fill="url(#paint8_linear)"/>
<path d="M304.406 24.7601C304.406 36.3521 311.238 41.5601 321.878 41.5601C332.63 41.5601 339.35 36.2401 339.35 24.7601V18.4321C339.35 6.78412 332.462 1.24012 321.878 1.24012C311.35 1.24012 304.406 6.84012 304.406 18.4321V24.7601ZM321.878 9.58412C326.414 9.58412 328.094 13.3921 328.094 17.8161V25.0401C328.094 29.9681 326.414 33.2161 321.878 33.2161C317.342 33.2161 315.662 29.9681 315.662 25.0401V17.7601C315.662 13.4481 317.342 9.58412 321.878 9.58412Z" fill="url(#paint9_linear)"/>
<path d="M343.138 24.7601C343.138 36.3521 349.97 41.5601 360.61 41.5601C371.362 41.5601 378.082 36.2401 378.082 24.7601V18.4321C378.082 6.78412 371.194 1.24012 360.61 1.24012C350.082 1.24012 343.138 6.84012 343.138 18.4321V24.7601ZM360.61 9.58412C365.146 9.58412 366.826 13.3921 366.826 17.8161V25.0401C366.826 29.9681 365.146 33.2161 360.61 33.2161C356.074 33.2161 354.394 29.9681 354.394 25.0401V17.7601C354.394 13.4481 356.074 9.58412 360.61 9.58412Z" fill="url(#paint10_linear)"/>
<defs>
<linearGradient id="paint0_linear" x1="189.077" y1="0.120117" x2="189.077" y2="49.6241" gradientUnits="userSpaceOnUse">
<stop stop-color="#2DCCC6"/>
<stop offset="1" stop-color="#3C4AC7"/>
</linearGradient>
<linearGradient id="paint1_linear" x1="189.077" y1="0.120117" x2="189.077" y2="49.6241" gradientUnits="userSpaceOnUse">
<stop stop-color="#2DCCC6"/>
<stop offset="1" stop-color="#3C4AC7"/>
</linearGradient>
<linearGradient id="paint2_linear" x1="189.077" y1="0.120117" x2="189.077" y2="49.6241" gradientUnits="userSpaceOnUse">
<stop stop-color="#2DCCC6"/>
<stop offset="1" stop-color="#3C4AC7"/>
</linearGradient>
<linearGradient id="paint3_linear" x1="189.077" y1="0.120117" x2="189.077" y2="49.6241" gradientUnits="userSpaceOnUse">
<stop stop-color="#2DCCC6"/>
<stop offset="1" stop-color="#3C4AC7"/>
</linearGradient>
<linearGradient id="paint4_linear" x1="189.077" y1="0.120117" x2="189.077" y2="49.6241" gradientUnits="userSpaceOnUse">
<stop stop-color="#2DCCC6"/>
<stop offset="1" stop-color="#3C4AC7"/>
</linearGradient>
<linearGradient id="paint5_linear" x1="189.077" y1="0.120117" x2="189.077" y2="49.6241" gradientUnits="userSpaceOnUse">
<stop stop-color="#2DCCC6"/>
<stop offset="1" stop-color="#3C4AC7"/>
</linearGradient>
<linearGradient id="paint6_linear" x1="189.077" y1="0.120117" x2="189.077" y2="49.6241" gradientUnits="userSpaceOnUse">
<stop stop-color="#2DCCC6"/>
<stop offset="1" stop-color="#3C4AC7"/>
</linearGradient>
<linearGradient id="paint7_linear" x1="189.077" y1="0.120117" x2="189.077" y2="49.6241" gradientUnits="userSpaceOnUse">
<stop stop-color="#2DCCC6"/>
<stop offset="1" stop-color="#3C4AC7"/>
</linearGradient>
<linearGradient id="paint8_linear" x1="189.077" y1="0.120117" x2="189.077" y2="49.6241" gradientUnits="userSpaceOnUse">
<stop stop-color="#2DCCC6"/>
<stop offset="1" stop-color="#3C4AC7"/>
</linearGradient>
<linearGradient id="paint9_linear" x1="189.077" y1="0.120117" x2="189.077" y2="49.6241" gradientUnits="userSpaceOnUse">
<stop stop-color="#2DCCC6"/>
<stop offset="1" stop-color="#3C4AC7"/>
</linearGradient>
<linearGradient id="paint10_linear" x1="189.077" y1="0.120117" x2="189.077" y2="49.6241" gradientUnits="userSpaceOnUse">
<stop stop-color="#2DCCC6"/>
<stop offset="1" stop-color="#3C4AC7"/>
</linearGradient>
</defs>
</svg>
