<svg width="358" height="463" viewBox="0 0 358 463" fill="none" xmlns="http://www.w3.org/2000/svg">
<path d="M275.013 50.0004C275.013 50.0004 188.764 81.4775 152.663 121.834C116.563 162.191 325.014 226 267.014 292C241.913 320.562 142.014 375 10.0137 382" stroke="url(#paint0_linear)" stroke-width="4"/>
<circle cx="275.016" cy="277" r="8.5" fill="#51B2DF" stroke="white" stroke-width="3"/>
<circle cx="10.0132" cy="382" r="8.5" fill="#445CE8" stroke="white" stroke-width="3"/>
<circle cx="146.016" cy="136" r="8.5" fill="#54C6DC" stroke="white" stroke-width="3"/>
<g clip-path="url(#clip0)">
<path d="M302.442 16.3125L298.339 15.5593C297.198 15.3497 296.046 15.6723 295.18 16.4444L288.688 22.2296C288.031 22.8151 287.722 23.6834 287.86 24.5525C287.998 25.4215 288.562 26.1509 289.368 26.5035L292.898 28.0477C294.969 23.706 298.236 19.6932 302.442 16.3125Z" fill="#3AD8CE"/>
<path d="M303.75 46.7105L303.346 50.5423C303.254 51.4173 303.609 52.2681 304.296 52.8181C304.581 53.0469 304.905 53.2083 305.246 53.2985C305.725 53.4252 306.237 53.4115 306.724 53.2471L314.964 50.4666C316.063 50.0955 316.913 49.2543 317.295 48.1586L318.67 44.2207C313.651 46.2037 308.548 47.0587 303.75 46.7105Z" fill="#3AD8CE"/>
<path d="M303.041 43.7927C303.169 43.8265 303.3 43.85 303.434 43.8625C305.433 44.0491 307.421 43.9981 309.368 43.7581L298.243 24.6258C297.071 26.1991 296.043 27.9016 295.217 29.7315C294.891 30.4527 294.94 31.2885 295.338 31.9728L301.546 42.6483C301.876 43.2162 302.416 43.6274 303.041 43.7927Z" fill="#3AD8CE"/>
<path d="M331.213 32.5317C336.809 26.354 338.947 18.8267 339.693 15.2283C339.948 13.9953 339.235 12.7699 338.037 12.382C337.468 12.1976 336.79 11.9937 336.018 11.7895C332.052 10.7399 325.617 9.67978 318.804 11.1934C313.391 12.3963 305.712 16.1673 300.142 22.3197C300.176 22.3652 300.209 22.4125 300.238 22.4632L312.235 43.0935C312.264 43.1442 312.289 43.1961 312.311 43.2486C320.414 41.4507 327.489 36.6418 331.213 32.5317ZM318.338 17.6076C321.69 15.6588 326.002 16.7997 327.951 20.1514C328.895 21.775 329.151 23.6691 328.67 25.4846C328.19 27.3002 327.031 28.8201 325.407 29.7642C323.732 30.7385 321.815 30.9403 320.075 30.48C318.334 30.0194 316.769 28.8963 315.795 27.2204C314.851 25.5968 314.595 23.7027 315.076 21.8871C315.556 20.0716 316.715 18.5517 318.338 17.6076Z" fill="#3AD8CE"/>
<path d="M318.226 25.8071C319.395 27.818 321.983 28.5028 323.994 27.3334C324.968 26.7669 325.663 25.855 325.952 24.7657C326.24 23.6763 326.087 22.5399 325.52 21.5658C324.936 20.5603 323.996 19.8864 322.952 19.61C321.908 19.3337 320.758 19.4548 319.753 20.0395C318.778 20.6059 318.083 21.5178 317.795 22.6071C317.507 23.6965 317.66 24.833 318.226 25.8071Z" fill="#3AD8CE"/>
<path d="M285.222 39.2652C285.57 39.3573 285.953 39.3167 286.288 39.1214L291.901 35.8575C292.573 35.467 292.801 34.6063 292.41 33.9349C292.02 33.2635 291.159 33.0357 290.488 33.4262L284.875 36.69C284.203 37.0805 283.975 37.9412 284.366 38.6126C284.561 38.9483 284.874 39.1731 285.222 39.2652Z" fill="#3AD8CE"/>
<path d="M295.401 39.0791C295.011 38.4077 294.15 38.1799 293.478 38.5703L282.687 44.8455C282.016 45.2359 281.788 46.0966 282.178 46.768C282.373 47.1037 282.686 47.3285 283.034 47.4205C283.382 47.5126 283.765 47.472 284.101 47.2767L294.892 41.0016C295.564 40.6112 295.791 39.7505 295.401 39.0791Z" fill="#3AD8CE"/>
<path d="M296.469 43.7142L290.857 46.9781C290.185 47.3685 289.957 48.2293 290.348 48.9007C290.543 49.2364 290.856 49.4612 291.204 49.5533C291.551 49.6453 291.935 49.6047 292.27 49.4094L297.883 46.1455C298.555 45.7551 298.782 44.8944 298.392 44.223C298.002 43.5516 297.141 43.3238 296.469 43.7142Z" fill="#3AD8CE"/>
</g>
<defs>
<linearGradient id="paint0_linear" x1="278.015" y1="69.0009" x2="0.209252" y2="440.134" gradientUnits="userSpaceOnUse">
<stop stop-color="#5AF0D8"/>
<stop offset="1" stop-color="#4149EA"/>
</linearGradient>
<clipPath id="clip0">
<rect x="293.954" y="0.658203" width="48" height="48" transform="rotate(14.8225 293.954 0.658203)" fill="white"/>
</clipPath>
</defs>
</svg>
