<svg width="40" height="42" viewBox="0 0 40 42" fill="none" xmlns="http://www.w3.org/2000/svg">
<path d="M38.8478 26.4128C37.0345 23.2721 33.0252 22.1972 29.8839 24.011L26.552 25.9346V18.8113C26.552 17.9307 26.2608 17.0568 25.7318 16.3506L21.6304 10.8823V8.55373C22.5851 8.2151 23.271 7.30341 23.271 6.23396V2.46077C23.2708 1.10389 22.1669 0 20.8101 0H6.04516C4.68828 0 3.58431 1.10389 3.58431 2.46077V6.23405C3.58431 7.30332 4.27017 8.21518 5.22485 8.55381V10.8823L1.12321 16.351C0.594434 17.0569 0.303223 17.9307 0.303223 18.8113V34.6975C0.303223 36.959 2.1431 38.7988 4.40454 38.7988H17.5871C19.4263 41.8818 23.3922 42.9136 26.501 41.1186L36.4461 35.3766C39.5596 33.5787 40.6702 29.5705 38.8478 26.4128ZM5.22485 2.46077C5.22485 2.00845 5.59284 1.64046 6.04508 1.64046H20.81C21.2623 1.64046 21.6303 2.00845 21.6303 2.46077V6.23405C21.6303 6.68637 21.2623 7.05428 20.81 7.05428H6.04516C5.59284 7.05428 5.22493 6.68629 5.22493 6.23405V2.46077H5.22485ZM2.43604 17.3348L6.70133 11.6479C6.80781 11.5059 6.86539 11.3332 6.86539 11.1557V8.6949H19.9897V10.3354H12.6073C12.1544 10.3354 11.787 10.7028 11.787 11.1558C11.787 11.6087 12.1544 11.9761 12.6073 11.9761H20.3999L24.4189 17.3345C24.6815 17.6852 24.8447 18.1048 24.894 18.5382H1.96124C2.01046 18.1047 2.17362 17.6851 2.43604 17.3348ZM4.40462 37.1583C3.04774 37.1583 1.94385 36.0544 1.94385 34.6975V33.8691H16.8469C16.5868 34.9326 16.5885 36.0686 16.8863 37.1584H4.40462V37.1583ZM17.4902 32.2366H1.94377V20.1786H24.9114V26.8816L19.9387 29.7529C18.9019 30.3518 18.0639 31.2044 17.4902 32.2366ZM25.6808 39.6978C23.3268 41.0571 20.3187 40.2532 18.9584 37.8975C17.5917 35.5191 18.42 32.5247 20.7592 31.1735L25.2116 28.6028L30.1332 37.1271L25.6808 39.6978ZM35.6258 33.9559L31.554 36.3069L26.6323 27.7824L30.7042 25.4317C33.0598 24.0718 36.0668 24.8771 37.427 27.2329C38.7933 29.6005 37.9625 32.6066 35.6258 33.9559Z" fill="#00C59E"/>
</svg>
