<svg width="34" height="36" viewBox="0 0 34 36" fill="none" xmlns="http://www.w3.org/2000/svg">
<path d="M16.0156 34.5938C16.0156 35.3705 15.3861 36 14.6094 36H6.52344C3.42172 36 0.898438 33.4767 0.898438 30.375V5.625C0.898438 2.52328 3.42172 0 6.52344 0H23.8126C26.9141 0 29.4376 2.52328 29.4376 5.625V20.5312C29.4376 21.308 28.8078 21.9375 28.0314 21.9375C27.2546 21.9375 26.6251 21.308 26.6251 20.5312V5.625C26.6251 4.07428 25.3633 2.8125 23.8126 2.8125H6.52344C4.97272 2.8125 3.71094 4.07428 3.71094 5.625V30.375C3.71094 31.9257 4.97272 33.1875 6.52344 33.1875H14.6094C15.3861 33.1875 16.0156 33.817 16.0156 34.5938ZM32.5841 22.9035C31.9527 22.4514 31.0743 22.597 30.6222 23.2281L23.6907 32.9104C23.5014 33.1298 23.2641 33.1771 23.1372 33.1856C23.006 33.1941 22.7522 33.1776 22.5344 32.9702L18.047 28.6614C17.487 28.1236 16.5968 28.1415 16.0587 28.7018C15.5207 29.2621 15.5388 30.1523 16.0991 30.69L20.5909 35.0033C21.2638 35.6435 22.1617 36 23.0856 36C23.165 36 23.2446 35.9973 23.3243 35.992C24.3306 35.925 25.2702 35.4356 25.9022 34.649C25.9184 34.6289 25.9344 34.608 25.9495 34.5869L32.909 24.8654C33.3611 24.2339 33.2158 23.3556 32.5841 22.9035ZM22.4064 8.4375H7.922C7.14526 8.4375 6.51575 9.06702 6.51575 9.84375C6.51575 10.6205 7.14526 11.25 7.922 11.25H22.4064C23.1828 11.25 23.8126 10.6205 23.8126 9.84375C23.8126 9.06702 23.1828 8.4375 22.4064 8.4375ZM23.8126 15.4688C23.8126 14.692 23.1828 14.0625 22.4064 14.0625H7.922C7.14526 14.0625 6.51575 14.692 6.51575 15.4688C6.51575 16.2455 7.14526 16.875 7.922 16.875H22.4064C23.1828 16.875 23.8126 16.2455 23.8126 15.4688ZM7.922 19.6875C7.14526 19.6875 6.51575 20.317 6.51575 21.0938C6.51575 21.8705 7.14526 22.5 7.922 22.5H16.7188C17.4955 22.5 18.125 21.8705 18.125 21.0938C18.125 20.317 17.4955 19.6875 16.7188 19.6875H7.922Z" fill="url(#paint0_linear)"/>
<defs>
<linearGradient id="paint0_linear" x1="17.0352" y1="0" x2="17.0352" y2="36" gradientUnits="userSpaceOnUse">
<stop stop-color="#15CDAD"/>
<stop offset="1" stop-color="#3434BA"/>
</linearGradient>
</defs>
</svg>
