<svg width="218" height="100" viewBox="0 0 218 100" fill="none" xmlns="http://www.w3.org/2000/svg">
<path d="M51.74 93C51.74 53.87 69.55 27.09 81.38 17.86V1.99999H7.15V24.23H51.09C35.88 36.58 23.27 59.59 23.27 93H51.74ZM87.1833 55.3C87.1833 82.21 103.043 94.3 127.743 94.3C152.703 94.3 168.303 81.95 168.303 55.3V40.61C168.303 13.57 152.313 0.699995 127.743 0.699995C103.303 0.699995 87.1833 13.7 87.1833 40.61V55.3ZM127.743 20.07C138.273 20.07 142.173 28.91 142.173 39.18V55.95C142.173 67.39 138.273 74.93 127.743 74.93C117.213 74.93 113.313 67.39 113.313 55.95V39.05C113.313 29.04 117.213 20.07 127.743 20.07Z" fill="url(#paint0_linear)"/>
<path d="M183.552 2.248C186.24 2.248 188.272 3.192 189.648 5.08C191.056 6.936 191.76 9.56 191.76 12.952C191.76 16.344 191.104 19 189.792 20.92C188.48 22.808 186.4 23.752 183.552 23.752C180.928 23.752 178.928 22.808 177.552 20.92C176.176 19 175.488 16.344 175.488 12.952C175.488 9.56 176.128 6.936 177.408 5.08C178.688 3.192 180.736 2.248 183.552 2.248ZM207.888 2.728L188.88 37H183.264L202.272 2.728H207.888ZM183.6 7.144C182.128 7.144 181.392 9.096 181.392 13C181.392 16.936 182.128 18.904 183.6 18.904C185.104 18.904 185.856 16.936 185.856 13C185.856 9.096 185.104 7.144 183.6 7.144ZM207.552 15.928C210.24 15.928 212.272 16.872 213.648 18.76C215.056 20.616 215.76 23.24 215.76 26.632C215.76 30.024 215.104 32.68 213.792 34.6C212.48 36.488 210.4 37.432 207.552 37.432C204.928 37.432 202.928 36.488 201.552 34.6C200.176 32.68 199.488 30.024 199.488 26.632C199.488 23.24 200.128 20.616 201.408 18.76C202.688 16.872 204.736 15.928 207.552 15.928ZM207.6 20.824C206.128 20.824 205.392 22.776 205.392 26.68C205.392 30.616 206.128 32.584 207.6 32.584C209.104 32.584 209.856 30.616 209.856 26.68C209.856 22.776 209.104 20.824 207.6 20.824Z" fill="#41A4D0"/>
<defs>
<linearGradient id="paint0_linear" x1="102.5" y1="10" x2="102.5" y2="100" gradientUnits="userSpaceOnUse">
<stop offset="0.255556" stop-color="#29BB8E"/>
<stop offset="1" stop-color="#08779A"/>
</linearGradient>
</defs>
</svg>
