<svg width="396" height="442" viewBox="0 0 396 442" fill="none" xmlns="http://www.w3.org/2000/svg">
<path d="M296.032 63.9999C296.032 63.9999 209.783 95.4771 173.682 135.834C137.581 176.191 375.692 211.929 296.032 249C238.014 276 130.014 263 34.0145 303C-88.5915 354.086 272.014 407 272.014 407" stroke="url(#paint0_linear)" stroke-width="4"/>
<circle cx="315.014" cy="233.999" r="8.5" fill="#0DAC8B" stroke="white" stroke-width="3"/>
<circle cx="10.0137" cy="322" r="8.5" fill="#0B9496" stroke="white" stroke-width="3"/>
<circle cx="274.014" cy="407" r="8.5" fill="#0B9596" stroke="white" stroke-width="3"/>
<circle cx="169.014" cy="148.999" r="8.5" fill="#0DAF8A" stroke="white" stroke-width="3"/>
<g clip-path="url(#clip0)">
<path d="M323.46 30.3122L319.358 29.5589C318.216 29.3493 317.065 29.672 316.198 30.444L309.706 36.2293C309.05 36.8147 308.74 37.6831 308.878 38.5521C309.016 39.4212 309.58 40.1505 310.387 40.5032L313.917 42.0473C315.987 37.7057 319.254 33.6928 323.46 30.3122Z" fill="#0EBC84"/>
<path d="M324.769 60.7097L324.365 64.5415C324.273 65.4166 324.627 66.2674 325.314 66.8174C325.6 67.0462 325.924 67.2076 326.265 67.2978C326.744 67.4245 327.256 67.4108 327.743 67.2464L335.982 64.4659C337.082 64.0948 337.932 63.2535 338.314 62.1579L339.688 58.22C334.67 60.203 329.566 61.058 324.769 60.7097Z" fill="#0EBC84"/>
<path d="M324.06 57.7922C324.187 57.826 324.319 57.8495 324.453 57.8621C326.452 58.0486 328.44 57.9976 330.387 57.7576L319.261 38.6253C318.09 40.1986 317.062 41.9011 316.235 43.731C315.91 44.4523 315.959 45.288 316.357 45.9723L322.565 56.6478C322.895 57.2157 323.435 57.6269 324.06 57.7922Z" fill="#0EBC84"/>
<path d="M352.231 46.5314C357.827 40.3537 359.966 32.8264 360.711 29.2279C360.966 27.995 360.254 26.7695 359.056 26.3816C358.487 26.1972 357.808 25.9933 357.037 25.7892C353.07 24.7395 346.635 23.6794 339.823 25.193C334.409 26.3959 326.73 30.1669 321.16 36.3193C321.194 36.3648 321.227 36.4121 321.257 36.4628L333.253 57.0931C333.283 57.1438 333.307 57.1957 333.33 57.2482C341.432 55.4503 348.508 50.6414 352.231 46.5314ZM339.357 31.6073C342.708 29.6585 347.021 30.7994 348.969 34.1511C349.914 35.7746 350.169 37.6687 349.688 39.4843C349.208 41.2999 348.049 42.8198 346.426 43.7638C344.75 44.7381 342.834 44.94 341.093 44.4796C339.352 44.019 337.788 42.896 336.813 41.22C335.869 39.5965 335.613 37.7024 336.094 35.8868C336.574 34.0712 337.733 32.5513 339.357 31.6073Z" fill="#0EBC84"/>
<path d="M339.244 39.8064C340.414 41.8173 343.001 42.5021 345.012 41.3327C345.986 40.7662 346.682 39.8543 346.97 38.7649C347.258 37.6755 347.105 36.5392 346.538 35.5651C345.954 34.5596 345.015 33.8857 343.97 33.6093C342.926 33.3329 341.776 33.454 340.771 34.0388C339.797 34.6052 339.101 35.517 338.813 36.6064C338.525 37.6958 338.678 38.8323 339.244 39.8064Z" fill="#0EBC84"/>
<path d="M306.24 53.2648C306.588 53.3569 306.971 53.3163 307.307 53.121L312.92 49.8571C313.591 49.4667 313.819 48.606 313.429 47.9346C313.038 47.2632 312.178 47.0354 311.506 47.4258L305.893 50.6897C305.222 51.0801 304.994 51.9408 305.384 52.6122C305.58 52.9479 305.892 53.1728 306.24 53.2648Z" fill="#0EBC84"/>
<path d="M316.42 53.0788C316.029 52.4075 315.169 52.1797 314.497 52.5701L303.706 58.8452C303.034 59.2356 302.807 60.0963 303.197 60.7678C303.392 61.1035 303.705 61.3282 304.053 61.4203C304.401 61.5124 304.784 61.4717 305.12 61.2764L315.911 55.0014C316.582 54.611 316.81 53.7503 316.42 53.0788Z" fill="#0EBC84"/>
<path d="M317.488 57.7136L311.875 60.9775C311.204 61.3679 310.976 62.2287 311.366 62.9001C311.562 63.2358 311.874 63.4606 312.222 63.5527C312.57 63.6447 312.953 63.6041 313.289 63.4088L318.902 60.1449C319.573 59.7545 319.801 58.8938 319.411 58.2224C319.02 57.551 318.159 57.3232 317.488 57.7136Z" fill="#0EBC84"/>
</g>
<defs>
<linearGradient id="paint0_linear" x1="299.032" y1="83.0012" x2="122.932" y2="486.888" gradientUnits="userSpaceOnUse">
<stop stop-color="#0EBC84"/>
<stop offset="1" stop-color="#0A859D"/>
</linearGradient>
<clipPath id="clip0">
<rect x="314.973" y="14.6577" width="48" height="48" transform="rotate(14.8225 314.973 14.6577)" fill="white"/>
</clipPath>
</defs>
</svg>
