<svg width="871" height="470" viewBox="0 0 871 470" fill="none" xmlns="http://www.w3.org/2000/svg">
<circle cx="609" cy="249" r="195" fill="white" fill-opacity="0.6"/>
<circle cx="805" cy="400" r="66" fill="white" fill-opacity="0.6"/>
<path d="M742.035 174.557C754.232 195.683 760.018 217.251 761.295 241.611C762.571 265.972 758.065 290.289 748.143 312.574C738.221 334.859 723.166 354.479 704.208 369.831C685.25 385.182 667.039 394.431 643.178 399.503L638.15 396.584L642.092 391.961C664.59 387.179 680.778 377.446 698.653 362.971C716.528 348.496 730.724 329.996 740.079 308.984C749.435 287.971 753.684 265.043 752.481 242.073C751.277 219.104 745.877 198.898 734.377 178.978L739.821 179.919L742.035 174.557Z" fill="#FFBC31"/>
<path d="M639.101 400.224C607.167 406.991 573.781 404.172 543.968 390.876C514.155 377.58 489.316 355.187 473.012 326.906C456.708 298.626 449.776 265.91 453.209 233.447C456.642 200.985 469.317 172.498 491.175 148.253L496.654 147.132L496.986 152.659C476.376 175.519 465.223 203.767 461.986 234.375C458.75 264.984 465.286 295.832 480.659 322.498C496.032 349.164 519.452 370.278 547.563 382.815C575.673 395.352 607.597 399.24 637.708 392.859L634.175 397.35L639.101 400.224Z" fill="#FF4E83"/>
<path d="M493.225 145.436C509.363 127.143 527.39 114.933 550.074 105.96C572.758 96.9878 594.993 94.0453 619.278 96.349L623.333 100.543L618.125 103.55C595.227 101.377 574.709 105.708 553.32 114.168C531.932 122.628 514.607 133.205 499.39 150.454L499.317 143.961L493.225 145.436Z" fill="#00C297"/>
<path d="M622.283 95.8671C646.547 98.2866 669.895 106.415 690.416 119.586C710.938 132.758 728.051 150.6 740.355 171.652L738.23 177.164L732.738 176.105C721.136 156.254 705 139.431 685.65 127.012C666.301 114.592 644.286 106.928 621.407 104.647L627.691 101.019L622.283 95.8671Z" fill="#AB34F4"/>
<circle cx="329.752" cy="204.752" r="99.7022" transform="rotate(45 329.752 204.752)" fill="white" fill-opacity="0.6"/>
<path d="M385.644 151.049C394.237 159.642 399.802 169.274 403.557 180.832C407.312 192.389 408.279 204.671 406.378 216.674C404.477 228.677 399.762 240.059 392.619 249.89C385.477 259.722 377.906 266.52 367.078 272.037L364.282 271.281L365.583 268.548C375.793 263.346 382.327 256.576 389.062 247.306C395.797 238.036 400.243 227.303 402.035 215.986C403.828 204.669 402.916 193.088 399.375 182.191C395.835 171.293 390.631 162.266 382.529 154.164L385.27 153.915L385.644 151.049Z" fill="#FFBC31"/>
<path d="M365.21 272.909C350.716 280.283 334.287 283.231 318.227 280.677C302.167 278.123 287.328 270.55 275.836 259.044C264.345 247.538 256.791 232.689 254.257 216.626C251.723 200.563 254.149 185.221 261.541 170.736L264.033 169.49L264.906 172.107C257.936 185.764 256.211 200.795 258.6 215.941C260.989 231.087 268.112 245.088 278.947 255.937C289.783 266.786 303.775 273.927 318.918 276.335C334.061 278.743 349.924 276.498 363.59 269.545L362.469 272.162L365.21 272.909Z" fill="#FF4E83"/>
<path d="M262.164 169.116C267.571 158.233 274.671 150.033 284.429 142.791C294.188 135.549 304.508 131.266 316.49 129.243L318.982 130.739L316.864 132.857C305.566 134.764 296.251 139.493 287.05 146.322C277.849 153.151 270.876 160.474 265.778 170.736L264.905 167.621L262.164 169.116Z" fill="#00C297"/>
<path d="M317.874 128.624C329.862 126.66 342.145 127.56 353.718 131.253C365.291 134.945 375.826 141.324 384.461 149.867L384.149 152.794L381.37 152.992C373.227 144.936 363.294 138.921 352.382 135.44C341.47 131.959 329.888 131.109 318.585 132.961L321.141 130.406L317.874 128.624Z" fill="#AB34F4"/>
<circle cx="131" cy="280" r="131" fill="white" fill-opacity="0.6"/>
<path d="M91.6787 266.44C85.7747 266.44 81.7427 268.42 81.7427 273.676C81.7427 280.3 86.4227 280.876 92.8307 282.784C94.8827 283.396 95.6027 283.828 95.6027 285.304C95.6027 286.024 95.2067 287.536 91.6787 287.536C89.1947 287.536 85.0187 286.816 82.5347 286.06L81.8507 290.776C84.3707 291.784 88.3307 292.36 91.6427 292.36C97.3667 292.36 101.831 290.452 101.831 284.872C101.831 277.816 96.7187 277.564 90.3827 275.44C88.8707 274.936 87.9707 274.432 87.9707 273.244C87.9707 271.948 89.0147 271.084 92.0387 271.084C94.1267 271.084 97.6187 271.588 100.319 272.344L101.003 267.628C98.3387 266.944 95.2067 266.44 91.6787 266.44ZM103.693 277.888H106.213V286.852C106.213 290.92 108.157 292.36 112.585 292.36C114.925 292.36 116.833 291.892 117.733 291.64L117.049 288.076C116.005 288.328 115.285 288.436 114.025 288.436C112.693 288.436 111.973 287.644 111.973 285.808V277.888H117.013V274H111.973V268.96L106.213 269.536V274H103.693V277.888ZM135.429 287.572C133.665 288.076 130.461 288.508 128.589 288.508C126.285 288.508 124.485 288.256 124.485 285.448V284.332H136.473V280.804C136.473 275.224 132.225 273.64 127.653 273.64C121.533 273.64 118.689 276.448 118.689 282.1V285.052C118.689 290.92 123.261 292.36 127.941 292.36C131.001 292.36 133.737 291.928 136.005 291.388L135.429 287.572ZM124.485 280.768C124.485 277.996 125.457 277.204 127.653 277.204C129.849 277.204 131.109 277.888 131.109 280.516V281.38H124.485V280.768ZM145.169 299.2V290.776C146.465 291.316 147.905 292.144 150.605 292.144C155.141 292.144 157.589 289.768 157.589 283C157.589 276.124 155.033 273.496 150.605 273.496C147.905 273.496 146.069 274.648 145.169 275.224V274H139.409V299.2H145.169ZM147.689 277.708C149.921 277.708 151.793 278.752 151.793 283C151.793 287.176 150.029 288.256 148.157 288.256C146.861 288.256 145.889 287.86 145.169 287.572V278.428C145.745 278.14 146.573 277.708 147.689 277.708ZM173.049 275.728L174.633 280.408L181.833 274.288V292H188.025V266.8H182.589L173.049 275.728Z" fill="#4A4A4A"/>
<path d="M299.139 195.12C294.547 195.12 291.411 196.66 291.411 200.748C291.411 205.9 295.051 206.348 300.035 207.832C301.631 208.308 302.191 208.644 302.191 209.792C302.191 210.352 301.883 211.528 299.139 211.528C297.207 211.528 293.959 210.968 292.027 210.38L291.495 214.048C293.455 214.832 296.535 215.28 299.111 215.28C303.563 215.28 307.035 213.796 307.035 209.456C307.035 203.968 303.059 203.772 298.131 202.12C296.955 201.728 296.255 201.336 296.255 200.412C296.255 199.404 297.067 198.732 299.419 198.732C301.043 198.732 303.759 199.124 305.859 199.712L306.391 196.044C304.319 195.512 301.883 195.12 299.139 195.12ZM308.484 204.024H310.444V210.996C310.444 214.16 311.956 215.28 315.4 215.28C317.22 215.28 318.704 214.916 319.404 214.72L318.872 211.948C318.06 212.144 317.5 212.228 316.52 212.228C315.484 212.228 314.924 211.612 314.924 210.184V204.024H318.844V201H314.924V197.08L310.444 197.528V201H308.484V204.024ZM333.167 211.556C331.795 211.948 329.303 212.284 327.847 212.284C326.055 212.284 324.655 212.088 324.655 209.904V209.036H333.979V206.292C333.979 201.952 330.675 200.72 327.119 200.72C322.359 200.72 320.147 202.904 320.147 207.3V209.596C320.147 214.16 323.703 215.28 327.343 215.28C329.723 215.28 331.851 214.944 333.615 214.524L333.167 211.556ZM324.655 206.264C324.655 204.108 325.411 203.492 327.119 203.492C328.827 203.492 329.807 204.024 329.807 206.068V206.74H324.655V206.264ZM340.743 220.6V214.048C341.751 214.468 342.871 215.112 344.971 215.112C348.499 215.112 350.403 213.264 350.403 208C350.403 202.652 348.415 200.608 344.971 200.608C342.871 200.608 341.443 201.504 340.743 201.952V201H336.263V220.6H340.743ZM342.703 203.884C344.439 203.884 345.895 204.696 345.895 208C345.895 211.248 344.523 212.088 343.067 212.088C342.059 212.088 341.303 211.78 340.743 211.556V204.444C341.191 204.22 341.835 203.884 342.703 203.884ZM367.971 195.12C365.227 195.12 362.483 195.708 360.887 196.296L361.699 200.132C363.687 199.46 365.395 198.984 367.691 198.984C369.819 198.984 370.911 199.824 370.911 201.084C370.911 202.792 367.663 203.912 365.899 204.78C362.399 206.516 360.579 208 360.579 213.768V215H375.923V211.192H365.563C365.563 209.12 367.523 208.056 369.539 207.132C372.423 205.816 375.755 204.416 375.755 200.496C375.755 196.156 372.255 195.12 367.971 195.12Z" fill="#4A4A4A"/>
<path d="M544.248 226.5C536.048 226.5 530.448 229.25 530.448 236.55C530.448 245.75 536.948 246.55 545.848 249.2C548.698 250.05 549.698 250.65 549.698 252.7C549.698 253.7 549.148 255.8 544.248 255.8C540.798 255.8 534.998 254.8 531.548 253.75L530.598 260.3C534.098 261.7 539.598 262.5 544.198 262.5C552.148 262.5 558.348 259.85 558.348 252.1C558.348 242.3 551.248 241.95 542.448 239C540.348 238.3 539.098 237.6 539.098 235.95C539.098 234.15 540.548 232.95 544.748 232.95C547.648 232.95 552.498 233.65 556.248 234.7L557.198 228.15C553.498 227.2 549.148 226.5 544.248 226.5ZM560.935 242.4H564.435V254.85C564.435 260.5 567.135 262.5 573.285 262.5C576.535 262.5 579.185 261.85 580.435 261.5L579.485 256.55C578.035 256.9 577.035 257.05 575.285 257.05C573.435 257.05 572.435 255.95 572.435 253.4V242.4H579.435V237H572.435V230L564.435 230.8V237H560.935V242.4ZM605.012 255.85C602.562 256.55 598.112 257.15 595.512 257.15C592.312 257.15 589.812 256.8 589.812 252.9V251.35H606.462V246.45C606.462 238.7 600.562 236.5 594.212 236.5C585.712 236.5 581.762 240.4 581.762 248.25V252.35C581.762 260.5 588.112 262.5 594.612 262.5C598.862 262.5 602.662 261.9 605.812 261.15L605.012 255.85ZM589.812 246.4C589.812 242.55 591.162 241.45 594.212 241.45C597.262 241.45 599.012 242.4 599.012 246.05V247.25H589.812V246.4ZM618.54 272V260.3C620.34 261.05 622.34 262.2 626.09 262.2C632.39 262.2 635.79 258.9 635.79 249.5C635.79 239.95 632.24 236.3 626.09 236.3C622.34 236.3 619.79 237.9 618.54 238.7V237H610.54V272H618.54ZM622.04 242.15C625.14 242.15 627.74 243.6 627.74 249.5C627.74 255.3 625.29 256.8 622.69 256.8C620.89 256.8 619.54 256.25 618.54 255.85V243.15C619.34 242.75 620.49 242.15 622.04 242.15ZM653.863 260.9C654.963 261.4 660.713 262.5 664.563 262.5C674.263 262.5 681.463 260.85 681.463 252.2C681.463 246 678.013 243.9 673.663 242.7C676.813 241.7 679.513 239.45 679.513 235C679.513 228.15 673.963 226.5 665.063 226.5C661.463 226.5 656.013 227.3 654.213 227.95L655.563 234.5C657.813 233.85 662.413 233.5 665.163 233.5C668.913 233.5 671.113 234.35 671.113 237.05C671.113 239.75 668.763 241.1 665.263 241.1H660.263L661.213 246.5H664.913C668.213 246.5 672.763 246.85 672.763 251.3C672.763 254.85 669.613 255.5 665.163 255.5C661.463 255.5 657.063 254.75 654.913 254.3L653.863 260.9Z" fill="#4A4A4A"/>
<path d="M781.109 388.38C777.501 388.38 775.037 389.59 775.037 392.802C775.037 396.85 777.897 397.202 781.813 398.368C783.067 398.742 783.507 399.006 783.507 399.908C783.507 400.348 783.265 401.272 781.109 401.272C779.591 401.272 777.039 400.832 775.521 400.37L775.103 403.252C776.643 403.868 779.063 404.22 781.087 404.22C784.585 404.22 787.313 403.054 787.313 399.644C787.313 395.332 784.189 395.178 780.317 393.88C779.393 393.572 778.843 393.264 778.843 392.538C778.843 391.746 779.481 391.218 781.329 391.218C782.605 391.218 784.739 391.526 786.389 391.988L786.807 389.106C785.179 388.688 783.265 388.38 781.109 388.38ZM788.452 395.376H789.992V400.854C789.992 403.34 791.18 404.22 793.886 404.22C795.316 404.22 796.482 403.934 797.032 403.78L796.614 401.602C795.976 401.756 795.536 401.822 794.766 401.822C793.952 401.822 793.512 401.338 793.512 400.216V395.376H796.592V393H793.512V389.92L789.992 390.272V393H788.452V395.376ZM807.845 401.294C806.767 401.602 804.809 401.866 803.665 401.866C802.257 401.866 801.157 401.712 801.157 399.996V399.314H808.483V397.158C808.483 393.748 805.887 392.78 803.093 392.78C799.353 392.78 797.615 394.496 797.615 397.95V399.754C797.615 403.34 800.409 404.22 803.269 404.22C805.139 404.22 806.811 403.956 808.197 403.626L807.845 401.294ZM801.157 397.136C801.157 395.442 801.751 394.958 803.093 394.958C804.435 394.958 805.205 395.376 805.205 396.982V397.51H801.157V397.136ZM813.798 408.4V403.252C814.59 403.582 815.47 404.088 817.12 404.088C819.892 404.088 821.388 402.636 821.388 398.5C821.388 394.298 819.826 392.692 817.12 392.692C815.47 392.692 814.348 393.396 813.798 393.748V393H810.278V408.4H813.798ZM815.338 395.266C816.702 395.266 817.846 395.904 817.846 398.5C817.846 401.052 816.768 401.712 815.624 401.712C814.832 401.712 814.238 401.47 813.798 401.294V395.706C814.15 395.53 814.656 395.266 815.338 395.266ZM835.852 388.6L828.878 398.192V400.92H836.358V404H840.142V400.92H841.484L841.946 397.906H840.142V388.6H835.852ZM836.358 392.142V397.884H832.266L836.358 392.142Z" fill="#4A4A4A"/>
</svg>
