<svg width="48" height="46" viewBox="0 0 48 46" fill="none" xmlns="http://www.w3.org/2000/svg">
<path d="M38.7502 29.6372C40.584 28.5186 41.811 26.4991 41.811 24.1983V19.3233C41.811 16.1467 39.4721 13.5064 36.4262 13.0331V8.32455C36.4262 7.93746 36.1124 7.62368 35.7253 7.62368H28.2166V4.81034C28.2166 2.30815 26.1809 0.272461 23.6787 0.272461H12.7476C10.2454 0.272461 8.20969 2.30815 8.20969 4.81034V7.62368H0.700875C0.313781 7.62368 0 7.93746 0 8.32455V13.6887V33.2092C0 33.5963 0.313781 33.9101 0.700875 33.9101H6.88238C7.26947 33.9101 7.58325 33.5963 7.58325 33.2092C7.58325 32.8222 7.26947 32.5083 6.88238 32.5083H1.40175V18.355C2.61806 20.2011 4.53741 21.5553 6.80288 22.0148V22.784C6.80288 24.0206 7.809 25.0267 9.04566 25.0267C10.2823 25.0267 11.2884 24.0206 11.2884 22.784V22.1893H16.7025C17.0896 22.1893 17.4034 21.8756 17.4034 21.4885C17.4034 21.1014 17.0896 20.7876 16.7025 20.7876H11.2884V19.0718C11.2884 18.6847 10.9747 18.3709 10.5876 18.3709H7.50366C7.11656 18.3709 6.80278 18.6847 6.80278 19.0718V20.581C3.6735 19.8136 1.40166 16.98 1.40166 13.6887V9.02534H8.91037H11.4186H25.0075H27.5156H35.0244V12.971C34.9827 12.9737 34.9417 12.9787 34.9002 12.9822C34.8523 12.9864 34.8043 12.99 34.7567 12.9952C34.6987 13.0015 34.6411 13.0093 34.5835 13.0172C34.5375 13.0235 34.4912 13.0292 34.4454 13.0364C34.3869 13.0457 34.329 13.0568 34.2711 13.0676C34.2271 13.0759 34.1827 13.0834 34.139 13.0926C34.0793 13.1051 34.0204 13.1195 33.9613 13.1337C33.9202 13.1437 33.8787 13.1526 33.8378 13.1633C33.7751 13.1796 33.7133 13.1981 33.6515 13.2163C33.6152 13.227 33.5784 13.2367 33.5425 13.2479C33.4728 13.2698 33.4041 13.294 33.3353 13.3182C33.308 13.3279 33.2801 13.3364 33.2528 13.3466C33.0609 13.4172 32.8732 13.4967 32.6905 13.5848C32.6715 13.594 32.653 13.6041 32.6342 13.6135C32.5625 13.6489 32.4912 13.6847 32.4211 13.7227C32.3925 13.7381 32.3648 13.7549 32.3365 13.7708C32.2771 13.8042 32.2176 13.8376 32.1593 13.8728C32.1275 13.892 32.0966 13.9125 32.0652 13.9322C32.0116 13.966 31.958 13.9995 31.9054 14.0348C31.8725 14.0568 31.8405 14.0801 31.8081 14.1028C31.7584 14.1376 31.7085 14.1722 31.6598 14.2083C31.6268 14.2328 31.5946 14.2584 31.5621 14.2834C31.5154 14.3195 31.4685 14.3556 31.4228 14.3928C31.3902 14.4194 31.3584 14.447 31.3264 14.4743C31.2823 14.5119 31.2382 14.5494 31.195 14.5881C31.1632 14.6167 31.1321 14.6462 31.1008 14.6755C31.059 14.7146 31.0175 14.7536 30.9768 14.7937C30.9458 14.8241 30.9157 14.8554 30.8854 14.8865C30.8459 14.9271 30.8067 14.9677 30.7684 15.0092C30.7386 15.0415 30.7095 15.0743 30.6804 15.1072C30.6432 15.1492 30.6064 15.1914 30.5703 15.2344C30.5418 15.2683 30.5139 15.3026 30.4862 15.3371C30.4511 15.3806 30.4165 15.4243 30.3828 15.4687C30.3557 15.5042 30.3292 15.5399 30.3028 15.576C30.27 15.6208 30.2378 15.6661 30.2062 15.7118C30.1807 15.7487 30.1555 15.7859 30.1307 15.8234C30.1001 15.8696 30.0702 15.9163 30.0409 15.9633C30.017 16.0016 29.9933 16.0401 29.9702 16.079C29.9419 16.1265 29.9144 16.1746 29.8873 16.2229C29.8651 16.2626 29.8432 16.3022 29.8217 16.3424C29.7957 16.3913 29.7706 16.4408 29.7458 16.4904C29.7255 16.5312 29.7052 16.572 29.6857 16.6134C29.6619 16.6635 29.6393 16.7142 29.6168 16.7652C29.5984 16.8072 29.5798 16.8491 29.5622 16.8914C29.5409 16.9429 29.5207 16.9949 29.5007 17.0471C29.4843 17.0899 29.4676 17.1326 29.452 17.176C29.433 17.229 29.4153 17.2826 29.3977 17.3363C29.3834 17.3798 29.3687 17.4229 29.3554 17.4667C29.3388 17.5212 29.3237 17.5764 29.3085 17.6316C29.2963 17.6756 29.2837 17.7192 29.2725 17.7636C29.2582 17.8198 29.2459 17.8767 29.2331 17.9336C29.2233 17.9776 29.2128 18.0215 29.2038 18.0658C29.1919 18.1247 29.1822 18.1841 29.1719 18.2436C29.1645 18.2868 29.1562 18.3297 29.1497 18.3732C29.1402 18.436 29.1332 18.4993 29.1256 18.5625C29.1206 18.6036 29.1146 18.6443 29.1106 18.6855C29.1036 18.7556 29.0992 18.8263 29.0945 18.897C29.0921 18.9323 29.0885 18.9671 29.0867 19.0024C29.0813 19.1086 29.0785 19.2156 29.0785 19.3231V20.6929C28.7531 20.7464 28.4249 20.7774 28.0966 20.7854V19.0718C28.0966 18.6847 27.7828 18.3709 27.3957 18.3709H24.3119C23.9248 18.3709 23.611 18.6847 23.611 19.0718V20.7876H19.0379C18.6509 20.7876 18.337 21.1014 18.337 21.4885C18.337 21.8755 18.6508 22.1893 19.0379 22.1893H23.611V22.784C23.611 24.0206 24.6172 25.0267 25.8537 25.0267C27.0904 25.0267 28.0965 24.0206 28.0965 22.784V22.1867C28.4245 22.1801 28.7524 22.1542 29.0784 22.1095V24.1983C29.0784 24.3046 29.0813 24.4107 29.0865 24.5163C29.0886 24.5575 29.0926 24.5981 29.0954 24.639C29.0998 24.7029 29.1037 24.7667 29.11 24.8301C29.1151 24.8809 29.1222 24.931 29.1284 24.9815C29.135 25.0341 29.1408 25.0869 29.1485 25.1394C29.1569 25.1956 29.1672 25.2512 29.1771 25.3069C29.1851 25.3525 29.1924 25.3983 29.2015 25.4436C29.2136 25.504 29.2275 25.5637 29.2413 25.6234C29.2505 25.6631 29.2589 25.703 29.2688 25.7426C29.2849 25.8069 29.3029 25.8703 29.3208 25.9336C29.3305 25.9676 29.3395 26.0019 29.3498 26.0356C29.3706 26.1043 29.3932 26.1721 29.4162 26.2398C29.4255 26.2671 29.4343 26.2946 29.444 26.3217C29.4704 26.3961 29.4986 26.4696 29.5277 26.5426C29.5354 26.5618 29.5426 26.5812 29.5505 26.6004C29.5838 26.6819 29.6192 26.7624 29.6558 26.8422C29.6602 26.8518 29.6644 26.8614 29.6688 26.8709C30.2019 28.0186 31.066 28.9825 32.1394 29.6372C30.1922 30.1905 28.4199 31.1919 26.9593 32.5084H9.21834C8.83125 32.5084 8.51747 32.8222 8.51747 33.2093C8.51747 33.5964 8.83125 33.9101 9.21834 33.9101H25.6198C23.9183 35.9829 22.8899 38.5661 22.8899 41.3159V45.0266C22.8899 45.4136 23.2037 45.7275 23.5908 45.7275H28.9291C29.3162 45.7275 29.63 45.4137 29.63 45.0266C29.63 44.6395 29.3162 44.3258 28.9291 44.3258H24.2916V41.3158C24.2916 38.5166 25.486 35.8399 27.6549 33.7792C27.6766 33.7586 27.6987 33.7386 27.7206 33.7182C27.8045 33.6398 27.8896 33.5626 27.9757 33.4867C27.9824 33.4807 27.9892 33.4747 27.9958 33.4689C28.1656 33.3197 28.3397 33.176 28.5174 33.0371C28.5497 33.0119 28.5822 32.9873 28.6147 32.9625C28.6622 32.9261 28.7101 32.8902 28.7582 32.8546C28.8056 32.8196 28.8531 32.7845 28.901 32.7502C28.9212 32.7355 28.9417 32.7215 28.9621 32.7071C29.958 32.0032 31.0571 31.4572 32.2057 31.0911L33.3437 33.3019L31.8234 39.9012C31.7667 40.1473 31.8469 40.405 32.0332 40.5756L34.9718 43.2651C35.1057 43.3877 35.2753 43.4489 35.445 43.4489C35.6147 43.4489 35.7842 43.3876 35.9183 43.2651L38.8568 40.5756C39.0431 40.4051 39.1234 40.1474 39.0667 39.9012L37.5464 33.3019L38.6843 31.0911C40.3628 31.626 41.9361 32.5449 43.2351 33.7792C45.4039 35.8398 46.5984 38.5165 46.5984 41.3157V44.3256H31.2652C30.8782 44.3256 30.5643 44.6394 30.5643 45.0265C30.5643 45.4135 30.8781 45.7273 31.2652 45.7273H47.2991C47.6861 45.7273 48 45.4136 48 45.0265V41.3157C48 35.901 44.0128 31.1325 38.7502 29.6372ZM8.20434 21.4228V19.7726H8.20444H9.8865V21.4884V22.7839C9.8865 23.2477 9.50916 23.6249 9.04537 23.6249C8.58159 23.6249 8.20425 23.2476 8.20425 22.7839V21.4228H8.20434ZM24.3067 7.62368H12.1194V5.31274C12.1194 4.67365 12.6394 4.15362 13.2786 4.15362H23.1476C23.7867 4.15362 24.3068 4.67355 24.3068 5.31274V7.62368H24.3067ZM26.8147 7.62368H25.7083V5.31274C25.7083 3.90077 24.5596 2.75196 23.1475 2.75196H13.2785C11.8665 2.75196 10.7177 3.90068 10.7177 5.31274V7.62377H9.61125V4.81034C9.61125 3.08102 11.0182 1.67412 12.7475 1.67412H23.6785C25.4078 1.67412 26.8147 3.08102 26.8147 4.81034V7.62368ZM26.6953 21.4885V22.7841C26.6953 23.2479 26.318 23.6251 25.8542 23.6251C25.3904 23.6251 25.0132 23.2478 25.0132 22.7841V21.4886V19.7726H26.6952V21.4885H26.6953ZM30.4836 19.3203C30.4836 16.6701 32.5722 14.4986 35.19 14.3654C35.2745 14.3611 35.3594 14.359 35.4449 14.359C35.5247 14.359 35.604 14.3613 35.6829 14.3651C35.6857 14.3651 35.6882 14.3652 35.6909 14.3653C35.692 14.3654 35.6931 14.3652 35.6942 14.3653C35.6961 14.3654 35.698 14.3653 35.6999 14.3654C38.3175 14.4986 40.4062 16.6701 40.4062 19.3203V20.9897C38.1455 20.5703 37.2307 18.2716 37.19 18.1664C37.0932 17.9111 36.8562 17.737 36.5839 17.7175C36.3113 17.6985 36.0518 17.84 35.9196 18.0788C35.856 18.1937 34.3943 20.7525 30.4835 21.0311V19.3203H30.4836ZM37.6088 39.8176L35.4449 41.7981L33.281 39.8176L34.6419 33.9101H36.2479L37.6088 39.8176ZM33.6013 30.7395C33.6624 30.7282 33.7238 30.7179 33.7851 30.7075C33.8286 30.7001 33.8722 30.6929 33.9157 30.6862C33.9923 30.6742 34.0688 30.6628 34.1455 30.6524C34.2456 30.639 34.3456 30.6269 34.4457 30.6163C34.486 30.612 34.5262 30.608 34.5665 30.6041C34.5762 30.6032 34.5859 30.6024 34.5956 30.6014C34.6996 30.5918 34.8037 30.5837 34.9078 30.5771C34.9497 30.5744 34.9914 30.5715 35.0334 30.5694C35.0336 30.5694 35.0338 30.5694 35.034 30.5694C35.1185 30.565 35.2029 30.5627 35.2874 30.5603C35.3399 30.5616 35.392 30.5643 35.445 30.5643C35.4979 30.5643 35.55 30.5616 35.6025 30.5603C35.6871 30.5627 35.7716 30.565 35.8563 30.5694C35.8834 30.5708 35.9105 30.5719 35.9376 30.5736C36.0604 30.581 36.183 30.5908 36.3058 30.6023C36.3516 30.6066 36.3974 30.6113 36.4432 30.6161C36.5449 30.6269 36.6466 30.6392 36.7481 30.6528C36.8231 30.663 36.8981 30.6742 36.9729 30.6859C37.0171 30.6927 37.0613 30.7001 37.1055 30.7075C37.1665 30.7178 37.2277 30.728 37.2886 30.7393L36.3784 32.5083H34.5118L33.6013 30.7395ZM35.7352 29.1536C35.7205 29.1534 35.7061 29.1527 35.6915 29.1534C35.6739 29.1542 35.6564 29.1553 35.6389 29.1566C35.6335 29.1569 35.6283 29.1572 35.623 29.1575C35.5669 29.156 35.5109 29.1538 35.4546 29.1531C35.4482 29.1531 35.4417 29.1531 35.4354 29.1531C35.3791 29.1538 35.323 29.156 35.2669 29.1575C32.7092 29.0658 30.6156 26.9785 30.4868 24.4454C30.4828 24.3636 30.4806 24.2812 30.4806 24.1983V22.4357C33.6496 22.2415 35.5137 20.7493 36.4333 19.7221C37.0809 20.7334 38.336 22.1389 40.4093 22.4101V24.1984C40.4093 26.8382 38.3379 29.0027 35.7352 29.1536Z" fill="#2BB9A4"/>
</svg>
