<svg width="42" height="40" viewBox="0 0 42 40" fill="none" xmlns="http://www.w3.org/2000/svg">
<path d="M34.5322 14.0781C34.5335 14.0013 34.5352 13.9247 34.5352 13.8477C34.5352 6.38437 28.4633 0.3125 21 0.3125C13.5367 0.3125 7.46484 6.38437 7.46484 13.8477C7.46484 13.9247 7.46648 14.0014 7.4678 14.0781C3.04057 16.3149 0 20.8872 0 26.1523C0 33.6156 6.10862 39.6875 13.6172 39.6875C16.3391 39.6875 18.8753 38.8792 21 37.491C23.1247 38.8792 25.6609 39.6875 28.3828 39.6875C35.8914 39.6875 42 33.6156 42 26.1523C42 20.8872 38.9594 16.3149 34.5322 14.0781ZM21 34.3989C18.9045 32.521 17.5267 29.8584 17.333 26.8777C18.4997 27.2065 19.7296 27.3828 21 27.3828C22.2704 27.3828 23.5003 27.2065 24.667 26.8777C24.4733 29.8584 23.0955 32.521 21 34.3989ZM21 24.9219C19.7617 24.9219 18.5703 24.7175 17.4576 24.3408C17.8771 21.8022 19.1626 19.5524 21 17.9057C22.8374 19.5524 24.1229 21.8023 24.5424 24.3408C23.4297 24.7175 22.2383 24.9219 21 24.9219ZM15.1613 23.2534C12.5071 21.5999 10.6005 18.855 10.0734 15.6511C11.1873 15.2798 12.3789 15.0781 13.6172 15.0781C15.551 15.0781 17.3702 15.5769 18.9541 16.4517C17.0855 18.2684 15.7385 20.6184 15.1613 23.2534ZM23.0459 16.4517C24.6298 15.5769 26.449 15.0781 28.3828 15.0781C29.6211 15.0781 30.8127 15.2798 31.9266 15.6511C31.3995 18.855 29.4929 21.5999 26.8387 23.2534C26.2615 20.6184 24.9145 18.2684 23.0459 16.4517ZM21 2.77344C26.8606 2.77344 31.6715 7.34963 32.0494 13.1162C30.8824 12.7914 29.6527 12.6172 28.3828 12.6172C25.6609 12.6172 23.1247 13.4255 21 14.8137C18.8753 13.4255 16.3391 12.6172 13.6172 12.6172C12.3473 12.6172 11.1176 12.7914 9.95055 13.1162C10.3285 7.34963 15.1394 2.77344 21 2.77344ZM13.6172 37.2266C7.46558 37.2266 2.46094 32.2587 2.46094 26.1523C2.46094 22.1715 4.58825 18.6751 7.77328 16.7229C8.64363 20.7302 11.2932 24.0815 14.8509 25.9035C14.8493 25.9864 14.8477 26.0692 14.8477 26.1523C14.8477 29.953 16.4229 33.3921 18.9541 35.853C17.3702 36.7278 15.551 37.2266 13.6172 37.2266ZM28.3828 37.2266C26.449 37.2266 24.6298 36.7278 23.0459 35.853C25.5771 33.3921 27.1523 29.953 27.1523 26.1523C27.1523 26.0692 27.1507 25.9864 27.1491 25.9035C30.7068 24.0815 33.3564 20.7302 34.2267 16.7229C37.4117 18.6751 39.5391 22.1715 39.5391 26.1523C39.5391 32.2587 34.5344 37.2266 28.3828 37.2266Z" fill="url(#paint0_linear)"/>
<defs>
<linearGradient id="paint0_linear" x1="21" y1="0.3125" x2="21" y2="39.6875" gradientUnits="userSpaceOnUse">
<stop stop-color="#E55DFF"/>
<stop offset="1" stop-color="#6153E1"/>
</linearGradient>
</defs>
</svg>
