<svg width="40" height="40" viewBox="0 0 40 40" fill="none" xmlns="http://www.w3.org/2000/svg">
<path d="M33.9863 13.8657C33.9863 13.8739 33.985 13.8815 33.985 13.8895C33.9789 17.6263 32.5474 20.177 31.2995 21.9824C30.9962 22.421 30.5085 22.6566 30.0129 22.6566C29.7065 22.6566 29.397 22.5668 29.1257 22.3792C28.4159 21.8887 28.2383 20.9155 28.729 20.2057C30.2228 18.0441 30.8604 16.1481 30.8604 13.8657C30.8604 13.8608 30.861 13.8562 30.8613 13.8513C30.8573 10.9805 29.7306 8.28339 27.6868 6.25458C25.6516 4.23462 22.9587 3.125 20.0965 3.125C20.069 3.125 20.0419 3.12531 20.0144 3.12531C20.0068 3.12561 19.9991 3.12561 19.9915 3.12531C17.0698 3.10547 14.3183 4.22943 12.2376 6.29456C10.1902 8.32703 9.06256 11.0159 9.06256 13.8657C9.06256 17.6996 10.9931 20.0882 13.0369 22.6169C14.7394 24.7232 16.4905 26.8912 16.9773 29.8367H18.9072C19.7703 29.8367 20.4697 30.5362 20.4697 31.3992C20.4697 32.262 19.7703 32.9617 18.9072 32.9617H17.1104V35.5972C17.1104 36.3019 17.6728 36.875 18.3643 36.875H21.5595C22.2513 36.875 22.8144 36.3016 22.8144 35.5972V31.4883C22.8144 31.4822 22.8135 31.4761 22.8135 31.47C22.8135 31.452 22.8144 31.434 22.8144 31.4157V31.3281C22.8144 31.3132 22.8162 31.2988 22.8165 31.2842C22.8489 29.5367 23.3356 27.8635 24.3049 26.1752C24.7346 25.4266 25.6895 25.1685 26.4377 25.5978C27.1863 26.0275 27.4445 26.9827 27.0148 27.731C26.291 28.9923 25.9489 30.1648 25.9394 31.416V35.5972C25.9394 38.0249 23.9747 40 21.5595 40H18.3643C15.9498 40 13.9854 38.0249 13.9854 35.5972V31.47C13.9854 28.7616 12.4195 26.8243 10.6064 24.5813C8.41803 21.8735 5.93756 18.8046 5.93756 13.866C5.93756 10.1767 7.39294 6.70044 10.0358 4.07684C12.6868 1.44562 16.1893 0 19.9082 0C19.9399 0 19.9711 0.000305176 20.0028 0.000305176C20.0342 0.000305176 20.066 0 20.0971 0C23.79 0 27.2632 1.43097 29.8884 4.03687C32.5309 6.65985 33.9863 10.1508 33.9863 13.8657ZM38.4385 12.4219C37.5754 12.4219 36.876 13.1213 36.876 13.9844C36.876 14.8474 37.5754 15.5469 38.4385 15.5469C39.3015 15.5469 40.001 14.8474 40.001 13.9844C40.001 13.1213 39.3015 12.4219 38.4385 12.4219ZM36.4854 20.8594C35.6223 20.8594 34.9229 21.5588 34.9229 22.4219C34.9229 23.2849 35.6223 23.9844 36.4854 23.9844C37.3484 23.9844 38.0479 23.2849 38.0479 22.4219C38.0479 21.5588 37.3484 20.8594 36.4854 20.8594ZM36.4072 6.875C37.2703 6.875 37.9697 6.17554 37.9697 5.3125C37.9697 4.44946 37.2703 3.75 36.4072 3.75C35.5442 3.75 34.8447 4.44946 34.8447 5.3125C34.8447 6.17554 35.5442 6.875 36.4072 6.875ZM3.12598 13.9844C3.12598 13.1213 2.42651 12.4219 1.56348 12.4219C0.700439 12.4219 0.000976562 13.1213 0.000976562 13.9844C0.000976562 14.8474 0.700439 15.5469 1.56348 15.5469C2.42651 15.5469 3.12598 14.8474 3.12598 13.9844ZM3.43848 20.8594C2.57544 20.8594 1.87598 21.5588 1.87598 22.4219C1.87598 23.2849 2.57544 23.9844 3.43848 23.9844C4.30151 23.9844 5.00098 23.2849 5.00098 22.4219C5.00098 21.5588 4.30151 20.8594 3.43848 20.8594ZM3.5166 3.75C2.65356 3.75 1.9541 4.44946 1.9541 5.3125C1.9541 6.17554 2.65356 6.875 3.5166 6.875C4.37964 6.875 5.0791 6.17554 5.0791 5.3125C5.0791 4.44946 4.37964 3.75 3.5166 3.75ZM19.9235 23.5938C19.0607 23.5938 18.361 24.2932 18.361 25.1562C18.361 26.0193 19.0607 26.7188 19.9235 26.7188C20.7865 26.7188 21.486 26.0193 21.486 25.1562C21.486 24.2932 20.7865 23.5938 19.9235 23.5938ZM22.4372 18.6044C24.802 17.5949 26.3297 15.2811 26.3291 12.71C26.3291 12.6868 26.3285 12.6639 26.3276 12.641C26.2903 9.14124 23.4318 6.30585 19.9235 6.30585C18.2142 6.30585 16.6086 6.95923 15.4035 8.14606C14.1883 9.34265 13.519 10.9442 13.519 12.6562C13.519 13.5193 14.2185 14.2188 15.0815 14.2188C15.9446 14.2188 16.644 13.5193 16.644 12.6562C16.644 10.8475 18.0845 9.43085 19.9235 9.43085C21.7316 9.43085 23.2029 10.9021 23.2029 12.7103C23.2029 12.7271 23.2032 12.7435 23.2038 12.7603C23.1846 14.0576 22.4064 15.2197 21.2101 15.7306C19.4794 16.4694 18.361 18.1772 18.361 20.0812C18.361 20.9442 19.0604 21.6437 19.9235 21.6437C20.7865 21.6437 21.486 20.9442 21.486 20.0812C21.486 19.4308 21.8595 18.851 22.4372 18.6044Z" fill="url(#paint0_linear)"/>
<defs>
<linearGradient id="paint0_linear" x1="20.001" y1="0" x2="20.001" y2="40" gradientUnits="userSpaceOnUse">
<stop stop-color="#E360FF"/>
<stop offset="1" stop-color="#4B5DFF"/>
</linearGradient>
</defs>
</svg>
