<svg width="37" height="36" viewBox="0 0 37 36" fill="none" xmlns="http://www.w3.org/2000/svg">
<g clip-path="url(#clip0)">
<path d="M32.8691 0C32.3586 0 3.70593 0 3.19727 0C1.45264 0 0.0332031 1.41943 0.0332031 3.16406V4.77109C0.0332031 7.37402 0.928589 9.92697 2.55484 11.9594C3.90726 13.65 5.83096 14.9741 7.97165 15.6877L9.08951 16.0601C10.3878 18.1755 12.4241 19.8051 14.8691 20.579V22.2188C14.8691 22.8002 14.3959 23.2734 13.8145 23.2734C12.0698 23.2734 10.6504 24.6929 10.6504 26.4375V27.4922H9.5957C9.01315 27.4922 8.54102 27.9643 8.54102 28.5469V33.8906H7.48633C6.90378 33.8906 6.43164 34.3628 6.43164 34.9453C6.43164 35.5279 6.90378 36 7.48633 36H28.5801C29.1626 36 29.6348 35.5279 29.6348 34.9453C29.6348 34.3628 29.1626 33.8906 28.5801 33.8906H27.5254V28.5469C27.5254 27.9643 27.0533 27.4922 26.4707 27.4922H25.416V26.4375C25.416 24.6929 23.9966 23.2734 22.252 23.2734C21.6705 23.2734 21.1973 22.8002 21.1973 22.2188V20.579C23.6395 19.8059 25.6739 18.1794 26.9725 16.0672L28.1513 15.692C28.1557 15.6907 28.1604 15.689 28.1648 15.6877C30.2739 14.9845 32.1229 13.6953 33.5116 11.9594C35.1378 9.92697 36.0332 7.37402 36.0332 4.77109V3.16406C36.0332 1.41943 34.6138 0 32.8691 0ZM4.20197 10.6416C2.87399 8.9816 2.14258 6.89694 2.14258 4.77109V3.16406C2.14258 2.58261 2.61581 2.10938 3.19727 2.10938H6.54233L7.61569 11.7697C7.67859 12.3346 7.78818 12.8864 7.93814 13.422C6.46323 12.8021 5.15503 11.8328 4.20197 10.6416ZM10.6504 33.8906V29.6016H25.416V33.8906H10.6504ZM19.9061 18.7465C19.4271 18.8567 19.0879 19.2829 19.0879 19.7743V22.2188C19.0879 23.9634 20.5073 25.3828 22.252 25.3828C22.8334 25.3828 23.3066 25.856 23.3066 26.4375V27.4922H12.7598V26.4375C12.7598 25.856 13.233 25.3828 13.8145 25.3828C15.5591 25.3828 16.9785 23.9634 16.9785 22.2188V19.7743C16.9785 19.2829 16.6393 18.8567 16.1603 18.7465C12.6938 17.9489 10.1027 15.0515 9.71216 11.5367L8.66461 2.10938H27.4018L26.3542 11.5367C25.9637 15.0515 23.3726 17.9489 19.9061 18.7465ZM33.9238 4.77109C33.9238 6.89694 33.1924 8.9816 31.8644 10.6416C30.8688 11.8864 29.5834 12.8493 28.1189 13.4547C28.2738 12.9087 28.3864 12.3462 28.4507 11.7697L29.5241 2.10938H32.8691C33.4506 2.10938 33.9238 2.58261 33.9238 3.16406V4.77109Z" fill="url(#paint0_linear)"/>
<path d="M22.4 7.22186L20.03 6.88568L18.9745 4.79773C18.7951 4.4426 18.4309 4.21875 18.0332 4.21875C17.6355 4.21875 17.2713 4.4426 17.092 4.79773L16.0365 6.88568L13.6662 7.22186C13.266 7.27872 12.9334 7.55942 12.8101 7.94449C12.6867 8.32956 12.7944 8.75143 13.0872 9.02994L14.7873 10.6479L14.3871 12.9257C14.3179 13.3201 14.4778 13.7197 14.8 13.9573C15.123 14.1952 15.552 14.2289 15.9074 14.0466L18.0332 12.9554L20.1588 14.0466C20.515 14.2295 20.9441 14.1949 21.2662 13.9573C21.5887 13.7195 21.7485 13.3201 21.6793 12.9257L21.2791 10.6479L22.979 9.02994C23.2721 8.75116 23.3797 8.32956 23.2564 7.94449C23.1331 7.55942 22.8005 7.27872 22.4 7.22186ZM19.4156 9.50949C19.1596 9.75311 19.0426 10.1082 19.1038 10.4562L19.2346 11.2011L18.5147 10.8317C18.2126 10.6765 17.8539 10.6765 17.5515 10.8317L16.8316 11.2011L16.9626 10.4562C17.0236 10.1082 16.9066 9.75311 16.6509 9.50949L16.12 9.00439L16.8777 8.89673C17.2191 8.84839 17.5152 8.63608 17.6707 8.32846L18.0332 7.61133L18.3955 8.32819C18.5512 8.63608 18.8473 8.84839 19.1887 8.89673L19.9465 9.00412L19.4156 9.50949Z" fill="url(#paint1_linear)"/>
</g>
<defs>
<linearGradient id="paint0_linear" x1="18.0332" y1="0" x2="18.0332" y2="36" gradientUnits="userSpaceOnUse">
<stop stop-color="#E760FF"/>
<stop offset="1" stop-color="#465DFF"/>
</linearGradient>
<linearGradient id="paint1_linear" x1="18.0332" y1="4.21875" x2="18.0332" y2="14.163" gradientUnits="userSpaceOnUse">
<stop stop-color="#C661FF"/>
<stop offset="1" stop-color="#8E59FF"/>
</linearGradient>
<clipPath id="clip0">
<rect x="0.0332031" width="36" height="36" fill="white"/>
</clipPath>
</defs>
</svg>
