<svg width="31" height="30" viewBox="0 0 31 30" fill="none" xmlns="http://www.w3.org/2000/svg">
<circle cx="15.0303" cy="15" r="14.5" fill="white" stroke="#E560FF"/>
<g clip-path="url(#clip0)">
<path d="M22.2303 7.8H19.8303V7H10.2303V7.8H7.83027C7.35027 7.8 7.03027 8.12 7.03027 8.6V10.52C7.03027 12.36 8.39027 13.88 10.2303 14.12V14.2C10.2303 16.52 11.8303 18.44 13.9903 18.92L13.4303 20.6H11.5903C11.2703 20.6 10.9503 20.84 10.8703 21.16L10.2303 23H19.8303L19.1903 21.16C19.1103 20.84 18.7903 20.6 18.4703 20.6H16.6303L16.0703 18.92C18.2303 18.44 19.8303 16.52 19.8303 14.2V14.12C21.6703 13.88 23.0303 12.36 23.0303 10.52V8.6C23.0303 8.12 22.7103 7.8 22.2303 7.8ZM10.2303 12.52C9.35027 12.28 8.63027 11.48 8.63027 10.52V9.4H10.2303V12.52ZM16.6303 15L15.0303 14.12L13.4303 15L13.8303 13.4L12.6303 11.8H14.3103L15.0303 10.2L15.7503 11.8H17.4303L16.2303 13.4L16.6303 15ZM21.4303 10.52C21.4303 11.48 20.7103 12.36 19.8303 12.52V9.4H21.4303V10.52Z" fill="#E560FF"/>
</g>
<defs>
<clipPath id="clip0">
<rect x="7.03027" y="7" width="16" height="16" fill="white"/>
</clipPath>
</defs>
</svg>
