<svg width="397" height="446" viewBox="0 0 397 446" fill="none" xmlns="http://www.w3.org/2000/svg">
<path d="M296.032 65.9998C296.032 65.9998 209.783 97.477 173.682 137.834C137.581 178.191 375.692 213.928 296.032 251C238.014 278 130.014 265 34.0145 305C-88.5915 356.086 272.014 409 272.014 409" stroke="url(#paint0_linear)" stroke-width="4"/>
<circle cx="315.014" cy="236" r="8.5" fill="#B164F3" stroke="white" stroke-width="3"/>
<circle cx="10.0137" cy="324" r="8.5" fill="#5E53E0" stroke="white" stroke-width="3"/>
<circle cx="274.014" cy="409" r="8.5" fill="#6153E1" stroke="white" stroke-width="3"/>
<circle cx="169.014" cy="151" r="8.5" fill="#C067F6" stroke="white" stroke-width="3"/>
<g clip-path="url(#clip0)">
<path d="M323.46 32.3125L319.357 31.5593C318.216 31.3497 317.064 31.6723 316.198 32.4444L309.706 38.2296C309.049 38.8151 308.74 39.6834 308.878 40.5525C309.016 41.4215 309.58 42.1509 310.386 42.5035L313.916 44.0477C315.987 39.706 319.254 35.6932 323.46 32.3125Z" fill="#E55EFF"/>
<path d="M324.769 62.7105L324.365 66.5423C324.273 67.4173 324.628 68.2681 325.315 68.8181C325.601 69.0469 325.924 69.2083 326.265 69.2985C326.744 69.4252 327.256 69.4115 327.743 69.2471L335.983 66.4666C337.082 66.0955 337.932 65.2543 338.314 64.1586L339.689 60.2207C334.67 62.2037 329.567 63.0587 324.769 62.7105Z" fill="#E55EFF"/>
<path d="M324.059 59.7927C324.187 59.8265 324.318 59.85 324.452 59.8625C326.451 60.0491 328.439 59.9981 330.386 59.7581L319.261 40.6258C318.09 42.1991 317.062 43.9016 316.235 45.7315C315.909 46.4527 315.959 47.2885 316.357 47.9728L322.565 58.6483C322.895 59.2162 323.435 59.6274 324.059 59.7927Z" fill="#E55EFF"/>
<path d="M352.231 48.5317C357.827 42.354 359.966 34.8267 360.711 31.2283C360.967 29.9953 360.254 28.7699 359.056 28.382C358.487 28.1976 357.808 27.9937 357.037 27.7895C353.07 26.7399 346.635 25.6798 339.823 27.1934C334.409 28.3963 326.73 32.1673 321.16 38.3197C321.195 38.3652 321.228 38.4125 321.257 38.4632L333.253 59.0935C333.283 59.1442 333.308 59.1961 333.33 59.2486C341.432 57.4507 348.508 52.6418 352.231 48.5317ZM339.357 33.6076C342.708 31.6588 347.021 32.7997 348.97 36.1514C349.914 37.775 350.169 39.6691 349.689 41.4846C349.208 43.3002 348.049 44.8201 346.426 45.7642C344.75 46.7385 342.834 46.9403 341.094 46.48C339.353 46.0194 337.788 44.8963 336.813 43.2204C335.869 41.5968 335.614 39.7027 336.094 37.8871C336.575 36.0716 337.733 34.5517 339.357 33.6076Z" fill="#E55EFF"/>
<path d="M339.244 41.8071C340.414 43.818 343.001 44.5028 345.012 43.3334C345.986 42.7669 346.681 41.855 346.97 40.7657C347.258 39.6763 347.105 38.5399 346.538 37.5658C345.954 36.5603 345.014 35.8864 343.97 35.61C342.926 35.3337 341.776 35.4548 340.771 36.0395C339.796 36.6059 339.101 37.5178 338.813 38.6071C338.525 39.6965 338.678 40.833 339.244 41.8071Z" fill="#E55EFF"/>
<path d="M306.24 55.2652C306.588 55.3573 306.971 55.3167 307.306 55.1214L312.919 51.8575C313.591 51.467 313.819 50.6063 313.428 49.9349C313.038 49.2635 312.177 49.0357 311.506 49.4262L305.893 52.69C305.221 53.0805 304.993 53.9412 305.384 54.6126C305.579 54.9483 305.892 55.1731 306.24 55.2652Z" fill="#E55EFF"/>
<path d="M316.42 55.0791C316.029 54.4077 315.168 54.1799 314.497 54.5703L303.706 60.8455C303.034 61.2359 302.806 62.0966 303.197 62.768C303.392 63.1037 303.705 63.3285 304.053 63.4205C304.401 63.5126 304.784 63.472 305.119 63.2767L315.911 57.0016C316.582 56.6112 316.81 55.7505 316.42 55.0791Z" fill="#E55EFF"/>
<path d="M317.488 59.7142L311.875 62.9781C311.204 63.3685 310.976 64.2293 311.366 64.9007C311.562 65.2364 311.874 65.4612 312.222 65.5533C312.57 65.6453 312.953 65.6047 313.289 65.4094L318.902 62.1455C319.573 61.7551 319.801 60.8944 319.411 60.223C319.02 59.5516 318.159 59.3238 317.488 59.7142Z" fill="#E55EFF"/>
</g>
<defs>
<linearGradient id="paint0_linear" x1="299.032" y1="85.0012" x2="122.932" y2="488.888" gradientUnits="userSpaceOnUse">
<stop stop-color="#E870FF"/>
<stop offset="1" stop-color="#334AD7"/>
</linearGradient>
<clipPath id="clip0">
<rect x="314.973" y="16.6582" width="48" height="48" transform="rotate(14.8225 314.973 16.6582)" fill="white"/>
</clipPath>
</defs>
</svg>
