<svg width="37" height="36" viewBox="0 0 37 36" fill="none" xmlns="http://www.w3.org/2000/svg">
<path d="M14.6807 32.316V35.9621L13.799 35.2499C13.6628 35.1398 10.4215 32.5083 7.1347 28.7347C2.60065 23.5291 0.301758 18.8564 0.301758 14.8466V14.4492C0.301758 6.52066 6.75211 0.0703125 14.6807 0.0703125C22.6092 0.0703125 29.0596 6.52066 29.0596 14.4492V14.8466C29.0596 15.1834 29.0417 15.5253 29.0093 15.8714L26.1974 13.3061C25.6214 7.45917 20.6765 2.87595 14.6807 2.87595C8.29926 2.87595 3.10739 8.06781 3.10739 14.4492V14.8466C3.10739 21.6225 11.8377 29.8251 14.6807 32.316ZM23.308 30.3008H27.5163V26.0925H23.308V30.3008ZM14.6807 8.48721C17.968 8.48721 20.6427 11.1618 20.6427 14.4492C20.6427 17.7366 17.968 20.4112 14.6807 20.4112C11.3933 20.4112 8.71866 17.7366 8.71866 14.4492C8.71866 11.1618 11.3933 8.48721 14.6807 8.48721ZM14.6807 11.2928C12.9402 11.2928 11.5243 12.7087 11.5243 14.4492C11.5243 16.1895 12.9402 17.6056 14.6807 17.6056C16.4209 17.6056 17.837 16.1895 17.837 14.4492C17.837 12.7087 16.4209 11.2928 14.6807 11.2928ZM34.411 28.3944L33.6222 27.6748V32.179C33.6222 34.2762 31.9157 35.9824 29.8185 35.9824H20.9357C18.8384 35.9824 17.132 34.2762 17.132 32.179V27.6748L16.3432 28.3944L14.4524 26.3219L25.377 16.3553L36.3018 26.3219L34.411 28.3944ZM30.8166 25.1153L25.377 20.153L19.9376 25.1153V32.1787C19.9376 32.7291 20.3853 33.1768 20.9357 33.1768H29.8185C30.3689 33.1768 30.8166 32.7291 30.8166 32.1787V25.1153Z" fill="#CC3AF4"/>
</svg>
