<svg width="250" height="99" viewBox="0 0 250 99" fill="none" xmlns="http://www.w3.org/2000/svg">
<path d="M49.6441 80.75L49.9041 86.73C50.1641 89.59 50.7707 91.54 51.7241 92.58C52.7641 93.5333 54.1074 94.14 55.7541 94.4C57.4007 94.5733 58.7874 94.7033 59.9141 94.79C61.1274 94.79 62.4274 94.8333 63.8141 94.92V97H2.45406V94.92C3.40739 94.92 4.36072 94.92 5.31406 94.92C6.35406 94.8333 8.04406 94.66 10.3841 94.4C12.8107 94.0533 14.5007 93.36 15.4541 92.32C16.4941 91.1933 17.1441 89.2433 17.4041 86.47L17.6641 80.49V19.39L17.4041 13.41C17.1441 10.7233 16.4941 8.77333 15.4541 7.56C14.5007 6.26 13.0274 5.48 11.0341 5.22C9.12739 4.95999 7.17739 4.78666 5.18406 4.7C3.19072 4.52666 1.76072 4.39666 0.894056 4.30999V2.23H49.6441V80.75ZM156.029 49.68C156.029 62.2467 151.869 73.5567 143.549 83.61C135.229 93.5767 124.525 98.56 111.439 98.56C97.6587 98.56 86.7821 93.36 78.8087 82.96C70.8354 72.56 66.8487 61.4667 66.8487 49.68C66.8487 37.1133 71.1387 25.8467 79.7187 15.88C88.2987 5.82667 98.8721 0.799999 111.439 0.799999C124.439 0.799999 135.099 5.91333 143.419 16.14C151.825 26.28 156.029 37.46 156.029 49.68ZM123.659 49.68C123.659 42.4867 123.529 36.3333 123.269 31.22C123.009 26.1067 122.489 21.1667 121.709 16.4C121.015 11.5467 119.889 8.16666 118.329 6.26C116.855 4.26666 114.559 3.27 111.439 3.27C108.579 3.27 106.282 4.31 104.549 6.39C102.902 8.38333 101.775 11.46 101.169 15.62C100.562 19.78 100.085 24.98 99.7387 31.22C99.3921 37.46 99.2188 43.6133 99.2188 49.68C99.2188 56.3533 99.3487 62.42 99.6087 67.88C99.9554 73.2533 100.475 78.3233 101.169 83.09C101.862 87.8567 102.945 91.2367 104.419 93.23C105.979 95.1367 108.319 96.09 111.439 96.09C114.299 96.09 116.552 95.0933 118.199 93.1C119.932 91.02 121.059 87.9433 121.579 83.87C122.185 79.71 122.662 74.38 123.009 67.88C123.442 61.2933 123.659 55.2267 123.659 49.68ZM249.344 49.68C249.344 62.2467 245.184 73.5567 236.864 83.61C228.544 93.5767 217.841 98.56 204.754 98.56C190.974 98.56 180.098 93.36 172.124 82.96C164.151 72.56 160.164 61.4667 160.164 49.68C160.164 37.1133 164.454 25.8467 173.034 15.88C181.614 5.82667 192.188 0.799999 204.754 0.799999C217.754 0.799999 228.414 5.91333 236.734 16.14C245.141 26.28 249.344 37.46 249.344 49.68ZM216.974 49.68C216.974 42.4867 216.844 36.3333 216.584 31.22C216.324 26.1067 215.804 21.1667 215.024 16.4C214.331 11.5467 213.204 8.16666 211.644 6.26C210.171 4.26666 207.874 3.27 204.754 3.27C201.894 3.27 199.598 4.31 197.864 6.39C196.218 8.38333 195.091 11.46 194.484 15.62C193.878 19.78 193.401 24.98 193.054 31.22C192.708 37.46 192.534 43.6133 192.534 49.68C192.534 56.3533 192.664 62.42 192.924 67.88C193.271 73.2533 193.791 78.3233 194.484 83.09C195.178 87.8567 196.261 91.2367 197.734 93.23C199.294 95.1367 201.634 96.09 204.754 96.09C207.614 96.09 209.868 95.0933 211.514 93.1C213.248 91.02 214.374 87.9433 214.894 83.87C215.501 79.71 215.978 74.38 216.324 67.88C216.758 61.2933 216.974 55.2267 216.974 49.68Z" fill="#00A2B8"/>
</svg>
