<svg width="360" height="283" viewBox="0 0 360 283" fill="none" xmlns="http://www.w3.org/2000/svg">
<g id="lines" opacity="0.4">
	<linearGradient id="line_2_1_" gradientUnits="userSpaceOnUse" x1="76.39" y1="208.715" x2="76.39" y2="30.825" gradientTransform="matrix(1 0 0 -1 119.195 312.805)">
		<stop  offset="0" style="stop-color:#28A07C"/>
		<stop  offset="1" style="stop-color:#5E5CD1"/>
		<animate
			attributeName="x1"
			attributeType="XML"
      from="-900"
  		to="2000"
      begin="0s" dur="3s"
      repeatCount="indefinite"
    />
    <animate
      attributeName="x2"
			attributeType="XML"
      from="0"
  		to="2000"
      begin="0s" dur="3s"
      repeatCount="indefinite"
    />
	</linearGradient>
	<path id="line_2" fill="none" stroke="url(#line_2_1_)" stroke-linecap="round" d="M-219.062,222.488
		c0,0,33.128-148.272,51.396-148.272s38.263,111.132,51.679,139.349c13.415,28.216,25.388,28.861,35.471,8.923
		C-70.434,202.55-55.378,85.066-40.462,81.82c14.916-3.246,26.888,102.264,38.158,131.745
		c15.992,41.831,36.709,42.577,49.717,16.029c13.008-26.547,28.025-50.821,28.025-50.821s16.827-32.435,38-5.473
		c25.175,32.056,39.9,52.385,57.475,74.278c17.575,21.892,37.344,24.238,48.701-5.152c11.357-29.389,30.149-76.824,30.149-76.824
		s9.975-21.232,20.425-21.232c10.45,0,29.44,27.546,38.95,42.423c9.509,14.877,28.966,13.785,51.869-21.191
		c22.902-34.977,36.891-65.722,48.166-84.388s34.444-50.511,66.471-4.736c21.985,37.629,22.315,38.089,41.585,72.583
		c16.444,29.436,23.988,19.777,34.975,0c14.31-25.755,24.219-49.672,58.028-74.845"/>
	
	<linearGradient id="line_1_1_" gradientUnits="userSpaceOnUse" x1="259.3924" y1="512.5886" x2="-22.7796" y2="-101.0793" gradientTransform="matrix(1 0 0 -1 119.195 312.805)">
		<stop  offset="0" style="stop-color:#1AB1E0"/>
		<stop  offset="1" style="stop-color:#005069"/>
	</linearGradient>
	
	<path id="line_1" opacity="0.3" fill="none" stroke="url(#line_1_1_)" stroke-width="2" stroke-linecap="round" enable-background="new    " d="
		M-211.238,263.151c0,0,20.974-90.247,39.238-90.247c18.265,0,43.923,76.337,63.676,90.247c19.753,13.909,29.111,8.107,40.216-7.688
		c11.105-15.796,20.835-52.085,35.748-54.34c14.913-2.256,13.964,12.881,40.786,54.34c17.304,22.035,28.232,14.487,41.238-3.957
		c13.006-18.445,41.649-87.338,41.649-87.338s14.248-30.841,32.739-8.707c18.49,22.134,46.161,92.457,50.928,105.018
		c4.767,12.56,24.517,37.031,40.915,7.544c16.397-29.488,39.178-80.223,39.178-80.223s7.597-16.994,25.348-14.896
		c17.751,2.097,22.066,17.882,31.574,28.219c9.508,10.336,26.157,24.301,49.056,0c22.898-24.301,36.885-45.662,48.158-58.631
		c11.273-12.969,34.438-35.094,66.459-3.29c25.035,35.155,18.329,33.316,33.976,54.012c12.718,16.822,26.91,34.955,41.676,10.119
		c14.765-24.836,25.563-60.841,58.912-65.703"/>
</g>
<g id="star" opacity="0.8">
	<path fill="#239DF5" fill-opacity="0.2" d="M276.615,189.581c4.629,0,8.382-6.178,8.382-13.798c0-7.62-3.753-13.798-8.382-13.798
		c-4.63,0-8.383,6.178-8.383,13.798C268.232,183.403,271.985,189.581,276.615,189.581z"/>
	<path fill="#7893F2" fill-opacity="0.4" d="M276.615,184.982c3.086,0,5.588-4.119,5.588-9.199s-2.502-9.198-5.588-9.198
		c-3.087,0-5.589,4.118-5.589,9.198S273.528,184.982,276.615,184.982z"/>
	<path fill="#255FF5" d="M276.614,180.382c1.544,0,2.795-2.059,2.795-4.599c0-2.54-1.251-4.599-2.795-4.599
		c-1.543,0-2.794,2.059-2.794,4.599C273.82,178.323,275.071,180.382,276.614,180.382z"/>
	<animate
		attributeName="opacity"
		attributeType="XML"
    values="1; .3; 1"
    begin="0.5s" 
    dur="4.0s"
    repeatCount="indefinite"
  />
</g>
</svg>
