<svg width="1440" height="279" viewBox="0 0 1440 279" fill="none" xmlns="http://www.w3.org/2000/svg">
<g opacity="0.7">
<g opacity="0.2">
<path opacity="0.5" d="M-2 92.4796C-2 92.4796 56.1003 261.009 88.1384 261.009C120.176 261.009 133.351 83.1636 168 60.4079C202.649 37.6522 214.684 88.2301 218 92.4796C221.316 96.7292 257.841 249.366 284 253.055C310.159 256.744 348.072 173.618 371.902 143.267C405.339 100.679 450.5 131.195 475 170.195C499.5 209.195 508 219.195 525 239.195C542 259.195 572.056 275.405 604.49 239.195C636.924 202.986 682.28 87.5915 699.724 60.4079C717.169 33.2243 738.585 21.5781 767.349 69.8176C796.112 118.057 829.428 178.933 829.428 178.933C829.428 178.933 842.753 206.734 873.89 203.303C905.027 199.871 912.596 174.048 929.274 157.138C945.952 140.229 975.156 117.383 1015.32 157.138C1055.49 196.893 1059.01 198.322 1094 211.197C1136.77 226.937 1173 268.197 1210.58 216.58C1248.15 164.963 1255.51 154.904 1289.3 115.697C1323.1 76.4899 1345.73 93.2183 1365 115.697C1390.1 144.972 1379.71 198.585 1439 227.197" stroke="white" stroke-width="2" stroke-linecap="round"/>
<path opacity="0.5" d="M1434 95.1954C1434 95.1954 1393.03 217.196 1361 217.196C1328.97 217.196 1319 117.196 1294.53 85.2152C1269 34.1958 1252 74.6765 1235 102.936C1218 131.196 1168.15 261.268 1142 264.196C1115.85 267.123 1086.86 216.885 1053 153.937C1032 114.902 996.81 61.2715 974 85.2152C951.19 109.159 908.078 153.936 908.078 153.936C908.078 153.936 883.089 193.972 850.661 165.239C818.232 136.506 769.704 45.2169 761.343 28.9115C752.982 12.606 718.345 -19.1601 689.587 19.1186C660.829 57.3972 640.876 94.5179 625 125.195C609.124 155.873 596.131 203.918 565 201.195C533.868 198.472 522.953 157.462 500 116.23C483.658 86.8742 468 80.0526 435.014 105.964C394.854 137.51 344.271 199.36 324.5 216.195C304.729 233.031 241.478 281.738 207.944 220.467C174.411 159.195 183 142.596 174.411 116.23C164.743 86.5517 127.217 70.8547 101.321 103.095C75.4249 135.336 56.4876 182.075 -2 188.387" stroke="white" stroke-linecap="round"/>
</g>
<g opacity="0.8">
<path d="M1140 279C1131.72 279 1125 272.284 1125 264C1125 255.716 1131.72 249 1140 249C1148.28 249 1155 255.716 1155 264C1155 272.284 1148.28 279 1140 279Z" fill="#FFBC31" fill-opacity="0.15"/>
<path d="M1140 274C1134.48 274 1130 269.523 1130 264C1130 258.477 1134.48 254 1140 254C1145.52 254 1150 258.477 1150 264C1150 269.523 1145.52 274 1140 274Z" fill="#FFBC31" fill-opacity="0.64"/>
<path d="M1140 269C1137.24 269 1135 266.761 1135 264C1135 261.239 1137.24 259 1140 259C1142.76 259 1145 261.239 1145 264C1145 266.761 1142.76 269 1140 269Z" fill="#FFCE68"/>
</g>
<g opacity="0.8">
<path d="M565 274C556.716 274 550 267.284 550 259C550 250.716 556.716 244 565 244C573.284 244 580 250.716 580 259C580 267.284 573.284 274 565 274Z" fill="#FFBC31" fill-opacity="0.15"/>
<path d="M565 269C559.477 269 555 264.523 555 259C555 253.477 559.477 249 565 249C570.523 249 575 253.477 575 259C575 264.523 570.523 269 565 269Z" fill="#FFBC31" fill-opacity="0.64"/>
<path d="M565 264C562.239 264 560 261.761 560 259C560 256.239 562.239 254 565 254C567.761 254 570 256.239 570 259C570 261.761 567.761 264 565 264Z" fill="#FFCE68"/>
</g>
<g opacity="0.8">
<path d="M186 70C177.716 70 171 63.2843 171 55C171 46.7157 177.716 40 186 40C194.284 40 201 46.7157 201 55C201 63.2843 194.284 70 186 70Z" fill="#FFBC31" fill-opacity="0.15"/>
<path d="M186 65C180.477 65 176 60.5228 176 55C176 49.4772 180.477 45 186 45C191.523 45 196 49.4772 196 55C196 60.5228 191.523 65 186 65Z" fill="#FFBC31" fill-opacity="0.64"/>
<path d="M186 60C183.239 60 181 57.7614 181 55C181 52.2386 183.239 50 186 50C188.761 50 191 52.2386 191 55C191 57.7614 188.761 60 186 60Z" fill="#FFCE68"/>
</g>
<g opacity="0.8">
<path d="M1334 109C1325.72 109 1319 102.284 1319 94C1319 85.7157 1325.72 79 1334 79C1342.28 79 1349 85.7157 1349 94C1349 102.284 1342.28 109 1334 109Z" fill="#FFBC31" fill-opacity="0.15"/>
<path d="M1334 104C1328.48 104 1324 99.5228 1324 94C1324 88.4772 1328.48 84 1334 84C1339.52 84 1344 88.4772 1344 94C1344 99.5228 1339.52 104 1334 104Z" fill="#FFBC31" fill-opacity="0.64"/>
<path d="M1334 99C1331.24 99 1329 96.7614 1329 94C1329 91.2386 1331.24 89 1334 89C1336.76 89 1339 91.2386 1339 94C1339 96.7614 1336.76 99 1334 99Z" fill="#FFCE68"/>
</g>
</g>
</svg>
