<svg width="36" height="36" viewBox="0 0 36 36" fill="none" xmlns="http://www.w3.org/2000/svg">
<path d="M32.8359 0C32.3253 0 3.67273 0 3.16406 0C1.41943 0 0 1.41943 0 3.16406V4.77109C0 7.37402 0.895386 9.92697 2.52164 11.9594C3.87405 13.65 5.79776 14.9741 7.93845 15.6877L9.0563 16.0601C10.3546 18.1755 12.3909 19.8051 14.8359 20.579V22.2188C14.8359 22.8002 14.3627 23.2734 13.7812 23.2734C12.0366 23.2734 10.6172 24.6929 10.6172 26.4375V27.4922H9.5625C8.97995 27.4922 8.50781 27.9643 8.50781 28.5469V33.8906H7.45312C6.87057 33.8906 6.39844 34.3628 6.39844 34.9453C6.39844 35.5279 6.87057 36 7.45312 36H28.5469C29.1294 36 29.6016 35.5279 29.6016 34.9453C29.6016 34.3628 29.1294 33.8906 28.5469 33.8906H27.4922V28.5469C27.4922 27.9643 27.0201 27.4922 26.4375 27.4922H25.3828V26.4375C25.3828 24.6929 23.9634 23.2734 22.2188 23.2734C21.6373 23.2734 21.1641 22.8002 21.1641 22.2188V20.579C23.6063 19.8059 25.6407 18.1794 26.9393 16.0672L28.1181 15.692C28.1225 15.6907 28.1272 15.689 28.1316 15.6877C30.2407 14.9845 32.0897 13.6953 33.4784 11.9594C35.1046 9.92697 36 7.37402 36 4.77109V3.16406C36 1.41943 34.5806 0 32.8359 0ZM4.16876 10.6416C2.84079 8.9816 2.10938 6.89694 2.10938 4.77109V3.16406C2.10938 2.58261 2.58261 2.10938 3.16406 2.10938H6.50912L7.58249 11.7697C7.64539 12.3346 7.75497 12.8864 7.90494 13.422C6.43002 12.8021 5.12183 11.8328 4.16876 10.6416ZM10.6172 33.8906V29.6016H25.3828V33.8906H10.6172ZM19.8729 18.7465C19.3939 18.8567 19.0547 19.2829 19.0547 19.7743V22.2188C19.0547 23.9634 20.4741 25.3828 22.2188 25.3828C22.8002 25.3828 23.2734 25.856 23.2734 26.4375V27.4922H12.7266V26.4375C12.7266 25.856 13.1998 25.3828 13.7812 25.3828C15.5259 25.3828 16.9453 23.9634 16.9453 22.2188V19.7743C16.9453 19.2829 16.6061 18.8567 16.1271 18.7465C12.6606 17.9489 10.0695 15.0515 9.67896 11.5367L8.63141 2.10938H27.3686L26.321 11.5367C25.9305 15.0515 23.3394 17.9489 19.8729 18.7465ZM33.8906 4.77109C33.8906 6.89694 33.1592 8.9816 31.8312 10.6416C30.8356 11.8864 29.5502 12.8493 28.0857 13.4547C28.2406 12.9087 28.3532 12.3462 28.4175 11.7697L29.4909 2.10938H32.8359C33.4174 2.10938 33.8906 2.58261 33.8906 3.16406V4.77109Z" fill="url(#paint0_linear)"/>
<path d="M22.3669 7.22186L19.9969 6.88568L18.9413 4.79773C18.762 4.4426 18.3978 4.21875 18.0001 4.21875C17.6024 4.21875 17.2382 4.4426 17.0588 4.79773L16.0033 6.88568L13.633 7.22186C13.2328 7.27872 12.9002 7.55942 12.7769 7.94449C12.6536 8.32956 12.7613 8.75143 13.054 9.02994L14.7542 10.6479L14.354 12.9257C14.2848 13.3201 14.4446 13.7197 14.7668 13.9573C15.0898 14.1952 15.5188 14.2289 15.8742 14.0466L18.0001 12.9554L20.1257 14.0466C20.4819 14.2295 20.9109 14.1949 21.2331 13.9573C21.5555 13.7195 21.7154 13.3201 21.6462 12.9257L21.246 10.6479L22.9459 9.02994C23.2389 8.75116 23.3466 8.32956 23.2233 7.94449C23.0999 7.55942 22.7673 7.27872 22.3669 7.22186ZM19.3824 9.50949C19.1265 9.75311 19.0095 10.1082 19.0707 10.4562L19.2014 11.2011L18.4816 10.8317C18.1794 10.6765 17.8207 10.6765 17.5183 10.8317L16.7985 11.2011L16.9295 10.4562C16.9904 10.1082 16.8734 9.75311 16.6177 9.50949L16.0868 9.00439L16.8446 8.89673C17.186 8.84839 17.4821 8.63608 17.6375 8.32846L18.0001 7.61133L18.3624 8.32819C18.5181 8.63608 18.8142 8.84839 19.1556 8.89673L19.9134 9.00412L19.3824 9.50949Z" fill="url(#paint1_linear)"/>
<defs>
<linearGradient id="paint0_linear" x1="18" y1="0" x2="18" y2="36" gradientUnits="userSpaceOnUse">
<stop stop-color="#DE8418"/>
<stop offset="1" stop-color="#D72719"/>
</linearGradient>
<linearGradient id="paint1_linear" x1="18.0001" y1="4.21875" x2="18.0001" y2="14.163" gradientUnits="userSpaceOnUse">
<stop stop-color="#DE8418"/>
<stop offset="1" stop-color="#D72719"/>
</linearGradient>
</defs>
</svg>
