<?xml version="1.0" encoding="utf-8"?>
<!-- Generator: Adobe Illustrator 17.0.0, SVG Export Plug-In . SVG Version: 6.00 Build 0)  -->
<!DOCTYPE svg PUBLIC "-//W3C//DTD SVG 1.1//EN" "http://www.w3.org/Graphics/SVG/1.1/DTD/svg11.dtd">
<svg version="1.1" id="Layer_1" xmlns="http://www.w3.org/2000/svg" xmlns:xlink="http://www.w3.org/1999/xlink" x="0px" y="0px"
	 width="30px" height="30px" viewBox="0 0 30 30" enable-background="new 0 0 30 30" xml:space="preserve">
<circle fill="#FFFFFF" stroke="#FFBC31" cx="15" cy="15" r="14.5"/>
<g>
	<defs>
		<rect id="SVGID_1_" x="7" y="7" width="16" height="16"/>
	</defs>
	<clipPath id="SVGID_2_">
		<use xlink:href="#SVGID_1_"  overflow="visible"/>
	</clipPath>
	<g clip-path="url(#SVGID_2_)">
		<path fill="#FFBC31" d="M22.2,7.8h-2.4V7h-9.6v0.8H7.8C7.32,7.8,7,8.12,7,8.6v1.92c0,1.84,1.36,3.36,3.2,3.6v0.08
			c0,2.32,1.6,4.24,3.76,4.72L13.4,20.6h-1.84c-0.32,0-0.64,0.24-0.72,0.56L10.2,23h9.6l-0.64-1.84c-0.08-0.32-0.4-0.56-0.72-0.56
			H16.6l-0.56-1.68c2.16-0.48,3.76-2.4,3.76-4.72v-0.08c1.84-0.24,3.2-1.76,3.2-3.6V8.6C23,8.12,22.68,7.8,22.2,7.8z M10.2,12.52
			c-0.88-0.24-1.6-1.04-1.6-2V9.4h1.6V12.52z M16.6,15L15,14.12L13.4,15l0.4-1.6l-1.2-1.6h1.68L15,10.2l0.72,1.6h1.68l-1.2,1.6
			L16.6,15z M21.4,10.52c0,0.96-0.72,1.84-1.6,2V9.4h1.6V10.52z"/>
	</g>
</g>
</svg>
