<svg width="1440" height="360" viewBox="0 0 1440 360" fill="none" xmlns="http://www.w3.org/2000/svg">
	<g opacity="0.5">
		<path d="M-148.979 273.323C-148.979 273.323 -60.4381 83.6864 -21.9795 83.6864C16.4791 83.6864 40.0205 183 54.0205 217C68.0205 251 78.0205 273.323 122.021 251C166.021 228.677 194.021 83.6864 252.021 83.6864C283.695 83.6864 325.415 202.848 354.021 237C394.159 284.922 430.021 217 466.021 148.62C480.561 121 496.021 92 496.021 92C496.021 92 539.087 -8.33326 578.021 32.4117C616.954 73.1567 672.433 278.824 693.373 309.412C714.314 340 740.023 353.105 774.55 298.824C809.077 244.542 849.07 176.042 849.07 176.042C849.07 176.042 865.066 144.759 902.443 148.62C939.819 152.481 948.906 181.539 968.926 200.566C988.946 219.594 1024 245.3 1072.22 200.566C1120.43 155.832 1135.28 141.874 1159.02 118C1182.76 94.126 1248.6 64.4546 1316.02 123C1362.3 171.127 1373.45 190.882 1414.02 235C1448.64 272.647 1472.89 265.294 1496.02 240C1526.15 207.059 1525.73 115.882 1596.9 83.6864" stroke="url(#paint0_linear)" stroke-width="3" stroke-linecap="round"/>
		<path opacity="0.8" d="M-132.508 335.918C-132.508 335.918 -88.3525 220.494 -49.9006 220.494C-11.4486 220.494 32.0068 272 72.0078 311C87.4794 326.085 110.005 346 141.012 326.085C172.019 306.17 201.617 202.884 233.013 200C264.409 197.116 273.475 273.06 329.941 326.085C366.372 354.268 389.377 344.614 416.758 321.024C444.139 297.434 522.021 174 522.021 174C522.021 174 551.093 106.691 590.021 135C628.948 163.309 670.98 310.02 681.016 326.085C691.052 342.15 732.198 379.863 766.719 342.149C801.24 304.435 849.2 239.546 849.2 239.546C849.2 239.546 865.193 217.811 902.563 220.494C939.933 223.177 949.019 243.365 969.035 256.585C989.051 269.805 1024.1 287.666 1072.31 256.585C1120.52 225.505 1158.02 199.4 1200.02 163C1230.02 137 1253.02 100 1287.02 117C1331.02 139 1353.02 206 1385.14 246.471C1406.49 273.374 1450.93 319.765 1482.02 288C1513.11 256.235 1526.69 181.598 1596.9 175.38" stroke="#C0AB74" stroke-width="3" stroke-linecap="round"/>
	</g>
	<g opacity="0.8">
		<path d="M244.647 102.294C254.393 102.294 262.294 94.3933 262.294 84.6471C262.294 74.9009 254.393 67 244.647 67C234.901 67 227 74.9009 227 84.6471C227 94.3933 234.901 102.294 244.647 102.294Z" fill="#F8E71C" fill-opacity="0.39"/>
		<path d="M244.647 96.4117C251.144 96.4117 256.412 91.1445 256.412 84.647C256.412 78.1496 251.144 72.8823 244.647 72.8823C238.15 72.8823 232.882 78.1496 232.882 84.647C232.882 91.1445 238.15 96.4117 244.647 96.4117Z" fill="#FFBC31" fill-opacity="0.72"/>
		<path d="M244.647 90.5294C247.896 90.5294 250.529 87.8957 250.529 84.647C250.529 81.3983 247.896 78.7646 244.647 78.7646C241.398 78.7646 238.765 81.3983 238.765 84.647C238.765 87.8957 241.398 90.5294 244.647 90.5294Z" fill="white"/>
		<animate
			attributeName="opacity"
			attributeType="XML"
	        values="1; .3; 1"
	        begin="0.5s" 
	        dur="4.0s"
	        repeatCount="indefinite"
	    />
	</g>
	<g opacity="0.8">
		<path d="M561.652 40.2941C571.399 40.2941 579.299 32.3933 579.299 22.6471C579.299 12.9009 571.399 5 561.652 5C551.906 5 544.005 12.9009 544.005 22.6471C544.005 32.3933 551.906 40.2941 561.652 40.2941Z" fill="#F8E71C" fill-opacity="0.39"/>
		<path d="M561.652 34.4117C568.15 34.4117 573.417 29.1445 573.417 22.647C573.417 16.1496 568.15 10.8823 561.652 10.8823C555.155 10.8823 549.888 16.1496 549.888 22.647C549.888 29.1445 555.155 34.4117 561.652 34.4117Z" fill="#FFBC31" fill-opacity="0.72"/>
		<path d="M561.652 28.5294C564.901 28.5294 567.535 25.8957 567.535 22.647C567.535 19.3983 564.901 16.7646 561.652 16.7646C558.404 16.7646 555.77 19.3983 555.77 22.647C555.77 25.8957 558.404 28.5294 561.652 28.5294Z" fill="white"/>
		<animate
			attributeName="opacity"
			attributeType="XML"
			values="1; .3; 1"
			begin="2s" 
			dur="4s"
			repeatCount="indefinite"
		/>
	</g>
	<g>
		<path d="M907.652 236.294C917.399 236.294 925.299 228.393 925.299 218.647C925.299 208.901 917.399 201 907.652 201C897.906 201 890.005 208.901 890.005 218.647C890.005 228.393 897.906 236.294 907.652 236.294Z" fill="#F8E71C" fill-opacity="0.39"/>
		<path d="M907.652 230.412C914.15 230.412 919.417 225.144 919.417 218.647C919.417 212.15 914.15 206.882 907.652 206.882C901.155 206.882 895.888 212.15 895.888 218.647C895.888 225.144 901.155 230.412 907.652 230.412Z" fill="#FFBC31" fill-opacity="0.72"/>
		<path d="M907.652 224.529C910.901 224.529 913.535 221.896 913.535 218.647C913.535 215.398 910.901 212.765 907.652 212.765C904.404 212.765 901.77 215.398 901.77 218.647C901.77 221.896 904.404 224.529 907.652 224.529Z" fill="white"/>
		<animate
			attributeName="opacity"
			attributeType="XML"
	        values="1; .2; 1"
		    begin="2s" 
		    dur="4s"
	        repeatCount="indefinite"
	    />
	</g>
	<g opacity="0.7">
		<path d="M1272.65 113.294C1282.39 113.294 1290.29 105.393 1290.29 95.6471C1290.29 85.9009 1282.39 78 1272.65 78C1262.9 78 1255 85.9009 1255 95.6471C1255 105.393 1262.9 113.294 1272.65 113.294Z" fill="#F8E71C" fill-opacity="0.39"/>
		<path d="M1272.65 107.412C1279.14 107.412 1284.41 102.144 1284.41 95.647C1284.41 89.1496 1279.14 83.8823 1272.65 83.8823C1266.15 83.8823 1260.88 89.1496 1260.88 95.647C1260.88 102.144 1266.15 107.412 1272.65 107.412Z" fill="#FFBC31" fill-opacity="0.72"/>
		<path d="M1272.65 101.529C1275.9 101.529 1278.53 98.8957 1278.53 95.647C1278.53 92.3983 1275.9 89.7646 1272.65 89.7646C1269.4 89.7646 1266.76 92.3983 1266.76 95.647C1266.76 98.8957 1269.4 101.529 1272.65 101.529Z" fill="white"/>
		<animate
			attributeName="opacity"
			attributeType="XML"
	        values="1; .3; 1"
	        begin="0.5s" 
	        dur="4.0s"
	        repeatCount="indefinite"
	    />
	</g>
	<defs>
		<linearGradient id="paint0_linear" x1="60.3433" y1="132.482" x2="60.3433" y2="360" gradientUnits="userSpaceOnUse">
			<stop stop-color="#FFBC31"/>
			<stop offset="1" stop-color="#F1904A"/>
			<animate 
				attributeName="x1" 
				attributeType="XML" 
				from="60.3433" 
				to="2000" 
				begin="0s" 
				dur="3s" 
				repeatCount="indefinite"
			/>
		</linearGradient>
	</defs>
</svg>
