<svg width="360" height="178" viewBox="0 0 360 178" fill="none" xmlns="http://www.w3.org/2000/svg">
	<g opacity="0.5">
		<path d="M492 147.417C492 147.417 455.568 60.4774 435.478 60.4774C415.388 60.4774 399.454 135.678 377.727 147.417C356.001 159.156 344.599 152.649 339.636 147.417C334.674 142.184 315.491 104.721 299.088 102.818C282.685 100.915 268.568 126.527 253.625 142.184C232.658 164.154 212.267 139.255 195.874 126.487C179.482 113.72 174.966 110.179 170.981 107.715C157.98 99.6766 150.98 82.6312 117.978 102.818C91.9765 122.566 80.4758 129.215 62.9409 142.184C45.4061 155.154 27.8964 160.233 1.37614 131.139C-25.1441 102.045 -29.3533 102.818 -29.3533 102.818C-29.3533 102.818 -37.7088 88.4761 -57.2334 90.2463C-76.758 92.0165 -81.5046 105.338 -91.9624 114.061C-102.42 122.785 -120.733 134.57 -145.92 114.061C-171.106 93.5528 -186.491 75.5257 -198.89 64.5806C-211.29 53.6354 -236.769 34.9634 -271.99 61.8037C-296.167 83.8674 -296.53 84.1371 -317.722 104.363C-335.806 121.622 -344.102 115.959 -356.186 104.363C-371.922 89.261 -382.819 75.2377 -420 60.4774" stroke="url(#paint0_linear)" stroke-width="3" stroke-linecap="round"/>
		<path opacity="0.3" d="M483 171.387C483 171.387 459.944 118.394 439.867 118.394C419.79 118.394 391.585 163.219 369.872 171.387C348.158 179.555 337.871 176.148 325.664 166.873C313.457 157.597 302.762 136.289 286.369 134.964C269.976 133.64 271.019 142.528 241.535 166.873C222.513 179.812 210.501 175.38 196.204 164.549C181.907 153.719 150.421 113.265 150.421 113.265C150.421 113.265 134.759 95.155 114.433 108.152C94.1076 121.149 73.1432 151.187 57.0487 160.344C39.5341 171.387 20.1631 161.843 2.13803 144.528C-15.8871 127.213 -31.9444 113.265 -31.9444 113.265C-31.9444 113.265 -42.7273 97.3728 -62.24 98.6044C-81.7526 99.8361 -81.7115 128.895 -92.163 134.964C-102.614 141.034 -120.916 149.234 -146.087 134.964C-171.258 120.695 -186.633 108.152 -199.025 100.537C-211.417 92.9211 -236.881 79.9294 -272.08 98.6044C-299.6 119.248 -292.229 118.168 -309.429 130.321C-323.408 140.198 -339.009 150.846 -355.24 136.262C-371.471 121.678 -383.341 100.537 -420 97.6816" stroke="url(#paint1_linear)" stroke-width="3" stroke-linecap="round"/>
	</g>
	<g opacity="0.8">
		<path d="M295.354 112.528C290.263 112.528 286.136 108.214 286.136 102.892C286.136 97.5698 290.263 93.2556 295.354 93.2556C300.445 93.2556 304.572 97.5698 304.572 102.892C304.572 108.214 300.445 112.528 295.354 112.528Z" fill="#FFBC31" fill-opacity="0.29"/>
		<path d="M295.354 109.316C291.96 109.316 289.209 106.44 289.209 102.892C289.209 99.3439 291.96 96.4678 295.354 96.4678C298.748 96.4678 301.499 99.3439 301.499 102.892C301.499 106.44 298.748 109.316 295.354 109.316Z" fill="#FFBC31" fill-opacity="0.47"/>
		<path d="M295.354 106.104C293.657 106.104 292.281 104.666 292.281 102.892C292.281 101.118 293.657 99.6797 295.354 99.6797C297.051 99.6797 298.427 101.118 298.427 102.892C298.427 104.666 297.051 106.104 295.354 106.104Z" fill="white"/>
		<animate
			attributeName="opacity"
			attributeType="XML"
	        values="1; .3; 1"
	        begin="0.5s" 
	        dur="4.0s"
	        repeatCount="indefinite"
	    />
	</g>
	<g opacity="0.8">
		<path d="M145.354 101.528C140.263 101.528 136.136 97.2136 136.136 91.8917C136.136 86.5698 140.263 82.2556 145.354 82.2556C150.445 82.2556 154.572 86.5698 154.572 91.8917C154.572 97.2136 150.445 101.528 145.354 101.528Z" fill="#FFBC31" fill-opacity="0.29"/>
		<path d="M145.354 98.3159C141.96 98.3159 139.209 95.4397 139.209 91.8918C139.209 88.3439 141.96 85.4678 145.354 85.4678C148.748 85.4678 151.499 88.3439 151.499 91.8918C151.499 95.4397 148.748 98.3159 145.354 98.3159Z" fill="#FFBC31" fill-opacity="0.47"/>
		<path d="M145.354 95.1038C143.657 95.1038 142.281 93.6657 142.281 91.8917C142.281 90.1178 143.657 88.6797 145.354 88.6797C147.051 88.6797 148.427 90.1178 148.427 91.8917C148.427 93.6657 147.051 95.1038 145.354 95.1038Z" fill="white"/>
		<animate
			attributeName="opacity"
			attributeType="XML"
			values="1; .3; 1"
			begin="2s" 
			dur="4s"
			repeatCount="indefinite"
		/>
	</g>
	<defs>
		<linearGradient id="paint0_linear" x1="382.656" y1="77.9939" x2="382.656" y2="182.3" gradientUnits="userSpaceOnUse">
			<stop stop-color="#DF9119"/>
			<stop offset="1" stop-color="#DE3119"/>
		</linearGradient>
		<linearGradient id="paint1_linear" x1="97.2586" y1="-164.953" x2="198.38" y2="246.74" gradientUnits="userSpaceOnUse">
			<stop stop-color="#1AB1E0"/>
			<stop offset="1" stop-color="#005069"/>
		</linearGradient>
	</defs>
</svg>