<svg width="289" height="58" viewBox="0 0 289 58" fill="none" xmlns="http://www.w3.org/2000/svg">
<path d="M64.8907 0H0V57.0913H64.8907V0Z" fill="#262626"/>
<path d="M122.07 8.66235H135.384L125.118 48.4287H109.39L106.231 33.794H105.488L102.383 48.4287H86.6618L76.4199 8.66235H89.7334L94.8567 30.8776H95.2295L101.034 8.66235H110.741L116.43 30.8776H116.803L122.07 8.66235Z" fill="white"/>
<path d="M172.522 48.4287V8.66235H185.254V48.4287H172.522Z" fill="white"/>
<path d="M218.259 18.8419H210.716V48.4287H197.984V18.8419H188.755V8.66235H219.945L218.259 18.8419Z" fill="white"/>
<path d="M248.908 33.4237H236.177V38.237H253.745L251.77 48.4287H223.445V8.66235H251.453L249.863 18.8636H236.177V24.1962H248.908V33.4237Z" fill="white"/>
<path d="M269.745 18.8635V21.9722L274.308 22.3954C277.101 22.6791 279.434 23.1455 281.31 23.7994C283.184 24.4534 284.697 25.3093 285.844 26.372C286.992 27.4323 287.807 28.6873 288.286 30.137C288.762 31.5868 289 33.2481 289 35.1211C289 37.8066 288.646 40.069 287.939 41.9083C287.232 43.7475 286.381 45.142 285.394 46.0965C284.579 46.873 283.571 47.4837 282.371 47.9237C281.168 48.3661 279.896 48.6931 278.554 48.9046C277.209 49.1162 275.857 49.2484 274.496 49.3013C273.132 49.3542 271.903 49.3807 270.809 49.3807C268.05 49.3807 265.399 49.2388 262.852 48.9551C260.307 48.6714 257.846 48.2651 255.477 47.7362L257.243 38.2346H275.316V35.1187L269.587 34.6426C267.006 34.395 264.846 33.9718 263.116 33.3708C261.382 32.7697 259.994 31.9499 258.953 30.9064C257.909 29.863 257.168 28.6104 256.725 27.1414C256.283 25.6748 256.064 23.9509 256.064 21.9722C256.064 19.2506 256.348 16.9786 256.913 15.1586C257.478 13.3386 258.38 11.872 259.619 10.7588C260.855 9.64563 262.457 8.85944 264.42 8.40022C266.383 7.94101 268.778 7.71021 271.607 7.71021C277.231 7.71021 282.323 8.23914 286.883 9.29941L284.759 18.8635H269.745Z" fill="white"/>
<path d="M159.524 8.66235H139.843L129.553 48.4287H142.975L144.409 42.1199H154.91L156.397 48.4287H169.816L159.524 8.66235ZM146.742 31.9908L149.342 20.8567H150.032L152.577 31.9908H146.742Z" fill="white"/>
<path d="M16.813 13.1566C19.7523 20.9031 22.6868 28.652 25.6261 36.4009C28.2527 36.3985 30.8793 36.4033 33.5059 36.3985C35.0958 33.9774 36.6665 31.5467 38.2588 29.1281C39.1872 31.5491 40.1013 33.9774 41.0201 36.4009C43.6611 36.4033 46.3046 36.3985 48.9456 36.4033C47.3076 38.9158 45.6672 41.4282 44.0243 43.9406C41.2775 43.9382 38.5306 43.943 35.7837 43.9382C34.8745 41.6782 33.9461 39.4279 33.0441 37.1655C31.5816 39.4303 30.0975 41.6782 28.6303 43.9382C25.8834 43.943 23.1366 43.9406 20.3873 43.9406C17.3806 36.5355 14.3836 29.1281 11.377 21.7206C13.1882 18.8595 14.9994 16.0081 16.813 13.1566Z" fill="#FFBC31"/>
<path d="M47.6058 13.1562C49.5998 18.4119 51.5914 23.6724 53.583 28.9281C50.7567 28.9305 47.9281 28.9281 45.0994 28.9281C44.1229 26.5239 43.1463 24.1172 42.1746 21.7106C43.9858 18.8591 45.7922 16.0053 47.6058 13.1562Z" fill="#FFBC31"/>
<path d="M26.7783 21.7082C28.5919 18.8591 30.3983 16.0053 32.2095 13.1562C34.2156 18.4432 36.2192 23.7301 38.2228 29.0171C35.3942 29.0171 32.5655 29.0195 29.7393 29.0147C28.7531 26.5792 27.7621 24.1461 26.7783 21.7082Z" fill="#FFBC31"/>
</svg>
