<svg width="404" height="50" viewBox="0 0 404 50" fill="none" xmlns="http://www.w3.org/2000/svg">
<path d="M13.4819 0.400391V3.76691C6.39405 3.87912 0.599976 6.90899 0.599976 15.157C0.599976 22.956 6.78782 25.7615 13.4819 26.4909V35.0755C9.54422 35.0194 4.6502 34.4583 1.83754 33.5045L0.768735 39.9008C4.03142 41.1913 9.03794 41.8646 13.4819 41.9207V45.8484H19.1073V41.9207C26.7577 41.4719 31.8767 38.6665 31.8767 30.4746C31.8767 22.1144 26.1951 19.1407 19.1073 18.4112V10.1072C22.7637 10.1633 26.7014 10.8366 29.6266 11.566L30.6954 5.50627C27.264 4.60853 23.495 3.93523 19.1073 3.76691V0.400391H13.4819ZM20.4573 27.052C22.7637 27.3886 23.945 28.6791 23.945 30.9235C23.945 32.0456 23.3825 34.9072 19.1073 35.0755V26.9959C19.501 26.9959 20.0636 26.9959 20.4573 27.052ZM11.9069 17.5135C9.938 16.8963 8.64417 15.7741 8.64417 13.9787C8.64417 12.071 9.82549 10.2755 13.4819 10.1072V17.8502C12.9757 17.7941 12.4694 17.6257 11.9069 17.5135Z" fill="url(#paint0_linear)"/>
<path d="M37.3188 39.9008C39.0064 40.518 46.2068 41.9207 52.7321 41.9207C61.3951 41.9207 68.933 39.6764 68.933 28.3986C68.933 19.309 64.0953 16.5036 57.6261 16.5036C54.9822 16.5036 50.3695 16.8963 48.7381 17.2891L49.5819 9.77052H67.0204L67.5829 2.08365H41.5378L39.7377 24.5832C42.9441 24.1343 48.6256 23.5171 52.3946 23.5171C55.601 23.5171 58.8637 24.3026 58.8637 28.5669C58.8637 33.3922 56.3886 34.1778 52.0008 34.1778C47.5006 34.1778 40.919 33.1117 38.5001 32.6067L37.3188 39.9008Z" fill="url(#paint1_linear)"/>
<path d="M73.9272 25.2004C73.9272 36.4221 80.5651 41.9207 91.1407 41.9207C101.773 41.9207 108.354 36.3099 108.354 25.2004V18.5796C108.354 7.30175 101.66 1.52256 91.1407 1.52256C80.6776 1.52256 73.9272 7.35786 73.9272 18.5796V25.2004ZM91.1407 8.9289C96.2035 8.9289 98.3411 13.0809 98.3411 18.0185V25.4248C98.3411 30.8674 96.2035 34.5144 91.1407 34.5144C86.0779 34.5144 83.9403 30.8674 83.9403 25.4248V18.0185C83.9403 13.137 86.0779 8.9289 91.1407 8.9289Z" fill="url(#paint2_linear)"/>
<path d="M113.517 32.1579V41.3597H116.892C116.892 44.0529 115.824 46.4094 114.361 48.261L117.567 50.0004C120.493 47.5877 123.643 42.7063 123.643 37.7687V32.1579H113.517Z" fill="url(#paint3_linear)"/>
<path d="M128.807 25.2004C128.807 36.4221 135.445 41.9207 146.02 41.9207C156.652 41.9207 163.234 36.3099 163.234 25.2004V18.5796C163.234 7.30175 156.54 1.52256 146.02 1.52256C135.557 1.52256 128.807 7.35786 128.807 18.5796V25.2004ZM146.02 8.9289C151.083 8.9289 153.221 13.0809 153.221 18.0185V25.4248C153.221 30.8674 151.083 34.5144 146.02 34.5144C140.958 34.5144 138.82 30.8674 138.82 25.4248V18.0185C138.82 13.137 140.958 8.9289 146.02 8.9289Z" fill="url(#paint4_linear)"/>
<path d="M166.822 25.2004C166.822 36.4221 173.46 41.9207 184.035 41.9207C194.667 41.9207 201.249 36.3099 201.249 25.2004V18.5796C201.249 7.30175 194.555 1.52256 184.035 1.52256C173.572 1.52256 166.822 7.35786 166.822 18.5796V25.2004ZM184.035 8.9289C189.098 8.9289 191.236 13.0809 191.236 18.0185V25.4248C191.236 30.8674 189.098 34.5144 184.035 34.5144C178.972 34.5144 176.835 30.8674 176.835 25.4248V18.0185C176.835 13.137 178.972 8.9289 184.035 8.9289Z" fill="url(#paint5_linear)"/>
<path d="M204.837 25.2004C204.837 36.4221 211.474 41.9207 222.05 41.9207C232.682 41.9207 239.264 36.3099 239.264 25.2004V18.5796C239.264 7.30175 232.569 1.52256 222.05 1.52256C211.587 1.52256 204.837 7.35786 204.837 18.5796V25.2004ZM222.05 8.9289C227.113 8.9289 229.25 13.0809 229.25 18.0185V25.4248C229.25 30.8674 227.113 34.5144 222.05 34.5144C216.987 34.5144 214.85 30.8674 214.85 25.4248V18.0185C214.85 13.137 216.987 8.9289 222.05 8.9289Z" fill="url(#paint6_linear)"/>
<path d="M244.427 32.1579V41.3597H247.802C247.802 44.0529 246.733 46.4094 245.27 48.261L248.477 50.0004C251.402 47.5877 254.552 42.7063 254.552 37.7687V32.1579H244.427Z" fill="url(#paint7_linear)"/>
<path d="M259.716 25.2004C259.716 36.4221 266.354 41.9207 276.93 41.9207C287.562 41.9207 294.143 36.3099 294.143 25.2004V18.5796C294.143 7.30175 287.449 1.52256 276.93 1.52256C266.467 1.52256 259.716 7.35786 259.716 18.5796V25.2004ZM276.93 8.9289C281.993 8.9289 284.13 13.0809 284.13 18.0185V25.4248C284.13 30.8674 281.993 34.5144 276.93 34.5144C271.867 34.5144 269.729 30.8674 269.729 25.4248V18.0185C269.729 13.137 271.867 8.9289 276.93 8.9289Z" fill="url(#paint8_linear)"/>
<path d="M297.731 25.2004C297.731 36.4221 304.369 41.9207 314.945 41.9207C325.576 41.9207 332.158 36.3099 332.158 25.2004V18.5796C332.158 7.30175 325.464 1.52256 314.945 1.52256C304.482 1.52256 297.731 7.35786 297.731 18.5796V25.2004ZM314.945 8.9289C320.007 8.9289 322.145 13.0809 322.145 18.0185V25.4248C322.145 30.8674 320.007 34.5144 314.945 34.5144C309.882 34.5144 307.744 30.8674 307.744 25.4248V18.0185C307.744 13.137 309.882 8.9289 314.945 8.9289Z" fill="url(#paint9_linear)"/>
<path d="M335.746 25.2004C335.746 36.4221 342.384 41.9207 352.959 41.9207C363.591 41.9207 370.173 36.3099 370.173 25.2004V18.5796C370.173 7.30175 363.479 1.52256 352.959 1.52256C342.496 1.52256 335.746 7.35786 335.746 18.5796V25.2004ZM352.959 8.9289C358.022 8.9289 360.16 13.0809 360.16 18.0185V25.4248C360.16 30.8674 358.022 34.5144 352.959 34.5144C347.897 34.5144 345.759 30.8674 345.759 25.4248V18.0185C345.759 13.137 347.897 8.9289 352.959 8.9289Z" fill="url(#paint10_linear)"/>
<path d="M385.574 13.3615V23.2366H375.673V30.5307H385.574V40.4058H393.899V30.5307H403.8V23.2366H393.899V13.3615H385.574Z" fill="url(#paint11_linear)"/>
<defs>
<linearGradient id="paint0_linear" x1="202.2" y1="0.400391" x2="202.2" y2="50.0004" gradientUnits="userSpaceOnUse">
<stop stop-color="#DC9E00"/>
<stop offset="1" stop-color="#D8501B"/>
</linearGradient>
<linearGradient id="paint1_linear" x1="202.2" y1="0.400391" x2="202.2" y2="50.0004" gradientUnits="userSpaceOnUse">
<stop stop-color="#DC9E00"/>
<stop offset="1" stop-color="#D8501B"/>
</linearGradient>
<linearGradient id="paint2_linear" x1="202.2" y1="0.400391" x2="202.2" y2="50.0004" gradientUnits="userSpaceOnUse">
<stop stop-color="#DC9E00"/>
<stop offset="1" stop-color="#D8501B"/>
</linearGradient>
<linearGradient id="paint3_linear" x1="202.2" y1="0.400391" x2="202.2" y2="50.0004" gradientUnits="userSpaceOnUse">
<stop stop-color="#DC9E00"/>
<stop offset="1" stop-color="#D8501B"/>
</linearGradient>
<linearGradient id="paint4_linear" x1="202.2" y1="0.400391" x2="202.2" y2="50.0004" gradientUnits="userSpaceOnUse">
<stop stop-color="#DC9E00"/>
<stop offset="1" stop-color="#D8501B"/>
</linearGradient>
<linearGradient id="paint5_linear" x1="202.2" y1="0.400391" x2="202.2" y2="50.0004" gradientUnits="userSpaceOnUse">
<stop stop-color="#DC9E00"/>
<stop offset="1" stop-color="#D8501B"/>
</linearGradient>
<linearGradient id="paint6_linear" x1="202.2" y1="0.400391" x2="202.2" y2="50.0004" gradientUnits="userSpaceOnUse">
<stop stop-color="#DC9E00"/>
<stop offset="1" stop-color="#D8501B"/>
</linearGradient>
<linearGradient id="paint7_linear" x1="202.2" y1="0.400391" x2="202.2" y2="50.0004" gradientUnits="userSpaceOnUse">
<stop stop-color="#DC9E00"/>
<stop offset="1" stop-color="#D8501B"/>
</linearGradient>
<linearGradient id="paint8_linear" x1="202.2" y1="0.400391" x2="202.2" y2="50.0004" gradientUnits="userSpaceOnUse">
<stop stop-color="#DC9E00"/>
<stop offset="1" stop-color="#D8501B"/>
</linearGradient>
<linearGradient id="paint9_linear" x1="202.2" y1="0.400391" x2="202.2" y2="50.0004" gradientUnits="userSpaceOnUse">
<stop stop-color="#DC9E00"/>
<stop offset="1" stop-color="#D8501B"/>
</linearGradient>
<linearGradient id="paint10_linear" x1="202.2" y1="0.400391" x2="202.2" y2="50.0004" gradientUnits="userSpaceOnUse">
<stop stop-color="#DC9E00"/>
<stop offset="1" stop-color="#D8501B"/>
</linearGradient>
<linearGradient id="paint11_linear" x1="202.2" y1="0.400391" x2="202.2" y2="50.0004" gradientUnits="userSpaceOnUse">
<stop stop-color="#DC9E00"/>
<stop offset="1" stop-color="#D8501B"/>
</linearGradient>
</defs>
</svg>
