<svg width="46" height="46" viewBox="0 0 46 46" fill="none" xmlns="http://www.w3.org/2000/svg">
<path d="M41.042 14.4343H35.1724V9.91262H44.6505C44.6512 9.91262 44.6519 9.91262 44.6523 9.91262C45.3966 9.91262 45.9999 9.30899 45.9999 8.56497C45.9999 8.17155 45.8318 7.81779 45.563 7.57143L42.9477 4.95614L45.6037 2.30049C45.989 1.91514 46.1041 1.33537 45.8957 0.832106C45.6872 0.328491 45.1959 0 44.6509 0H33.8247C33.0807 0 32.4774 0.603286 32.4774 1.34765V14.4343H30.9378C28.2049 14.4343 25.9816 16.6579 25.9816 19.3908V22.1994C25.3032 21.8502 24.535 21.6516 23.7208 21.6516H22.2773C19.5445 21.6516 17.3212 23.8749 17.3212 26.6077V29.4167C16.6425 29.0676 15.8742 28.8689 15.06 28.8689H13.6169C10.8837 28.8689 8.66043 31.0922 8.66043 33.8251V36.6341C7.98204 36.2845 7.21381 36.0859 6.3996 36.0859H4.95614C2.22328 36.0859 0 38.3092 0 41.042V44.6505C0 45.3949 0.603286 45.9982 1.34765 45.9982H44.6505C45.3949 45.9982 45.9982 45.3949 45.9982 44.6505V19.3908C45.9982 16.6579 43.7749 14.4343 41.042 14.4343ZM35.1724 2.69531H41.3972L40.0892 4.0033C39.8361 4.25599 39.6944 4.59887 39.6944 4.95614C39.6944 5.31376 39.8361 5.65628 40.0892 5.90932L41.3972 7.21732H35.1724V2.69531ZM2.69531 41.042C2.69531 39.7954 3.70956 38.7812 4.95614 38.7812H6.3996C7.64618 38.7812 8.66043 39.7954 8.66043 41.042V43.3032H2.69531V41.042ZM11.3557 41.042V33.8251C11.3557 32.5781 12.37 31.5639 13.6166 31.5639H15.06C16.3066 31.5639 17.3209 32.5781 17.3209 33.8251V43.3032H11.3557V41.042ZM20.0162 33.8251V26.6077C20.0162 25.3612 21.0308 24.3469 22.2773 24.3469H23.7208C24.9674 24.3469 25.9816 25.3612 25.9816 26.6077V43.3032H20.0162V33.8251ZM43.3028 43.3032H28.6769V19.3908C28.6769 18.1438 29.6912 17.1296 30.9378 17.1296H41.042C42.2886 17.1296 43.3028 18.1438 43.3028 19.3908V43.3032Z" fill="url(#paint0_linear)"/>
<defs>
<linearGradient id="paint0_linear" x1="23" y1="0" x2="23" y2="45.9982" gradientUnits="userSpaceOnUse">
<stop stop-color="#DF9418"/>
<stop offset="1" stop-color="#D83519"/>
</linearGradient>
</defs>
</svg>
