<svg width="430" height="538" viewBox="0 0 430 538" fill="none" xmlns="http://www.w3.org/2000/svg">
<path d="M331 61C331 61 244.751 98.4773 208.65 138.834C172.549 179.191 278.821 199.254 277.487 233.619C275.396 287.461 50 227.002 97.9999 277.001C146 327 232.163 311 301 362.001C381.034 421.298 9.99976 437 9.99976 437" stroke="url(#paint0_linear)" stroke-width="4"/>
<circle cx="311" cy="375" r="8.5" fill="#F2844D" stroke="white" stroke-width="3"/>
<circle cx="9.99976" cy="438" r="8.5" fill="#EA5A54" stroke="white" stroke-width="3"/>
<circle cx="89.9998" cy="265" r="8.5" fill="#F07B4A" stroke="white" stroke-width="3"/>
<circle cx="275" cy="233" r="8.5" fill="#F7A255" stroke="white" stroke-width="3"/>
<circle cx="202" cy="147" r="8.5" fill="#F9AC58" stroke="white" stroke-width="3"/>
<g clip-path="url(#clip0)">
<path d="M358.426 27.3125L354.324 26.5593C353.182 26.3497 352.031 26.6723 351.164 27.4444L344.672 33.2296C344.015 33.8151 343.706 34.6834 343.844 35.5525C343.982 36.4215 344.546 37.1509 345.352 37.5035L348.883 39.0477C350.953 34.706 354.22 30.6932 358.426 27.3125Z" fill="#FFBC31"/>
<path d="M359.734 57.7105L359.331 61.5423C359.238 62.4173 359.593 63.2681 360.28 63.8181C360.566 64.0469 360.89 64.2083 361.231 64.2985C361.709 64.4252 362.222 64.4115 362.709 64.2471L370.948 61.4666C372.047 61.0955 372.897 60.2543 373.28 59.1586L374.654 55.2207C369.636 57.2037 364.532 58.0587 359.734 57.7105Z" fill="#FFBC31"/>
<path d="M359.025 54.7927C359.153 54.8265 359.284 54.85 359.418 54.8625C361.417 55.0491 363.405 54.9981 365.352 54.7581L354.227 35.6258C353.055 37.1991 352.028 38.9016 351.201 40.7315C350.875 41.4527 350.925 42.2885 351.323 42.9728L357.53 53.6483C357.861 54.2162 358.401 54.6274 359.025 54.7927Z" fill="#FFBC31"/>
<path d="M387.197 43.5317C392.793 37.354 394.932 29.8267 395.677 26.2283C395.932 24.9953 395.22 23.7699 394.022 23.382C393.452 23.1976 392.774 22.9937 392.002 22.7895C388.036 21.7399 381.601 20.6798 374.789 22.1934C369.375 23.3963 361.696 27.1673 356.126 33.3197C356.16 33.3652 356.193 33.4125 356.223 33.4632L368.219 54.0935C368.248 54.1442 368.273 54.1961 368.296 54.2486C376.398 52.4507 383.474 47.6418 387.197 43.5317ZM374.323 28.6076C377.674 26.6588 381.986 27.7997 383.935 31.1514C384.879 32.775 385.135 34.6691 384.654 36.4846C384.174 38.3002 383.015 39.8201 381.392 40.7642C379.716 41.7385 377.8 41.9403 376.059 41.48C374.318 41.0194 372.753 39.8963 371.779 38.2204C370.835 36.5968 370.579 34.7027 371.06 32.8871C371.54 31.0716 372.699 29.5517 374.323 28.6076Z" fill="#FFBC31"/>
<path d="M374.21 36.8071C375.38 38.818 377.967 39.5028 379.978 38.3334C380.952 37.7669 381.647 36.855 381.936 35.7657C382.224 34.6763 382.071 33.5399 381.504 32.5658C380.92 31.5603 379.981 30.8864 378.936 30.61C377.892 30.3337 376.742 30.4548 375.737 31.0395C374.763 31.6059 374.067 32.5178 373.779 33.6071C373.491 34.6965 373.644 35.833 374.21 36.8071Z" fill="#FFBC31"/>
<path d="M341.206 50.2652C341.554 50.3573 341.937 50.3167 342.273 50.1214L347.886 46.8575C348.557 46.467 348.785 45.6063 348.395 44.9349C348.004 44.2635 347.143 44.0357 346.472 44.4262L340.859 47.69C340.188 48.0805 339.96 48.9412 340.35 49.6126C340.545 49.9483 340.858 50.1731 341.206 50.2652Z" fill="#FFBC31"/>
<path d="M351.386 50.0791C350.995 49.4077 350.134 49.1799 349.463 49.5703L338.672 55.8455C338 56.2359 337.772 57.0966 338.163 57.768C338.358 58.1037 338.671 58.3285 339.019 58.4205C339.367 58.5126 339.75 58.472 340.085 58.2767L350.877 52.0016C351.548 51.6112 351.776 50.7505 351.386 50.0791Z" fill="#FFBC31"/>
<path d="M352.454 54.7142L346.841 57.9781C346.17 58.3685 345.942 59.2293 346.332 59.9007C346.527 60.2364 346.84 60.4612 347.188 60.5533C347.536 60.6453 347.919 60.6047 348.255 60.4094L353.868 57.1455C354.539 56.7551 354.767 55.8944 354.376 55.223C353.986 54.5516 353.125 54.3238 352.454 54.7142Z" fill="#FFBC31"/>
</g>
<defs>
<linearGradient id="paint0_linear" x1="334" y1="80.0001" x2="56.1948" y2="451.134" gradientUnits="userSpaceOnUse">
<stop stop-color="#FFCF62"/>
<stop offset="1" stop-color="#E7423B"/>
</linearGradient>
<clipPath id="clip0">
<rect x="349.938" y="11.6582" width="48" height="48" transform="rotate(14.8225 349.938 11.6582)" fill="white"/>
</clipPath>
</defs>
</svg>
