<svg width="964" height="403" viewBox="0 0 964 403" fill="none" xmlns="http://www.w3.org/2000/svg">
<ellipse cx="470.5" cy="187" rx="151.5" ry="151" fill="white" fill-opacity="0.6"/>
<circle cx="624" cy="293" r="47" fill="white" fill-opacity="0.6"/>
<path d="M570.7 131.975C579.944 147.986 584.329 164.332 585.296 182.794C586.264 201.256 582.848 219.685 575.329 236.574C567.809 253.463 556.399 268.333 542.032 279.967C527.664 291.602 513.863 298.611 495.779 302.455L491.968 300.243L494.956 296.74C512.007 293.115 524.275 285.739 537.822 274.769C551.369 263.799 562.127 249.778 569.218 233.853C576.308 217.928 579.528 200.552 578.616 183.144C577.704 165.736 573.612 150.422 564.896 135.326L569.022 136.039L570.7 131.975Z" fill="#FFBC31"/>
<path d="M492.69 303.002C468.488 308.13 443.185 305.994 420.591 295.917C397.996 285.841 379.172 268.87 366.816 247.437C354.46 226.004 349.206 201.209 351.807 176.607C354.409 152.004 364.015 130.415 380.581 112.041L384.734 111.191L384.985 115.379C369.365 132.705 360.913 154.113 358.46 177.31C356.007 200.508 360.96 223.887 372.611 244.096C384.262 264.305 402.011 280.307 423.315 289.808C444.62 299.31 468.814 302.256 491.634 297.42L488.956 300.824L492.69 303.002Z" fill="#FF4E83"/>
<path d="M382.134 109.905C394.365 96.0417 408.027 86.7881 425.218 79.9881C442.409 73.1882 459.261 70.9581 477.665 72.7041L480.739 75.8825L476.792 78.1611C459.438 76.5149 443.888 79.7968 427.678 86.2085C411.469 92.6201 398.338 100.636 386.806 113.708L386.751 108.787L382.134 109.905Z" fill="#00C297"/>
<path d="M479.943 72.3385C498.333 74.1722 516.027 80.3322 531.579 90.3146C547.132 100.297 560.101 113.819 569.427 129.774L567.816 133.951L563.654 133.148C554.861 118.104 542.632 105.354 527.968 95.942C513.303 86.5295 496.619 80.7213 479.28 78.9923L484.042 76.2427L479.943 72.3385Z" fill="#AB34F4"/>
<circle cx="221.752" cy="180.752" r="116.673" transform="rotate(45 221.752 180.752)" fill="white" fill-opacity="0.6"/>
<path d="M287.156 117.908C297.212 127.964 303.724 139.236 308.119 152.76C312.513 166.285 313.644 180.658 311.42 194.703C309.195 208.749 303.678 222.069 295.319 233.573C286.961 245.078 278.101 253.034 265.431 259.49L262.159 258.605L263.681 255.407C275.628 249.32 283.275 241.397 291.156 230.549C299.038 219.701 304.24 207.142 306.338 193.898C308.435 180.655 307.369 167.103 303.225 154.35C299.082 141.598 292.993 131.035 283.511 121.553L286.719 121.262L287.156 117.908Z" fill="#FFBC31"/>
<path d="M263.244 260.511C246.283 269.139 227.058 272.589 208.264 269.601C189.471 266.612 172.105 257.75 158.658 244.285C145.21 230.821 136.37 213.444 133.405 194.647C130.44 175.85 133.28 157.896 141.93 140.946L144.846 139.488L145.867 142.55C137.711 158.533 135.692 176.121 138.488 193.845C141.284 211.569 149.619 227.954 162.299 240.649C174.978 253.345 191.352 261.701 209.072 264.519C226.793 267.337 245.356 264.71 261.348 256.574L260.036 259.636L263.244 260.511Z" fill="#FF4E83"/>
<path d="M142.659 139.05C148.986 126.315 157.294 116.72 168.714 108.245C180.133 99.7698 192.21 94.758 206.232 92.3911L209.148 94.1408L206.669 96.6196C193.448 98.8513 182.548 104.386 171.78 112.377C161.013 120.368 152.853 128.938 146.887 140.946L145.867 137.301L142.659 139.05Z" fill="#00C297"/>
<path d="M207.851 91.6662C221.88 89.3676 236.253 90.4217 249.796 94.7423C263.339 99.063 275.667 106.528 285.772 116.526L285.407 119.95L282.155 120.182C272.626 110.755 261.002 103.716 248.232 99.6425C235.463 95.5686 221.91 94.5746 208.683 96.742L211.674 93.751L207.851 91.6662Z" fill="#AB34F4"/>
<circle cx="77.7115" cy="286.712" r="77.7115" fill="white" fill-opacity="0.6"/>
<circle cx="799" cy="238" r="147" fill="white" fill-opacity="0.6"/>
<path d="M900.252 181.981C909.356 197.75 913.675 213.849 914.628 232.032C915.581 250.215 912.217 268.366 904.811 284.999C897.405 301.633 886.167 316.278 872.017 327.737C857.867 339.196 844.274 346.099 826.464 349.885L822.71 347.706L825.653 344.256C842.446 340.686 854.529 333.421 867.871 322.617C881.213 311.813 891.809 298.004 898.792 282.32C905.775 266.636 908.947 249.522 908.049 232.377C907.15 215.232 903.12 200.15 894.536 185.282L898.6 185.984L900.252 181.981Z" fill="#FFBC31"/>
<path d="M823.421 350.423C799.585 355.474 774.665 353.37 752.412 343.446C730.159 333.521 711.619 316.807 699.45 295.698C687.28 274.589 682.106 250.169 684.668 225.938C687.23 201.708 696.691 180.445 713.007 162.348L717.096 161.511L717.344 165.636C701.96 182.7 693.635 203.784 691.22 226.631C688.804 249.478 693.683 272.503 705.157 292.407C716.632 312.311 734.113 328.071 755.095 337.429C776.077 346.786 799.906 349.688 822.381 344.926L819.744 348.278L823.421 350.423Z" fill="#FF4E83"/>
<path d="M714.536 160.244C726.581 146.59 740.037 137.476 756.968 130.779C773.9 124.082 790.496 121.885 808.623 123.605L811.65 126.735L807.763 128.98C790.671 127.358 775.356 130.591 759.392 136.905C743.427 143.22 730.495 151.115 719.137 163.99L719.083 159.143L714.536 160.244Z" fill="#00C297"/>
<path d="M810.865 123.242C828.977 125.048 846.404 131.115 861.721 140.947C877.039 150.778 889.812 164.096 898.997 179.81L897.41 183.924L893.311 183.133C884.651 168.316 872.607 155.759 858.164 146.489C843.721 137.219 827.289 131.498 810.212 129.795L814.902 127.087L810.865 123.242Z" fill="#AB34F4"/>
<path d="M40.6192 279.96C36.6832 279.96 33.9952 281.28 33.9952 284.784C33.9952 289.2 37.1152 289.584 41.3872 290.856C42.7552 291.264 43.2352 291.552 43.2352 292.536C43.2352 293.016 42.9712 294.024 40.6192 294.024C38.9632 294.024 36.1792 293.544 34.5232 293.04L34.0672 296.184C35.7472 296.856 38.3872 297.24 40.5952 297.24C44.4112 297.24 47.3872 295.968 47.3872 292.248C47.3872 287.544 43.9792 287.376 39.7552 285.96C38.7472 285.624 38.1472 285.288 38.1472 284.496C38.1472 283.632 38.8432 283.056 40.8592 283.056C42.2512 283.056 44.5792 283.392 46.3792 283.896L46.8352 280.752C45.0592 280.296 42.9712 279.96 40.6192 279.96ZM48.629 287.592H50.309V293.568C50.309 296.28 51.605 297.24 54.557 297.24C56.117 297.24 57.389 296.928 57.989 296.76L57.533 294.384C56.837 294.552 56.357 294.624 55.517 294.624C54.629 294.624 54.149 294.096 54.149 292.872V287.592H57.509V285H54.149V281.64L50.309 282.024V285H48.629V287.592ZM69.7857 294.048C68.6097 294.384 66.4737 294.672 65.2257 294.672C63.6897 294.672 62.4897 294.504 62.4897 292.632V291.888H70.4817V289.536C70.4817 285.816 67.6497 284.76 64.6017 284.76C60.5217 284.76 58.6257 286.632 58.6257 290.4V292.368C58.6257 296.28 61.6737 297.24 64.7937 297.24C66.8337 297.24 68.6577 296.952 70.1697 296.592L69.7857 294.048ZM62.4897 289.512C62.4897 287.664 63.1377 287.136 64.6017 287.136C66.0657 287.136 66.9057 287.592 66.9057 289.344V289.92H62.4897V289.512ZM76.2794 301.8V296.184C77.1434 296.544 78.1034 297.096 79.9034 297.096C82.9274 297.096 84.5594 295.512 84.5594 291C84.5594 286.416 82.8554 284.664 79.9034 284.664C78.1034 284.664 76.8794 285.432 76.2794 285.816V285H72.4394V301.8H76.2794ZM77.9594 287.472C79.4474 287.472 80.6954 288.168 80.6954 291C80.6954 293.784 79.5194 294.504 78.2714 294.504C77.4074 294.504 76.7594 294.24 76.2794 294.048V287.952C76.6634 287.76 77.2154 287.472 77.9594 287.472ZM94.8661 286.152L95.9221 289.272L100.722 285.192V297H104.85V280.2H101.226L94.8661 286.152Z" fill="#4A4A4A"/>
<path d="M174.159 168.28C168.911 168.28 165.327 170.04 165.327 174.712C165.327 180.6 169.487 181.112 175.183 182.808C177.007 183.352 177.647 183.736 177.647 185.048C177.647 185.688 177.295 187.032 174.159 187.032C171.951 187.032 168.239 186.392 166.031 185.72L165.423 189.912C167.663 190.808 171.183 191.32 174.127 191.32C179.215 191.32 183.183 189.624 183.183 184.664C183.183 178.392 178.639 178.168 173.007 176.28C171.663 175.832 170.863 175.384 170.863 174.328C170.863 173.176 171.791 172.408 174.479 172.408C176.335 172.408 179.439 172.856 181.839 173.528L182.447 169.336C180.079 168.728 177.295 168.28 174.159 168.28ZM184.839 178.456H187.079V186.424C187.079 190.04 188.807 191.32 192.743 191.32C194.823 191.32 196.519 190.904 197.319 190.68L196.711 187.512C195.783 187.736 195.143 187.832 194.023 187.832C192.839 187.832 192.199 187.128 192.199 185.496V178.456H196.679V175H192.199V170.52L187.079 171.032V175H184.839V178.456ZM213.048 187.064C211.48 187.512 208.632 187.896 206.968 187.896C204.92 187.896 203.32 187.672 203.32 185.176V184.184H213.976V181.048C213.976 176.088 210.2 174.68 206.136 174.68C200.696 174.68 198.168 177.176 198.168 182.2V184.824C198.168 190.04 202.232 191.32 206.392 191.32C209.112 191.32 211.544 190.936 213.56 190.456L213.048 187.064ZM203.32 181.016C203.32 178.552 204.184 177.848 206.136 177.848C208.088 177.848 209.208 178.456 209.208 180.792V181.56H203.32V181.016ZM221.706 197.4V189.912C222.858 190.392 224.138 191.128 226.538 191.128C230.57 191.128 232.746 189.016 232.746 183C232.746 176.888 230.474 174.552 226.538 174.552C224.138 174.552 222.506 175.576 221.706 176.088V175H216.586V197.4H221.706ZM223.946 178.296C225.93 178.296 227.594 179.224 227.594 183C227.594 186.712 226.026 187.672 224.362 187.672C223.21 187.672 222.346 187.32 221.706 187.064V178.936C222.218 178.68 222.954 178.296 223.946 178.296ZM252.824 168.28C249.688 168.28 246.552 168.952 244.728 169.624L245.656 174.008C247.928 173.24 249.88 172.696 252.504 172.696C254.936 172.696 256.184 173.656 256.184 175.096C256.184 177.048 252.472 178.328 250.456 179.32C246.456 181.304 244.376 183 244.376 189.592V191H261.912V186.648H250.072C250.072 184.28 252.312 183.064 254.616 182.008C257.912 180.504 261.72 178.904 261.72 174.424C261.72 169.464 257.72 168.28 252.824 168.28Z" fill="#4A4A4A"/>
<path d="M418.709 175.18C411.821 175.18 407.117 177.49 407.117 183.622C407.117 191.35 412.577 192.022 420.053 194.248C422.447 194.962 423.287 195.466 423.287 197.188C423.287 198.028 422.825 199.792 418.709 199.792C415.811 199.792 410.939 198.952 408.041 198.07L407.243 203.572C410.183 204.748 414.803 205.42 418.667 205.42C425.345 205.42 430.553 203.194 430.553 196.684C430.553 188.452 424.589 188.158 417.197 185.68C415.433 185.092 414.383 184.504 414.383 183.118C414.383 181.606 415.601 180.598 419.129 180.598C421.565 180.598 425.639 181.186 428.789 182.068L429.587 176.566C426.479 175.768 422.825 175.18 418.709 175.18ZM432.726 188.536H435.666V198.994C435.666 203.74 437.934 205.42 443.1 205.42C445.83 205.42 448.056 204.874 449.106 204.58L448.308 200.422C447.09 200.716 446.25 200.842 444.78 200.842C443.226 200.842 442.386 199.918 442.386 197.776V188.536H448.266V184H442.386V178.12L435.666 178.792V184H432.726V188.536ZM469.75 199.834C467.692 200.422 463.954 200.926 461.77 200.926C459.082 200.926 456.982 200.632 456.982 197.356V196.054H470.968V191.938C470.968 185.428 466.012 183.58 460.678 183.58C453.538 183.58 450.22 186.856 450.22 193.45V196.894C450.22 203.74 455.554 205.42 461.014 205.42C464.584 205.42 467.776 204.916 470.422 204.286L469.75 199.834ZM456.982 191.896C456.982 188.662 458.116 187.738 460.678 187.738C463.24 187.738 464.71 188.536 464.71 191.602V192.61H456.982V191.896ZM481.114 213.4V203.572C482.626 204.202 484.306 205.168 487.456 205.168C492.748 205.168 495.604 202.396 495.604 194.5C495.604 186.478 492.622 183.412 487.456 183.412C484.306 183.412 482.164 184.756 481.114 185.428V184H474.394V213.4H481.114ZM484.054 188.326C486.658 188.326 488.842 189.544 488.842 194.5C488.842 199.372 486.784 200.632 484.6 200.632C483.088 200.632 481.954 200.17 481.114 199.834V189.166C481.786 188.83 482.752 188.326 484.054 188.326ZM510.785 204.076C511.709 204.496 516.539 205.42 519.773 205.42C527.921 205.42 533.969 204.034 533.969 196.768C533.969 191.56 531.071 189.796 527.417 188.788C530.063 187.948 532.331 186.058 532.331 182.32C532.331 176.566 527.669 175.18 520.193 175.18C517.169 175.18 512.591 175.852 511.079 176.398L512.213 181.9C514.103 181.354 517.967 181.06 520.277 181.06C523.427 181.06 525.275 181.774 525.275 184.042C525.275 186.31 523.301 187.444 520.361 187.444H516.161L516.959 191.98H520.067C522.839 191.98 526.661 192.274 526.661 196.012C526.661 198.994 524.015 199.54 520.277 199.54C517.169 199.54 513.473 198.91 511.667 198.532L510.785 204.076Z" fill="#4A4A4A"/>
<path d="M602.089 286.22C599.137 286.22 597.121 287.21 597.121 289.838C597.121 293.15 599.461 293.438 602.665 294.392C603.691 294.698 604.051 294.914 604.051 295.652C604.051 296.012 603.853 296.768 602.089 296.768C600.847 296.768 598.759 296.408 597.517 296.03L597.175 298.388C598.435 298.892 600.415 299.18 602.071 299.18C604.933 299.18 607.165 298.226 607.165 295.436C607.165 291.908 604.609 291.782 601.441 290.72C600.685 290.468 600.235 290.216 600.235 289.622C600.235 288.974 600.757 288.542 602.269 288.542C603.313 288.542 605.059 288.794 606.409 289.172L606.751 286.814C605.419 286.472 603.853 286.22 602.089 286.22ZM608.097 291.944H609.357V296.426C609.357 298.46 610.329 299.18 612.543 299.18C613.713 299.18 614.667 298.946 615.117 298.82L614.775 297.038C614.253 297.164 613.893 297.218 613.263 297.218C612.597 297.218 612.237 296.822 612.237 295.904V291.944H614.757V290H612.237V287.48L609.357 287.768V290H608.097V291.944ZM623.964 296.786C623.082 297.038 621.48 297.254 620.544 297.254C619.392 297.254 618.492 297.128 618.492 295.724V295.166H624.486V293.402C624.486 290.612 622.362 289.82 620.076 289.82C617.016 289.82 615.594 291.224 615.594 294.05V295.526C615.594 298.46 617.88 299.18 620.22 299.18C621.75 299.18 623.118 298.964 624.252 298.694L623.964 296.786ZM618.492 293.384C618.492 291.998 618.978 291.602 620.076 291.602C621.174 291.602 621.804 291.944 621.804 293.258V293.69H618.492V293.384ZM628.835 302.6V298.388C629.483 298.658 630.203 299.072 631.553 299.072C633.821 299.072 635.045 297.884 635.045 294.5C635.045 291.062 633.767 289.748 631.553 289.748C630.203 289.748 629.285 290.324 628.835 290.612V290H625.955V302.6H628.835ZM630.095 291.854C631.211 291.854 632.147 292.376 632.147 294.5C632.147 296.588 631.265 297.128 630.329 297.128C629.681 297.128 629.195 296.93 628.835 296.786V292.214C629.123 292.07 629.537 291.854 630.095 291.854ZM646.879 286.4L641.173 294.248V296.48H647.293V299H650.389V296.48H651.487L651.865 294.014H650.389V286.4H646.879ZM647.293 289.298V293.996H643.945L647.293 289.298Z" fill="#4A4A4A"/>
<path d="M751.728 217.34C744.184 217.34 739.032 219.87 739.032 226.586C739.032 235.05 745.012 235.786 753.2 238.224C755.822 239.006 756.742 239.558 756.742 241.444C756.742 242.364 756.236 244.296 751.728 244.296C748.554 244.296 743.218 243.376 740.044 242.41L739.17 248.436C742.39 249.724 747.45 250.46 751.682 250.46C758.996 250.46 764.7 248.022 764.7 240.892C764.7 231.876 758.168 231.554 750.072 228.84C748.14 228.196 746.99 227.552 746.99 226.034C746.99 224.378 748.324 223.274 752.188 223.274C754.856 223.274 759.318 223.918 762.768 224.884L763.642 218.858C760.238 217.984 756.236 217.34 751.728 217.34ZM767.081 231.968H770.301V243.422C770.301 248.62 772.785 250.46 778.443 250.46C781.433 250.46 783.871 249.862 785.021 249.54L784.147 244.986C782.813 245.308 781.893 245.446 780.283 245.446C778.581 245.446 777.661 244.434 777.661 242.088V231.968H784.101V227H777.661V220.56L770.301 221.296V227H767.081V231.968ZM807.631 244.342C805.377 244.986 801.283 245.538 798.891 245.538C795.947 245.538 793.647 245.216 793.647 241.628V240.202H808.965V235.694C808.965 228.564 803.537 226.54 797.695 226.54C789.875 226.54 786.241 230.128 786.241 237.35V241.122C786.241 248.62 792.083 250.46 798.063 250.46C801.973 250.46 805.469 249.908 808.367 249.218L807.631 244.342ZM793.647 235.648C793.647 232.106 794.889 231.094 797.695 231.094C800.501 231.094 802.111 231.968 802.111 235.326V236.43H793.647V235.648ZM820.077 259.2V248.436C821.733 249.126 823.573 250.184 827.023 250.184C832.819 250.184 835.947 247.148 835.947 238.5C835.947 229.714 832.681 226.356 827.023 226.356C823.573 226.356 821.227 227.828 820.077 228.564V227H812.717V259.2H820.077ZM823.297 231.738C826.149 231.738 828.541 233.072 828.541 238.5C828.541 243.836 826.287 245.216 823.895 245.216C822.239 245.216 820.997 244.71 820.077 244.342V232.658C820.813 232.29 821.871 231.738 823.297 231.738ZM852.344 248.804C853.724 249.31 859.612 250.46 864.948 250.46C872.032 250.46 878.196 248.62 878.196 239.374C878.196 231.922 874.24 229.622 868.95 229.622C866.788 229.622 863.016 229.944 861.682 230.266L862.372 224.102H876.632L877.092 217.8H855.794L854.322 236.246C856.944 235.878 861.59 235.372 864.672 235.372C867.294 235.372 869.962 236.016 869.962 239.512C869.962 243.468 867.938 244.112 864.35 244.112C860.67 244.112 855.288 243.238 853.31 242.824L852.344 248.804Z" fill="#4A4A4A"/>
</svg>
