<svg width="360" height="181" viewBox="0 0 360 181" fill="none" xmlns="http://www.w3.org/2000/svg">
<g opacity="0.36">
<g opacity="0.5">
<path d="M-47.4883 141.167C-47.4883 141.167 -12.8101 46.8755 6.3124 46.8755C25.4349 46.8755 40.602 128.435 61.2827 141.167C81.9633 153.899 92.8159 146.842 97.5396 141.167C102.263 135.492 120.522 94.8608 136.136 92.7966C151.749 90.7324 165.187 118.511 179.41 135.492C199.368 159.32 220.764 135.35 234.381 118.467C247.997 101.585 267.129 79.1618 267.129 79.1618C267.129 79.1618 292.231 42.937 311.589 63.1963C330.948 83.4556 360.936 143.902 371.348 159.111C381.76 174.32 394.543 180.836 411.711 153.846C428.879 126.857 448.764 92.7966 448.764 92.7966C448.764 92.7966 456.718 77.2419 475.302 79.1618C493.887 81.0817 498.405 95.5298 508.359 104.991C518.313 114.452 535.745 127.233 559.719 104.991C583.693 82.7479 598.336 63.1963 610.139 51.3256C621.941 39.4549 646.194 19.2038 679.719 48.3139C702.732 72.2435 703.077 72.5359 723.249 94.4722C740.463 113.191 748.36 107.049 759.861 94.4722C774.84 78.0931 785.213 62.884 820.603 46.8755" stroke="url(#paint0_linear)" stroke-width="3" stroke-linecap="round"/>
<path opacity="0.3" d="M-39.2988 167.026C-39.2988 167.026 -17.3436 109.635 1.77557 109.635C20.8947 109.635 47.753 158.18 68.4301 167.026C89.1072 175.871 98.9033 172.182 110.528 162.137C122.152 152.092 132.337 129.014 147.948 127.58C163.558 126.146 162.565 135.771 190.641 162.137C208.755 176.15 220.194 171.35 233.809 159.62C247.423 147.891 277.407 104.079 277.407 104.079C277.407 104.079 292.322 84.4662 311.677 98.542C331.033 112.618 359.998 157.339 364.988 165.327C369.978 173.314 390.652 188.876 407.817 170.124C424.982 151.372 448.828 119.108 448.828 119.108C448.828 119.108 456.78 108.301 475.362 109.635C493.943 110.968 498.46 121.007 508.413 127.58C518.366 134.153 535.794 143.034 559.764 127.58C583.733 112.126 598.374 98.542 610.175 90.2945C621.975 82.047 646.224 67.977 679.743 88.202C705.95 110.559 698.93 109.389 715.309 122.551C728.621 133.248 743.478 144.779 758.934 128.985C774.391 113.191 785.694 90.2945 820.603 87.2026" stroke="url(#paint1_linear)" stroke-width="3" stroke-linecap="round"/>
</g>
<g opacity="0.8">
<path d="M301.153 66.6863C305.999 66.6863 309.928 62.7578 309.928 57.9118C309.928 53.0657 305.999 49.1373 301.153 49.1373C296.307 49.1373 292.379 53.0657 292.379 57.9118C292.379 62.7578 296.307 66.6863 301.153 66.6863Z" fill="#23DCF5" fill-opacity="0.2"/>
<path d="M301.152 63.7614C304.383 63.7614 307.002 61.1424 307.002 57.9117C307.002 54.6811 304.383 52.0621 301.152 52.0621C297.922 52.0621 295.303 54.6811 295.303 57.9117C295.303 61.1424 297.922 63.7614 301.152 63.7614Z" fill="#78EBF2" fill-opacity="0.3"/>
<path d="M301.153 60.8366C302.769 60.8366 304.078 59.5271 304.078 57.9118C304.078 56.2964 302.769 54.9869 301.153 54.9869C299.538 54.9869 298.229 56.2964 298.229 57.9118C298.229 59.5271 299.538 60.8366 301.153 60.8366Z" fill="#25F5F5"/>
</g>
<g opacity="0.8">
<path d="M139.702 101.784C144.548 101.784 148.477 97.8558 148.477 93.0098C148.477 88.1638 144.548 84.2353 139.702 84.2353C134.856 84.2353 130.928 88.1638 130.928 93.0098C130.928 97.8558 134.856 101.784 139.702 101.784Z" fill="#239DF5" fill-opacity="0.2"/>
<path d="M139.701 98.8595C142.932 98.8595 145.551 96.2405 145.551 93.0098C145.551 89.7791 142.932 87.1602 139.701 87.1602C136.471 87.1602 133.852 89.7791 133.852 93.0098C133.852 96.2405 136.471 98.8595 139.701 98.8595Z" fill="#7893F2" fill-opacity="0.4"/>
<path d="M139.7 95.9346C141.316 95.9346 142.625 94.6251 142.625 93.0098C142.625 91.3945 141.316 90.085 139.7 90.085C138.085 90.085 136.775 91.3945 136.775 93.0098C136.775 94.6251 138.085 95.9346 139.7 95.9346Z" fill="#255FF5"/>
</g>
</g>
<defs>
<linearGradient id="paint0_linear" x1="56.5917" y1="65.8732" x2="56.5917" y2="179" gradientUnits="userSpaceOnUse">
<stop stop-color="#28A07C"/>
<stop offset="1" stop-color="#5E5CD1"/>
</linearGradient>
<linearGradient id="paint1_linear" x1="328.032" y1="-197.232" x2="205.528" y2="241.312" gradientUnits="userSpaceOnUse">
<stop stop-color="#1AB1E0"/>
<stop offset="1" stop-color="#005069"/>
</linearGradient>
</defs>
</svg>
