<svg width="1440" height="311" viewBox="0 0 1440 311" fill="none" xmlns="http://www.w3.org/2000/svg">
	<g opacity="0.5">
		<g opacity="0.7">
			<path d="M-37 245.325C-37 245.325 22.2823 84.1335 54.9721 84.1335C87.6619 84.1335 113.59 223.56 148.944 245.325C184.297 267.09 202.85 255.026 210.925 245.325C219 235.623 250.214 166.164 276.905 162.635C303.596 159.107 326.568 206.594 350.882 235.623C385 276.357 421.576 235.38 444.854 206.519C468.132 177.659 500.837 139.327 500.837 139.327C500.837 139.327 543.748 77.4006 576.842 112.034C609.936 146.667 661.201 250 679 276C696.799 302 718.652 313.139 748 267C777.348 220.861 811.342 162.635 811.342 162.635C811.342 162.635 824.938 136.045 856.709 139.327C888.479 142.609 896.203 167.308 913.22 183.481C930.236 199.655 960.035 221.505 1001.02 183.481C1042 145.457 1067.04 112.034 1087.21 91.7409C1107.39 71.448 1148.85 36.8289 1206.16 86.5924C1245.5 127.5 1246.09 128 1280.57 165.5C1310 197.5 1323.5 187 1343.16 165.5C1368.77 137.5 1386.5 111.5 1447 84.1335" stroke="url(#paint0_linear)" stroke-linecap="round"/>
			<path opacity="0.3" d="M-23 289.53C-23 289.53 14.5324 191.42 47.2166 191.42C79.9007 191.42 125.815 274.408 161.162 289.53C196.51 304.652 213.256 298.344 233.128 281.172C253 264 270.411 224.549 297.098 222.097C323.784 219.646 322.086 236.101 370.082 281.172C401.048 305.128 420.603 296.922 443.877 276.871C467.151 256.819 518.407 181.923 518.407 181.923C518.407 181.923 543.905 148.395 576.993 172.457C610.081 196.52 659.597 272.97 668.127 286.625C676.658 300.28 712 326.883 741.343 294.827C770.686 262.77 811.452 207.614 811.452 207.614C811.452 207.614 825.046 189.14 856.811 191.42C888.576 193.7 896.298 210.86 913.312 222.097C930.326 233.334 960.12 248.516 1001.1 222.097C1042.07 195.679 1067.1 172.457 1087.27 158.358C1107.45 144.259 1148.9 120.206 1206.2 154.781C1251 193 1239 191 1267 213.5C1289.76 231.787 1315.15 251.5 1341.58 224.5C1368 197.5 1387.32 158.358 1447 153.073" stroke="url(#paint1_linear)" stroke-linecap="round"/>
		</g>
		<g opacity="0.8">
			<path d="M283 174C291.284 174 298 167.284 298 159C298 150.716 291.284 144 283 144C274.716 144 268 150.716 268 159C268 167.284 274.716 174 283 174Z" fill="#239DF5" fill-opacity="0.2"/>
			<path d="M283 169C288.523 169 293 164.523 293 159C293 153.477 288.523 149 283 149C277.477 149 273 153.477 273 159C273 164.523 277.477 169 283 169Z" fill="#7893F2" fill-opacity="0.4"/>
			<path d="M283 164C285.761 164 288 161.761 288 159C288 156.239 285.761 154 283 154C280.239 154 278 156.239 278 159C278 161.761 280.239 164 283 164Z" fill="#255FF5"/>
			<animate
				attributeName="opacity"
				attributeType="XML"
		        values="1; .3; 1"
		        begin="0.5s" 
		        dur="4.0s"
		        repeatCount="indefinite"
		    />
		</g>
		<g opacity="0.8">
			<path d="M559 114C567.284 114 574 107.284 574 99C574 90.7157 567.284 84 559 84C550.716 84 544 90.7157 544 99C544 107.284 550.716 114 559 114Z" fill="#23DCF5" fill-opacity="0.2"/>
			<path d="M559 109C564.523 109 569 104.523 569 99C569 93.4772 564.523 89 559 89C553.477 89 549 93.4772 549 99C549 104.523 553.477 109 559 109Z" fill="#78EBF2" fill-opacity="0.3"/>
			<path d="M559 104C561.761 104 564 101.761 564 99C564 96.2386 561.761 94 559 94C556.239 94 554 96.2386 554 99C554 101.761 556.239 104 559 104Z" fill="#25F5F5"/>
			<animate
				attributeName="opacity"
				attributeType="XML"
		        values="1; .3; 1"
		        begin="2s" 
		        dur="4s"
		        repeatCount="indefinite"
		    />
		</g>
		<g opacity="0.8">
			<path d="M850 203C858.284 203 865 196.284 865 188C865 179.716 858.284 173 850 173C841.716 173 835 179.716 835 188C835 196.284 841.716 203 850 203Z" fill="#239DF5" fill-opacity="0.2"/>
			<path d="M850 198C855.523 198 860 193.523 860 188C860 182.477 855.523 178 850 178C844.477 178 840 182.477 840 188C840 193.523 844.477 198 850 198Z" fill="#7893F2" fill-opacity="0.4"/>
			<path d="M850 193C852.761 193 855 190.761 855 188C855 185.239 852.761 183 850 183C847.239 183 845 185.239 845 188C845 190.761 847.239 193 850 193Z" fill="#255FF5"/>
			<animate
				attributeName="opacity"
				attributeType="XML"
		        values="1; .2; 1"
		        begin="2s" 
		        dur="4s"
		        repeatCount="indefinite"
		    />
		</g>
		<g opacity="0.8">
			<path d="M1147 72C1155.28 72 1162 65.2843 1162 57C1162 48.7157 1155.28 42 1147 42C1138.72 42 1132 48.7157 1132 57C1132 65.2843 1138.72 72 1147 72Z" fill="#23DCF5" fill-opacity="0.2"/>
			<path d="M1147 67C1152.52 67 1157 62.5228 1157 57C1157 51.4772 1152.52 47 1147 47C1141.48 47 1137 51.4772 1137 57C1137 62.5228 1141.48 67 1147 67Z" fill="#78EBF2" fill-opacity="0.3"/>
			<path d="M1147 62C1149.76 62 1152 59.7614 1152 57C1152 54.2386 1149.76 52 1147 52C1144.24 52 1142 54.2386 1142 57C1142 59.7614 1144.24 62 1147 62Z" fill="#25F5F5"/>
			<animate
				attributeName="opacity"
				attributeType="XML"
		        values="1; .3; 1"
		        begin="2s" 
		        dur="4s"
		        repeatCount="indefinite"
		    />
		</g>
	</g>
	<defs>
		<linearGradient id="paint0_linear" x1="140.924" y1="116.61" x2="140.924" y2="310" gradientUnits="userSpaceOnUse">
			<stop stop-color="#28A07C"/>
			<stop offset="1" stop-color="#5E5CD1"/>
			<animate
				attributeName="x1"
				attributeType="XML"
				from="-900"
				to="2000"
				begin="0s" dur="3s"
				repeatCount="indefinite"
		    />
		    <animate
				attributeName="x2"
				attributeType="XML"
				from="0"
				to="2000"
				begin="0s" dur="3s"
				repeatCount="indefinite"
		    />
		</linearGradient>
		<linearGradient id="paint1_linear" x1="604.951" y1="-333.167" x2="395.531" y2="416.522" gradientUnits="userSpaceOnUse">
			<stop stop-color="#1AB1E0"/>
			<stop offset="1" stop-color="#005069"/>
		</linearGradient>
	</defs>
</svg>
