<svg width="14" height="14" viewBox="0 0 14 14" fill="none" xmlns="http://www.w3.org/2000/svg">
<path d="M13.9875 5.84443C13.9589 5.75671 13.883 5.69273 13.7917 5.67941L9.40785 5.04231L7.44737 1.06998C7.40666 0.987098 7.32232 0.934753 7.23024 0.934753C7.13815 0.934753 7.05358 0.987098 7.01311 1.06998L5.05238 5.04255L0.668565 5.67965C0.577205 5.69298 0.501597 5.75671 0.472759 5.84468C0.444406 5.93216 0.467912 6.02861 0.534069 6.09283L3.70646 9.18501L2.95741 13.5514C2.9419 13.6423 2.97922 13.7341 3.05361 13.7884C3.1285 13.8431 3.22761 13.8502 3.30879 13.8068L7.23024 11.7455L11.1512 13.8068C11.1866 13.8255 11.2256 13.8347 11.2641 13.8347C11.3143 13.8347 11.3642 13.8192 11.4066 13.7884C11.4813 13.7341 11.5186 13.6423 11.5028 13.5514L10.754 9.18525L13.9264 6.09283C13.9923 6.02812 14.0161 5.93192 13.9875 5.84443Z" fill="url(#paint0_linear)"/>
<defs>
<linearGradient id="paint0_linear" x1="0.460938" y1="7.38488" x2="13.9994" y2="7.38488" gradientUnits="userSpaceOnUse">
<stop stop-color="#7E00CC"/>
<stop offset="1" stop-color="#E51685"/>
</linearGradient>
</defs>
</svg>
