<?xml version="1.0" encoding="utf-8"?>
<!-- Generator: Adobe Illustrator 17.0.0, SVG Export Plug-In . SVG Version: 6.00 Build 0)  -->
<!DOCTYPE svg PUBLIC "-//W3C//DTD SVG 1.1//EN" "http://www.w3.org/Graphics/SVG/1.1/DTD/svg11.dtd">
<svg version="1.1" id="Layer_1" xmlns="http://www.w3.org/2000/svg" xmlns:xlink="http://www.w3.org/1999/xlink" x="0px" y="0px"
	 width="85.005px" height="614.061px" viewBox="0 0 85.005 614.061" enable-background="new 0 0 85.005 614.061"
	 xml:space="preserve">
<g>
	
		<linearGradient id="SVGID_1_" gradientUnits="userSpaceOnUse" x1="-48.5542" y1="4926.5723" x2="-75.3483" y2="4771.1548" gradientTransform="matrix(1 0 0 -1 119.195 5310.7603)">
		<stop  offset="0" style="stop-color:#FFBC31"/>
		<stop  offset="1" style="stop-color:#FE6434;stop-opacity:0.98"/>
	</linearGradient>
	<path fill="none" stroke="url(#SVGID_1_)" stroke-width="3" d="M45.501,540.438c0,0,11.172-25.424,15.089-39.417
		c9.109-32.538-12.156-61.135-5.47-86.35c6.686-25.215,24.065-32.911,24.065-32.911"/>
	<path fill="#FFFFFF" d="M67.697,381.13l3.127,3.205l2.863-2.793l-3.127-3.205L67.697,381.13z M69.072,377.019
		c-1.972,0.303-2.753,2.702-1.374,4.113l2.861-2.795c0.883,0.903,0.385,2.442-0.88,2.637L69.072,377.019z M73.377,376.361
		l-4.304,0.658l0.604,3.954l4.304-0.657L73.377,376.361z M73.797,373.38l-1.929,4.108l3.621,1.7l1.929-4.108L73.797,373.38z
		 M78.209,373.38c-0.482-1.026-1.477-1.38-2.206-1.38c-0.729,0-1.724,0.354-2.206,1.38l3.621,1.7
		c-0.338,0.719-1.009,0.92-1.415,0.92s-1.077-0.201-1.415-0.92L78.209,373.38z M80.138,377.489l-1.929-4.109l-3.621,1.7l1.929,4.109
		L80.138,377.489z M82.934,377.02l-4.304-0.657l-0.604,3.954l4.304,0.657L82.934,377.02z M84.309,381.132
		c1.38-1.413,0.595-3.813-1.376-4.113l-0.602,3.954c-1.267-0.193-1.767-1.731-0.883-2.637L84.309,381.132z M81.183,384.336
		l3.127-3.205l-2.863-2.793l-3.127,3.205L81.183,384.336z M82.465,387.148l-0.739-4.531l-3.948,0.644l0.739,4.531L82.465,387.148z
		 M78.876,389.672c1.751,0.973,3.923-0.482,3.588-2.525l-3.947,0.646c-0.215-1.315,1.181-2.241,2.302-1.618L78.876,389.672z
		 M75.036,387.549l3.844,2.125l1.935-3.501l-3.844-2.125L75.036,387.549z M73.127,389.673l3.844-2.125l-1.935-3.501l-3.844,2.125
		L73.127,389.673z M69.542,387.146c-0.329,2.008,1.807,3.515,3.589,2.524l-1.944-3.496c1.146-0.637,2.513,0.33,2.302,1.618
		L69.542,387.146z M70.281,382.617l-0.739,4.531l3.948,0.644l0.739-4.531L70.281,382.617z M69.128,379.734l1.432-1.396l-0.001-0.001
		L69.128,379.734z M69.375,378.996l-0.302-1.977h-0.001L69.375,378.996z M73.679,378.339l0.302,1.977l1.055-0.161l0.453-0.966
		L73.679,378.339z M75.607,374.23l-1.81-0.85l0,0L75.607,374.23z M76.399,374.23l1.81-0.85l0,0L76.399,374.23z M78.328,378.339
		l-1.81,0.85l0.454,0.966l1.055,0.161L78.328,378.339z M82.632,378.997l-0.302,1.977h0.001L82.632,378.997z M82.878,379.734
		l-1.431-1.397l-0.001,0.001L82.878,379.734z M79.752,382.939l-1.432-1.396l-0.705,0.722l0.162,0.996L79.752,382.939z
		 M80.491,387.47l-1.974,0.322l0,0.001L80.491,387.47z M79.847,387.923l0.971-1.748l-0.004-0.002L79.847,387.923z M76.003,385.798
		l0.968-1.75l-0.967-0.535l-0.968,0.535L76.003,385.798z M72.159,387.923l-0.967-1.75l-0.004,0.002L72.159,387.923z M71.516,387.47
		l1.974,0.323l0-0.001L71.516,387.47z M72.255,382.939l1.974,0.322l0.162-0.996l-0.705-0.723L72.255,382.939z"/>
	<path fill="#FFBC31" d="M72.255,382.939l-0.739,4.531c-0.059,0.36,0.326,0.63,0.643,0.453l3.844-2.125l3.844,2.125
		c0.315,0.175,0.703-0.09,0.643-0.453l-0.739-4.531l3.127-3.205c0.248-0.253,0.106-0.684-0.247-0.738l-4.304-0.657l-1.929-4.109
		c-0.144-0.307-0.647-0.307-0.792,0l-1.929,4.109l-4.304,0.657c-0.354,0.054-0.495,0.484-0.247,0.738L72.255,382.939z"/>
	
		<linearGradient id="SVGID_2_" gradientUnits="userSpaceOnUse" x1="-58.9334" y1="5115.1353" x2="-96.9334" y2="4773.6348" gradientTransform="matrix(1 0 0 -1 119.195 5310.7603)">
		<stop  offset="0" style="stop-color:#FF48E2"/>
		<stop  offset="1" style="stop-color:#6B3EEB"/>
	</linearGradient>
	<path fill="none" stroke="url(#SVGID_2_)" stroke-width="3" d="M34.985,538.484c0,0-6.415-50.634-3.496-82.5
		c3.769-41.15,19.689-62.243,21.995-103.5c2.322-41.533-20.999-76.5-10.5-106c10.5-29.5,29.503-49.56,29.503-49.56"/>
	<path fill="#FFFFFF" d="M67.697,196.13l3.127,3.205l2.863-2.793l-3.127-3.205L67.697,196.13z M69.072,192.019
		c-1.972,0.303-2.753,2.702-1.374,4.113l2.861-2.795c0.883,0.903,0.385,2.442-0.88,2.637L69.072,192.019z M73.377,191.361
		l-4.304,0.658l0.604,3.954l4.304-0.657L73.377,191.361z M73.797,188.38l-1.929,4.108l3.621,1.7l1.929-4.108L73.797,188.38z
		 M78.209,188.38c-0.482-1.026-1.477-1.38-2.206-1.38c-0.729,0-1.724,0.354-2.206,1.38l3.621,1.7
		c-0.338,0.719-1.009,0.92-1.415,0.92s-1.077-0.201-1.415-0.92L78.209,188.38z M80.138,192.489l-1.929-4.109l-3.621,1.7l1.929,4.109
		L80.138,192.489z M82.934,192.02l-4.304-0.657l-0.604,3.954l4.304,0.657L82.934,192.02z M84.309,196.132
		c1.38-1.413,0.595-3.813-1.376-4.113l-0.602,3.954c-1.267-0.193-1.767-1.731-0.883-2.637L84.309,196.132z M81.183,199.336
		l3.127-3.205l-2.863-2.793l-3.127,3.205L81.183,199.336z M82.465,202.148l-0.739-4.531l-3.948,0.644l0.739,4.531L82.465,202.148z
		 M78.876,204.672c1.751,0.973,3.923-0.482,3.588-2.525l-3.947,0.646c-0.215-1.315,1.181-2.241,2.302-1.618L78.876,204.672z
		 M75.036,202.549l3.844,2.125l1.935-3.501l-3.844-2.125L75.036,202.549z M73.127,204.673l3.844-2.125l-1.935-3.501l-3.844,2.125
		L73.127,204.673z M69.542,202.146c-0.329,2.008,1.807,3.515,3.589,2.524l-1.944-3.496c1.146-0.637,2.513,0.33,2.302,1.618
		L69.542,202.146z M70.281,197.617l-0.739,4.531l3.948,0.644l0.739-4.531L70.281,197.617z M69.128,194.734l1.432-1.396l-0.001-0.001
		L69.128,194.734z M69.375,193.996l-0.302-1.977h-0.001L69.375,193.996z M73.679,193.339l0.302,1.977l1.055-0.161l0.453-0.966
		L73.679,193.339z M75.607,189.23l-1.81-0.85l0,0L75.607,189.23z M76.399,189.23l1.81-0.85l0,0L76.399,189.23z M78.328,193.339
		l-1.81,0.85l0.454,0.966l1.055,0.161L78.328,193.339z M82.632,193.997l-0.302,1.977h0.001L82.632,193.997z M82.878,194.734
		l-1.431-1.397l-0.001,0.001L82.878,194.734z M79.752,197.939l-1.432-1.396l-0.705,0.722l0.162,0.996L79.752,197.939z
		 M80.491,202.47l-1.974,0.322l0,0.001L80.491,202.47z M79.847,202.923l0.971-1.748l-0.004-0.002L79.847,202.923z M76.003,200.798
		l0.968-1.75l-0.967-0.535l-0.968,0.535L76.003,200.798z M72.159,202.923l-0.967-1.75l-0.004,0.002L72.159,202.923z M71.516,202.47
		l1.974,0.323l0-0.001L71.516,202.47z M72.255,197.939l1.974,0.322l0.162-0.996l-0.705-0.723L72.255,197.939z"/>
	<path fill="#FF48E2" d="M72.255,197.939l-0.739,4.531c-0.059,0.36,0.326,0.63,0.643,0.453l3.844-2.125l3.844,2.125
		c0.315,0.175,0.703-0.09,0.643-0.453l-0.739-4.531l3.127-3.205c0.248-0.253,0.106-0.684-0.247-0.738l-4.304-0.657l-1.929-4.109
		c-0.144-0.307-0.647-0.307-0.792,0l-1.929,4.109l-4.304,0.657c-0.354,0.054-0.495,0.484-0.247,0.738L72.255,197.939z"/>
	
		<linearGradient id="SVGID_3_" gradientUnits="userSpaceOnUse" x1="-55.3225" y1="5307.248" x2="-127.3226" y2="4757.248" gradientTransform="matrix(1 0 0 -1 119.195 5310.7603)">
		<stop  offset="0" style="stop-color:#26D09D"/>
		<stop  offset="1" style="stop-color:#32A2A1"/>
	</linearGradient>
	<path fill="none" stroke="url(#SVGID_3_)" stroke-width="3" d="M21.507,540.82c0,0-10.007-84.851-18.007-132.851
		c-8-48,20.293-47.649,26-80C40.088,267.941-4.5,229.873,16,172.469c9.303-26.05,28.337-34.421,36-61
		c4.69-16.267,2.277-26.38,5.5-43C62.04,45.058,74.507,9.82,74.507,9.82"/>
	<path fill="#FFFFFF" d="M67.697,9.13l3.127,3.205l2.863-2.793L70.56,6.337L67.697,9.13z M69.072,5.019
		c-1.972,0.303-2.753,2.702-1.374,4.113l2.861-2.795c0.883,0.903,0.385,2.442-0.88,2.636L69.072,5.019z M73.377,4.361l-4.304,0.658
		l0.604,3.954l4.304-0.657L73.377,4.361z M73.797,1.38l-1.929,4.108l3.621,1.7l1.929-4.108L73.797,1.38z M78.209,1.38
		C77.727,0.354,76.732,0,76.003,0c-0.729,0-1.724,0.354-2.206,1.38l3.621,1.7C77.08,3.799,76.408,4,76.003,4
		s-1.077-0.201-1.415-0.92L78.209,1.38z M80.138,5.489L78.209,1.38l-3.621,1.7l1.929,4.109L80.138,5.489z M82.934,5.02L78.63,4.362
		l-0.604,3.954l4.304,0.657L82.934,5.02z M84.309,9.132c1.38-1.413,0.595-3.813-1.376-4.113l-0.602,3.954
		c-1.267-0.193-1.767-1.731-0.883-2.637L84.309,9.132z M81.183,12.336l3.127-3.205l-2.863-2.793L78.32,9.543L81.183,12.336z
		 M82.465,15.148l-0.739-4.531l-3.948,0.644l0.739,4.531L82.465,15.148z M78.876,17.672c1.751,0.973,3.923-0.482,3.588-2.525
		l-3.947,0.646c-0.215-1.315,1.181-2.241,2.302-1.618L78.876,17.672z M75.036,15.549l3.844,2.125l1.935-3.501l-3.844-2.125
		L75.036,15.549z M73.127,17.673l3.844-2.125l-1.935-3.501l-3.844,2.125L73.127,17.673z M69.542,15.146
		c-0.329,2.008,1.807,3.515,3.589,2.524l-1.944-3.496c1.146-0.637,2.513,0.33,2.302,1.618L69.542,15.146z M70.281,10.617
		l-0.739,4.531l3.948,0.644l0.739-4.531L70.281,10.617z M69.128,7.734l1.432-1.396l-0.001-0.001L69.128,7.734z M69.375,6.996
		l-0.302-1.977h-0.001L69.375,6.996z M73.679,6.339l0.302,1.977l1.055-0.161l0.453-0.966L73.679,6.339z M75.607,2.23l-1.81-0.85l0,0
		L75.607,2.23z M76.399,2.23l1.81-0.85l0,0L76.399,2.23z M78.328,6.339l-1.81,0.85l0.454,0.966l1.055,0.161L78.328,6.339z
		 M82.632,6.997L82.33,8.974h0.001L82.632,6.997z M82.878,7.734l-1.431-1.397l-0.001,0.001L82.878,7.734z M79.752,10.939
		L78.32,9.543l-0.705,0.722l0.162,0.996L79.752,10.939z M80.491,15.47l-1.974,0.322l0,0.001L80.491,15.47z M79.847,15.923
		l0.971-1.748l-0.004-0.002L79.847,15.923z M76.003,13.798l0.968-1.75l-0.967-0.535l-0.968,0.535L76.003,13.798z M72.159,15.923
		l-0.967-1.75l-0.004,0.002L72.159,15.923z M71.516,15.47l1.974,0.323l0-0.001L71.516,15.47z M72.255,10.939l1.974,0.322
		l0.162-0.996l-0.705-0.723L72.255,10.939z"/>
	<path fill="#26D09D" d="M72.255,10.939l-0.739,4.531c-0.059,0.36,0.326,0.63,0.643,0.453l3.844-2.125l3.844,2.125
		c0.315,0.175,0.703-0.09,0.643-0.453l-0.739-4.531l3.127-3.205c0.248-0.253,0.106-0.684-0.247-0.738l-4.304-0.657L76.399,2.23
		c-0.144-0.307-0.647-0.307-0.792,0l-1.929,4.109l-4.304,0.657C69.021,7.05,68.88,7.48,69.128,7.734L72.255,10.939z"/>
	<g>
		<path fill="#4A4A4A" d="M20.836,586.706l-2.261,2.64c-0.629,0.734-0.879,1.699-0.686,2.646l1.448,7.1
			c0.147,0.719,0.642,1.306,1.326,1.57c0.684,0.265,1.446,0.164,2.037-0.269l2.591-1.896
			C23.031,595.186,21.509,591.151,20.836,586.706z"/>
		<path fill="#4A4A4A" d="M43.283,598.496l2.591,1.896c0.592,0.433,1.353,0.534,2.037,0.27c0.285-0.11,0.536-0.276,0.744-0.483
			c0.292-0.292,0.497-0.667,0.582-1.086l1.448-7.101c0.193-0.947-0.057-1.912-0.686-2.646l-2.261-2.64
			C47.065,591.151,45.543,595.186,43.283,598.496z"/>
		<path fill="#4A4A4A" d="M40.883,597.785c0.078-0.078,0.15-0.163,0.215-0.254c0.972-1.362,1.768-2.815,2.411-4.318H25.066
			c0.643,1.503,1.439,2.956,2.411,4.318c0.383,0.537,1.006,0.851,1.666,0.852h10.291C39.98,598.382,40.503,598.166,40.883,597.785z"
			/>
		<path fill="#4A4A4A" d="M28.428,575.796c0-3.23,2.628-5.859,5.859-5.859c1.565,0,3.037,0.609,4.143,1.716
			c1.107,1.106,1.716,2.578,1.716,4.143c0,1.615-0.657,3.08-1.718,4.141c-1.061,1.062-2.526,1.718-4.141,1.718
			c-1.565,0-3.037-0.609-4.143-1.716C29.038,578.833,28.428,577.361,28.428,575.796z M44.572,572.773
			c-2.106-6.619-6.633-11.313-8.913-13.357c-0.781-0.7-1.963-0.7-2.744,0c-0.371,0.333-0.802,0.736-1.273,1.206
			c-2.418,2.418-5.877,6.61-7.64,12.151c-1.401,4.404-1.901,11.516,0.197,18.105c0.047-0.006,0.095-0.01,0.144-0.01h19.887
			c0.049,0,0.097,0.004,0.144,0.01C46.474,584.289,45.974,577.177,44.572,572.773z"/>
		<path fill="#4A4A4A" d="M34.287,579.312c1.938,0,3.516-1.577,3.516-3.516c0-0.939-0.366-1.822-1.03-2.486
			c-0.664-0.664-1.547-1.029-2.486-1.029c-0.969,0-1.848,0.394-2.485,1.031c-0.637,0.636-1.031,1.516-1.031,2.484
			c0,0.939,0.366,1.822,1.03,2.486C32.465,578.946,33.348,579.312,34.287,579.312z"/>
		<path fill="#4A4A4A" d="M30.158,608.725c0.212-0.212,0.343-0.505,0.343-0.829l0-5.411c0-0.647-0.525-1.172-1.172-1.172
			c-0.647,0-1.172,0.524-1.172,1.172l0,5.411c0,0.647,0.525,1.172,1.172,1.172C29.652,609.068,29.945,608.937,30.158,608.725z"/>
		<path fill="#4A4A4A" d="M34.288,601.314c-0.647,0-1.172,0.524-1.172,1.172l0,10.403c0,0.647,0.525,1.172,1.172,1.172
			c0.324,0,0.617-0.131,0.829-0.343c0.212-0.212,0.343-0.505,0.343-0.829l0-10.403C35.46,601.838,34.935,601.314,34.288,601.314z"/>
		<path fill="#4A4A4A" d="M38.074,602.486l0,5.411c0,0.647,0.525,1.172,1.172,1.172c0.324,0,0.617-0.131,0.829-0.343
			s0.343-0.505,0.343-0.829l0-5.411c0-0.647-0.525-1.172-1.172-1.172C38.599,601.314,38.074,601.839,38.074,602.486z"/>
	</g>
</g>
</svg>
