<?xml version="1.0" encoding="utf-8"?>
<!-- Generator: Adobe Illustrator 17.0.0, SVG Export Plug-In . SVG Version: 6.00 Build 0)  -->
<!DOCTYPE svg PUBLIC "-//W3C//DTD SVG 1.1//EN" "http://www.w3.org/Graphics/SVG/1.1/DTD/svg11.dtd">
<svg version="1.1" id="Layer_1" xmlns="http://www.w3.org/2000/svg" xmlns:xlink="http://www.w3.org/1999/xlink" x="0px" y="0px"
	 width="340.003px" height="440.117px" viewBox="0 0 340.003 440.117" enable-background="new 0 0 340.003 440.117"
	 xml:space="preserve">
<g>
	
		<linearGradient id="SVGID_1_" gradientUnits="userSpaceOnUse" x1="43.4316" y1="2172.322" x2="-117.4699" y2="2356.7285" gradientTransform="matrix(1 0 0 -1 119.195 2542.7595)">
		<stop  offset="0" style="stop-color:#FF613F"/>
		<stop  offset="1" style="stop-color:#FFBC31"/>
	</linearGradient>
	<path fill="none" stroke="url(#SVGID_1_)" stroke-width="3" d="M162.213,367.1c0,0-2.254-3.698-29.733-57.577
		c-24.586-48.207-74.879-15.859-100.168-61.13C7.024,203.122,8.984,187.037,8.984,187.037"/>
	
		<linearGradient id="SVGID_2_" gradientUnits="userSpaceOnUse" x1="78.8155" y1="2527.4451" x2="66.1732" y2="2183.6584" gradientTransform="matrix(1 0 0 -1 119.195 2542.7595)">
		<stop  offset="0" style="stop-color:#26D09D"/>
		<stop  offset="1" style="stop-color:#32A2A2"/>
	</linearGradient>
	<path fill="none" stroke="url(#SVGID_2_)" stroke-width="3" d="M177.823,366.36c0,0-23.619-48.103-25.604-107.52
		c-1.985-59.416,56.001-60.743,71.911-93.638c15.67-32.399-0.668-47.369-19.88-85.938c-19.213-38.569-9.127-63.546-9.127-63.546"/>
	
		<linearGradient id="SVGID_3_" gradientUnits="userSpaceOnUse" x1="190.2391" y1="2423.1729" x2="62.6933" y2="2177.4236" gradientTransform="matrix(1 0 0 -1 119.195 2542.7595)">
		<stop  offset="0" style="stop-color:#FF48E2"/>
		<stop  offset="1" style="stop-color:#924BEC"/>
	</linearGradient>
	<path fill="none" stroke="url(#SVGID_3_)" stroke-width="3" d="M187.702,367.039c0,0,12.798-12.322,47.798-60.171
		c35.001-47.848-20.5-56.548,8.999-110.679c29.499-54.131,86.202-67.908,86.202-67.908"/>
	<path fill="#FFFFFF" d="M322.695,128.13l3.127,3.205l2.863-2.793l-3.127-3.205L322.695,128.13z M324.07,124.019
		c-1.972,0.303-2.753,2.701-1.374,4.113l2.861-2.795c0.883,0.904,0.385,2.442-0.88,2.637L324.07,124.019z M328.375,123.361
		l-4.304,0.657l0.604,3.954l4.304-0.657L328.375,123.361z M328.795,120.38l-1.929,4.108l3.621,1.699l1.928-4.108L328.795,120.38z
		 M333.207,120.38c-0.482-1.026-1.477-1.38-2.206-1.38s-1.724,0.354-2.206,1.38l3.621,1.7c-0.338,0.719-1.009,0.92-1.415,0.92
		s-1.077-0.201-1.415-0.92L333.207,120.38z M335.136,124.489l-1.929-4.109l-3.621,1.7l1.929,4.109L335.136,124.489z M337.932,124.02
		l-4.304-0.657l-0.604,3.954l4.304,0.657L337.932,124.02z M339.307,128.132c1.38-1.413,0.595-3.813-1.376-4.113l-0.602,3.954
		c-1.267-0.193-1.767-1.732-0.883-2.637L339.307,128.132z M336.181,131.336l3.127-3.205l-2.863-2.793l-3.127,3.205L336.181,131.336z
		 M337.463,134.148l-0.739-4.531l-3.948,0.644l0.739,4.531L337.463,134.148z M333.874,136.672c1.751,0.973,3.923-0.482,3.588-2.525
		l-3.947,0.646c-0.215-1.315,1.181-2.241,2.302-1.618L333.874,136.672z M330.034,134.549l3.844,2.125l1.935-3.501l-3.844-2.125
		L330.034,134.549z M328.125,136.673l3.844-2.125l-1.935-3.501l-3.844,2.125L328.125,136.673z M324.54,134.146
		c-0.329,2.008,1.807,3.515,3.589,2.524l-1.944-3.496c1.146-0.637,2.513,0.33,2.302,1.618L324.54,134.146z M325.279,129.617
		l-0.739,4.531l3.948,0.644l0.739-4.531L325.279,129.617z M324.126,126.734l1.432-1.397l-0.001-0.001L324.126,126.734z
		 M324.373,125.996l-0.302-1.977l-0.001,0L324.373,125.996z M328.677,125.339l0.302,1.977l1.055-0.161l0.453-0.966L328.677,125.339z
		 M330.605,121.23l-1.81-0.85l0,0L330.605,121.23z M331.397,121.23l1.81-0.85l0,0L331.397,121.23z M333.326,125.339l-1.81,0.85
		l0.453,0.966l1.055,0.161L333.326,125.339z M337.63,125.997l-0.302,1.977h0.001L337.63,125.997z M337.877,126.734l-1.431-1.398
		l-0.001,0.001L337.877,126.734z M334.75,129.939l-1.432-1.396l-0.705,0.722l0.163,0.996L334.75,129.939z M335.489,134.47
		l-1.974,0.322l0,0.001L335.489,134.47z M334.846,134.923l0.971-1.748l-0.004-0.002L334.846,134.923z M331.001,132.798l0.968-1.75
		l-0.967-0.535l-0.968,0.535L331.001,132.798z M327.157,134.923l-0.967-1.75l-0.004,0.002L327.157,134.923z M326.514,134.469
		l1.974,0.323l0-0.001L326.514,134.469z M327.253,129.939l1.974,0.322l0.162-0.996l-0.705-0.722L327.253,129.939z"/>
	<path fill="#FF48E2" d="M327.253,129.939l-0.739,4.531c-0.059,0.36,0.326,0.63,0.643,0.453l3.844-2.125l3.844,2.125
		c0.315,0.175,0.703-0.09,0.643-0.453l-0.739-4.531l3.127-3.205c0.248-0.254,0.106-0.684-0.247-0.738l-4.304-0.657l-1.929-4.109
		c-0.144-0.307-0.648-0.307-0.792,0l-1.929,4.109l-4.304,0.657c-0.354,0.054-0.495,0.484-0.247,0.738L327.253,129.939z"/>
	<path fill="#FFFFFF" d="M0.695,192.13l3.127,3.205l2.863-2.793l-3.127-3.205L0.695,192.13z M2.07,188.019
		c-1.972,0.303-2.753,2.701-1.374,4.113l2.861-2.795c0.883,0.904,0.385,2.442-0.88,2.636L2.07,188.019z M6.375,187.361l-4.304,0.657
		l0.604,3.954l4.304-0.657L6.375,187.361z M6.795,184.38l-1.929,4.108l3.621,1.7l1.928-4.108L6.795,184.38z M11.207,184.38
		C10.726,183.354,9.73,183,9.001,183s-1.724,0.354-2.206,1.38l3.621,1.7c-0.338,0.719-1.009,0.92-1.415,0.92
		s-1.077-0.201-1.415-0.92L11.207,184.38z M13.136,188.489l-1.929-4.109l-3.621,1.7l1.929,4.109L13.136,188.489z M15.932,188.02
		l-4.304-0.657l-0.604,3.954l4.304,0.657L15.932,188.02z M17.307,192.132c1.38-1.413,0.595-3.813-1.376-4.113l-0.602,3.954
		c-1.267-0.193-1.767-1.732-0.883-2.637L17.307,192.132z M14.182,195.336l3.127-3.205l-2.863-2.793l-3.127,3.205L14.182,195.336z
		 M15.463,198.148l-0.739-4.531l-3.948,0.644l0.739,4.531L15.463,198.148z M11.874,200.672c1.751,0.973,3.923-0.482,3.588-2.525
		l-3.947,0.646c-0.215-1.315,1.181-2.241,2.302-1.618L11.874,200.672z M8.034,198.549l3.844,2.125l1.935-3.501l-3.844-2.125
		L8.034,198.549z M6.125,200.673l3.844-2.125l-1.935-3.501l-3.844,2.125L6.125,200.673z M2.54,198.146
		c-0.329,2.008,1.807,3.515,3.589,2.524l-1.944-3.496c1.146-0.637,2.513,0.33,2.302,1.618L2.54,198.146z M3.279,193.617
		l-0.739,4.531l3.948,0.644l0.739-4.531L3.279,193.617z M2.126,190.734l1.432-1.397l-0.001-0.001L2.126,190.734z M2.373,189.996
		l-0.302-1.977l-0.001,0L2.373,189.996z M6.677,189.338l0.302,1.977l1.055-0.161l0.453-0.966L6.677,189.338z M8.605,185.23
		l-1.81-0.85l0,0L8.605,185.23z M9.397,185.23l1.81-0.85l0,0L9.397,185.23z M11.326,189.339l-1.81,0.85l0.453,0.966l1.055,0.161
		L11.326,189.339z M15.63,189.997l-0.302,1.977h0.001L15.63,189.997z M15.877,190.734l-1.431-1.398l-0.001,0.001L15.877,190.734z
		 M12.75,193.939l-1.432-1.397l-0.705,0.723l0.163,0.996L12.75,193.939z M13.489,198.47l-1.974,0.322l0,0.001L13.489,198.47z
		 M12.846,198.923l0.971-1.749l-0.004-0.002L12.846,198.923z M9.001,196.798l0.968-1.75l-0.967-0.535l-0.968,0.535L9.001,196.798z
		 M5.157,198.923l-0.967-1.75l-0.004,0.002L5.157,198.923z M4.514,198.469l1.974,0.323l0-0.001L4.514,198.469z M5.253,193.939
		l1.974,0.322l0.162-0.996l-0.705-0.722L5.253,193.939z"/>
	<path fill="#FFBC31" d="M5.253,193.939l-0.739,4.531c-0.059,0.36,0.326,0.63,0.643,0.453l3.844-2.125l3.844,2.125
		c0.315,0.175,0.703-0.09,0.643-0.453l-0.739-4.531l3.127-3.205c0.248-0.254,0.106-0.684-0.247-0.738l-4.304-0.657l-1.929-4.109
		c-0.144-0.307-0.648-0.307-0.792,0l-1.929,4.108l-4.304,0.657c-0.354,0.054-0.495,0.484-0.247,0.738L5.253,193.939z"/>
	<path fill="#FFFFFF" d="M186.695,9.13l3.127,3.205l2.863-2.793l-3.127-3.205L186.695,9.13z M188.07,5.019
		c-1.972,0.303-2.753,2.701-1.374,4.113l2.861-2.795c0.883,0.904,0.385,2.442-0.88,2.637L188.07,5.019z M192.375,4.361l-4.304,0.657
		l0.604,3.954l4.304-0.657L192.375,4.361z M192.795,1.38l-1.929,4.108l3.621,1.699l1.928-4.108L192.795,1.38z M197.207,1.38
		C196.726,0.354,195.73,0,195.001,0s-1.724,0.354-2.206,1.38l3.621,1.7C196.078,3.799,195.406,4,195.001,4s-1.077-0.201-1.415-0.92
		L197.207,1.38z M199.136,5.489l-1.929-4.109l-3.621,1.7l1.929,4.109L199.136,5.489z M201.932,5.02l-4.304-0.657l-0.604,3.954
		l4.304,0.657L201.932,5.02z M203.307,9.132c1.38-1.413,0.595-3.813-1.376-4.113l-0.602,3.954c-1.267-0.193-1.767-1.732-0.883-2.637
		L203.307,9.132z M200.182,12.336l3.127-3.205l-2.863-2.793l-3.127,3.205L200.182,12.336z M201.463,15.148l-0.739-4.531
		l-3.948,0.644l0.739,4.531L201.463,15.148z M197.874,17.672c1.751,0.973,3.923-0.482,3.588-2.525l-3.947,0.646
		c-0.215-1.315,1.181-2.241,2.302-1.618L197.874,17.672z M194.034,15.549l3.844,2.125l1.935-3.501l-3.844-2.125L194.034,15.549z
		 M192.125,17.673l3.844-2.125l-1.935-3.501l-3.844,2.125L192.125,17.673z M188.54,15.146c-0.329,2.008,1.807,3.515,3.589,2.524
		l-1.944-3.496c1.146-0.637,2.513,0.33,2.302,1.618L188.54,15.146z M189.279,10.617l-0.739,4.531l3.948,0.644l0.739-4.531
		L189.279,10.617z M188.126,7.734l1.432-1.397l-0.001-0.001L188.126,7.734z M188.373,6.996l-0.302-1.977l-0.001,0L188.373,6.996z
		 M192.677,6.339l0.302,1.977l1.055-0.161l0.453-0.966L192.677,6.339z M194.605,2.23l-1.81-0.85l0,0L194.605,2.23z M195.397,2.23
		l1.81-0.85l0,0L195.397,2.23z M197.326,6.339l-1.81,0.85l0.453,0.966l1.055,0.161L197.326,6.339z M201.63,6.997l-0.302,1.977h0.001
		L201.63,6.997z M201.877,7.734l-1.431-1.398l-0.001,0.001L201.877,7.734z M198.75,10.939l-1.432-1.396l-0.705,0.722l0.163,0.996
		L198.75,10.939z M199.489,15.47l-1.974,0.322l0,0.001L199.489,15.47z M198.846,15.923l0.971-1.748l-0.004-0.002L198.846,15.923z
		 M195.001,13.798l0.968-1.75l-0.967-0.535l-0.968,0.535L195.001,13.798z M191.157,15.923l-0.967-1.75l-0.004,0.002L191.157,15.923z
		 M190.514,15.469l1.974,0.323l0-0.001L190.514,15.469z M191.253,10.939l1.974,0.322l0.162-0.996l-0.705-0.722L191.253,10.939z"/>
	<path fill="#26D09D" d="M191.253,10.939l-0.739,4.531c-0.059,0.36,0.326,0.63,0.643,0.453l3.844-2.125l3.844,2.125
		c0.315,0.175,0.703-0.09,0.643-0.453l-0.739-4.531l3.127-3.205c0.248-0.254,0.106-0.684-0.247-0.738l-4.304-0.657l-1.929-4.109
		c-0.144-0.307-0.648-0.307-0.792,0l-1.929,4.109l-4.304,0.657c-0.354,0.054-0.495,0.484-0.247,0.738L191.253,10.939z"/>
	<g>
		<path fill="#4A4A4A" d="M163.705,412.762l-2.261,2.64c-0.629,0.735-0.879,1.699-0.686,2.647l1.448,7.1
			c0.147,0.719,0.642,1.305,1.326,1.57c0.684,0.264,1.446,0.164,2.037-0.269l2.591-1.896
			C165.901,421.243,164.379,417.208,163.705,412.762z"/>
		<path fill="#4A4A4A" d="M186.152,424.553l2.591,1.896c0.592,0.433,1.353,0.534,2.037,0.269c0.285-0.11,0.536-0.276,0.744-0.483
			c0.292-0.292,0.497-0.667,0.582-1.086l1.448-7.1c0.193-0.948-0.057-1.912-0.686-2.646l-2.261-2.64
			C189.935,417.208,188.413,421.243,186.152,424.553z"/>
		<path fill="#4A4A4A" d="M183.752,423.841c0.078-0.078,0.15-0.163,0.215-0.254c0.972-1.362,1.768-2.816,2.411-4.319h-18.443
			c0.643,1.503,1.439,2.956,2.411,4.319c0.383,0.537,1.006,0.851,1.666,0.851h10.291
			C182.849,424.439,183.372,424.222,183.752,423.841z"/>
		<path fill="#4A4A4A" d="M171.297,401.853c0-3.23,2.628-5.859,5.859-5.859c1.565,0,3.036,0.609,4.143,1.716
			c1.107,1.107,1.716,2.578,1.716,4.143c0,1.615-0.657,3.08-1.718,4.141c-1.061,1.061-2.526,1.718-4.141,1.718
			c-1.565,0-3.037-0.609-4.143-1.716S171.297,403.418,171.297,401.853z M187.442,398.83c-2.106-6.619-6.633-11.313-8.913-13.357
			c-0.781-0.7-1.963-0.7-2.744,0c-0.371,0.333-0.802,0.736-1.273,1.206c-2.418,2.418-5.877,6.61-7.64,12.151
			c-1.401,4.404-1.901,11.516,0.197,18.105c0.047-0.006,0.095-0.01,0.144-0.01H187.1c0.049,0,0.097,0.004,0.144,0.01
			C189.343,410.346,188.843,403.234,187.442,398.83z"/>
		<path fill="#4A4A4A" d="M177.157,405.368c1.938,0,3.516-1.577,3.516-3.516c0-0.939-0.366-1.822-1.03-2.486
			c-0.664-0.664-1.547-1.03-2.486-1.03c-0.969,0-1.848,0.394-2.485,1.031s-1.031,1.516-1.031,2.485c0,0.939,0.366,1.822,1.03,2.486
			S176.218,405.368,177.157,405.368z"/>
		<path fill="#4A4A4A" d="M173.027,434.782c0.212-0.212,0.343-0.505,0.343-0.829v-5.411c0-0.647-0.525-1.172-1.172-1.172
			c-0.647,0-1.172,0.525-1.172,1.172v5.411c0,0.647,0.525,1.172,1.172,1.172C172.522,435.125,172.815,434.994,173.027,434.782z"/>
		<path fill="#4A4A4A" d="M177.157,427.371c-0.647,0-1.172,0.525-1.172,1.172l0,10.403c0,0.647,0.525,1.172,1.172,1.172
			c0.324,0,0.617-0.131,0.829-0.343s0.343-0.505,0.343-0.829v-10.403C178.329,427.895,177.804,427.371,177.157,427.371z"/>
		<path fill="#4A4A4A" d="M180.943,428.542l0,5.411c0,0.647,0.525,1.172,1.172,1.172c0.324,0,0.617-0.131,0.829-0.343
			c0.212-0.212,0.343-0.505,0.343-0.829v-5.411c0-0.647-0.525-1.172-1.172-1.172C181.468,427.371,180.943,427.895,180.943,428.542z"
			/>
	</g>
</g>
</svg>
