<svg width="360" height="131" viewBox="0 0 360 131" fill="none" xmlns="http://www.w3.org/2000/svg">
<g opacity="0.6" clip-path="url(#clip0_1291_478)">
<g opacity="0.8">
<path d="M154.628 44.2398C150.7 44.2398 147.517 41.0519 147.517 37.1194C147.517 33.1869 150.7 29.999 154.628 29.999C158.555 29.999 161.738 33.1869 161.738 37.1194C161.738 41.0519 158.555 44.2398 154.628 44.2398Z" fill="#239DF5" fill-opacity="0.2"/>
<path d="M154.628 41.8664C152.01 41.8664 149.887 39.7411 149.887 37.1195C149.887 34.4978 152.01 32.3726 154.628 32.3726C157.246 32.3726 159.368 34.4978 159.368 37.1195C159.368 39.7411 157.246 41.8664 154.628 41.8664Z" fill="#7893F2" fill-opacity="0.4"/>
<path d="M154.628 39.493C153.319 39.493 152.258 38.4304 152.258 37.1196C152.258 35.8087 153.319 34.7461 154.628 34.7461C155.937 34.7461 156.998 35.8087 156.998 37.1196C156.998 38.4304 155.937 39.493 154.628 39.493Z" fill="#255FF5"/>
</g>
<g opacity="0.8">
<path d="M223.364 130.633C219.437 130.633 216.253 127.445 216.253 123.513C216.253 119.58 219.437 116.393 223.364 116.393C227.291 116.393 230.475 119.58 230.475 123.513C230.475 127.445 227.291 130.633 223.364 130.633Z" fill="#656565" fill-opacity="0.2"/>
<path d="M223.364 128.259C220.746 128.259 218.624 126.134 218.624 123.512C218.624 120.89 220.746 118.765 223.364 118.765C225.982 118.765 228.104 120.89 228.104 123.512C228.104 126.134 225.982 128.259 223.364 128.259Z" fill="#656565" fill-opacity="0.4"/>
<path d="M223.364 125.887C222.055 125.887 220.994 124.824 220.994 123.513C220.994 122.202 222.055 121.14 223.364 121.14C224.673 121.14 225.734 122.202 225.734 123.513C225.734 124.824 224.673 125.887 223.364 125.887Z" fill="#656565"/>
</g>
<g opacity="0.5">
<path d="M-316.101 43.4254C-316.101 43.4254 -288.558 123.425 -273.371 123.425C-258.183 123.425 -251.938 39.0032 -235.513 28.2013C-219.088 17.3993 -213.382 41.4082 -211.81 43.4254C-210.239 45.4427 -192.924 117.898 -180.523 119.649C-168.123 121.401 -150.15 81.941 -138.854 67.5336C-123.003 47.3175 -101.595 61.8035 -89.9804 80.3164C-78.3663 98.8294 -74.3369 103.576 -66.2781 113.07C-58.2193 122.564 -43.9714 130.259 -28.5962 113.07C-13.2209 95.8816 8.27987 41.1051 16.5493 28.2013C24.8188 15.2974 34.9713 9.76908 48.6064 32.668C62.2414 55.5669 78.035 84.4642 78.035 84.4642C78.035 84.4642 84.3516 97.6612 99.1119 96.0323C113.872 94.4034 117.461 82.1453 125.367 74.1184C133.273 66.0915 149.358 46.8112 168.398 65.6826C187.439 84.5539 189.898 87.1826 203.454 99.7796C219.283 114.488 240.904 126.837 258.717 102.335C276.529 77.8326 280.016 73.0578 296.037 54.4465C312.058 35.8353 322.786 43.7761 331.921 54.4465C343.817 68.343 338.892 93.7926 367 107.375" stroke="url(#paint0_linear_1291_478)" stroke-width="3" stroke-linecap="round"/>
<path opacity="0.3" d="M364.63 44.7138C364.63 44.7138 345.21 102.626 330.025 102.626C314.84 102.626 310.115 55.1572 298.516 39.9762C286.413 15.7578 278.354 34.9736 270.295 48.3882C262.236 61.8028 238.607 123.547 226.209 124.937C213.81 126.327 200.072 102.479 184.019 72.5977C174.064 54.0681 157.382 28.6104 146.569 39.9762C135.756 51.3421 115.319 72.5974 115.319 72.5974C115.319 72.5974 103.473 91.6023 88.1005 77.963C72.7279 64.3238 49.723 20.9894 45.7597 13.2493C41.7964 5.50929 25.3767 -9.56981 11.744 8.60073C-1.88868 26.7713 -11.3473 44.3921 -18.8733 58.9545C-26.3993 73.5168 -32.5583 96.3236 -47.3161 95.031C-62.0738 93.7385 -67.2485 74.271 -78.1291 54.6988C-85.8759 40.7637 -93.2986 37.5256 -108.936 49.8256C-127.973 64.8002 -151.952 94.1596 -161.324 102.151C-170.696 110.143 -200.681 133.264 -216.577 104.179C-232.473 75.094 -228.402 67.2145 -232.473 54.6988C-237.056 40.6106 -254.845 33.1594 -267.121 48.4638C-279.397 63.7681 -288.375 85.9548 -316.1 88.9508" stroke="url(#paint1_linear_1291_478)" stroke-width="3" stroke-linecap="round"/>
</g>
</g>
<defs>
<linearGradient id="paint0_linear_1291_478" x1="-233.438" y1="107.306" x2="-233.438" y2="11.3268" gradientUnits="userSpaceOnUse">
<stop stop-color="#28A07C"/>
<stop offset="1" stop-color="#5E5CD1"/>
</linearGradient>
<linearGradient id="paint1_linear_1291_478" x1="75.1114" y1="364.565" x2="214.991" y2="-45.8665" gradientUnits="userSpaceOnUse">
<stop stop-color="#1AB1E0"/>
<stop offset="1" stop-color="#005069"/>
</linearGradient>
<clipPath id="clip0_1291_478">
<rect width="360" height="131" fill="white" transform="matrix(-1 0 0 1 360 0)"/>
</clipPath>
</defs>
</svg>
