<svg width="2048" height="278" viewBox="0 0 2048 278" fill="none" xmlns="http://www.w3.org/2000/svg">
<g clip-path="url(#clip0_1657_16399)">
<g opacity="0.8">
<path d="M682 153.197C690.284 153.197 697 146.482 697 138.197C697 129.913 690.284 123.197 682 123.197C673.716 123.197 667 129.913 667 138.197C667 146.482 673.716 153.197 682 153.197Z" fill="#239DF5" fill-opacity="0.2"/>
<path d="M682 148.197C687.523 148.197 692 143.72 692 138.197C692 132.674 687.523 128.197 682 128.197C676.477 128.197 672 132.674 672 138.197C672 143.72 676.477 148.197 682 148.197Z" fill="#7893F2" fill-opacity="0.4"/>
<path d="M682 143.197C684.761 143.197 687 140.959 687 138.197C687 135.436 684.761 133.197 682 133.197C679.239 133.197 677 135.436 677 138.197C677 140.959 679.239 143.197 682 143.197Z" fill="#255FF5"/>
<animate
attributeName="opacity"
attributeType="XML"
values="1; .3; 1"
begin="0.5s" 
dur="4.0s"
repeatCount="indefinite"
/>
</g>
<g opacity="0.8">
<path d="M537 278.197C545.284 278.197 552 271.482 552 263.197C552 254.913 545.284 248.197 537 248.197C528.716 248.197 522 254.913 522 263.197C522 271.482 528.716 278.197 537 278.197Z" fill="#656565" fill-opacity="0.2"/>
<path d="M537 273.197C542.523 273.197 547 268.72 547 263.197C547 257.674 542.523 253.197 537 253.197C531.477 253.197 527 257.674 527 263.197C527 268.72 531.477 273.197 537 273.197Z" fill="#656565" fill-opacity="0.4"/>
<path d="M537 268.197C539.761 268.197 542 265.959 542 263.197C542 260.436 539.761 258.197 537 258.197C534.239 258.197 532 260.436 532 263.197C532 265.959 534.239 268.197 537 268.197Z" fill="#656565"/>
</g>
<g opacity="0.5">
<path d="M2055 35.1969C2050.77 40.803 1962 252.055 1889 252.055C1785 252.055 1720 15.1969 1652.96 142.267C1621.65 197.457 1601.98 260.009 1585.23 260.009C1553.19 260.009 1540.02 82.1636 1505.37 59.4079C1470.72 36.6522 1458.69 87.2301 1455.37 91.4796C1452.05 95.7292 1415.53 248.366 1389.37 252.055C1363.21 255.744 1325.3 172.618 1301.47 142.267C1268.03 99.6788 1222.87 130.195 1198.37 169.195C1173.87 208.195 1165.37 218.195 1148.37 238.195C1131.37 258.195 1101.31 274.405 1068.88 238.195C1036.45 201.986 1031.09 86.5915 1013.65 59.4079C996.201 32.2243 974.785 20.5781 946.022 68.8176C917.258 117.057 883.942 177.933 883.942 177.933C883.942 177.933 870.617 205.734 839.48 202.303C808.343 198.871 800.774 173.048 784.096 156.138C767.419 139.229 744.166 69.745 704 109.5C663.834 149.255 643.5 193.5 617 220.5C585.077 253.026 540.37 267.197 502.794 215.58C465.219 163.963 457.863 153.904 424.066 114.697C390.27 75.4899 376 104.5 361.5 129C345.105 156.702 333.777 183.654 298.52 210.197C241 253.5 190.5 59.303 151.5 87C112.5 114.697 110.5 240 81.5 239.5C52.5 239 21 135 -2.5 120.5" stroke="url(#paint0_linear_1657_16399)" stroke-width="3" stroke-linecap="round"/>
<path opacity="0.3" d="M-4 84.215C-4 84.215 68 216.196 106 216.196C171.899 199.391 155 51.1966 213 107.197C252 164.239 288.798 216.196 312.37 216.196C344.403 216.196 354.37 116.196 378.839 84.215C404.37 33.1956 421.37 73.6763 438.37 101.936C455.37 130.196 505.216 260.268 531.37 263.196C557.524 266.123 586.506 215.884 620.37 152.936C641.37 113.901 676.56 60.2713 699.37 84.215C722.18 108.159 765.292 152.936 765.292 152.936C765.292 152.936 790.281 192.972 822.709 164.239C855.138 135.506 903.667 44.2167 912.027 27.9112C920.388 11.6058 955.025 -20.1603 983.783 18.1183C1012.54 56.397 1032.49 93.5177 1048.37 124.195C1064.25 154.873 1077.24 202.918 1108.37 200.195C1139.5 197.472 1150.42 156.461 1173.37 115.23C1189.71 85.874 1205.37 79.0524 1238.36 104.964C1278.52 136.51 1329.1 198.359 1348.87 215.195C1368.64 232.031 1431.89 280.738 1465.43 219.466C1498.96 158.195 1490.37 141.596 1498.96 115.23C1508.63 85.5514 1546.15 69.8544 1572.05 102.095C1593.22 128.448 1625 192.175 1667 229.197C1725.63 280.874 1764 72.1965 1830 78.1966C1868.58 77.9636 1878 174.466 1955 219.466C2025 254.466 2050 123.197 2057 180.218" stroke="url(#paint1_linear_1657_16399)" stroke-width="3" stroke-linecap="round"/>
</g>
</g>
<defs>
<linearGradient id="paint0_linear_1657_16399" x1="1500.99" y1="226.053" x2="1500.99" y2="23.8596" gradientUnits="userSpaceOnUse">
<stop stop-color="#28A07C"/>
<stop offset="1" stop-color="#5E5CD1"/>
<animate
attributeName="x1"
attributeType="XML"
from="-900"
to="2000"
begin="0s" dur="3s"
repeatCount="indefinite"
/>
<animate
attributeName="x2"
attributeType="XML"
from="0"
to="1800"
begin="0s" dur="3s"
repeatCount="indefinite"
/>
</linearGradient>
<linearGradient id="paint1_linear_1657_16399" x1="850.11" y1="768.004" x2="555.752" y2="-96.8685" gradientUnits="userSpaceOnUse">
<stop stop-color="#1AB1E0"/>
<stop offset="1" stop-color="#005069"/>
</linearGradient>
<clipPath id="clip0_1657_16399">
<rect width="2048" height="278" fill="white"/>
</clipPath>
</defs>
</svg>
