<svg width="2048" height="360" viewBox="0 0 2048 360" fill="none" xmlns="http://www.w3.org/2000/svg">
<g opacity="0.5">
  <path d="M-5 185.5C-5 185.5 59 278 95.5 265.5C120.5 259.5 173.098 94.2746 202.073 94.2746C240.531 94.2746 282.627 236.409 310.87 272.498C339.113 308.587 364.32 309.412 385.546 283.911C406.772 258.411 431.769 190.781 463.17 186.63C494.571 182.478 521.597 238.346 550.202 272.498C590.341 320.42 633.371 272.212 660.757 238.258C688.143 204.305 726.62 159.208 726.62 159.208C726.62 159.208 777.104 86.3536 816.038 127.099C854.971 167.844 915.283 289.412 936.223 320C957.164 350.588 982.872 363.693 1017.4 309.412C1051.93 255.13 1091.92 186.63 1091.92 186.63C1091.92 186.63 1107.92 155.347 1145.29 159.208C1182.67 163.069 1191.76 192.127 1211.78 211.154C1231.8 230.182 1266.85 255.889 1315.07 211.154C1363.28 166.42 1392.73 127.099 1416.47 103.225C1440.21 79.3505 1488.99 38.6221 1556.41 97.1675C1602.69 145.294 1603.39 145.882 1643.96 190C1678.58 227.647 1694.46 215.294 1717.59 190C1732.12 174.109 1830.5 80.9999 1830.5 80.9999C1830.5 80.9999 1907.5 -26.0001 2049.5 226" stroke="url(#paint0_linear)" stroke-width="3" stroke-linecap="round"/>
  <path opacity="0.3" d="M-2.5 285C-2.5 285 45.5 335.918 97.5 317.5C121.5 311.5 163.622 220.494 192.949 220.494C231.401 220.494 285.417 318.127 327.002 335.918C368.588 353.708 388.289 346.287 411.668 326.085C435.047 305.882 455.531 259.47 486.926 256.585C518.322 253.701 516.324 273.06 572.791 326.085C609.221 354.268 632.227 344.614 659.608 321.024C686.989 297.434 747.291 209.322 747.291 209.322C747.291 209.322 777.287 169.876 816.215 198.185C855.142 226.494 913.396 316.436 923.432 332.501C933.468 348.565 975.047 379.862 1009.57 342.149C1044.09 304.435 1092.05 239.546 1092.05 239.546C1092.05 239.546 1108.04 217.811 1145.41 220.494C1182.78 223.177 1191.87 243.365 1211.88 256.585C1231.9 269.805 1266.95 287.666 1315.16 256.585C1363.37 225.505 1392.81 198.185 1416.55 181.598C1440.28 165.011 1489.05 136.713 1556.46 177.39C1609.16 222.353 1595.05 220 1627.99 246.471C1654.76 267.985 1684.64 291.176 1715.73 259.412C1744.51 229.995 1807.5 191 1824.94 177.39C1896.75 121.342 2043.31 177.849 2048.5 177.389" stroke="url(#paint1_linear)" stroke-width="3" stroke-linecap="round"/>
</g>
<g opacity="0.8">
  <path d="M795.046 134.118C804.793 134.118 812.694 126.217 812.694 116.471C812.694 106.724 804.793 98.8235 795.046 98.8235C785.3 98.8235 777.399 106.724 777.399 116.471C777.399 126.217 785.3 134.118 795.046 134.118Z" fill="#23DCF5" fill-opacity="0.2"/>
  <path d="M795.046 128.235C801.544 128.235 806.811 122.968 806.811 116.471C806.811 109.973 801.544 104.706 795.046 104.706C788.549 104.706 783.282 109.973 783.282 116.471C783.282 122.968 788.549 128.235 795.046 128.235Z" fill="#78EBF2" fill-opacity="0.3"/>
  <path d="M795.046 122.353C798.295 122.353 800.929 119.719 800.929 116.471C800.929 113.222 798.295 110.588 795.046 110.588C791.798 110.588 789.164 113.222 789.164 116.471C789.164 119.719 791.798 122.353 795.046 122.353Z" fill="#25F5F5"/>
</g>
<g opacity="0.8">
  <path d="M1486.81 84.7059C1496.56 84.7059 1504.46 76.805 1504.46 67.0588C1504.46 57.3126 1496.56 49.4117 1486.81 49.4117C1477.06 49.4117 1469.16 57.3126 1469.16 67.0588C1469.16 76.805 1477.06 84.7059 1486.81 84.7059Z" fill="#23DCF5" fill-opacity="0.2"/>
  <path d="M1486.81 78.8235C1493.31 78.8235 1498.58 73.5563 1498.58 67.0588C1498.58 60.5614 1493.31 55.2941 1486.81 55.2941C1480.31 55.2941 1475.05 60.5614 1475.05 67.0588C1475.05 73.5563 1480.31 78.8235 1486.81 78.8235Z" fill="#78EBF2" fill-opacity="0.3"/>
  <path d="M1486.81 72.9412C1490.06 72.9412 1492.69 70.3075 1492.69 67.0588C1492.69 63.8101 1490.06 61.1765 1486.81 61.1765C1483.56 61.1765 1480.93 63.8101 1480.93 67.0588C1480.93 70.3075 1483.56 72.9412 1486.81 72.9412Z" fill="#25F5F5"/>
</g>
<g opacity="0.8">
  <path d="M470.341 204.706C480.087 204.706 487.988 196.805 487.988 187.059C487.988 177.313 480.087 169.412 470.341 169.412C460.595 169.412 452.694 177.313 452.694 187.059C452.694 196.805 460.595 204.706 470.341 204.706Z" fill="#239DF5" fill-opacity="0.2"/>
  <path d="M470.341 198.824C476.838 198.824 482.106 193.556 482.106 187.059C482.106 180.561 476.838 175.294 470.341 175.294C463.843 175.294 458.576 180.561 458.576 187.059C458.576 193.556 463.843 198.824 470.341 198.824Z" fill="#7893F2" fill-opacity="0.4"/>
  <path d="M470.341 192.941C473.59 192.941 476.223 190.308 476.223 187.059C476.223 183.81 473.59 181.177 470.341 181.177C467.092 181.177 464.458 183.81 464.458 187.059C464.458 190.308 467.092 192.941 470.341 192.941Z" fill="#255FF5"/>
</g>
<g opacity="0.8">
  <path d="M1137.4 238.824C1147.15 238.824 1155.05 230.923 1155.05 221.176C1155.05 211.43 1147.15 203.529 1137.4 203.529C1127.65 203.529 1119.75 211.43 1119.75 221.176C1119.75 230.923 1127.65 238.824 1137.4 238.824Z" fill="#239DF5" fill-opacity="0.2"/>
  <path d="M1137.4 232.941C1143.9 232.941 1149.16 227.674 1149.16 221.176C1149.16 214.679 1143.9 209.412 1137.4 209.412C1130.9 209.412 1125.63 214.679 1125.63 221.176C1125.63 227.674 1130.9 232.941 1137.4 232.941Z" fill="#7893F2" fill-opacity="0.4"/>
  <path d="M1137.4 227.059C1140.65 227.059 1143.28 224.425 1143.28 221.176C1143.28 217.928 1140.65 215.294 1137.4 215.294C1134.15 215.294 1131.52 217.928 1131.52 221.176C1131.52 224.425 1134.15 227.059 1137.4 227.059Z" fill="#255FF5"/>
</g>
<defs>
  <linearGradient id="paint0_linear" x1="303.193" y1="132.481" x2="303.193" y2="359.999" gradientUnits="userSpaceOnUse">
    <stop stop-color="#28A07C"/>
    <stop offset="1" stop-color="#5E5CD1"/>
  </linearGradient>
  <linearGradient id="paint1_linear" x1="849.109" y1="-396.667" x2="602.732" y2="485.321" gradientUnits="userSpaceOnUse">
    <stop stop-color="#1AB1E0"/>
    <stop offset="1" stop-color="#005069"/>
  </linearGradient>
</defs>
</svg>
