<svg width="244" height="122" viewBox="0 0 244 122" fill="none" xmlns="http://www.w3.org/2000/svg">
<path d="M49.2105 87.75L49.4705 93.73C49.7305 96.59 50.3371 98.54 51.2905 99.58C52.3305 100.533 53.6738 101.14 55.3205 101.4C56.9671 101.573 58.3538 101.703 59.4805 101.79C60.6938 101.79 61.9938 101.833 63.3805 101.92V104H2.02046V101.92C2.9738 101.92 3.92713 101.92 4.88046 101.92C5.92046 101.833 7.61046 101.66 9.95046 101.4C12.3771 101.053 14.0671 100.36 15.0205 99.32C16.0605 98.1933 16.7105 96.2433 16.9705 93.47L17.2305 87.49V26.39L16.9705 20.41C16.7105 17.7233 16.0605 15.7733 15.0205 14.56C14.0671 13.26 12.5938 12.48 10.6005 12.22C8.6938 11.96 6.7438 11.7867 4.75046 11.7C2.75713 11.5267 1.32713 11.3967 0.460463 11.31V9.23H49.2105V87.75ZM63.8151 103.09C69.5351 97.89 75.4285 92.4733 81.4952 86.84C87.6485 81.2067 92.2851 76.7433 95.4051 73.45C103.638 65.65 109.098 58.89 111.785 53.17C114.472 47.45 115.815 41.34 115.815 34.84C115.815 27.56 114.298 21.7967 111.265 17.55C108.318 13.3033 103.985 11.18 98.2652 11.18C94.1052 11.18 90.2052 12.3067 86.5652 14.56C83.0118 16.7267 81.2352 19.0667 81.2352 21.58C81.2352 25.74 83.4885 27.82 87.9952 27.82C91.2885 27.82 93.9318 28.8167 95.9252 30.81C98.0051 32.7167 99.0451 35.23 99.0451 38.35C99.0451 42.25 97.7018 45.5 95.0152 48.1C92.3285 50.7 89.0352 52 85.1352 52C80.2818 52 76.2518 50.6133 73.0452 47.84C69.8385 44.98 68.2351 41.2533 68.2351 36.66C68.2351 31.2867 70.0551 26.4333 73.6952 22.1C77.3352 17.68 81.4085 14.4733 85.9151 12.48C90.5085 10.4867 94.5385 9.22999 98.0052 8.70999C101.558 8.10333 105.328 7.8 109.315 7.8C119.802 7.8 128.728 10.14 136.095 14.82C143.462 19.5 147.145 26.26 147.145 35.1C147.145 40.6467 145.412 45.5867 141.945 49.92C138.565 54.2533 134.752 57.5467 130.505 59.8C126.258 61.9667 119.715 64.7833 110.875 68.25C102.122 71.63 97.2685 74.1 96.3151 75.66V76.18C98.4818 76.0067 100.952 75.8767 103.725 75.79C106.585 75.7033 109.618 75.66 112.825 75.66H133.365C137.612 75.66 140.602 75.14 142.335 74.1C144.068 73.06 145.325 71.5867 146.105 69.68C146.972 67.7733 147.665 65.91 148.185 64.09C148.792 62.27 149.312 60.7533 149.745 59.54H151.435L143.115 104H63.8151V103.09ZM243.273 9.23L243.533 10.14C239.633 14.04 235.386 18.4167 230.793 23.27C226.2 28.0367 221.043 33.8867 215.323 40.82C209.603 47.7533 204.75 55.64 200.763 64.48C196.776 73.2333 194.783 81.9867 194.783 90.74C194.783 92.2133 194.87 94.2933 195.043 96.98C195.303 99.6667 195.433 101.227 195.433 101.66C195.433 107.553 193.613 112.363 189.973 116.09C186.333 119.817 181.956 121.68 176.843 121.68C171.47 121.68 167.223 119.903 164.103 116.35C160.983 112.797 159.423 108.333 159.423 102.96C159.423 97.9333 161.2 92.69 164.753 87.23C168.393 81.77 172.683 76.6133 177.623 71.76C182.65 66.9067 187.503 62.4433 192.183 58.37C196.863 54.21 201.24 50.3533 205.313 46.8C209.473 43.16 213.07 39.91 216.103 37.05L215.843 36.4C214.803 36.4 212.333 36.4867 208.433 36.66C204.533 36.7467 201.89 36.79 200.503 36.79H171.383C167.05 36.79 164.103 37.2667 162.543 38.22C161.07 39.0867 159.596 41.0367 158.123 44.07L156.563 47.97L155.003 47.58L168.653 0.389993H170.213L169.823 3.77C169.823 6.28333 170.473 7.88666 171.773 8.58C173.16 9.18666 175.673 9.48999 179.313 9.48999H202.193C210.426 9.48999 218.096 9.48999 225.203 9.48999C232.396 9.40333 238.42 9.31666 243.273 9.23Z" fill="#4A4A4A"/>
</svg>
