<svg width="240" height="122" viewBox="0 0 240 122" fill="none" xmlns="http://www.w3.org/2000/svg">
<path d="M49.273 87.75L49.533 93.73C49.793 96.59 50.3996 98.54 51.353 99.58C52.393 100.533 53.7363 101.14 55.383 101.4C57.0296 101.573 58.4163 101.703 59.543 101.79C60.7563 101.79 62.0563 101.833 63.443 101.92V104H2.08296V101.92C3.0363 101.92 3.98963 101.92 4.94296 101.92C5.98296 101.833 7.67296 101.66 10.013 101.4C12.4396 101.053 14.1296 100.36 15.083 99.32C16.123 98.1933 16.773 96.2433 17.033 93.47L17.293 87.49V26.39L17.033 20.41C16.773 17.7233 16.123 15.7733 15.083 14.56C14.1296 13.26 12.6563 12.48 10.663 12.22C8.7563 11.96 6.8063 11.7867 4.81296 11.7C2.81963 11.5267 1.38963 11.3967 0.522963 11.31V9.23H49.273V87.75ZM104.048 78.13V53.04L104.178 38.74C102.184 40.9933 99.3243 44.2867 95.5977 48.62C91.9577 52.8667 87.6243 57.6767 82.5977 63.05C77.571 68.3367 72.4577 73.32 67.2576 78L83.3777 78.13H104.048ZM134.988 78.13H150.328V83.72H134.988V88.79C134.988 90.35 135.074 92.3 135.248 94.64C135.508 96.8933 136.114 98.54 137.068 99.58C138.108 100.533 139.494 101.14 141.228 101.4C142.961 101.573 144.564 101.703 146.038 101.79C147.511 101.79 148.768 101.833 149.808 101.92V104H88.1877V101.92C89.3143 101.92 90.441 101.92 91.5677 101.92C92.781 101.833 94.5577 101.66 96.8977 101.4C99.3243 101.053 101.014 100.36 101.968 99.32C103.008 98.1933 103.658 96.2433 103.918 93.47L104.178 83.72H60.2376V80.99C66.911 75.01 73.8876 68.12 81.1676 60.32C88.4477 52.52 96.161 43.8533 104.308 34.32C112.454 24.7 119.474 16.1633 125.368 8.70999H134.988V78.13ZM239.273 9.23L239.533 10.14C235.633 14.04 231.386 18.4167 226.793 23.27C222.2 28.0367 217.043 33.8867 211.323 40.82C205.603 47.7533 200.75 55.64 196.763 64.48C192.776 73.2333 190.783 81.9867 190.783 90.74C190.783 92.2133 190.87 94.2933 191.043 96.98C191.303 99.6667 191.433 101.227 191.433 101.66C191.433 107.553 189.613 112.363 185.973 116.09C182.333 119.817 177.956 121.68 172.843 121.68C167.47 121.68 163.223 119.903 160.103 116.35C156.983 112.797 155.423 108.333 155.423 102.96C155.423 97.9333 157.2 92.69 160.753 87.23C164.393 81.77 168.683 76.6133 173.623 71.76C178.65 66.9067 183.503 62.4433 188.183 58.37C192.863 54.21 197.24 50.3533 201.313 46.8C205.473 43.16 209.07 39.91 212.103 37.05L211.843 36.4C210.803 36.4 208.333 36.4867 204.433 36.66C200.533 36.7467 197.89 36.79 196.503 36.79H167.383C163.05 36.79 160.103 37.2667 158.543 38.22C157.07 39.0867 155.596 41.0367 154.123 44.07L152.563 47.97L151.003 47.58L164.653 0.389993H166.213L165.823 3.77C165.823 6.28333 166.473 7.88666 167.773 8.58C169.16 9.18666 171.673 9.48999 175.313 9.48999H198.193C206.426 9.48999 214.096 9.48999 221.203 9.48999C228.396 9.40333 234.42 9.31666 239.273 9.23Z" fill="#4A4A4A"/>
</svg>
