<svg width="276" height="99" viewBox="0 0 276 99" fill="none" xmlns="http://www.w3.org/2000/svg">
<path d="M0.360853 96.09C6.08085 90.89 11.9742 85.4733 18.0409 79.84C24.1942 74.2067 28.8309 69.7433 31.9509 66.45C40.1842 58.65 45.6442 51.89 48.3309 46.17C51.0175 40.45 52.3609 34.34 52.3609 27.84C52.3609 20.56 50.8442 14.7967 47.8109 10.55C44.8642 6.30333 40.5309 4.17999 34.8109 4.17999C30.6509 4.17999 26.7509 5.30666 23.1109 7.56C19.5575 9.72666 17.7809 12.0667 17.7809 14.58C17.7809 18.74 20.0342 20.82 24.5409 20.82C27.8342 20.82 30.4775 21.8167 32.4709 23.81C34.5509 25.7167 35.5909 28.23 35.5909 31.35C35.5909 35.25 34.2475 38.5 31.5609 41.1C28.8742 43.7 25.5809 45 21.6809 45C16.8275 45 12.7975 43.6133 9.59085 40.84C6.38419 37.98 4.78085 34.2533 4.78085 29.66C4.78085 24.2867 6.60085 19.4333 10.2409 15.1C13.8809 10.68 17.9542 7.47333 22.4609 5.47999C27.0542 3.48666 31.0842 2.22999 34.5509 1.70999C38.1042 1.10333 41.8742 0.799999 45.8609 0.799999C56.3475 0.799999 65.2742 3.14 72.6409 7.81999C80.0075 12.5 83.6909 19.26 83.6909 28.1C83.6909 33.6467 81.9575 38.5867 78.4909 42.92C75.1109 47.2533 71.2975 50.5467 67.0509 52.8C62.8042 54.9667 56.2609 57.7833 47.4209 61.25C38.6675 64.63 33.8142 67.1 32.8609 68.66V69.18C35.0275 69.0067 37.4975 68.8767 40.2709 68.79C43.1309 68.7033 46.1642 68.66 49.3709 68.66H69.9109C74.1575 68.66 77.1475 68.14 78.8809 67.1C80.6142 66.06 81.8709 64.5867 82.6509 62.68C83.5175 60.7733 84.2109 58.91 84.7309 57.09C85.3375 55.27 85.8575 53.7533 86.2909 52.54H87.9809L79.6609 97H0.360853V96.09ZM182.029 49.68C182.029 62.2467 177.869 73.5567 169.549 83.61C161.229 93.5767 150.525 98.56 137.439 98.56C123.659 98.56 112.782 93.36 104.809 82.96C96.8354 72.56 92.8487 61.4667 92.8487 49.68C92.8487 37.1133 97.1387 25.8467 105.719 15.88C114.299 5.82667 124.872 0.799999 137.439 0.799999C150.439 0.799999 161.099 5.91333 169.419 16.14C177.825 26.28 182.029 37.46 182.029 49.68ZM149.659 49.68C149.659 42.4867 149.529 36.3333 149.269 31.22C149.009 26.1067 148.489 21.1667 147.709 16.4C147.015 11.5467 145.889 8.16666 144.329 6.26C142.855 4.26666 140.559 3.27 137.439 3.27C134.579 3.27 132.282 4.31 130.549 6.39C128.902 8.38333 127.775 11.46 127.169 15.62C126.562 19.78 126.085 24.98 125.739 31.22C125.392 37.46 125.219 43.6133 125.219 49.68C125.219 56.3533 125.349 62.42 125.609 67.88C125.955 73.2533 126.475 78.3233 127.169 83.09C127.862 87.8567 128.945 91.2367 130.419 93.23C131.979 95.1367 134.319 96.09 137.439 96.09C140.299 96.09 142.552 95.0933 144.199 93.1C145.932 91.02 147.059 87.9433 147.579 83.87C148.185 79.71 148.662 74.38 149.009 67.88C149.442 61.2933 149.659 55.2267 149.659 49.68ZM275.344 49.68C275.344 62.2467 271.184 73.5567 262.864 83.61C254.544 93.5767 243.841 98.56 230.754 98.56C216.974 98.56 206.098 93.36 198.124 82.96C190.151 72.56 186.164 61.4667 186.164 49.68C186.164 37.1133 190.454 25.8467 199.034 15.88C207.614 5.82667 218.188 0.799999 230.754 0.799999C243.754 0.799999 254.414 5.91333 262.734 16.14C271.141 26.28 275.344 37.46 275.344 49.68ZM242.974 49.68C242.974 42.4867 242.844 36.3333 242.584 31.22C242.324 26.1067 241.804 21.1667 241.024 16.4C240.331 11.5467 239.204 8.16666 237.644 6.26C236.171 4.26666 233.874 3.27 230.754 3.27C227.894 3.27 225.598 4.31 223.864 6.39C222.218 8.38333 221.091 11.46 220.484 15.62C219.878 19.78 219.401 24.98 219.054 31.22C218.708 37.46 218.534 43.6133 218.534 49.68C218.534 56.3533 218.664 62.42 218.924 67.88C219.271 73.2533 219.791 78.3233 220.484 83.09C221.178 87.8567 222.261 91.2367 223.734 93.23C225.294 95.1367 227.634 96.09 230.754 96.09C233.614 96.09 235.868 95.0933 237.514 93.1C239.248 91.02 240.374 87.9433 240.894 83.87C241.501 79.71 241.978 74.38 242.324 67.88C242.758 61.2933 242.974 55.2267 242.974 49.68Z" fill="#4A4A4A"/>
</svg>
