<svg width="177" height="97" viewBox="0 0 177 97" fill="none" xmlns="http://www.w3.org/2000/svg">
<path d="M0.166716 96.09C5.88672 90.89 11.78 85.4733 17.8467 79.84C24 74.2067 28.6367 69.7433 31.7567 66.45C39.99 58.65 45.4501 51.89 48.1367 46.17C50.8234 40.45 52.1667 34.34 52.1667 27.84C52.1667 20.56 50.6501 14.7967 47.6167 10.55C44.67 6.30333 40.3367 4.17999 34.6167 4.17999C30.4567 4.17999 26.5567 5.30666 22.9167 7.56C19.3634 9.72666 17.5867 12.0667 17.5867 14.58C17.5867 18.74 19.84 20.82 24.3467 20.82C27.6401 20.82 30.2834 21.8167 32.2767 23.81C34.3567 25.7167 35.3967 28.23 35.3967 31.35C35.3967 35.25 34.0534 38.5 31.3667 41.1C28.6801 43.7 25.3867 45 21.4867 45C16.6334 45 12.6034 43.6133 9.39672 40.84C6.19005 37.98 4.58672 34.2533 4.58672 29.66C4.58672 24.2867 6.40672 19.4333 10.0467 15.1C13.6867 10.68 17.76 7.47333 22.2667 5.47999C26.86 3.48666 30.8901 2.22999 34.3567 1.70999C37.9101 1.10333 41.6801 0.799999 45.6667 0.799999C56.1534 0.799999 65.0801 3.14 72.4467 7.81999C79.8134 12.5 83.4967 19.26 83.4967 28.1C83.4967 33.6467 81.7634 38.5867 78.2967 42.92C74.9167 47.2533 71.1034 50.5467 66.8567 52.8C62.6101 54.9667 56.0667 57.7833 47.2267 61.25C38.4734 64.63 33.6201 67.1 32.6667 68.66V69.18C34.8334 69.0067 37.3034 68.8767 40.0767 68.79C42.9367 68.7033 45.97 68.66 49.1767 68.66H69.7167C73.9634 68.66 76.9534 68.14 78.6867 67.1C80.4201 66.06 81.6767 64.5867 82.4567 62.68C83.3234 60.7733 84.0167 58.91 84.5367 57.09C85.1434 55.27 85.6634 53.7533 86.0967 52.54H87.7867L79.4667 97H0.166716V96.09ZM130.225 71.13V46.04L130.355 31.74C128.361 33.9933 125.501 37.2867 121.775 41.62C118.135 45.8667 113.801 50.6767 108.775 56.05C103.748 61.3367 98.6346 66.32 93.4346 71L109.555 71.13H130.225ZM161.165 71.13H176.505V76.72H161.165V81.79C161.165 83.35 161.251 85.3 161.425 87.64C161.685 89.8933 162.291 91.54 163.245 92.58C164.285 93.5333 165.671 94.14 167.405 94.4C169.138 94.5733 170.741 94.7033 172.215 94.79C173.688 94.79 174.945 94.8333 175.985 94.92V97H114.365V94.92C115.491 94.92 116.618 94.92 117.745 94.92C118.958 94.8333 120.735 94.66 123.075 94.4C125.501 94.0533 127.191 93.36 128.145 92.32C129.185 91.1933 129.835 89.2433 130.095 86.47L130.355 76.72H86.4146V73.99C93.0879 68.01 100.065 61.12 107.345 53.32C114.625 45.52 122.338 36.8533 130.485 27.32C138.631 17.7 145.651 9.16333 151.545 1.70999H161.165V71.13Z" fill="#4A4A4A"/>
</svg>
