<svg width="176" height="99" viewBox="0 0 176 99" fill="none" xmlns="http://www.w3.org/2000/svg">
<path d="M57.8616 43.44C66.7882 43.44 73.8516 45.65 79.0516 50.07C84.2516 54.49 86.8516 60.47 86.8516 68.01C86.8516 78.15 81.5216 85.7767 70.8616 90.89C60.2882 96.0033 48.4149 98.56 35.2416 98.56C26.3149 98.56 18.2549 96.35 11.0616 91.93C3.86823 87.51 0.27156 82.0067 0.27156 75.42C0.27156 70.48 1.96156 66.3633 5.34156 63.07C8.72156 59.7767 12.8816 58.13 17.8216 58.13C23.0216 58.13 27.2249 59.5167 30.4316 62.29C33.7249 64.9767 35.3716 68.53 35.3716 72.95C35.3716 76.1567 34.7216 78.6267 33.4216 80.36C32.2082 82.0067 30.5616 83.74 28.4816 85.56C26.4882 87.2933 25.2749 88.42 24.8416 88.94C24.4082 89.46 24.1916 90.2833 24.1916 91.41C24.1916 92.97 25.4049 94.2267 27.8316 95.18C30.2582 96.0467 33.1616 96.48 36.5416 96.48C42.7816 96.48 47.4616 94.1833 50.5816 89.59C53.7882 84.9967 55.3916 78.8867 55.3916 71.26C55.3916 64.5 53.6582 58.52 50.1916 53.32C46.8116 48.0333 42.1749 45.39 36.2816 45.39C34.2016 45.39 32.2516 45.65 30.4316 46.17C28.7849 46.7767 27.1816 47.3833 25.6216 47.99C25.1882 47.99 24.7116 47.8167 24.1916 47.47C23.7582 47.0367 23.5416 46.56 23.5416 46.04C23.5416 45 24.4516 44.3067 26.2716 43.96C28.1782 43.6133 30.3449 43.44 32.7716 43.44C38.7516 43.44 43.3882 41.7067 46.6816 38.24C49.9749 34.7733 51.6216 29.8767 51.6216 23.55C51.6216 18.0033 50.4516 13.3233 48.1116 9.51C45.8582 5.60999 42.1316 3.65999 36.9316 3.65999C33.8982 3.65999 30.9949 4.26666 28.2216 5.47999C25.5349 6.60666 24.1916 8.20999 24.1916 10.29C24.1916 11.4167 24.5382 12.37 25.2316 13.15C25.9249 13.93 27.2682 14.4933 29.2616 14.84C31.3416 15.1867 33.1182 16.2267 34.5916 17.96C36.0649 19.6067 36.8016 21.73 36.8016 24.33C36.8016 28.0567 35.3716 30.9167 32.5116 32.91C29.7382 34.9033 26.0982 35.9 21.5916 35.9C17.3449 35.9 13.8782 34.6433 11.1916 32.13C8.50489 29.6167 7.16156 26.3667 7.16156 22.38C7.16156 18.48 9.28489 14.71 13.5316 11.07C17.7782 7.34333 22.6749 4.69999 28.2216 3.13999C33.7682 1.58 39.3582 0.799999 44.9916 0.799999C56.0849 0.799999 64.9682 2.57666 71.6416 6.12999C78.4016 9.68333 81.7816 15.3167 81.7816 23.03C81.7816 28.8367 79.4416 33.3867 74.7616 36.68C70.1682 39.8867 64.5349 41.7933 57.8616 42.4V43.44ZM87.9921 96.09C93.7121 90.89 99.6054 85.4733 105.672 79.84C111.825 74.2067 116.462 69.7433 119.582 66.45C127.815 58.65 133.275 51.89 135.962 46.17C138.649 40.45 139.992 34.34 139.992 27.84C139.992 20.56 138.475 14.7967 135.442 10.55C132.495 6.30333 128.162 4.17999 122.442 4.17999C118.282 4.17999 114.382 5.30666 110.742 7.56C107.189 9.72666 105.412 12.0667 105.412 14.58C105.412 18.74 107.665 20.82 112.172 20.82C115.465 20.82 118.109 21.8167 120.102 23.81C122.182 25.7167 123.222 28.23 123.222 31.35C123.222 35.25 121.879 38.5 119.192 41.1C116.505 43.7 113.212 45 109.312 45C104.459 45 100.429 43.6133 97.2221 40.84C94.0154 37.98 92.4121 34.2533 92.4121 29.66C92.4121 24.2867 94.2321 19.4333 97.8721 15.1C101.512 10.68 105.585 7.47333 110.092 5.47999C114.685 3.48666 118.715 2.22999 122.182 1.70999C125.735 1.10333 129.505 0.799999 133.492 0.799999C143.979 0.799999 152.905 3.14 160.272 7.81999C167.639 12.5 171.322 19.26 171.322 28.1C171.322 33.6467 169.589 38.5867 166.122 42.92C162.742 47.2533 158.929 50.5467 154.682 52.8C150.435 54.9667 143.892 57.7833 135.052 61.25C126.299 64.63 121.445 67.1 120.492 68.66V69.18C122.659 69.0067 125.129 68.8767 127.902 68.79C130.762 68.7033 133.795 68.66 137.002 68.66H157.542C161.789 68.66 164.779 68.14 166.512 67.1C168.245 66.06 169.502 64.5867 170.282 62.68C171.149 60.7733 171.842 58.91 172.362 57.09C172.969 55.27 173.489 53.7533 173.922 52.54H175.612L167.292 97H87.9921V96.09Z" fill="#4A4A4A"/>
</svg>
