<svg width="171" height="98" viewBox="0 0 171 98" fill="none" xmlns="http://www.w3.org/2000/svg">
<path d="M43.827 70.13V45.04L43.957 30.74C41.9636 32.9933 39.1036 36.2867 35.377 40.62C31.737 44.8667 27.4036 49.6767 22.377 55.05C17.3503 60.3367 12.237 65.32 7.03695 70L23.157 70.13H43.827ZM74.767 70.13H90.107V75.72H74.767V80.79C74.767 82.35 74.8536 84.3 75.0269 86.64C75.287 88.8933 75.8936 90.54 76.847 91.58C77.887 92.5333 79.2736 93.14 81.007 93.4C82.7403 93.5733 84.3436 93.7033 85.817 93.79C87.2903 93.79 88.547 93.8333 89.587 93.92V96H27.967V93.92C29.0936 93.92 30.2203 93.92 31.347 93.92C32.5603 93.8333 34.337 93.66 36.677 93.4C39.1036 93.0533 40.7936 92.36 41.747 91.32C42.787 90.1933 43.437 88.2433 43.697 85.47L43.957 75.72H0.0169501V72.99C6.69028 67.01 13.667 60.12 20.947 52.32C28.227 44.52 35.9403 35.8533 44.087 26.32C52.2336 16.7 59.2536 8.16333 65.147 0.709995H74.767V70.13ZM97.4123 51.8L108.722 0.449998H109.892C112.926 1.40333 116.566 2.35666 120.812 3.30999C125.146 4.26333 129.912 4.74 135.112 4.74C141.786 4.74 147.202 4.26333 151.362 3.30999C154.136 2.27 156.909 1.18666 159.682 0.0599954C160.549 0.0599954 160.982 0.883328 160.982 2.52999C160.982 5.13 159.986 8.12 157.992 11.5C156.086 14.7933 152.749 18.3033 147.982 22.03C143.302 25.67 136.022 27.49 126.142 27.49C121.722 27.49 117.952 27.2733 114.832 26.84C111.712 26.32 108.766 25.41 105.992 24.11L101.832 42.44C105.819 38.54 110.196 35.8967 114.962 34.51C119.816 33.0367 126.056 32.3 133.682 32.3C143.302 32.3 151.796 35.0733 159.162 40.62C166.529 46.1667 170.212 53.4033 170.212 62.33C170.212 73.51 165.402 82.1767 155.782 88.33C146.249 94.4833 135.199 97.56 122.632 97.56C113.099 97.56 105.299 95.3067 99.2323 90.8C93.2523 86.2067 90.2623 80.4433 90.2623 73.51C90.2623 69.87 91.7357 66.7067 94.6823 64.02C97.629 61.3333 101.052 59.99 104.952 59.99C109.719 59.99 113.749 61.29 117.042 63.89C120.336 66.4033 121.982 69.8267 121.982 74.16C121.982 78.4933 120.596 82.0467 117.822 84.82C115.049 87.5933 113.662 89.5433 113.662 90.67C113.662 92.23 114.572 93.4433 116.392 94.31C118.299 95.09 120.206 95.48 122.112 95.48C128.612 95.48 133.032 92.8367 135.372 87.55C137.712 82.2633 138.882 75.6767 138.882 67.79C138.882 59.3833 137.409 51.9733 134.462 45.56C131.602 39.1467 126.879 35.94 120.292 35.94C114.312 35.94 109.849 37.4133 106.902 40.36C103.956 43.3067 102.049 45.56 101.182 47.12C100.402 48.68 99.7957 50.3267 99.3623 52.06L97.4123 51.8Z" fill="#4A4A4A"/>
</svg>
