<svg width="185" height="122" viewBox="0 0 185 122" fill="none" xmlns="http://www.w3.org/2000/svg">
<path d="M44.6988 78.13V53.04L44.8288 38.74C42.8355 40.9933 39.9755 44.2867 36.2488 48.62C32.6088 52.8667 28.2755 57.6767 23.2488 63.05C18.2222 68.3367 13.1088 73.32 7.90883 78L24.0288 78.13H44.6988ZM75.6388 78.13H90.9788V83.72H75.6388V88.79C75.6388 90.35 75.7255 92.3 75.8988 94.64C76.1588 96.8933 76.7655 98.54 77.7188 99.58C78.7588 100.533 80.1455 101.14 81.8788 101.4C83.6122 101.573 85.2155 101.703 86.6888 101.79C88.1622 101.79 89.4188 101.833 90.4588 101.92V104H28.8388V101.92C29.9655 101.92 31.0922 101.92 32.2188 101.92C33.4322 101.833 35.2088 101.66 37.5488 101.4C39.9755 101.053 41.6655 100.36 42.6188 99.32C43.6588 98.1933 44.3088 96.2433 44.5688 93.47L44.8288 83.72H0.88883V80.99C7.56216 75.01 14.5388 68.12 21.8188 60.32C29.0988 52.52 36.8122 43.8533 44.9588 34.32C53.1055 24.7 60.1255 16.1633 66.0188 8.70999H75.6388V78.13ZM183.824 9.23L184.084 10.14C180.184 14.04 175.938 18.4167 171.344 23.27C166.751 28.0367 161.594 33.8867 155.874 40.82C150.154 47.7533 145.301 55.64 141.314 64.48C137.328 73.2333 135.334 81.9867 135.334 90.74C135.334 92.2133 135.421 94.2933 135.594 96.98C135.854 99.6667 135.984 101.227 135.984 101.66C135.984 107.553 134.164 112.363 130.524 116.09C126.884 119.817 122.508 121.68 117.394 121.68C112.021 121.68 107.774 119.903 104.654 116.35C101.534 112.797 99.9742 108.333 99.9742 102.96C99.9742 97.9333 101.751 92.69 105.304 87.23C108.944 81.77 113.234 76.6133 118.174 71.76C123.201 66.9067 128.054 62.4433 132.734 58.37C137.414 54.21 141.791 50.3533 145.864 46.8C150.024 43.16 153.621 39.91 156.654 37.05L156.394 36.4C155.354 36.4 152.884 36.4867 148.984 36.66C145.084 36.7467 142.441 36.79 141.054 36.79H111.934C107.601 36.79 104.654 37.2667 103.094 38.22C101.621 39.0867 100.148 41.0367 98.6742 44.07L97.1142 47.97L95.5542 47.58L109.204 0.389993H110.764L110.374 3.77C110.374 6.28333 111.024 7.88666 112.324 8.58C113.711 9.18666 116.224 9.48999 119.864 9.48999H142.744C150.978 9.48999 158.648 9.48999 165.754 9.48999C172.948 9.40333 178.971 9.31666 183.824 9.23Z" fill="#4A4A4A"/>
</svg>
