<svg width="177" height="99" viewBox="0 0 177 99" fill="none" xmlns="http://www.w3.org/2000/svg">
<path d="M15.7555 54.36C11.7689 51.5 8.77888 48.12 6.78555 44.22C4.79222 40.32 3.79555 35.8567 3.79555 30.83C3.79555 24.9367 5.44222 19.78 8.73555 15.36C12.1155 10.94 16.5789 7.43 22.1255 4.82999C27.6722 2.14333 34.2156 0.799999 41.7556 0.799999C51.0289 0.799999 58.7856 3.09666 65.0256 7.69C71.2656 12.1967 74.3856 18.09 74.3856 25.37C74.3856 28.9233 73.3456 31.9567 71.2656 34.47C69.1856 36.9833 66.1956 38.76 62.2956 39.8V40.32C66.9756 42.92 70.9189 46.43 74.1256 50.85C77.3322 55.27 78.9356 60.21 78.9356 65.67C78.9356 75.6367 74.9922 83.61 67.1056 89.59C59.3056 95.57 49.7289 98.56 38.3755 98.56C33.6955 98.56 29.2322 97.9967 24.9855 96.87C20.7389 95.7433 15.5389 93.1867 9.38555 89.2C3.31888 85.2133 0.285549 79.1033 0.285549 70.87C0.285549 66.3633 1.71555 62.7233 4.57555 59.95C7.52222 57.09 11.2489 55.4433 15.7555 55.01V54.36ZM60.0855 39.15C62.4255 37.33 64.2022 35.0767 65.4155 32.39C66.7156 29.6167 67.3656 26.54 67.3656 23.16C67.3656 17.0067 65.1122 12.1967 60.6055 8.73C56.1855 5.17666 50.2489 3.4 42.7956 3.4C38.4622 3.4 34.8655 4.61333 32.0055 7.04C29.1456 9.46666 27.7156 12.63 27.7156 16.53C27.7156 20.3433 29.0156 23.5067 31.6156 26.02C34.2156 28.5333 36.7722 30.3533 39.2855 31.48C41.8855 32.52 45.5689 33.8633 50.3355 35.51C55.1022 37.07 58.3522 38.2833 60.0855 39.15ZM17.7055 55.66C15.1922 57.0467 13.1989 59.2133 11.7255 62.16C10.2522 65.1067 9.51555 68.7467 9.51555 73.08C9.51555 79.58 12.2022 85.04 17.5755 89.46C22.9489 93.88 29.7956 96.09 38.1156 96.09C42.9689 96.09 47.2156 94.8767 50.8556 92.45C54.5822 90.0233 56.4456 86.6 56.4456 82.18C56.4456 78.1933 55.4489 74.9433 53.4556 72.43C51.4622 69.83 46.9122 67.1433 39.8055 64.37C32.7855 61.51 25.4189 58.6067 17.7055 55.66ZM176.259 49.68C176.259 62.2467 172.099 73.5567 163.779 83.61C155.459 93.5767 144.755 98.56 131.669 98.56C117.889 98.56 107.012 93.36 99.0388 82.96C91.0655 72.56 87.0788 61.4667 87.0788 49.68C87.0788 37.1133 91.3688 25.8467 99.9488 15.88C108.529 5.82667 119.102 0.799999 131.669 0.799999C144.669 0.799999 155.329 5.91333 163.649 16.14C172.055 26.28 176.259 37.46 176.259 49.68ZM143.889 49.68C143.889 42.4867 143.759 36.3333 143.499 31.22C143.239 26.1067 142.719 21.1667 141.939 16.4C141.245 11.5467 140.119 8.16666 138.559 6.26C137.085 4.26666 134.789 3.27 131.669 3.27C128.809 3.27 126.512 4.31 124.779 6.39C123.132 8.38333 122.005 11.46 121.399 15.62C120.792 19.78 120.315 24.98 119.969 31.22C119.622 37.46 119.449 43.6133 119.449 49.68C119.449 56.3533 119.579 62.42 119.839 67.88C120.185 73.2533 120.705 78.3233 121.399 83.09C122.092 87.8567 123.175 91.2367 124.649 93.23C126.209 95.1367 128.549 96.09 131.669 96.09C134.529 96.09 136.782 95.0933 138.429 93.1C140.162 91.02 141.289 87.9433 141.809 83.87C142.415 79.71 142.892 74.38 143.239 67.88C143.672 61.2933 143.889 55.2267 143.889 49.68Z" fill="#4A4A4A"/>
</svg>
