<svg width="23" height="23" viewBox="0 0 23 23" fill="none" xmlns="http://www.w3.org/2000/svg">
<path d="M19.6318 3.36824C17.4597 1.19622 14.5718 0 11.5 0C8.42824 0 5.54035 1.19618 3.36829 3.36824L3.3682 3.36829L3.36815 3.36833C1.19618 5.54044 0 8.42829 0 11.5C0 11.5 0 11.5001 0 11.5001V11.5001C4.49219e-05 14.0114 0.795297 16.3974 2.29987 18.4004C2.42713 18.5698 2.62672 18.6695 2.83861 18.6695H20.1615C20.3734 18.6695 20.573 18.5698 20.7002 18.4003C22.2047 16.3973 22.9999 14.0113 23 11.5001V11.5001H23C23 11.5001 23 11.5 23 11.5C23 8.42824 21.8038 5.5403 19.6318 3.36824ZM19.8182 17.3219H3.18186C2.10962 15.7948 1.49046 14.0324 1.36989 12.1739L2.11735 12.1738C2.48948 12.1738 2.79118 11.8721 2.79113 11.5C2.79113 11.1278 2.48939 10.8262 2.11726 10.8262L1.37057 10.8262C1.52159 8.53318 2.43692 6.4458 3.86413 4.81711L4.389 5.34193C4.52058 5.47351 4.69299 5.53927 4.86544 5.53927C5.0379 5.53927 5.21035 5.47346 5.34193 5.34188C5.60508 5.07873 5.60504 4.65211 5.34188 4.38896L4.81706 3.86418C6.44575 2.43697 8.53313 1.52159 10.8262 1.37057V2.11735C10.8262 2.48948 11.1279 2.79118 11.5 2.79118C11.8721 2.79118 12.1738 2.48948 12.1738 2.11735V1.37057C14.4669 1.52159 16.5543 2.43697 18.183 3.86422L17.6581 4.38896C17.395 4.65206 17.3949 5.07873 17.658 5.34188C17.7896 5.47346 17.9621 5.53927 18.1345 5.53927C18.3069 5.53927 18.4794 5.47351 18.6109 5.34193L19.1358 4.81711C20.5631 6.4458 21.4784 8.53318 21.6294 10.8262L20.8827 10.8262C20.8827 10.8262 20.8827 10.8262 20.8827 10.8262C20.5106 10.8262 20.2089 11.1278 20.2088 11.5C20.2088 11.8721 20.5105 12.1738 20.8826 12.1738L21.6301 12.1739C21.5095 14.0324 20.8904 15.7947 19.8182 17.3219Z" fill="#AAAAAA"/>
<path d="M15.8303 21.6523H7.16943C6.7973 21.6523 6.49561 21.954 6.49561 22.3262C6.49561 22.6983 6.7973 23 7.16943 23H15.8304C16.2025 23 16.5042 22.6983 16.5042 22.3262C16.5042 21.954 16.2025 21.6523 15.8303 21.6523Z" fill="#AAAAAA"/>
<path d="M15.7242 7.27601C15.4612 7.01281 15.0345 7.01281 14.7713 7.27601L12.9734 9.07392C12.5436 8.81202 12.0392 8.66095 11.5002 8.66095C9.93472 8.66095 8.66113 9.93453 8.66113 11.5C8.66113 13.0655 9.93476 14.3391 11.5002 14.3391C13.0657 14.3391 14.3392 13.0655 14.3392 11.5C14.3392 10.961 14.1882 10.4566 13.9263 10.0268L15.7242 8.22894C15.9874 7.96579 15.9874 7.53916 15.7242 7.27601ZM11.5002 12.9914C10.6779 12.9914 10.0088 12.3224 10.0088 11.5C10.0088 10.6777 10.6779 10.0086 11.5002 10.0086C12.3226 10.0086 12.9916 10.6776 12.9916 11.5C12.9916 12.3224 12.3226 12.9914 11.5002 12.9914Z" fill="#AAAAAA"/>
</svg>
