<svg width="360" height="133" viewBox="0 0 360 133" fill="none" xmlns="http://www.w3.org/2000/svg">
	<g opacity="0.4">
		<path d="M-97.3657 95.6422C-97.3657 95.6422 -75.1136 35.1377 -62.8432 35.1377C-50.5728 35.1377 -37.1419 80.4865 -28.1309 92.0008C-19.1199 103.515 -11.0773 103.778 -4.30504 95.6422C2.46722 87.5062 12.5801 39.5652 22.5988 38.2407C32.6175 36.9161 40.6589 79.9707 48.2292 92.0008C58.9711 109.071 72.8864 109.375 81.6239 98.542C90.3615 87.709 100.448 77.8034 100.448 77.8034C100.448 77.8034 111.751 64.5682 125.973 75.5701C142.882 88.6513 152.773 96.9467 164.578 105.88C176.383 114.814 189.662 115.771 197.291 103.778C204.919 91.7855 217.541 72.4288 217.541 72.4288C217.541 72.4288 224.241 63.765 231.261 63.765C238.28 63.765 251.036 75.0055 257.423 81.0764C263.81 87.1472 276.88 86.7014 292.263 72.4288C307.647 58.1562 317.043 45.6104 324.617 37.9933C332.19 30.3762 347.752 17.3816 369.264 36.0607C384.031 51.4157 384.253 51.6034 397.197 65.6794C408.242 77.6908 413.309 73.7496 420.69 65.6794C430.301 55.1693 436.957 45.41 459.666 35.1377" stroke="url(#paint0_linear)" stroke-linecap="round"/>
		<path opacity="0.3" d="M-92.1108 112.235C-92.1108 112.235 -78.0227 75.4086 -65.7545 75.4086C-53.4862 75.4086 -36.2519 106.559 -22.984 112.235C-9.71601 117.911 -3.43013 115.544 4.02897 109.098C11.4881 102.652 18.0235 87.844 28.0405 86.9237C38.0574 86.0034 37.42 92.18 55.4359 109.098C67.0592 118.09 74.3992 115.01 83.1353 107.483C91.8713 99.9567 111.111 71.844 111.111 71.844C111.111 71.844 120.682 59.2588 133.101 68.2909C145.521 77.3229 164.108 106.019 167.31 111.145C170.512 116.27 183.778 126.256 194.792 114.223C205.806 102.191 221.108 81.4873 221.108 81.4873C221.108 81.4873 226.21 74.5527 238.134 75.4086C250.057 76.2646 252.955 82.7058 259.342 86.9237C265.728 91.1416 276.911 96.84 292.292 86.9237C307.673 77.0074 317.068 68.2909 324.64 62.9986C332.212 57.7064 347.771 48.6781 369.28 61.656C386.096 76.0017 381.591 75.251 392.102 83.6966C400.644 90.5608 410.177 97.9602 420.095 87.8255C430.013 77.6909 437.266 62.9986 459.666 61.0147" stroke="url(#paint1_linear)" stroke-width="2" stroke-linecap="round"/>
	</g>
	<g opacity="0.8">
		<path d="M347.06 32.0849C350.169 32.0849 352.69 29.5641 352.69 26.4545C352.69 23.3449 350.169 20.8241 347.06 20.8241C343.95 20.8241 341.429 23.3449 341.429 26.4545C341.429 29.5641 343.95 32.0849 347.06 32.0849Z" fill="#23DCF5" fill-opacity="0.2"/>
		<path d="M347.059 30.2081C349.132 30.2081 350.812 28.5275 350.812 26.4545C350.812 24.3814 349.132 22.7009 347.059 22.7009C344.986 22.7009 343.305 24.3814 343.305 26.4545C343.305 28.5275 344.986 30.2081 347.059 30.2081Z" fill="#78EBF2" fill-opacity="0.3"/>
		<path d="M347.059 28.3313C348.095 28.3313 348.936 27.491 348.936 26.4545C348.936 25.418 348.095 24.5777 347.059 24.5777C346.022 24.5777 345.182 25.418 345.182 26.4545C345.182 27.491 346.022 28.3313 347.059 28.3313Z" fill="#25F5F5"/>
		<animate
			attributeName="opacity"
			attributeType="XML"
	    values="1; .2; 1"
	    begin="2s" 
	    dur="4s"
	    repeatCount="indefinite"
	  />
	</g>
	<g opacity="0.8">
		<path d="M23.1245 44.0776C26.2341 44.0776 28.7549 41.5568 28.7549 38.4472C28.7549 35.3376 26.2341 32.8168 23.1245 32.8168C20.0149 32.8168 17.4941 35.3376 17.4941 38.4472C17.4941 41.5568 20.0149 44.0776 23.1245 44.0776Z" fill="#239DF5" fill-opacity="0.2"/>
		<path d="M23.1247 42.2008C25.1977 42.2008 26.8783 40.5202 26.8783 38.4472C26.8783 36.3741 25.1977 34.6936 23.1247 34.6936C21.0516 34.6936 19.3711 36.3741 19.3711 38.4472C19.3711 40.5202 21.0516 42.2008 23.1247 42.2008Z" fill="#7893F2" fill-opacity="0.4"/>
		<path d="M23.1248 40.324C24.1614 40.324 25.0016 39.4837 25.0016 38.4472C25.0016 37.4107 24.1614 36.5704 23.1248 36.5704C22.0883 36.5704 21.248 37.4107 21.248 38.4472C21.248 39.4837 22.0883 40.324 23.1248 40.324Z" fill="#255FF5"/>
		<animate
			attributeName="opacity"
			attributeType="XML"
      values="1; .3; 1"
      begin="0.5s" 
      dur="4.0s"
      repeatCount="indefinite"
    />
	</g>
	<g opacity="0.8">
		<path d="M235.578 82.533C238.687 82.533 241.208 80.0122 241.208 76.9027C241.208 73.7931 238.687 71.2723 235.578 71.2723C232.468 71.2723 229.947 73.7931 229.947 76.9027C229.947 80.0122 232.468 82.533 235.578 82.533Z" fill="#239DF5" fill-opacity="0.2"/>
		<path d="M235.578 80.6563C237.651 80.6563 239.332 78.9757 239.332 76.9027C239.332 74.8296 237.651 73.1491 235.578 73.1491C233.505 73.1491 231.825 74.8296 231.825 76.9027C231.825 78.9757 233.505 80.6563 235.578 80.6563Z" fill="#7893F2" fill-opacity="0.4"/>
		<path d="M235.578 78.7795C236.614 78.7795 237.455 77.9392 237.455 76.9027C237.455 75.8662 236.614 75.0259 235.578 75.0259C234.541 75.0259 233.701 75.8662 233.701 76.9027C233.701 77.9392 234.541 78.7795 235.578 78.7795Z" fill="#255FF5"/>
		<animate
			attributeName="opacity"
			attributeType="XML"
	    values="1; .3; 1"
	    begin="2s" 
	    dur="4s"
	    repeatCount="indefinite"
	  />
	</g>
	<linearGradient id="paint0_linear" x1="-30.5803" y1="47.3281" x2="-30.5803" y2="119.919" gradientUnits="userSpaceOnUse">
		<stop stop-color="#28A07C"/>
		<stop offset="1" stop-color="#5E5CD1"/>
		<animate
			attributeName="x1"
			attributeType="XML"
		  from="-900"
			to="2000"
		  begin="0s" dur="3s"
		  repeatCount="indefinite"
		/>
		<animate
		  attributeName="x2"
			attributeType="XML"
		  from="0"
			to="2000"
		  begin="0s" dur="3s"
		  repeatCount="indefinite"
		/>
	</linearGradient>
	<linearGradient id="paint1_linear" x1="143.596" y1="-121.499" x2="64.9884" y2="159.903" gradientUnits="userSpaceOnUse">
		<stop stop-color="#1AB1E0"/>
		<stop offset="1" stop-color="#005069"/>
	</linearGradient>
</svg>
