<svg width="502" height="175" viewBox="0 0 502 175" fill="none" xmlns="http://www.w3.org/2000/svg">
<path d="M126.002 30.5579H141.676V20.3719H126.002V10.4594H145.372V0H112.724V47.8535H126.002V30.5579Z" fill="url(#paint0_linear)"/>
<path d="M147.998 13.6724V47.8535H160.318V13.6724H147.998ZM147.998 0V7.99837H160.318V0H147.998Z" fill="url(#paint1_linear)"/>
<path d="M200.312 47.8535V25.9776C200.312 17.0905 197.574 12.9888 190.387 12.9888C185.596 12.9888 179.71 14.6295 176.63 16.0651V13.6724H164.31V47.8535H176.63V23.79C177.93 22.833 180.258 21.7392 182.653 21.7392C186.281 21.7392 187.992 23.038 187.992 27.1398V47.8535H200.312Z" fill="url(#paint2_linear)"/>
<path d="M202.025 11.7583H214.208V47.8535H227.487V11.7583H239.67V0H202.025V11.7583Z" fill="url(#paint3_linear)"/>
<path d="M270.265 38.8981C267.116 39.7184 260.614 40.4704 255.617 40.4704C253.29 40.4704 250.005 39.9235 250.005 35.4116V34.2494H272.455V26.5929C272.455 15.7233 263.831 12.9888 255.207 12.9888C243.297 12.9888 237.616 18.1843 237.616 29.259V34.5229C237.616 45.871 246.788 48.5371 255.617 48.5371C261.777 48.5371 267.185 47.7851 271.497 46.8964L270.265 38.8981ZM250.005 26.3878C250.005 22.7646 251.579 20.4403 255.207 20.4403C258.834 20.4403 261.024 22.7646 261.024 26.046V27.4132H250.005V26.3878Z" fill="url(#paint4_linear)"/>
<path d="M301.634 38.0777C298.554 39.0348 297.117 39.6501 294.31 39.6501C289.382 39.6501 286.781 38.1461 286.781 32.4037V29.259C286.781 23.5166 289.451 21.8759 294.31 21.8759C296.501 21.8759 300.676 23.1064 301.634 23.5849L303.277 15.0397C299.718 13.6041 296.227 12.9204 291.778 12.9204C281.785 12.9204 273.914 18.7996 273.914 28.3019V33.3607C273.914 43.9569 281.853 48.4688 291.778 48.4688C294.173 48.4688 299.581 47.9902 303.277 46.623L301.634 38.0777Z" fill="url(#paint5_linear)"/>
<path d="M340.757 47.8535V24.2686C340.757 13.9459 335.212 12.9888 328.505 12.9888C322.482 12.9888 318.991 14.903 317.074 16.0651V0H304.754V47.8535H317.074V23.9268C318.443 22.9013 320.907 21.7392 323.098 21.7392C326.725 21.7392 328.436 23.1748 328.436 26.5245V47.8535H340.757Z" fill="url(#paint6_linear)"/>
<path d="M0 77.0499H11.5816C22.279 77.0499 27.0531 73.7827 27.0531 61.5972C27.0531 49.4116 22.4117 46.1445 11.5816 46.1445H0V77.0499ZM11.5816 52.2373C16.0462 52.2373 18.4333 53.6942 18.4333 61.5972C18.4333 69.1469 16.0462 70.9571 11.5816 70.9571H8.57566V52.2373H11.5816Z" fill="url(#paint7_linear)"/>
<path d="M30.2341 60.8908C32.1349 60.4934 36.0249 59.8753 38.3677 59.8753C41.1968 59.8753 41.9925 60.7583 41.9925 62.8334V64.4228H36.688C31.2508 64.4228 28.3775 66.0564 28.3775 70.648C28.3775 75.5046 30.853 77.4914 35.3176 77.4914C38.1467 77.4914 40.5338 76.5642 41.9041 75.5929V77.0499H49.8609V62.8775C49.8609 56.8289 45.8825 54.5331 38.7656 54.5331C34.5219 54.5331 31.074 55.5044 29.3942 55.9017L30.2341 60.8908ZM39.296 72.8556C37.2626 72.8556 36.3785 72.1933 36.3785 70.5156C36.3785 69.3235 37.351 68.3081 38.9424 68.3081H41.9041V72.1933C41.3294 72.4141 40.1801 72.8556 39.296 72.8556Z" fill="url(#paint8_linear)"/>
<path d="M62.7834 54.5331C55.8433 54.5331 51.5555 56.2991 51.5555 61.1115C51.5555 68.1756 57.3905 68.4405 63.0045 69.8975C64.5516 70.2948 65.0379 70.5156 65.0379 71.4427C65.0379 72.1933 64.7284 72.7231 61.8551 72.7673C59.1145 72.7673 55.2687 72.1492 52.2186 71.6194L51.5997 76.3435C55.3571 77.1382 58.8492 77.4914 62.7392 77.4914C69.3699 77.4914 72.9947 76.2552 72.9947 70.648C72.9947 64.5111 67.2039 63.4515 61.1921 62.4802C59.9544 62.2594 59.5123 62.127 59.5123 61.1115C59.5123 60.0519 60.1754 59.3455 62.7392 59.3455C65.5241 59.3455 68.6184 59.787 71.3149 60.4493L72.1106 55.7693C69.5467 55.107 66.364 54.5331 62.7834 54.5331Z" fill="url(#paint9_linear)"/>
<path d="M97.8814 77.0499V61.8179C97.8814 55.1512 94.3009 54.5331 89.9688 54.5331C86.0788 54.5331 83.8244 55.7693 82.5867 56.5199V46.1445H74.6299V77.0499H82.5867V61.5972C83.4708 60.9349 85.0621 60.1844 86.4767 60.1844C88.8195 60.1844 89.9246 61.1115 89.9246 63.2749V77.0499H97.8814Z" fill="url(#paint10_linear)"/>
<path d="M100.446 46.1445V77.0499H108.403V75.5929C109.862 76.2993 111.895 77.1823 114.592 77.1823C120.692 77.1823 123.388 74.2684 123.388 66.0122C123.388 58.1093 120.604 54.5772 114.592 54.5772C111.895 54.5772 109.994 55.5044 108.403 56.4316V46.1445H100.446ZM111.011 72.1933C109.906 72.1933 108.978 71.796 108.403 71.5311V60.8025C108.978 60.5817 110.127 60.1402 111.055 60.1402C113.442 60.1402 115.387 61.553 115.387 66.0122C115.387 70.648 113.442 72.1933 111.011 72.1933Z" fill="url(#paint11_linear)"/>
<path d="M123.995 67.999C123.995 74.2242 128.062 77.5355 135.621 77.5355C143.224 77.5355 147.556 74.2242 147.556 67.999V64.0696C147.556 57.8444 143.224 54.5772 135.621 54.5772C128.062 54.5772 123.995 57.8444 123.995 64.0696V67.999ZM131.687 63.7606C131.687 61.1557 132.924 59.2572 135.621 59.2572C138.715 59.2572 139.555 61.1557 139.555 63.7606V68.3522C139.555 70.9571 138.715 72.8114 135.621 72.8114C132.571 72.8114 131.687 71.0012 131.687 68.3522V63.7606Z" fill="url(#paint12_linear)"/>
<path d="M150.38 60.8908C152.281 60.4934 156.171 59.8753 158.514 59.8753C161.343 59.8753 162.139 60.7583 162.139 62.8334V64.4228H156.834C151.397 64.4228 148.524 66.0564 148.524 70.648C148.524 75.5046 150.999 77.4914 155.464 77.4914C158.293 77.4914 160.68 76.5642 162.05 75.5929V77.0499H170.007V62.8775C170.007 56.8289 166.029 54.5331 158.912 54.5331C154.668 54.5331 151.22 55.5044 149.541 55.9017L150.38 60.8908ZM159.442 72.8556C157.409 72.8556 156.525 72.1933 156.525 70.5156C156.525 69.3235 157.497 68.3081 159.089 68.3081H162.05V72.1933C161.476 72.4141 160.326 72.8556 159.442 72.8556Z" fill="url(#paint13_linear)"/>
<path d="M188.278 54.5331H186.422C183.725 54.5331 181.648 56.0783 180.543 57.5353V54.9746H172.586V77.0499H180.543V66.6745C180.543 63.9371 183.107 60.9791 185.847 60.9791H188.986L188.278 54.5331Z" fill="url(#paint14_linear)"/>
<path d="M203.444 46.1445V56.4316C202.383 55.5927 201.013 54.5331 197.83 54.5331C191.509 54.5331 188.459 57.4912 188.459 66.0122C188.459 74.6657 192.835 77.4914 197.742 77.4914C201.057 77.4914 202.605 76.0344 203.444 75.5929V77.0499H211.401V46.1445H203.444ZM200.704 71.8843C198.096 71.8843 196.46 70.648 196.46 66.0122C196.46 61.0674 198.14 60.1402 200.704 60.1402C201.809 60.1402 202.781 60.5817 203.444 60.8025V71.222C202.737 71.4869 201.853 71.8843 200.704 71.8843Z" fill="url(#paint15_linear)"/>
<path d="M224.289 54.5331C217.348 54.5331 213.061 56.2991 213.061 61.1115C213.061 68.1756 218.896 68.4405 224.51 69.8975C226.057 70.2948 226.543 70.5156 226.543 71.4427C226.543 72.1933 226.234 72.7231 223.36 72.7673C220.62 72.7673 216.774 72.1492 213.724 71.6194L213.105 76.3435C216.862 77.1382 220.354 77.4914 224.244 77.4914C230.875 77.4914 234.5 76.2552 234.5 70.648C234.5 64.5111 228.709 63.4515 222.697 62.4802C221.459 62.2594 221.017 62.127 221.017 61.1115C221.017 60.0519 221.68 59.3455 224.244 59.3455C227.029 59.3455 230.124 59.787 232.82 60.4493L233.616 55.7693C231.052 55.107 227.869 54.5331 224.289 54.5331Z" fill="url(#paint16_linear)"/>
<path d="M239.904 99.1251H256.716C272.245 99.1251 279.175 94.3825 279.175 76.6938C279.175 59.0051 272.437 54.2625 256.716 54.2625H239.904V99.1251ZM256.716 63.1068C263.197 63.1068 266.662 65.2218 266.662 76.6938C266.662 87.6531 263.197 90.2808 256.716 90.2808H252.353V63.1068H256.716Z" fill="url(#paint17_linear)"/>
<path d="M283.793 75.6684C286.552 75.0915 292.199 74.1943 295.599 74.1943C299.706 74.1943 300.861 75.4761 300.861 78.4883V80.7955H293.161C285.268 80.7955 281.098 83.1668 281.098 89.8321C281.098 96.882 284.691 99.766 291.172 99.766C295.279 99.766 298.744 98.4201 300.733 97.0102V99.1251H312.283V78.5524C312.283 69.7721 306.508 66.4395 296.177 66.4395C290.017 66.4395 285.012 67.8494 282.573 68.4262L283.793 75.6684ZM296.947 93.0366C293.995 93.0366 292.712 92.0753 292.712 89.6399C292.712 87.9095 294.124 86.4354 296.434 86.4354H300.733V92.0753C299.899 92.3957 298.23 93.0366 296.947 93.0366Z" fill="url(#paint18_linear)"/>
<path d="M313.716 74.8352H317.887V90.0244C317.887 97.3306 321.481 99.766 329.63 99.766C333.865 99.766 337.458 98.9969 339.255 98.4842L337.972 91.3703C335.79 91.7548 334.699 91.9471 332.646 91.9471C330.464 91.9471 329.437 90.5371 329.437 87.9094V74.8352H337.779V67.0804H329.437V58.1078L317.887 59.1973V67.0804H313.716V74.8352Z" fill="url(#paint19_linear)"/>
<path d="M341.386 75.6684C344.145 75.0915 349.792 74.1943 353.192 74.1943C357.299 74.1943 358.454 75.4761 358.454 78.4883V80.7955H350.754C342.861 80.7955 338.691 83.1668 338.691 89.8321C338.691 96.882 342.284 99.766 348.765 99.766C352.872 99.766 356.337 98.4201 358.326 97.0102V99.1251H369.876V78.5524C369.876 69.7721 364.101 66.4395 353.77 66.4395C347.61 66.4395 342.605 67.8494 340.166 68.4262L341.386 75.6684ZM354.54 93.0366C351.588 93.0366 350.305 92.0753 350.305 89.6399C350.305 87.9095 351.717 86.4354 354.027 86.4354H358.326V92.0753C357.492 92.3957 355.823 93.0366 354.54 93.0366Z" fill="url(#paint20_linear)"/>
<path d="M371.502 65.2859H382.924V99.1251H395.372V65.2859H406.794V54.2625H371.502V65.2859Z" fill="url(#paint21_linear)"/>
<path d="M435.477 90.7294C432.525 91.4985 426.429 92.2034 421.745 92.2034C419.563 92.2034 416.483 91.6907 416.483 87.4608V86.3713H437.53V79.1933C437.53 69.003 429.445 66.4395 421.36 66.4395C410.194 66.4395 404.869 71.3103 404.869 81.6928V86.6277C404.869 97.2665 413.467 99.766 421.745 99.766C427.52 99.766 432.589 99.061 436.632 98.2279L435.477 90.7294ZM416.483 79.001C416.483 75.6043 417.959 73.4252 421.36 73.4252C424.761 73.4252 426.814 75.6043 426.814 78.6806V79.9623H416.483V79.001Z" fill="url(#paint22_linear)"/>
<path d="M464.885 89.9603C461.998 90.8576 460.65 91.4344 458.02 91.4344C453.399 91.4344 450.961 90.0244 450.961 84.6409V81.6928C450.961 76.3092 453.464 74.7711 458.02 74.7711C460.073 74.7711 463.987 75.9247 464.885 76.3733L466.426 68.3621C463.089 67.0163 459.816 66.3754 455.645 66.3754C446.277 66.3754 438.898 71.8871 438.898 80.7955V85.5381C438.898 95.472 446.341 99.7019 455.645 99.7019C457.891 99.7019 462.96 99.2533 466.426 97.9715L464.885 89.9603Z" fill="url(#paint23_linear)"/>
<path d="M501.563 99.1251V77.0142C501.563 67.3367 496.365 66.4395 490.077 66.4395C484.43 66.4395 481.158 68.234 479.361 69.3235V54.2625H467.811V99.1251H479.361V76.6938C480.644 75.7324 482.954 74.6429 485.008 74.6429C488.408 74.6429 490.013 75.9888 490.013 79.1292V99.1251H501.563Z" fill="url(#paint24_linear)"/>
<path d="M19.6364 80.3611V87.0809C18.9434 86.533 18.0483 85.8408 15.9693 85.8408C11.8401 85.8408 9.84766 87.7731 9.84766 93.3393C9.84766 98.992 12.7063 100.838 15.9115 100.838C18.0772 100.838 19.0878 99.886 19.6364 99.5976V100.549H24.834V80.3611H19.6364ZM17.8461 97.175C16.1425 97.175 15.0741 96.3675 15.0741 93.3393C15.0741 90.1092 16.1714 89.5035 17.8461 89.5035C18.568 89.5035 19.2033 89.7919 19.6364 89.9361V96.7424C19.1744 96.9155 18.5969 97.175 17.8461 97.175Z" fill="url(#paint25_linear)"/>
<path d="M27.2751 89.9938C28.5168 89.7342 31.0578 89.3305 32.5882 89.3305C34.4363 89.3305 34.956 89.9073 34.956 91.2628V92.301H31.491C27.9393 92.301 26.0624 93.3681 26.0624 96.3675C26.0624 99.5399 27.6794 100.838 30.5958 100.838C32.4439 100.838 34.0031 100.232 34.8983 99.5976V100.549H40.0958V91.2916C40.0958 87.3405 37.4971 85.8408 32.8481 85.8408C30.0761 85.8408 27.8238 86.4753 26.7265 86.7348L27.2751 89.9938ZM33.1946 97.8095C31.8663 97.8095 31.2888 97.3769 31.2888 96.281C31.2888 95.5023 31.9241 94.839 32.9636 94.839H34.8983V97.3769C34.5229 97.5211 33.7721 97.8095 33.1946 97.8095Z" fill="url(#paint26_linear)"/>
<path d="M40.7408 89.6189H42.6177V96.454C42.6177 99.7418 44.2347 100.838 47.9019 100.838C49.8077 100.838 51.4248 100.492 52.2333 100.261L51.6558 97.0597C50.674 97.2327 50.1831 97.3192 49.2591 97.3192C48.2773 97.3192 47.8153 96.6848 47.8153 95.5023V89.6189H51.5691V86.1292H47.8153V82.0916L42.6177 82.5818V86.1292H40.7408V89.6189Z" fill="url(#paint27_linear)"/>
<path d="M53.192 89.9938C54.4337 89.7342 56.9747 89.3305 58.5051 89.3305C60.3531 89.3305 60.8729 89.9073 60.8729 91.2628V92.301H57.4078C53.8562 92.301 51.9793 93.3681 51.9793 96.3675C51.9793 99.5399 53.5963 100.838 56.5127 100.838C58.3607 100.838 59.92 100.232 60.8151 99.5976V100.549H66.0127V91.2916C66.0127 87.3405 63.4139 85.8408 58.765 85.8408C55.9929 85.8408 53.7407 86.4753 52.6434 86.7348L53.192 89.9938ZM59.1115 97.8095C57.7832 97.8095 57.2057 97.3769 57.2057 96.281C57.2057 95.5023 57.841 94.839 58.8805 94.839H60.8151V97.3769C60.4398 97.5211 59.689 97.8095 59.1115 97.8095Z" fill="url(#paint28_linear)"/>
<path d="M78.0439 100.549H85.2339L89.7962 86.1292H84.4831L82.0576 96.8578H81.5667L79.1123 86.1292H73.4527L78.0439 100.549Z" fill="url(#paint29_linear)"/>
<path d="M90.343 86.1292V100.549H95.5406V86.1292H90.343ZM90.343 80.3611V83.7355H95.5406V80.3611H90.343Z" fill="url(#paint30_linear)"/>
<path d="M103.981 85.8408C99.448 85.8408 96.6471 86.9944 96.6471 90.138C96.6471 94.7525 100.459 94.9255 104.126 95.8772C105.137 96.1368 105.454 96.281 105.454 96.8866C105.454 97.3769 105.252 97.723 103.375 97.7518C101.585 97.7518 99.0727 97.3481 97.0803 97.002L96.676 100.088C99.1304 100.607 101.412 100.838 103.953 100.838C108.284 100.838 110.652 100.03 110.652 96.3675C110.652 92.3587 106.869 91.6665 102.942 91.0321C102.133 90.8879 101.845 90.8013 101.845 90.138C101.845 89.4458 102.278 88.9844 103.953 88.9844C105.772 88.9844 107.793 89.2728 109.554 89.7054L110.074 86.6483C108.399 86.2157 106.32 85.8408 103.981 85.8408Z" fill="url(#paint31_linear)"/>
<path d="M111.72 86.1292V96.5982C111.72 99.0208 112.933 100.838 115.734 100.838C118.188 100.838 120.383 100.088 121.711 99.5399V100.549H126.908V86.1292H121.711V96.3098C121.133 96.7136 120.123 97.1462 118.997 97.1462C117.755 97.1462 116.917 96.5982 116.917 94.8678V86.1292H111.72Z" fill="url(#paint32_linear)"/>
<path d="M129.363 89.9938C130.605 89.7342 133.146 89.3305 134.677 89.3305C136.525 89.3305 137.044 89.9073 137.044 91.2628V92.301H133.579C130.028 92.301 128.151 93.3681 128.151 96.3675C128.151 99.5399 129.768 100.838 132.684 100.838C134.532 100.838 136.091 100.232 136.987 99.5976V100.549H142.184V91.2916C142.184 87.3405 139.585 85.8408 134.936 85.8408C132.164 85.8408 129.912 86.4753 128.815 86.7348L129.363 89.9938ZM135.283 97.8095C133.955 97.8095 133.377 97.3769 133.377 96.281C133.377 95.5023 134.012 94.839 135.052 94.839H136.987V97.3769C136.611 97.5211 135.86 97.8095 135.283 97.8095Z" fill="url(#paint33_linear)"/>
<path d="M149.066 100.549V78.9191H143.869V100.549H149.066Z" fill="url(#paint34_linear)"/>
<path d="M150.75 86.1292V100.549H155.948V86.1292H150.75ZM150.75 80.3611V83.7355H155.948V80.3611H150.75Z" fill="url(#paint35_linear)"/>
<path d="M157.257 89.9073H163.523L156.997 98.0403V100.549H169.962V96.7424H163.234L169.558 88.6383V86.1292H157.257V89.9073Z" fill="url(#paint36_linear)"/>
<path d="M171.835 89.9938C173.077 89.7342 175.618 89.3305 177.148 89.3305C178.996 89.3305 179.516 89.9073 179.516 91.2628V92.301H176.051C172.499 92.301 170.623 93.3681 170.623 96.3675C170.623 99.5399 172.24 100.838 175.156 100.838C177.004 100.838 178.563 100.232 179.458 99.5976V100.549H184.656V91.2916C184.656 87.3405 182.057 85.8408 177.408 85.8408C174.636 85.8408 172.384 86.4753 171.287 86.7348L171.835 89.9938ZM177.755 97.8095C176.426 97.8095 175.849 97.3769 175.849 96.281C175.849 95.5023 176.484 94.839 177.524 94.839H179.458V97.3769C179.083 97.5211 178.332 97.8095 177.755 97.8095Z" fill="url(#paint37_linear)"/>
<path d="M185.301 89.6189H187.178V96.454C187.178 99.7418 188.795 100.838 192.462 100.838C194.368 100.838 195.985 100.492 196.793 100.261L196.216 97.0597C195.234 97.2327 194.743 97.3192 193.819 97.3192C192.837 97.3192 192.375 96.6848 192.375 95.5023V89.6189H196.129V86.1292H192.375V82.0916L187.178 82.5818V86.1292H185.301V89.6189Z" fill="url(#paint38_linear)"/>
<path d="M196.973 86.1292V100.549H202.17V86.1292H196.973ZM196.973 80.3611V83.7355H202.17V80.3611H196.973Z" fill="url(#paint39_linear)"/>
<path d="M203.219 94.6371C203.219 98.7036 205.875 100.867 210.813 100.867C215.78 100.867 218.609 98.7036 218.609 94.6371V92.0703C218.609 88.0038 215.78 85.8696 210.813 85.8696C205.875 85.8696 203.219 88.0038 203.219 92.0703V94.6371ZM208.243 91.8684C208.243 90.1668 209.052 88.9267 210.813 88.9267C212.834 88.9267 213.383 90.1668 213.383 91.8684V94.8678C213.383 96.5694 212.834 97.7807 210.813 97.7807C208.821 97.7807 208.243 96.5982 208.243 94.8678V91.8684Z" fill="url(#paint40_linear)"/>
<path d="M234.863 100.549V91.3205C234.863 87.5712 233.708 85.8408 230.676 85.8408C228.655 85.8408 226.172 86.533 224.872 87.1386V86.1292H219.675V100.549H224.872V90.3976C225.421 89.9938 226.403 89.5324 227.413 89.5324C228.944 89.5324 229.666 90.0803 229.666 91.8107V100.549H234.863Z" fill="url(#paint41_linear)"/>
<path d="M182.801 143.988H196.975V139.373H188.333V124.049H182.801V143.988Z" fill="url(#paint42_linear)"/>
<path d="M210.674 140.256C209.362 140.598 206.653 140.911 204.571 140.911C203.601 140.911 202.232 140.684 202.232 138.804V138.319H211.587V135.129C211.587 130.6 207.993 129.461 204.4 129.461C199.438 129.461 197.071 131.626 197.071 136.24V138.433C197.071 143.162 200.892 144.273 204.571 144.273C207.138 144.273 209.391 143.959 211.187 143.589L210.674 140.256ZM202.232 135.044C202.232 133.534 202.888 132.566 204.4 132.566C205.911 132.566 206.824 133.534 206.824 134.901V135.471H202.232V135.044Z" fill="url(#paint43_linear)"/>
<path d="M227.623 143.988V134.873C227.623 131.17 226.483 129.461 223.488 129.461C221.492 129.461 219.039 130.144 217.756 130.743V129.746H212.622V143.988H217.756V133.961C218.298 133.563 219.267 133.107 220.265 133.107C221.777 133.107 222.49 133.648 222.49 135.357V143.988H227.623Z" fill="url(#paint44_linear)"/>
<path d="M238.547 124.049V130.686C237.862 130.144 236.978 129.461 234.925 129.461C230.847 129.461 228.879 131.369 228.879 136.867C228.879 142.45 231.702 144.273 234.868 144.273C237.007 144.273 238.005 143.333 238.547 143.048V143.988H243.68V124.049H238.547ZM236.779 140.655C235.096 140.655 234.041 139.858 234.041 136.867C234.041 133.677 235.124 133.078 236.779 133.078C237.492 133.078 238.119 133.363 238.547 133.506V140.228C238.09 140.399 237.52 140.655 236.779 140.655Z" fill="url(#paint45_linear)"/>
<path d="M245.321 129.746V143.988H250.455V129.746H245.321ZM245.321 124.049V127.381H250.455V124.049H245.321Z" fill="url(#paint46_linear)"/>
<path d="M267.119 143.988V134.873C267.119 131.17 265.978 129.461 262.984 129.461C260.987 129.461 258.535 130.144 257.251 130.743V129.746H252.118V143.988H257.251V133.961C257.793 133.563 258.763 133.107 259.761 133.107C261.272 133.107 261.985 133.648 261.985 135.357V143.988H267.119Z" fill="url(#paint47_linear)"/>
<path d="M275.875 129.461C272.139 129.461 268.717 130.144 268.717 133.933C268.717 135.727 269.43 136.81 270.399 137.436C269.914 137.892 269.601 138.519 269.601 139.259C269.601 139.858 269.886 140.484 270.257 140.883C268.945 141.624 268.089 142.82 268.089 144.871C268.089 148.716 271.283 149.713 275.875 149.713C280.466 149.713 283.632 148.716 283.632 144.871C283.632 140.968 280.438 140.028 275.875 140.028C275.333 140.028 274.591 140.057 274.164 140.114C274.078 139.858 273.964 139.487 273.964 139.202C273.964 138.889 274.05 138.519 274.135 138.291C274.591 138.348 275.333 138.376 275.875 138.376C279.668 138.376 283.005 137.75 283.005 133.933C283.005 132.907 282.691 132.053 282.006 131.483C283.347 130.971 283.803 129.717 283.803 128.321H278.698C278.727 128.521 278.727 128.663 278.727 128.806C278.727 129.176 278.698 129.432 278.584 129.746C277.757 129.546 277.244 129.461 275.875 129.461ZM278.698 144.871C278.698 146.096 278.185 146.665 275.875 146.665C273.536 146.665 273.051 146.01 273.051 144.871C273.051 143.504 273.793 143.076 275.875 143.076C278.185 143.076 278.698 143.589 278.698 144.871ZM278.042 133.933C278.042 135.215 277.586 135.699 275.875 135.699C274.078 135.67 273.679 135.186 273.679 133.933C273.679 132.793 274.078 132.11 275.875 132.11C277.5 132.11 278.042 132.765 278.042 133.933Z" fill="url(#paint48_linear)"/>
<path d="M291.267 129.461C286.79 129.461 284.023 130.6 284.023 133.705C284.023 138.262 287.788 138.433 291.41 139.373C292.408 139.63 292.722 139.772 292.722 140.37C292.722 140.855 292.522 141.196 290.668 141.225C288.9 141.225 286.419 140.826 284.451 140.484L284.052 143.532C286.476 144.045 288.729 144.273 291.239 144.273C295.517 144.273 297.855 143.475 297.855 139.858C297.855 135.898 294.119 135.215 290.241 134.588C289.442 134.446 289.157 134.36 289.157 133.705C289.157 133.021 289.585 132.566 291.239 132.566C293.035 132.566 295.032 132.85 296.771 133.278L297.285 130.258C295.631 129.831 293.577 129.461 291.267 129.461Z" fill="url(#paint49_linear)"/>
<path d="M249.113 115.283C248.664 115.454 246.611 115.86 245.691 115.86C243.83 115.86 243.146 114.556 243.146 113.04V110.156C243.146 108.511 243.98 107.314 245.691 107.314C246.611 107.314 248.514 107.72 248.963 107.891L249.669 104.601C249.22 104.452 247.167 103.896 245.691 103.896C241.948 103.896 238.975 105.669 238.975 110.092V113.082C238.975 117.526 241.926 119.278 245.691 119.278C247.167 119.278 249.22 118.722 249.669 118.573L249.113 115.283Z" fill="url(#paint50_linear)"/>
<path d="M258.231 108.169H257.332C256.028 108.169 255.022 108.917 254.487 109.622V108.383H250.637V119.064H254.487V114.044C254.487 112.719 255.728 111.288 257.054 111.288H258.573L258.231 108.169Z" fill="url(#paint51_linear)"/>
<path d="M263.334 120.239C262.885 121.136 262.265 121.243 261.495 121.243C261.024 121.243 259.634 120.965 258.885 120.73L258.329 123.422C259.228 123.7 260.789 124.084 262.008 124.084C263.655 124.084 264.768 123.358 265.559 122.375C266.115 121.692 266.65 120.645 267.099 119.684L270.692 108.383H266.714L264.661 116.842H264.425L262.286 108.383H258.158L261.089 117.013C261.538 118.316 263.014 119.043 263.848 119.043L263.334 120.239Z" fill="url(#paint52_linear)"/>
<path d="M274.521 123.337V118.359C275.248 118.722 276.104 119.278 277.708 119.278C280.274 119.278 281.772 117.846 281.772 113.723C281.772 109.536 280.232 108.083 277.708 108.083C276.104 108.083 275.055 108.746 274.521 109.087V108.383H270.671V123.337H274.521ZM275.697 110.882C276.959 110.882 277.9 111.48 277.9 113.723C277.9 116.116 276.745 116.543 276.018 116.543C275.419 116.543 274.884 116.372 274.521 116.244V111.202C274.799 111.074 275.269 110.882 275.697 110.882Z" fill="url(#paint53_linear)"/>
<path d="M281.912 110.967H283.302V116.031C283.302 118.466 284.5 119.278 287.217 119.278C288.628 119.278 289.826 119.021 290.425 118.85L289.997 116.479C289.27 116.607 288.906 116.671 288.222 116.671C287.495 116.671 287.152 116.201 287.152 115.326V110.967H289.933V108.383H287.152V105.392L283.302 105.755V108.383H281.912V110.967Z" fill="url(#paint54_linear)"/>
<path d="M290.087 114.685C290.087 117.697 292.055 119.299 295.712 119.299C299.391 119.299 301.488 117.697 301.488 114.685V112.783C301.488 109.771 299.391 108.19 295.712 108.19C292.055 108.19 290.087 109.771 290.087 112.783V114.685ZM293.809 112.634C293.809 111.373 294.408 110.455 295.712 110.455C297.21 110.455 297.616 111.373 297.616 112.634V114.856C297.616 116.116 297.21 117.013 295.712 117.013C294.237 117.013 293.809 116.137 293.809 114.856V112.634Z" fill="url(#paint55_linear)"/>
<path d="M255.943 164.532H264.107V159.369H255.943V154.954H266.032V149.685H249.027V174.608H266.032V169.339H255.943V164.532Z" fill="url(#paint56_linear)"/>
<path d="M268.106 165.814H278.801V160.651H268.106V165.814Z" fill="url(#paint57_linear)"/>
<path d="M297.76 168.306C297.011 168.591 293.589 169.268 292.056 169.268C288.955 169.268 287.814 167.096 287.814 164.568V159.761C287.814 157.019 289.204 155.025 292.056 155.025C293.589 155.025 296.762 155.702 297.51 155.987L298.687 150.504C297.938 150.254 294.516 149.329 292.056 149.329C285.818 149.329 280.863 152.284 280.863 159.654V164.639C280.863 172.045 285.782 174.964 292.056 174.964C294.516 174.964 297.938 174.039 298.687 173.789L297.76 168.306Z" fill="url(#paint58_linear)"/>
<path d="M298.82 167.309C298.82 172.33 302.1 175 308.196 175C314.327 175 317.821 172.33 317.821 167.309V164.14C317.821 159.12 314.327 156.485 308.196 156.485C302.1 156.485 298.82 159.12 298.82 164.14V167.309ZM305.023 163.891C305.023 161.79 306.021 160.259 308.196 160.259C310.691 160.259 311.368 161.79 311.368 163.891V167.594C311.368 169.695 310.691 171.19 308.196 171.19C305.736 171.19 305.023 169.73 305.023 167.594V163.891Z" fill="url(#paint59_linear)"/>
<path d="M336.283 174.608V162.146C337.067 161.577 338.351 161.078 339.028 161.078C340.24 161.078 340.846 161.684 340.846 163.001V174.608H347.013V161.862C347.013 158.194 346.443 156.45 342.308 156.45C340.454 156.45 337.566 157.482 335.855 158.657C335.214 157.055 334.073 156.45 331.613 156.45C329.688 156.45 326.8 157.731 325.303 158.8V156.806H319.136V174.608H325.303V162.36C326.123 161.648 327.406 161.078 328.191 161.078C329.438 161.078 330.116 161.719 330.116 163.001V174.608H336.283Z" fill="url(#paint60_linear)"/>
<path d="M366.224 174.608V162.146C367.008 161.577 368.291 161.078 368.969 161.078C370.181 161.078 370.787 161.684 370.787 163.001V174.608H376.954V161.862C376.954 158.194 376.384 156.45 372.248 156.45C370.395 156.45 367.507 157.482 365.796 158.657C365.154 157.055 364.013 156.45 361.554 156.45C359.629 156.45 356.741 157.731 355.244 158.8V156.806H349.077V174.608H355.244V162.36C356.064 161.648 357.347 161.078 358.131 161.078C359.379 161.078 360.056 161.719 360.056 163.001V174.608H366.224Z" fill="url(#paint61_linear)"/>
<path d="M395.487 169.944C393.847 170.371 390.461 170.763 387.858 170.763C386.646 170.763 384.935 170.478 384.935 168.128V167.523H396.628V163.535C396.628 157.874 392.136 156.45 387.644 156.45C381.442 156.45 378.483 159.156 378.483 164.924V167.665C378.483 173.576 383.26 174.964 387.858 174.964C391.067 174.964 393.883 174.573 396.129 174.11L395.487 169.944ZM384.935 163.428C384.935 161.541 385.755 160.331 387.644 160.331C389.534 160.331 390.675 161.541 390.675 163.25V163.962H384.935V163.428Z" fill="url(#paint62_linear)"/>
<path d="M410.578 156.45H409.08C406.906 156.45 405.23 157.696 404.339 158.871V156.806H397.922V174.608H404.339V166.241C404.339 164.034 406.407 161.648 408.617 161.648H411.148L410.578 156.45Z" fill="url(#paint63_linear)"/>
<path d="M425.125 169.517C423.521 170.015 422.773 170.336 421.311 170.336C418.744 170.336 417.39 169.552 417.39 166.562V164.924C417.39 161.933 418.78 161.078 421.311 161.078C422.452 161.078 424.626 161.719 425.125 161.968L425.981 157.518C424.127 156.77 422.309 156.414 419.992 156.414C414.787 156.414 410.688 159.476 410.688 164.425V167.06C410.688 172.579 414.823 174.929 419.992 174.929C421.24 174.929 424.056 174.68 425.981 173.967L425.125 169.517Z" fill="url(#paint64_linear)"/>
<path d="M443.22 169.944C441.58 170.371 438.194 170.763 435.591 170.763C434.379 170.763 432.668 170.478 432.668 168.128V167.523H444.361V163.535C444.361 157.874 439.869 156.45 435.378 156.45C429.175 156.45 426.216 159.156 426.216 164.924V167.665C426.216 173.576 430.993 174.964 435.591 174.964C438.8 174.964 441.616 174.573 443.862 174.11L443.22 169.944ZM432.668 163.428C432.668 161.541 433.488 160.331 435.378 160.331C437.267 160.331 438.408 161.541 438.408 163.25V163.962H432.668V163.428Z" fill="url(#paint65_linear)"/>
<path d="M321.257 105.249V116.216H324.3V113.27H325.382C328.707 113.27 330.056 112.174 330.056 109.228C330.056 106.283 328.707 105.249 325.382 105.249H321.257ZM324.3 107.599H325.382C326.433 107.599 326.982 107.912 326.982 109.213C326.982 110.654 326.308 110.936 325.382 110.936H324.3V107.599Z" fill="url(#paint66_linear)"/>
<path d="M330.714 110.482C331.388 110.341 332.768 110.121 333.6 110.121C334.604 110.121 334.886 110.435 334.886 111.171V111.735H333.004C331.074 111.735 330.055 112.315 330.055 113.944C330.055 115.667 330.933 116.372 332.518 116.372C333.521 116.372 334.368 116.043 334.855 115.699V116.216H337.678V111.187C337.678 109.04 336.266 108.226 333.741 108.226C332.235 108.226 331.012 108.57 330.416 108.711L330.714 110.482ZM333.929 114.727C333.208 114.727 332.894 114.492 332.894 113.897C332.894 113.474 333.239 113.114 333.804 113.114H334.855V114.492C334.651 114.571 334.243 114.727 333.929 114.727Z" fill="url(#paint67_linear)"/>
<path d="M341.271 117.077C340.942 117.735 340.487 117.814 339.922 117.814C339.577 117.814 338.557 117.61 338.008 117.438L337.601 119.412C338.259 119.615 339.404 119.897 340.298 119.897C341.506 119.897 342.322 119.365 342.902 118.644C343.31 118.143 343.702 117.375 344.032 116.67L346.667 108.382H343.749L342.243 114.586H342.071L340.502 108.382H337.475L339.624 114.712C339.953 115.667 341.036 116.2 341.647 116.2L341.271 117.077Z" fill="url(#paint68_linear)"/>
<path d="M354.502 116.216V110.732C354.847 110.482 355.412 110.262 355.71 110.262C356.243 110.262 356.51 110.529 356.51 111.108V116.216H359.223V110.607C359.223 108.993 358.972 108.226 357.153 108.226C356.337 108.226 355.067 108.68 354.314 109.197C354.031 108.492 353.529 108.226 352.447 108.226C351.6 108.226 350.33 108.79 349.671 109.26V108.382H346.957V116.216H349.671V110.826C350.032 110.513 350.596 110.262 350.941 110.262C351.49 110.262 351.788 110.544 351.788 111.108V116.216H354.502Z" fill="url(#paint69_linear)"/>
<path d="M367.378 114.163C366.656 114.351 365.166 114.524 364.021 114.524C363.488 114.524 362.735 114.398 362.735 113.364V113.098H367.88V111.343C367.88 108.852 365.903 108.226 363.927 108.226C361.198 108.226 359.896 109.416 359.896 111.954V113.161C359.896 115.761 361.998 116.372 364.021 116.372C365.433 116.372 366.672 116.2 367.66 115.996L367.378 114.163ZM362.735 111.296C362.735 110.466 363.096 109.933 363.927 109.933C364.758 109.933 365.26 110.466 365.26 111.218V111.531H362.735V111.296Z" fill="url(#paint70_linear)"/>
<path d="M376.7 116.216V111.202C376.7 109.166 376.072 108.226 374.425 108.226C373.327 108.226 371.979 108.602 371.273 108.931V108.382H368.449V116.216H371.273V110.701C371.571 110.482 372.104 110.231 372.653 110.231C373.484 110.231 373.876 110.529 373.876 111.469V116.216H376.7Z" fill="url(#paint71_linear)"/>
<path d="M377.045 110.278H378.065V113.991C378.065 115.777 378.943 116.372 380.935 116.372C381.971 116.372 382.849 116.184 383.288 116.059L382.974 114.32C382.441 114.414 382.174 114.461 381.673 114.461C381.139 114.461 380.888 114.116 380.888 113.474V110.278H382.927V108.382H380.888V106.189L378.065 106.456V108.382H377.045V110.278Z" fill="url(#paint72_linear)"/>
<path d="M387.056 108.226C384.593 108.226 383.072 108.852 383.072 110.56C383.072 113.067 385.142 113.161 387.134 113.678C387.683 113.819 387.856 113.897 387.856 114.226C387.856 114.492 387.746 114.68 386.726 114.696C385.754 114.696 384.389 114.477 383.307 114.289L383.087 115.965C384.421 116.247 385.66 116.372 387.04 116.372C389.393 116.372 390.679 115.934 390.679 113.944C390.679 111.766 388.624 111.39 386.491 111.046C386.052 110.967 385.895 110.92 385.895 110.56C385.895 110.184 386.13 109.933 387.04 109.933C388.028 109.933 389.126 110.09 390.083 110.325L390.365 108.664C389.456 108.429 388.326 108.226 387.056 108.226Z" fill="url(#paint73_linear)"/>
<path d="M304.485 111.516V150.397H314.496V148.564C316.331 149.452 318.889 150.563 322.281 150.563C329.956 150.563 333.348 146.897 333.348 136.511C333.348 126.568 329.844 122.125 322.281 122.125C318.889 122.125 316.498 123.291 314.496 124.458V111.516H304.485ZM317.777 144.287C316.386 144.287 315.218 143.787 314.496 143.454V129.956C315.218 129.679 316.664 129.123 317.832 129.123C320.835 129.123 323.282 130.901 323.282 136.511C323.282 142.343 320.835 144.287 317.777 144.287Z" fill="url(#paint74_linear)"/>
<path d="M336.836 130.068C339.228 129.568 344.122 128.79 347.069 128.79C350.628 128.79 351.629 129.901 351.629 132.511V134.511H344.956C338.115 134.511 334.501 136.566 334.501 142.343C334.501 148.453 337.615 150.952 343.232 150.952C346.791 150.952 349.794 149.786 351.518 148.564V150.397H361.528V132.567C361.528 124.957 356.523 122.069 347.569 122.069C342.231 122.069 337.893 123.291 335.78 123.791L336.836 130.068ZM348.237 145.12C345.679 145.12 344.566 144.287 344.566 142.176C344.566 140.676 345.79 139.399 347.792 139.399H351.518V144.287C350.795 144.565 349.349 145.12 348.237 145.12Z" fill="url(#paint75_linear)"/>
<path d="M394.024 150.397V132.623C394.024 125.402 391.8 122.069 385.96 122.069C382.068 122.069 377.285 123.402 374.782 124.569V122.625H364.772V150.397H374.782V130.845C375.839 130.068 377.73 129.179 379.676 129.179C382.624 129.179 384.014 130.234 384.014 133.567V150.397H394.024Z" fill="url(#paint76_linear)"/>
<path d="M407.261 111.516H397.251V150.397H407.261V137.066H407.65L414.936 150.397H426.281L416.437 135.4L426.169 122.625H414.546L407.706 134.4H407.261V111.516Z" fill="url(#paint77_linear)"/>
<path d="M426.96 122.625V150.397H436.97V122.625H426.96ZM426.96 111.516V118.014H436.97V111.516H426.96Z" fill="url(#paint78_linear)"/>
<path d="M469.465 150.397V132.623C469.465 125.402 467.241 122.069 461.402 122.069C457.509 122.069 452.726 123.402 450.224 124.569V122.625H440.214V150.397H450.224V130.845C451.28 130.068 453.171 129.179 455.118 129.179C458.065 129.179 459.455 130.234 459.455 133.567V150.397H469.465Z" fill="url(#paint79_linear)"/>
<path d="M486.54 122.069C479.254 122.069 472.581 123.402 472.581 130.79C472.581 134.289 473.971 136.4 475.862 137.622C474.917 138.51 474.305 139.732 474.305 141.176C474.305 142.343 474.861 143.565 475.584 144.342C473.026 145.787 471.358 148.119 471.358 152.119C471.358 159.617 477.586 161.561 486.54 161.561C495.493 161.561 501.666 159.617 501.666 152.119C501.666 144.509 495.438 142.676 486.54 142.676C485.483 142.676 484.037 142.732 483.203 142.843C483.036 142.343 482.814 141.621 482.814 141.065C482.814 140.454 482.98 139.732 483.147 139.288C484.037 139.399 485.483 139.454 486.54 139.454C493.936 139.454 500.443 138.233 500.443 130.79C500.443 128.79 499.831 127.124 498.496 126.013C501.11 125.013 502 122.569 502 119.847H492.045C492.101 120.236 492.101 120.514 492.101 120.792C492.101 121.514 492.045 122.014 491.823 122.625C490.21 122.236 489.209 122.069 486.54 122.069ZM492.045 152.119C492.045 154.507 491.044 155.618 486.54 155.618C481.979 155.618 481.034 154.34 481.034 152.119C481.034 149.452 482.48 148.619 486.54 148.619C491.044 148.619 492.045 149.619 492.045 152.119ZM490.766 130.79C490.766 133.289 489.876 134.233 486.54 134.233C483.036 134.178 482.258 133.234 482.258 130.79C482.258 128.568 483.036 127.235 486.54 127.235C489.71 127.235 490.766 128.512 490.766 130.79Z" fill="url(#paint80_linear)"/>
<defs>
<linearGradient id="paint0_linear" x1="-8" y1="73" x2="510" y2="87" gradientUnits="userSpaceOnUse">
<stop stop-color="#6D31CF"/>
<stop offset="1" stop-color="#FC3D99" stop-opacity="0.96"/>
</linearGradient>
<linearGradient id="paint1_linear" x1="-8" y1="73" x2="510" y2="87" gradientUnits="userSpaceOnUse">
<stop stop-color="#6D31CF"/>
<stop offset="1" stop-color="#FC3D99" stop-opacity="0.96"/>
</linearGradient>
<linearGradient id="paint2_linear" x1="-8" y1="73" x2="510" y2="87" gradientUnits="userSpaceOnUse">
<stop stop-color="#6D31CF"/>
<stop offset="1" stop-color="#FC3D99" stop-opacity="0.96"/>
</linearGradient>
<linearGradient id="paint3_linear" x1="-8" y1="73" x2="510" y2="87" gradientUnits="userSpaceOnUse">
<stop stop-color="#6D31CF"/>
<stop offset="1" stop-color="#FC3D99" stop-opacity="0.96"/>
</linearGradient>
<linearGradient id="paint4_linear" x1="-8" y1="73" x2="510" y2="87" gradientUnits="userSpaceOnUse">
<stop stop-color="#6D31CF"/>
<stop offset="1" stop-color="#FC3D99" stop-opacity="0.96"/>
</linearGradient>
<linearGradient id="paint5_linear" x1="-8" y1="73" x2="510" y2="87" gradientUnits="userSpaceOnUse">
<stop stop-color="#6D31CF"/>
<stop offset="1" stop-color="#FC3D99" stop-opacity="0.96"/>
</linearGradient>
<linearGradient id="paint6_linear" x1="-8" y1="73" x2="510" y2="87" gradientUnits="userSpaceOnUse">
<stop stop-color="#6D31CF"/>
<stop offset="1" stop-color="#FC3D99" stop-opacity="0.96"/>
</linearGradient>
<linearGradient id="paint7_linear" x1="-8" y1="73" x2="510" y2="87" gradientUnits="userSpaceOnUse">
<stop stop-color="#6D31CF"/>
<stop offset="1" stop-color="#FC3D99" stop-opacity="0.96"/>
</linearGradient>
<linearGradient id="paint8_linear" x1="-8" y1="73" x2="510" y2="87" gradientUnits="userSpaceOnUse">
<stop stop-color="#6D31CF"/>
<stop offset="1" stop-color="#FC3D99" stop-opacity="0.96"/>
</linearGradient>
<linearGradient id="paint9_linear" x1="-8" y1="73" x2="510" y2="87" gradientUnits="userSpaceOnUse">
<stop stop-color="#6D31CF"/>
<stop offset="1" stop-color="#FC3D99" stop-opacity="0.96"/>
</linearGradient>
<linearGradient id="paint10_linear" x1="-8" y1="73" x2="510" y2="87" gradientUnits="userSpaceOnUse">
<stop stop-color="#6D31CF"/>
<stop offset="1" stop-color="#FC3D99" stop-opacity="0.96"/>
</linearGradient>
<linearGradient id="paint11_linear" x1="-8" y1="73" x2="510" y2="87" gradientUnits="userSpaceOnUse">
<stop stop-color="#6D31CF"/>
<stop offset="1" stop-color="#FC3D99" stop-opacity="0.96"/>
</linearGradient>
<linearGradient id="paint12_linear" x1="-8" y1="73" x2="510" y2="87" gradientUnits="userSpaceOnUse">
<stop stop-color="#6D31CF"/>
<stop offset="1" stop-color="#FC3D99" stop-opacity="0.96"/>
</linearGradient>
<linearGradient id="paint13_linear" x1="-8" y1="73" x2="510" y2="87" gradientUnits="userSpaceOnUse">
<stop stop-color="#6D31CF"/>
<stop offset="1" stop-color="#FC3D99" stop-opacity="0.96"/>
</linearGradient>
<linearGradient id="paint14_linear" x1="-8" y1="73" x2="510" y2="87" gradientUnits="userSpaceOnUse">
<stop stop-color="#6D31CF"/>
<stop offset="1" stop-color="#FC3D99" stop-opacity="0.96"/>
</linearGradient>
<linearGradient id="paint15_linear" x1="-8" y1="73" x2="510" y2="87" gradientUnits="userSpaceOnUse">
<stop stop-color="#6D31CF"/>
<stop offset="1" stop-color="#FC3D99" stop-opacity="0.96"/>
</linearGradient>
<linearGradient id="paint16_linear" x1="-8" y1="73" x2="510" y2="87" gradientUnits="userSpaceOnUse">
<stop stop-color="#6D31CF"/>
<stop offset="1" stop-color="#FC3D99" stop-opacity="0.96"/>
</linearGradient>
<linearGradient id="paint17_linear" x1="-8" y1="73" x2="510" y2="87" gradientUnits="userSpaceOnUse">
<stop stop-color="#6D31CF"/>
<stop offset="1" stop-color="#FC3D99" stop-opacity="0.96"/>
</linearGradient>
<linearGradient id="paint18_linear" x1="-8" y1="73" x2="510" y2="87" gradientUnits="userSpaceOnUse">
<stop stop-color="#6D31CF"/>
<stop offset="1" stop-color="#FC3D99" stop-opacity="0.96"/>
</linearGradient>
<linearGradient id="paint19_linear" x1="-8" y1="73" x2="510" y2="87" gradientUnits="userSpaceOnUse">
<stop stop-color="#6D31CF"/>
<stop offset="1" stop-color="#FC3D99" stop-opacity="0.96"/>
</linearGradient>
<linearGradient id="paint20_linear" x1="-8" y1="73" x2="510" y2="87" gradientUnits="userSpaceOnUse">
<stop stop-color="#6D31CF"/>
<stop offset="1" stop-color="#FC3D99" stop-opacity="0.96"/>
</linearGradient>
<linearGradient id="paint21_linear" x1="-8" y1="73" x2="510" y2="87" gradientUnits="userSpaceOnUse">
<stop stop-color="#6D31CF"/>
<stop offset="1" stop-color="#FC3D99" stop-opacity="0.96"/>
</linearGradient>
<linearGradient id="paint22_linear" x1="-8" y1="73" x2="510" y2="87" gradientUnits="userSpaceOnUse">
<stop stop-color="#6D31CF"/>
<stop offset="1" stop-color="#FC3D99" stop-opacity="0.96"/>
</linearGradient>
<linearGradient id="paint23_linear" x1="-8" y1="73" x2="510" y2="87" gradientUnits="userSpaceOnUse">
<stop stop-color="#6D31CF"/>
<stop offset="1" stop-color="#FC3D99" stop-opacity="0.96"/>
</linearGradient>
<linearGradient id="paint24_linear" x1="-8" y1="73" x2="510" y2="87" gradientUnits="userSpaceOnUse">
<stop stop-color="#6D31CF"/>
<stop offset="1" stop-color="#FC3D99" stop-opacity="0.96"/>
</linearGradient>
<linearGradient id="paint25_linear" x1="-8" y1="73" x2="510" y2="87" gradientUnits="userSpaceOnUse">
<stop stop-color="#6D31CF"/>
<stop offset="1" stop-color="#FC3D99" stop-opacity="0.96"/>
</linearGradient>
<linearGradient id="paint26_linear" x1="-8" y1="73" x2="510" y2="87" gradientUnits="userSpaceOnUse">
<stop stop-color="#6D31CF"/>
<stop offset="1" stop-color="#FC3D99" stop-opacity="0.96"/>
</linearGradient>
<linearGradient id="paint27_linear" x1="-8" y1="73" x2="510" y2="87" gradientUnits="userSpaceOnUse">
<stop stop-color="#6D31CF"/>
<stop offset="1" stop-color="#FC3D99" stop-opacity="0.96"/>
</linearGradient>
<linearGradient id="paint28_linear" x1="-8" y1="73" x2="510" y2="87" gradientUnits="userSpaceOnUse">
<stop stop-color="#6D31CF"/>
<stop offset="1" stop-color="#FC3D99" stop-opacity="0.96"/>
</linearGradient>
<linearGradient id="paint29_linear" x1="-8" y1="73" x2="510" y2="87" gradientUnits="userSpaceOnUse">
<stop stop-color="#6D31CF"/>
<stop offset="1" stop-color="#FC3D99" stop-opacity="0.96"/>
</linearGradient>
<linearGradient id="paint30_linear" x1="-8" y1="73" x2="510" y2="87" gradientUnits="userSpaceOnUse">
<stop stop-color="#6D31CF"/>
<stop offset="1" stop-color="#FC3D99" stop-opacity="0.96"/>
</linearGradient>
<linearGradient id="paint31_linear" x1="-8" y1="73" x2="510" y2="87" gradientUnits="userSpaceOnUse">
<stop stop-color="#6D31CF"/>
<stop offset="1" stop-color="#FC3D99" stop-opacity="0.96"/>
</linearGradient>
<linearGradient id="paint32_linear" x1="-8" y1="73" x2="510" y2="87" gradientUnits="userSpaceOnUse">
<stop stop-color="#6D31CF"/>
<stop offset="1" stop-color="#FC3D99" stop-opacity="0.96"/>
</linearGradient>
<linearGradient id="paint33_linear" x1="-8" y1="73" x2="510" y2="87" gradientUnits="userSpaceOnUse">
<stop stop-color="#6D31CF"/>
<stop offset="1" stop-color="#FC3D99" stop-opacity="0.96"/>
</linearGradient>
<linearGradient id="paint34_linear" x1="-8" y1="73" x2="510" y2="87" gradientUnits="userSpaceOnUse">
<stop stop-color="#6D31CF"/>
<stop offset="1" stop-color="#FC3D99" stop-opacity="0.96"/>
</linearGradient>
<linearGradient id="paint35_linear" x1="-8" y1="73" x2="510" y2="87" gradientUnits="userSpaceOnUse">
<stop stop-color="#6D31CF"/>
<stop offset="1" stop-color="#FC3D99" stop-opacity="0.96"/>
</linearGradient>
<linearGradient id="paint36_linear" x1="-8" y1="73" x2="510" y2="87" gradientUnits="userSpaceOnUse">
<stop stop-color="#6D31CF"/>
<stop offset="1" stop-color="#FC3D99" stop-opacity="0.96"/>
</linearGradient>
<linearGradient id="paint37_linear" x1="-8" y1="73" x2="510" y2="87" gradientUnits="userSpaceOnUse">
<stop stop-color="#6D31CF"/>
<stop offset="1" stop-color="#FC3D99" stop-opacity="0.96"/>
</linearGradient>
<linearGradient id="paint38_linear" x1="-8" y1="73" x2="510" y2="87" gradientUnits="userSpaceOnUse">
<stop stop-color="#6D31CF"/>
<stop offset="1" stop-color="#FC3D99" stop-opacity="0.96"/>
</linearGradient>
<linearGradient id="paint39_linear" x1="-8" y1="73" x2="510" y2="87" gradientUnits="userSpaceOnUse">
<stop stop-color="#6D31CF"/>
<stop offset="1" stop-color="#FC3D99" stop-opacity="0.96"/>
</linearGradient>
<linearGradient id="paint40_linear" x1="-8" y1="73" x2="510" y2="87" gradientUnits="userSpaceOnUse">
<stop stop-color="#6D31CF"/>
<stop offset="1" stop-color="#FC3D99" stop-opacity="0.96"/>
</linearGradient>
<linearGradient id="paint41_linear" x1="-8" y1="73" x2="510" y2="87" gradientUnits="userSpaceOnUse">
<stop stop-color="#6D31CF"/>
<stop offset="1" stop-color="#FC3D99" stop-opacity="0.96"/>
</linearGradient>
<linearGradient id="paint42_linear" x1="-8" y1="73" x2="510" y2="87" gradientUnits="userSpaceOnUse">
<stop stop-color="#6D31CF"/>
<stop offset="1" stop-color="#FC3D99" stop-opacity="0.96"/>
</linearGradient>
<linearGradient id="paint43_linear" x1="-8" y1="73" x2="510" y2="87" gradientUnits="userSpaceOnUse">
<stop stop-color="#6D31CF"/>
<stop offset="1" stop-color="#FC3D99" stop-opacity="0.96"/>
</linearGradient>
<linearGradient id="paint44_linear" x1="-8" y1="73" x2="510" y2="87" gradientUnits="userSpaceOnUse">
<stop stop-color="#6D31CF"/>
<stop offset="1" stop-color="#FC3D99" stop-opacity="0.96"/>
</linearGradient>
<linearGradient id="paint45_linear" x1="-8" y1="73" x2="510" y2="87" gradientUnits="userSpaceOnUse">
<stop stop-color="#6D31CF"/>
<stop offset="1" stop-color="#FC3D99" stop-opacity="0.96"/>
</linearGradient>
<linearGradient id="paint46_linear" x1="-8" y1="73" x2="510" y2="87" gradientUnits="userSpaceOnUse">
<stop stop-color="#6D31CF"/>
<stop offset="1" stop-color="#FC3D99" stop-opacity="0.96"/>
</linearGradient>
<linearGradient id="paint47_linear" x1="-8" y1="73" x2="510" y2="87" gradientUnits="userSpaceOnUse">
<stop stop-color="#6D31CF"/>
<stop offset="1" stop-color="#FC3D99" stop-opacity="0.96"/>
</linearGradient>
<linearGradient id="paint48_linear" x1="-8" y1="73" x2="510" y2="87" gradientUnits="userSpaceOnUse">
<stop stop-color="#6D31CF"/>
<stop offset="1" stop-color="#FC3D99" stop-opacity="0.96"/>
</linearGradient>
<linearGradient id="paint49_linear" x1="-8" y1="73" x2="510" y2="87" gradientUnits="userSpaceOnUse">
<stop stop-color="#6D31CF"/>
<stop offset="1" stop-color="#FC3D99" stop-opacity="0.96"/>
</linearGradient>
<linearGradient id="paint50_linear" x1="-8" y1="73" x2="510" y2="87" gradientUnits="userSpaceOnUse">
<stop stop-color="#6D31CF"/>
<stop offset="1" stop-color="#FC3D99" stop-opacity="0.96"/>
</linearGradient>
<linearGradient id="paint51_linear" x1="-8" y1="73" x2="510" y2="87" gradientUnits="userSpaceOnUse">
<stop stop-color="#6D31CF"/>
<stop offset="1" stop-color="#FC3D99" stop-opacity="0.96"/>
</linearGradient>
<linearGradient id="paint52_linear" x1="-8" y1="73" x2="510" y2="87" gradientUnits="userSpaceOnUse">
<stop stop-color="#6D31CF"/>
<stop offset="1" stop-color="#FC3D99" stop-opacity="0.96"/>
</linearGradient>
<linearGradient id="paint53_linear" x1="-8" y1="73" x2="510" y2="87" gradientUnits="userSpaceOnUse">
<stop stop-color="#6D31CF"/>
<stop offset="1" stop-color="#FC3D99" stop-opacity="0.96"/>
</linearGradient>
<linearGradient id="paint54_linear" x1="-8" y1="73" x2="510" y2="87" gradientUnits="userSpaceOnUse">
<stop stop-color="#6D31CF"/>
<stop offset="1" stop-color="#FC3D99" stop-opacity="0.96"/>
</linearGradient>
<linearGradient id="paint55_linear" x1="-8" y1="73" x2="510" y2="87" gradientUnits="userSpaceOnUse">
<stop stop-color="#6D31CF"/>
<stop offset="1" stop-color="#FC3D99" stop-opacity="0.96"/>
</linearGradient>
<linearGradient id="paint56_linear" x1="-8" y1="73" x2="510" y2="87" gradientUnits="userSpaceOnUse">
<stop stop-color="#6D31CF"/>
<stop offset="1" stop-color="#FC3D99" stop-opacity="0.96"/>
</linearGradient>
<linearGradient id="paint57_linear" x1="-8" y1="73" x2="510" y2="87" gradientUnits="userSpaceOnUse">
<stop stop-color="#6D31CF"/>
<stop offset="1" stop-color="#FC3D99" stop-opacity="0.96"/>
</linearGradient>
<linearGradient id="paint58_linear" x1="-8" y1="73" x2="510" y2="87" gradientUnits="userSpaceOnUse">
<stop stop-color="#6D31CF"/>
<stop offset="1" stop-color="#FC3D99" stop-opacity="0.96"/>
</linearGradient>
<linearGradient id="paint59_linear" x1="-8" y1="73" x2="510" y2="87" gradientUnits="userSpaceOnUse">
<stop stop-color="#6D31CF"/>
<stop offset="1" stop-color="#FC3D99" stop-opacity="0.96"/>
</linearGradient>
<linearGradient id="paint60_linear" x1="-8" y1="73" x2="510" y2="87" gradientUnits="userSpaceOnUse">
<stop stop-color="#6D31CF"/>
<stop offset="1" stop-color="#FC3D99" stop-opacity="0.96"/>
</linearGradient>
<linearGradient id="paint61_linear" x1="-8" y1="73" x2="510" y2="87" gradientUnits="userSpaceOnUse">
<stop stop-color="#6D31CF"/>
<stop offset="1" stop-color="#FC3D99" stop-opacity="0.96"/>
</linearGradient>
<linearGradient id="paint62_linear" x1="-8" y1="73" x2="510" y2="87" gradientUnits="userSpaceOnUse">
<stop stop-color="#6D31CF"/>
<stop offset="1" stop-color="#FC3D99" stop-opacity="0.96"/>
</linearGradient>
<linearGradient id="paint63_linear" x1="-8" y1="73" x2="510" y2="87" gradientUnits="userSpaceOnUse">
<stop stop-color="#6D31CF"/>
<stop offset="1" stop-color="#FC3D99" stop-opacity="0.96"/>
</linearGradient>
<linearGradient id="paint64_linear" x1="-8" y1="73" x2="510" y2="87" gradientUnits="userSpaceOnUse">
<stop stop-color="#6D31CF"/>
<stop offset="1" stop-color="#FC3D99" stop-opacity="0.96"/>
</linearGradient>
<linearGradient id="paint65_linear" x1="-8" y1="73" x2="510" y2="87" gradientUnits="userSpaceOnUse">
<stop stop-color="#6D31CF"/>
<stop offset="1" stop-color="#FC3D99" stop-opacity="0.96"/>
</linearGradient>
<linearGradient id="paint66_linear" x1="-8" y1="73" x2="510" y2="87" gradientUnits="userSpaceOnUse">
<stop stop-color="#6D31CF"/>
<stop offset="1" stop-color="#FC3D99" stop-opacity="0.96"/>
</linearGradient>
<linearGradient id="paint67_linear" x1="-8" y1="73" x2="510" y2="87" gradientUnits="userSpaceOnUse">
<stop stop-color="#6D31CF"/>
<stop offset="1" stop-color="#FC3D99" stop-opacity="0.96"/>
</linearGradient>
<linearGradient id="paint68_linear" x1="-8" y1="73" x2="510" y2="87" gradientUnits="userSpaceOnUse">
<stop stop-color="#6D31CF"/>
<stop offset="1" stop-color="#FC3D99" stop-opacity="0.96"/>
</linearGradient>
<linearGradient id="paint69_linear" x1="-8" y1="73" x2="510" y2="87" gradientUnits="userSpaceOnUse">
<stop stop-color="#6D31CF"/>
<stop offset="1" stop-color="#FC3D99" stop-opacity="0.96"/>
</linearGradient>
<linearGradient id="paint70_linear" x1="-8" y1="73" x2="510" y2="87" gradientUnits="userSpaceOnUse">
<stop stop-color="#6D31CF"/>
<stop offset="1" stop-color="#FC3D99" stop-opacity="0.96"/>
</linearGradient>
<linearGradient id="paint71_linear" x1="-8" y1="73" x2="510" y2="87" gradientUnits="userSpaceOnUse">
<stop stop-color="#6D31CF"/>
<stop offset="1" stop-color="#FC3D99" stop-opacity="0.96"/>
</linearGradient>
<linearGradient id="paint72_linear" x1="-8" y1="73" x2="510" y2="87" gradientUnits="userSpaceOnUse">
<stop stop-color="#6D31CF"/>
<stop offset="1" stop-color="#FC3D99" stop-opacity="0.96"/>
</linearGradient>
<linearGradient id="paint73_linear" x1="-8" y1="73" x2="510" y2="87" gradientUnits="userSpaceOnUse">
<stop stop-color="#6D31CF"/>
<stop offset="1" stop-color="#FC3D99" stop-opacity="0.96"/>
</linearGradient>
<linearGradient id="paint74_linear" x1="-8" y1="73" x2="510" y2="87" gradientUnits="userSpaceOnUse">
<stop stop-color="#6D31CF"/>
<stop offset="1" stop-color="#FC3D99" stop-opacity="0.96"/>
</linearGradient>
<linearGradient id="paint75_linear" x1="-8" y1="73" x2="510" y2="87" gradientUnits="userSpaceOnUse">
<stop stop-color="#6D31CF"/>
<stop offset="1" stop-color="#FC3D99" stop-opacity="0.96"/>
</linearGradient>
<linearGradient id="paint76_linear" x1="-8" y1="73" x2="510" y2="87" gradientUnits="userSpaceOnUse">
<stop stop-color="#6D31CF"/>
<stop offset="1" stop-color="#FC3D99" stop-opacity="0.96"/>
</linearGradient>
<linearGradient id="paint77_linear" x1="-8" y1="73" x2="510" y2="87" gradientUnits="userSpaceOnUse">
<stop stop-color="#6D31CF"/>
<stop offset="1" stop-color="#FC3D99" stop-opacity="0.96"/>
</linearGradient>
<linearGradient id="paint78_linear" x1="-8" y1="73" x2="510" y2="87" gradientUnits="userSpaceOnUse">
<stop stop-color="#6D31CF"/>
<stop offset="1" stop-color="#FC3D99" stop-opacity="0.96"/>
</linearGradient>
<linearGradient id="paint79_linear" x1="-8" y1="73" x2="510" y2="87" gradientUnits="userSpaceOnUse">
<stop stop-color="#6D31CF"/>
<stop offset="1" stop-color="#FC3D99" stop-opacity="0.96"/>
</linearGradient>
<linearGradient id="paint80_linear" x1="-8" y1="73" x2="510" y2="87" gradientUnits="userSpaceOnUse">
<stop stop-color="#6D31CF"/>
<stop offset="1" stop-color="#FC3D99" stop-opacity="0.96"/>
</linearGradient>
</defs>
</svg>
