<svg xmlns="http://www.w3.org/2000/svg" width="145" height="98" viewBox="0 0 145 98" fill="none">
<path d="M48.8777 79.75L49.1377 85.73C49.3977 88.59 50.0043 90.54 50.9577 91.58C51.9977 92.5333 53.341 93.14 54.9877 93.4C56.6343 93.5733 58.021 93.7033 59.1477 93.79C60.361 93.79 61.661 93.8333 63.0477 93.92V96H1.68765V93.92C2.64099 93.92 3.59432 93.92 4.54765 93.92C5.58765 93.8333 7.27765 93.66 9.61765 93.4C12.0443 93.0533 13.7343 92.36 14.6877 91.32C15.7277 90.1933 16.3777 88.2433 16.6377 85.47L16.8977 79.49V18.39L16.6377 12.41C16.3777 9.72333 15.7277 7.77333 14.6877 6.56C13.7343 5.26 12.261 4.48 10.2677 4.22C8.36099 3.95999 6.41099 3.78666 4.41765 3.7C2.42432 3.52666 0.99432 3.39666 0.127653 3.30999V1.23H48.8777V79.75ZM71.4123 51.8L82.7223 0.449998H83.8923C86.9257 1.40333 90.5657 2.35666 94.8123 3.30999C99.1457 4.26333 103.912 4.74 109.112 4.74C115.786 4.74 121.202 4.26333 125.362 3.30999C128.136 2.27 130.909 1.18666 133.682 0.0599954C134.549 0.0599954 134.982 0.883328 134.982 2.52999C134.982 5.13 133.986 8.12 131.992 11.5C130.086 14.7933 126.749 18.3033 121.982 22.03C117.302 25.67 110.022 27.49 100.142 27.49C95.7223 27.49 91.9523 27.2733 88.8323 26.84C85.7123 26.32 82.7657 25.41 79.9923 24.11L75.8323 42.44C79.819 38.54 84.1957 35.8967 88.9623 34.51C93.8157 33.0367 100.056 32.3 107.682 32.3C117.302 32.3 125.796 35.0733 133.162 40.62C140.529 46.1667 144.212 53.4033 144.212 62.33C144.212 73.51 139.402 82.1767 129.782 88.33C120.249 94.4833 109.199 97.56 96.6323 97.56C87.099 97.56 79.299 95.3067 73.2323 90.8C67.2523 86.2067 64.2623 80.4433 64.2623 73.51C64.2623 69.87 65.7357 66.7067 68.6823 64.02C71.629 61.3333 75.0523 59.99 78.9523 59.99C83.719 59.99 87.749 61.29 91.0423 63.89C94.3357 66.4033 95.9823 69.8267 95.9823 74.16C95.9823 78.4933 94.5957 82.0467 91.8223 84.82C89.049 87.5933 87.6623 89.5433 87.6623 90.67C87.6623 92.23 88.5723 93.4433 90.3923 94.31C92.299 95.09 94.2057 95.48 96.1123 95.48C102.612 95.48 107.032 92.8367 109.372 87.55C111.712 82.2633 112.882 75.6767 112.882 67.79C112.882 59.3833 111.409 51.9733 108.462 45.56C105.602 39.1467 100.879 35.94 94.2923 35.94C88.3123 35.94 83.849 37.4133 80.9023 40.36C77.9557 43.3067 76.049 45.56 75.1823 47.12C74.4023 48.68 73.7957 50.3267 73.3623 52.06L71.4123 51.8Z" fill="#00A2B8"/>
</svg>