<svg xmlns="http://www.w3.org/2000/svg" width="239" height="99" viewBox="0 0 239 99" fill="none">
<path d="M49.562 80.75L49.822 86.73C50.082 89.59 50.6887 91.54 51.642 92.58C52.682 93.5333 54.0254 94.14 55.672 94.4C57.3187 94.5733 58.7054 94.7033 59.832 94.79C61.0454 94.79 62.3454 94.8333 63.732 94.92V97H2.37203V94.92C3.32536 94.92 4.27869 94.92 5.23203 94.92C6.27203 94.8333 7.96203 94.66 10.302 94.4C12.7287 94.0533 14.4187 93.36 15.372 92.32C16.412 91.1933 17.062 89.2433 17.322 86.47L17.582 80.49V19.39L17.322 13.41C17.062 10.7233 16.412 8.77333 15.372 7.56C14.4187 6.26 12.9454 5.48 10.952 5.22C9.04536 4.95999 7.09536 4.78666 5.10203 4.7C3.10869 4.52666 1.67869 4.39666 0.812025 4.30999V2.23H49.562V80.75ZM72.0967 52.8L83.4067 1.45H84.5767C87.61 2.40333 91.25 3.35666 95.4967 4.30999C99.83 5.26333 104.597 5.74 109.797 5.74C116.47 5.74 121.887 5.26333 126.047 4.30999C128.82 3.27 131.593 2.18666 134.367 1.06C135.233 1.06 135.667 1.88333 135.667 3.52999C135.667 6.13 134.67 9.12 132.677 12.5C130.77 15.7933 127.433 19.3033 122.667 23.03C117.987 26.67 110.707 28.49 100.827 28.49C96.4067 28.49 92.6367 28.2733 89.5167 27.84C86.3967 27.32 83.4501 26.41 80.6767 25.11L76.5167 43.44C80.5034 39.54 84.8801 36.8967 89.6467 35.51C94.5001 34.0367 100.74 33.3 108.367 33.3C117.987 33.3 126.48 36.0733 133.847 41.62C141.213 47.1667 144.897 54.4033 144.897 63.33C144.897 74.51 140.087 83.1767 130.467 89.33C120.933 95.4833 109.883 98.56 97.3167 98.56C87.7834 98.56 79.9834 96.3067 73.9167 91.8C67.9367 87.2067 64.9467 81.4433 64.9467 74.51C64.9467 70.87 66.42 67.7067 69.3667 65.02C72.3134 62.3333 75.7367 60.99 79.6367 60.99C84.4034 60.99 88.4334 62.29 91.7267 64.89C95.02 67.4033 96.6667 70.8267 96.6667 75.16C96.6667 79.4933 95.28 83.0467 92.5067 85.82C89.7334 88.5933 88.3467 90.5433 88.3467 91.67C88.3467 93.23 89.2567 94.4433 91.0767 95.31C92.9834 96.09 94.8901 96.48 96.7967 96.48C103.297 96.48 107.717 93.8367 110.057 88.55C112.397 83.2633 113.567 76.6767 113.567 68.79C113.567 60.3833 112.093 52.9733 109.147 46.56C106.287 40.1467 101.563 36.94 94.9767 36.94C88.9967 36.94 84.5334 38.4133 81.5867 41.36C78.64 44.3067 76.7334 46.56 75.8667 48.12C75.0867 49.68 74.48 51.3267 74.0467 53.06L72.0967 52.8ZM238.344 49.68C238.344 62.2467 234.184 73.5567 225.864 83.61C217.544 93.5767 206.841 98.56 193.754 98.56C179.974 98.56 169.098 93.36 161.124 82.96C153.151 72.56 149.164 61.4667 149.164 49.68C149.164 37.1133 153.454 25.8467 162.034 15.88C170.614 5.82667 181.188 0.799999 193.754 0.799999C206.754 0.799999 217.414 5.91333 225.734 16.14C234.141 26.28 238.344 37.46 238.344 49.68ZM205.974 49.68C205.974 42.4867 205.844 36.3333 205.584 31.22C205.324 26.1067 204.804 21.1667 204.024 16.4C203.331 11.5467 202.204 8.16666 200.644 6.26C199.171 4.26666 196.874 3.27 193.754 3.27C190.894 3.27 188.598 4.31 186.864 6.39C185.218 8.38333 184.091 11.46 183.484 15.62C182.878 19.78 182.401 24.98 182.054 31.22C181.708 37.46 181.534 43.6133 181.534 49.68C181.534 56.3533 181.664 62.42 181.924 67.88C182.271 73.2533 182.791 78.3233 183.484 83.09C184.178 87.8567 185.261 91.2367 186.734 93.23C188.294 95.1367 190.634 96.09 193.754 96.09C196.614 96.09 198.868 95.0933 200.514 93.1C202.248 91.02 203.374 87.9433 203.894 83.87C204.501 79.71 204.978 74.38 205.324 67.88C205.758 61.2933 205.974 55.2267 205.974 49.68Z" fill="#00A2B8"/>
</svg>