<svg width="168" height="99" viewBox="0 0 168 99" fill="none" xmlns="http://www.w3.org/2000/svg">
<path d="M7.57133 52.8L18.8813 1.45H20.0513C23.0847 2.40333 26.7247 3.35666 30.9713 4.30999C35.3047 5.26333 40.0713 5.74 45.2713 5.74C51.9447 5.74 57.3613 5.26333 61.5213 4.30999C64.2947 3.27 67.068 2.18666 69.8413 1.06C70.708 1.06 71.1413 1.88333 71.1413 3.52999C71.1413 6.13 70.1447 9.12 68.1513 12.5C66.2447 15.7933 62.908 19.3033 58.1413 23.03C53.4613 26.67 46.1813 28.49 36.3013 28.49C31.8813 28.49 28.1113 28.2733 24.9913 27.84C21.8713 27.32 18.9247 26.41 16.1513 25.11L11.9913 43.44C15.978 39.54 20.3547 36.8967 25.1213 35.51C29.9747 34.0367 36.2147 33.3 43.8413 33.3C53.4613 33.3 61.9547 36.0733 69.3213 41.62C76.688 47.1667 80.3713 54.4033 80.3713 63.33C80.3713 74.51 75.5613 83.1767 65.9413 89.33C56.408 95.4833 45.358 98.56 32.7913 98.56C23.258 98.56 15.458 96.3067 9.39133 91.8C3.41133 87.2067 0.421325 81.4433 0.421325 74.51C0.421325 70.87 1.89466 67.7067 4.84133 65.02C7.78799 62.3333 11.2113 60.99 15.1113 60.99C19.878 60.99 23.908 62.29 27.2013 64.89C30.4947 67.4033 32.1413 70.8267 32.1413 75.16C32.1413 79.4933 30.7547 83.0467 27.9813 85.82C25.208 88.5933 23.8213 90.5433 23.8213 91.67C23.8213 93.23 24.7313 94.4433 26.5513 95.31C28.458 96.09 30.3647 96.48 32.2713 96.48C38.7713 96.48 43.1913 93.8367 45.5313 88.55C47.8713 83.2633 49.0413 76.6767 49.0413 68.79C49.0413 60.3833 47.568 52.9733 44.6213 46.56C41.7613 40.1467 37.038 36.94 30.4513 36.94C24.4713 36.94 20.008 38.4133 17.0613 41.36C14.1147 44.3067 12.208 46.56 11.3413 48.12C10.5613 49.68 9.95466 51.3267 9.52133 53.06L7.57133 52.8ZM136.249 67.75C136.249 65.5833 136.162 63.46 135.989 61.38C135.902 59.3 135.729 57.0033 135.469 54.49C135.469 50.07 134.732 46.43 133.259 43.57C131.786 40.71 129.489 39.28 126.369 39.28C123.769 39.28 121.689 40.32 120.129 42.4C118.569 44.3933 117.616 46.3 117.269 48.12C117.009 49.8533 116.836 52.41 116.749 55.79C116.662 59.17 116.619 62.5933 116.619 66.06V67.75C116.619 71.9967 116.922 76.6333 117.529 81.66C118.136 86.6867 119.089 90.37 120.389 92.71C121.689 94.9633 123.812 96.09 126.759 96.09C129.792 96.09 132.046 94.8767 133.519 92.45C134.992 90.0233 135.729 86.3833 135.729 81.53C135.729 80.1433 135.816 77.7167 135.989 74.25C136.162 70.7833 136.249 68.6167 136.249 67.75ZM126.629 98.56C119.609 98.56 113.456 97.1733 108.169 94.4C102.969 91.6267 98.549 87.9433 94.909 83.35C91.269 78.67 88.6257 73.5133 86.979 67.88C85.419 62.16 84.639 56.0933 84.639 49.68C84.639 36.3333 88.929 24.85 97.509 15.23C106.176 5.61 117.876 0.799999 132.609 0.799999C141.449 0.799999 149.032 2.53333 155.359 5.99999C161.772 9.46666 164.979 14.1467 164.979 20.04C164.979 23.5933 163.636 26.4533 160.949 28.62C158.262 30.7867 155.012 31.87 151.199 31.87C146.692 31.87 142.836 30.31 139.629 27.19C136.509 23.9833 134.949 19.9967 134.949 15.23C134.949 13.8433 135.166 12.5433 135.599 11.33C136.119 10.03 136.639 8.68666 137.159 7.29999C137.159 5.91333 136.726 4.87333 135.859 4.17999C134.992 3.48666 133.432 3.13999 131.179 3.13999C128.579 3.13999 126.282 4.13666 124.289 6.12999C122.382 8.03666 120.909 11.2433 119.869 15.75C118.916 20.2567 118.179 24.8933 117.659 29.66C117.139 34.34 116.879 38.8467 116.879 43.18L117.399 43.44C118.612 40.58 120.779 38.4567 123.899 37.07C127.106 35.5967 130.832 34.86 135.079 34.86C144.439 34.86 152.152 37.59 158.219 43.05C164.286 48.51 167.319 55.53 167.319 64.11C167.319 74.1633 163.332 82.44 155.359 88.94C147.472 95.3533 137.896 98.56 126.629 98.56Z" fill="#00A2B8"/>
</svg>
