<svg width="360" height="148" viewBox="0 0 360 148" fill="none" xmlns="http://www.w3.org/2000/svg">
	<g opacity="0.4">
		<path d="M-106.812 115.433C-106.812 115.433 -78.4791 38.3927 -62.8552 38.3927C-47.2314 38.3927 -30.1299 96.1349 -18.6563 110.796C-7.18262 125.457 3.05792 125.792 11.681 115.433C20.3041 105.073 33.1808 44.0301 45.9375 42.3436C58.6942 40.6571 68.9333 95.4782 78.5725 110.796C92.25 132.531 109.968 132.918 121.094 119.125C132.219 105.331 145.062 92.7186 145.062 92.7186C145.062 92.7186 159.454 75.8663 177.562 89.8749C199.094 106.531 211.687 117.094 226.719 128.469C241.75 139.844 258.658 141.062 268.371 125.792C278.084 110.522 294.156 85.8751 294.156 85.8751C294.156 85.8751 302.687 74.8436 311.625 74.8436C320.562 74.8436 336.804 89.1561 344.937 96.886C353.071 104.616 369.712 104.048 389.299 85.8751C408.887 67.7019 420.851 51.7274 430.494 42.0286C440.137 32.3298 459.953 15.7839 487.344 39.5679C506.147 59.1193 506.429 59.3583 522.91 77.2811C536.974 92.5752 543.426 87.5568 552.824 77.2811C565.062 63.8987 573.537 51.4723 602.452 38.3927" stroke="url(#paint0_linear)" stroke-linecap="round"/>
		<path opacity="0.3" d="M-100.121 136.56C-100.121 136.56 -82.1828 89.6693 -66.5617 89.6693C-50.9406 89.6693 -28.9963 129.333 -12.1023 136.56C4.79165 143.787 12.7954 140.773 22.293 132.566C31.7907 124.358 40.1122 105.503 52.8667 104.331C65.6212 103.16 64.8096 111.024 87.7491 132.566C102.549 144.015 111.895 140.093 123.019 130.51C134.142 120.926 158.64 85.1305 158.64 85.1305C158.64 85.1305 170.826 69.1058 186.64 80.6063C202.454 92.1067 226.12 128.646 230.197 135.172C234.274 141.698 251.166 154.413 265.19 139.092C279.214 123.77 298.698 97.4092 298.698 97.4092C298.698 97.4092 305.195 88.5794 320.377 89.6693C335.558 90.7591 339.249 98.9608 347.381 104.331C355.513 109.702 369.752 116.958 389.336 104.331C408.921 91.705 420.883 80.6063 430.524 73.8677C440.166 67.1292 459.978 55.6334 487.364 72.1581C508.776 90.4245 503.041 89.4686 516.423 100.222C527.3 108.962 539.438 118.384 552.066 105.48C564.695 92.5752 573.93 73.8677 602.452 71.3416" stroke="url(#paint1_linear)" stroke-width="2" stroke-linecap="round"/>
	</g>
	<g opacity="0.8">
		<path d="M46.6066 49.7757C50.566 49.7757 53.7757 46.566 53.7757 42.6066C53.7757 38.6472 50.566 35.4375 46.6066 35.4375C42.6472 35.4375 39.4375 38.6472 39.4375 42.6066C39.4375 46.566 42.6472 49.7757 46.6066 49.7757Z" fill="#239DF5" fill-opacity="0.2"/>
		<path d="M46.6075 47.386C49.2471 47.386 51.3869 45.2462 51.3869 42.6066C51.3869 39.967 49.2471 37.8272 46.6075 37.8272C43.9679 37.8272 41.8281 39.967 41.8281 42.6066C41.8281 45.2462 43.9679 47.386 46.6075 47.386Z" fill="#7893F2" fill-opacity="0.4"/>
		<path d="M46.6065 44.9963C47.9263 44.9963 48.9962 43.9264 48.9962 42.6066C48.9962 41.2868 47.9263 40.2169 46.6065 40.2169C45.2867 40.2169 44.2168 41.2868 44.2168 42.6066C44.2168 43.9264 45.2867 44.9963 46.6065 44.9963Z" fill="#255FF5"/>
		<animate
			attributeName="opacity"
			attributeType="XML"
      values="1; .3; 1"
      begin="0.5s" 
      dur="4.0s"
      repeatCount="indefinite"
    />
	</g>
	<g opacity="0.8">
		<path d="M317.122 98.7408C321.082 98.7408 324.291 95.531 324.291 91.5716C324.291 87.6123 321.082 84.4025 317.122 84.4025C313.163 84.4025 309.953 87.6123 309.953 91.5716C309.953 95.531 313.163 98.7408 317.122 98.7408Z" fill="#239DF5" fill-opacity="0.2"/>
		<path d="M317.123 96.3511C319.763 96.3511 321.903 94.2113 321.903 91.5717C321.903 88.9321 319.763 86.7923 317.123 86.7923C314.484 86.7923 312.344 88.9321 312.344 91.5717C312.344 94.2113 314.484 96.3511 317.123 96.3511Z" fill="#7893F2" fill-opacity="0.4"/>
		<path d="M317.122 93.9613C318.442 93.9613 319.512 92.8914 319.512 91.5716C319.512 90.2518 318.442 89.1819 317.122 89.1819C315.802 89.1819 314.732 90.2518 314.732 91.5716C314.732 92.8914 315.802 93.9613 317.122 93.9613Z" fill="#255FF5"/>
		<animate
			attributeName="opacity"
			attributeType="XML"
	    values="1; .3; 1"
	    begin="2s" 
	    dur="4s"
	    repeatCount="indefinite"
	  />
	</g>
	<linearGradient id="paint0_linear" x1="-21.7751" y1="53.9146" x2="-21.7751" y2="146.344" gradientUnits="userSpaceOnUse">
		<stop stop-color="#28A07C"/>
		<stop offset="1" stop-color="#5E5CD1"/>
		<animate
			attributeName="x1"
			attributeType="XML"
		  from="-900"
			to="2000"
		  begin="0s" dur="3s"
		  repeatCount="indefinite"
		/>
		<animate
		  attributeName="x2"
			attributeType="XML"
		  from="0"
			to="2000"
		  begin="0s" dur="3s"
		  repeatCount="indefinite"
		/>
	</linearGradient>
	<linearGradient id="paint1_linear" x1="200.003" y1="-161.052" x2="99.9122" y2="197.255" gradientUnits="userSpaceOnUse">
		<stop stop-color="#1AB1E0"/>
		<stop offset="1" stop-color="#005069"/>
	</linearGradient>
</svg>
