<svg width="770" height="549" viewBox="0 0 770 549" fill="none" xmlns="http://www.w3.org/2000/svg">
<path d="M767.168 308.161C782.524 433 701.538 426.638 616.164 476.671C549.084 515.982 503.926 549 387.107 549C217.604 549 194.631 467.567 137.434 444.07C22.3598 396.795 0 376.868 0 276.243C0 181.752 6.90825 165.365 75.5888 96.9407C91.6228 86.0738 203.861 -20.4209 387.107 3.48615C570.352 27.3932 521.048 93.4348 588.128 132.746C706.154 211.446 751.811 183.321 767.168 308.161Z" fill="url(#paint0_linear)"/>
<path d="M347.8 228L331.96 160.8H347.224L357.4 213.696L370.936 160.8H386.296L399.928 213.504L410.008 160.8H425.08L407.32 228H390.712L378.52 176.928L366.424 228H347.8ZM471.252 216.192L472.788 226.368C465.556 228.096 458.388 228.96 451.284 228.96C434.836 228.96 426.612 222.464 426.612 209.472V201.6C426.612 194.048 428.564 188.416 432.468 184.704C436.372 180.928 442.388 179.04 450.516 179.04C454.932 179.04 458.804 179.584 462.132 180.672C465.46 181.696 468.276 183.68 470.58 186.624C472.884 189.568 474.036 193.408 474.036 198.144V207.552H442.068V210.528C442.068 213.92 442.964 216.128 444.756 217.152C446.612 218.176 449.364 218.688 453.012 218.688C459.348 218.688 465.428 217.856 471.252 216.192ZM442.068 198.048V199.68H459.732V197.376C459.732 194.048 458.964 191.744 457.428 190.464C455.956 189.184 453.652 188.544 450.516 188.544C447.508 188.544 445.332 189.248 443.988 190.656C442.708 192 442.068 194.464 442.068 198.048ZM361.798 292L359.261 283.091H346.635L344.098 292H333.419L346.694 250.7H359.497L372.418 292H361.798ZM353.184 260.081L348.11 276.365H357.904L353.184 260.081ZM397.973 261.91L398.858 269.639H394.964C393.037 269.639 391.287 270.465 389.713 272.117C388.179 273.73 387.412 275.441 387.412 277.25V292H377.972V262.5H387.412V266.807C389.772 263.542 392.467 261.91 395.495 261.91H397.973ZM427.741 284.743L428.685 290.997C424.24 292.059 419.835 292.59 415.469 292.59C405.36 292.59 400.306 288.598 400.306 280.613V275.775C400.306 271.134 401.505 267.672 403.905 265.391C406.304 263.07 410.001 261.91 414.997 261.91C417.711 261.91 420.09 262.244 422.136 262.913C424.181 263.542 425.912 264.762 427.328 266.571C428.744 268.38 429.452 270.74 429.452 273.651V279.433H409.805V281.262C409.805 283.347 410.355 284.704 411.457 285.333C412.597 285.962 414.289 286.277 416.531 286.277C420.425 286.277 424.161 285.766 427.741 284.743ZM409.805 273.592V274.595H420.661V273.179C420.661 271.134 420.189 269.718 419.245 268.931C418.34 268.144 416.924 267.751 414.997 267.751C413.148 267.751 411.811 268.184 410.985 269.049C410.198 269.875 409.805 271.389 409.805 273.592ZM482.33 290.053C478.121 291.744 473.323 292.59 467.934 292.59C461.995 292.59 457.353 291.272 454.01 288.637C450.667 285.962 448.995 281.773 448.995 276.07V266.866C448.995 261.163 450.667 256.954 454.01 254.24C457.353 251.487 461.995 250.11 467.934 250.11C472.772 250.11 477.256 250.739 481.386 251.998L479.616 259.727C475.879 258.665 472.398 258.134 469.173 258.134C465.672 258.134 463.135 258.881 461.562 260.376C459.989 261.871 459.202 264.152 459.202 267.22V276.07C459.202 282.127 462.113 285.156 467.934 285.156C469.704 285.156 471.749 284.861 474.07 284.271V275.952L466.872 275.598V268.931H482.33V290.053ZM507.619 261.91L508.504 269.639H504.61C502.682 269.639 500.932 270.465 499.359 272.117C497.825 273.73 497.058 275.441 497.058 277.25V292H487.618V262.5H497.058V266.807C499.418 263.542 502.112 261.91 505.141 261.91H507.619ZM511.853 269.816L510.791 263.739C515.668 262.52 519.779 261.91 523.122 261.91C527.921 261.91 531.461 262.795 533.742 264.565C536.023 266.335 537.164 269.128 537.164 272.943V292H527.724V289.994C525.364 291.725 522.394 292.59 518.815 292.59C512.522 292.59 509.375 289.561 509.375 283.504C509.375 280.593 510.299 278.489 512.148 277.191C513.997 275.893 516.75 275.244 520.408 275.244H527.783V272.648C527.783 271.075 527.409 269.973 526.662 269.344C525.915 268.675 524.577 268.341 522.65 268.341C520.054 268.341 516.455 268.833 511.853 269.816ZM523.417 286.926C524.479 286.926 525.915 286.533 527.724 285.746V280.141H523.063C521.726 280.141 520.683 280.456 519.936 281.085C519.228 281.675 518.874 282.422 518.874 283.327C518.874 284.625 519.228 285.549 519.936 286.1C520.644 286.651 521.804 286.926 523.417 286.926ZM541.034 268.872V262.5H545.164V255.184L554.604 254.24V262.5H562.864V268.872H554.604V281.852C554.604 284.723 555.725 286.159 557.967 286.159C559.658 286.159 561.31 285.962 562.923 285.569L564.044 291.41C561.251 292.197 558.439 292.59 555.607 292.59C551.91 292.59 549.235 291.902 547.583 290.525C545.97 289.148 545.164 286.828 545.164 283.563V268.872H541.034ZM593.044 284.743L593.988 290.997C589.544 292.059 585.138 292.59 580.772 292.59C570.664 292.59 565.609 288.598 565.609 280.613V275.775C565.609 271.134 566.809 267.672 569.208 265.391C571.608 263.07 575.305 261.91 580.3 261.91C583.014 261.91 585.394 262.244 587.439 262.913C589.485 263.542 591.215 264.762 592.631 266.571C594.047 268.38 594.755 270.74 594.755 273.651V279.433H575.108V281.262C575.108 283.347 575.659 284.704 576.76 285.333C577.901 285.962 579.592 286.277 581.834 286.277C585.728 286.277 589.465 285.766 593.044 284.743ZM575.108 273.592V274.595H585.964V273.179C585.964 271.134 585.492 269.718 584.548 268.931C583.644 268.144 582.228 267.751 580.3 267.751C578.452 267.751 577.114 268.184 576.288 269.049C575.502 269.875 575.108 271.389 575.108 273.592ZM623.817 248.989L622.578 255.243C620.454 254.732 618.448 254.476 616.56 254.476C614.672 254.476 613.433 255.125 612.843 256.423C612.253 257.682 611.958 259.707 611.958 262.5H620.572V269.226H611.958V292H602.518V269.226H597.68V262.5H602.518V260.73C602.518 252.077 606.215 247.75 613.61 247.75C617.937 247.75 621.339 248.163 623.817 248.989ZM624.804 262.5H634.244V280.672C634.244 284.133 635.798 285.864 638.905 285.864C641.344 285.864 643.488 285.156 645.336 283.74V262.5H654.776V292H645.336V289.699C641.206 291.626 637.155 292.59 633.182 292.59C630.39 292.59 628.285 291.803 626.869 290.23C625.493 288.617 624.804 286.454 624.804 283.74V262.5ZM670.37 292H660.93V247.75H670.37V292ZM332.008 308.128V304.6H353.428V308.128H344.944V334H340.492V308.128H332.008ZM354.292 325.726V321.316C354.292 318.6 355.174 316.472 356.938 314.932C358.702 313.364 361.194 312.58 364.414 312.58C367.606 312.58 370.098 313.364 371.89 314.932C373.71 316.472 374.62 318.6 374.62 321.316V325.726C374.62 328.442 373.71 330.57 371.89 332.11C370.098 333.65 367.606 334.42 364.414 334.42C361.194 334.42 358.702 333.65 356.938 332.11C355.174 330.57 354.292 328.442 354.292 325.726ZM358.492 320.644V326.062C358.492 327.854 358.996 329.226 360.004 330.178C361.012 331.13 362.482 331.606 364.414 331.606C366.346 331.606 367.816 331.13 368.824 330.178C369.832 329.226 370.336 327.854 370.336 326.062V320.644C370.336 317.172 368.362 315.436 364.414 315.436C362.538 315.436 361.082 315.884 360.046 316.78C359.01 317.676 358.492 318.964 358.492 320.644ZM388.916 322.828V315.898C388.916 312.398 390.064 309.57 392.36 307.414C394.656 305.258 397.848 304.18 401.936 304.18C406.024 304.18 409.216 305.258 411.512 307.414C413.808 309.57 414.956 312.398 414.956 315.898V322.828C414.956 326.3 413.808 329.1 411.512 331.228C409.244 333.356 406.052 334.42 401.936 334.42C397.82 334.42 394.614 333.356 392.318 331.228C390.05 329.1 388.916 326.3 388.916 322.828ZM393.494 315.52V323.122C393.494 325.67 394.236 327.63 395.72 329.002C397.204 330.374 399.276 331.06 401.936 331.06C404.708 331.06 406.808 330.388 408.236 329.044C409.664 327.672 410.378 325.698 410.378 323.122V315.52C410.378 313.084 409.65 311.152 408.194 309.724C406.738 308.268 404.652 307.54 401.936 307.54C399.36 307.54 397.302 308.254 395.762 309.682C394.25 311.082 393.494 313.028 393.494 315.52ZM419.367 313H423.567V326.608C423.567 329.8 424.953 331.396 427.725 331.396C428.985 331.396 430.217 331.158 431.421 330.682C432.625 330.206 433.563 329.674 434.235 329.086V313H438.435V334H434.235V331.816C433.199 332.488 431.883 333.09 430.287 333.622C428.719 334.154 427.165 334.42 425.625 334.42C423.525 334.42 421.957 333.818 420.921 332.614C419.885 331.41 419.367 329.772 419.367 327.7V313ZM455.746 312.58L456.25 316.15H454.15C452.526 316.15 451.056 316.78 449.74 318.04C448.424 319.3 447.766 320.49 447.766 321.61V334H443.566V313H447.766V316.78C448.382 315.632 449.264 314.652 450.412 313.84C451.56 313 452.764 312.58 454.024 312.58H455.746ZM488.743 329.674L489.499 332.824C486.363 333.888 483.759 334.42 481.687 334.42C477.767 334.42 474.785 333.426 472.741 331.438C470.725 329.422 469.717 326.468 469.717 322.576V316.024C469.717 312.16 470.725 309.22 472.741 307.204C474.785 305.188 477.767 304.18 481.687 304.18C484.235 304.18 486.839 304.712 489.499 305.776L488.617 308.926C486.041 307.946 483.731 307.456 481.687 307.456C476.731 307.456 474.253 310.326 474.253 316.066V322.576C474.253 325.152 474.841 327.224 476.017 328.792C477.221 330.36 479.111 331.144 481.687 331.144C483.339 331.144 485.691 330.654 488.743 329.674ZM493.892 313H498.092V326.608C498.092 329.8 499.478 331.396 502.25 331.396C503.51 331.396 504.742 331.158 505.946 330.682C507.15 330.206 508.088 329.674 508.76 329.086V313H512.96V334H508.76V331.816C507.724 332.488 506.408 333.09 504.812 333.622C503.244 334.154 501.69 334.42 500.15 334.42C498.05 334.42 496.482 333.818 495.446 332.614C494.41 331.41 493.892 329.772 493.892 327.7V313ZM526.407 312.58C528.787 312.58 531.433 313.014 534.345 313.882L533.757 316.78C530.929 315.912 528.465 315.478 526.365 315.478C524.601 315.478 523.341 315.786 522.585 316.402C521.829 316.99 521.451 317.704 521.451 318.544C521.451 319.832 522.123 320.686 523.467 321.106C524.083 321.302 524.909 321.526 525.945 321.778C526.981 322.002 527.863 322.198 528.591 322.366C529.347 322.506 530.159 322.744 531.027 323.08C531.895 323.416 532.595 323.808 533.127 324.256C533.687 324.676 534.149 325.264 534.513 326.02C534.905 326.776 535.101 327.658 535.101 328.666C535.101 329.842 534.891 330.822 534.471 331.606C534.051 332.39 533.421 332.978 532.581 333.37C531.741 333.762 530.831 334.028 529.851 334.168C528.899 334.336 527.737 334.42 526.365 334.42C523.425 334.42 520.359 333.972 517.167 333.076L517.545 330.136C521.241 331.06 524.069 331.522 526.029 331.522C529.277 331.522 530.901 330.682 530.901 329.002C530.901 327.686 530.159 326.748 528.675 326.188C527.975 325.936 527.009 325.67 525.777 325.39C524.573 325.11 523.537 324.844 522.669 324.592C521.801 324.34 520.919 323.99 520.023 323.542C519.127 323.094 518.441 322.464 517.965 321.652C517.489 320.812 517.251 319.776 517.251 318.544C517.251 314.568 520.303 312.58 526.407 312.58ZM537.407 315.898V313H540.977V307.666L545.177 307.12V313H552.317V315.898H545.177V327.238C545.177 330.094 546.269 331.522 548.453 331.522C549.517 331.522 550.763 331.312 552.191 330.892L552.821 333.538C551.309 334.126 549.587 334.42 547.655 334.42C545.359 334.42 543.665 333.902 542.573 332.866C541.509 331.83 540.977 330.164 540.977 327.868V315.898H537.407ZM554.284 325.726V321.316C554.284 318.6 555.166 316.472 556.93 314.932C558.694 313.364 561.186 312.58 564.406 312.58C567.598 312.58 570.09 313.364 571.882 314.932C573.702 316.472 574.612 318.6 574.612 321.316V325.726C574.612 328.442 573.702 330.57 571.882 332.11C570.09 333.65 567.598 334.42 564.406 334.42C561.186 334.42 558.694 333.65 556.93 332.11C555.166 330.57 554.284 328.442 554.284 325.726ZM558.484 320.644V326.062C558.484 327.854 558.988 329.226 559.996 330.178C561.004 331.13 562.474 331.606 564.406 331.606C566.338 331.606 567.808 331.13 568.816 330.178C569.824 329.226 570.328 327.854 570.328 326.062V320.644C570.328 317.172 568.354 315.436 564.406 315.436C562.53 315.436 561.074 315.884 560.038 316.78C559.002 317.676 558.484 318.964 558.484 320.644ZM595.05 334H590.976V319.468C590.976 318.264 590.724 317.368 590.22 316.78C589.744 316.164 588.96 315.856 587.868 315.856C587.168 315.856 586.3 316.094 585.264 316.57C584.228 317.018 583.402 317.536 582.786 318.124V334H578.712V313H582.786V315.898C583.71 315.142 584.844 314.4 586.188 313.672C587.532 312.944 588.666 312.58 589.59 312.58C591.102 312.58 592.222 312.902 592.95 313.546C593.678 314.162 594.238 315.002 594.63 316.066C595.61 315.17 596.828 314.372 598.284 313.672C599.74 312.944 600.958 312.58 601.938 312.58C603.982 312.58 605.368 313.084 606.096 314.092C606.824 315.1 607.188 316.71 607.188 318.922V334H603.114V319.468C603.114 318.208 602.918 317.298 602.526 316.738C602.134 316.15 601.392 315.856 600.3 315.856C599.628 315.856 598.746 316.08 597.654 316.528C596.59 316.948 595.722 317.438 595.05 317.998V334ZM629.44 329.884L629.902 332.992C626.85 333.944 624.064 334.42 621.544 334.42C614.796 334.42 611.422 331.676 611.422 326.188V322.156C611.422 315.772 614.6 312.58 620.956 312.58C623.868 312.58 626.164 313.266 627.844 314.638C629.524 316.01 630.364 318.124 630.364 320.98V324.592H615.748V326.398C615.748 328.302 616.252 329.604 617.26 330.304C618.268 330.976 619.822 331.312 621.922 331.312C623.91 331.312 626.416 330.836 629.44 329.884ZM615.748 321.148V322.114H626.374V320.56C626.374 318.768 625.926 317.48 625.03 316.696C624.134 315.884 622.776 315.478 620.956 315.478C619.136 315.478 617.806 315.926 616.966 316.822C616.154 317.69 615.748 319.132 615.748 321.148ZM646.715 312.58L647.219 316.15H645.119C643.495 316.15 642.025 316.78 640.709 318.04C639.393 319.3 638.735 320.49 638.735 321.61V334H634.535V313H638.735V316.78C639.351 315.632 640.233 314.652 641.381 313.84C642.529 313 643.733 312.58 644.993 312.58H646.715ZM657.534 312.58C659.914 312.58 662.56 313.014 665.472 313.882L664.884 316.78C662.056 315.912 659.592 315.478 657.492 315.478C655.728 315.478 654.468 315.786 653.712 316.402C652.956 316.99 652.578 317.704 652.578 318.544C652.578 319.832 653.25 320.686 654.594 321.106C655.21 321.302 656.036 321.526 657.072 321.778C658.108 322.002 658.99 322.198 659.718 322.366C660.474 322.506 661.286 322.744 662.154 323.08C663.022 323.416 663.722 323.808 664.254 324.256C664.814 324.676 665.276 325.264 665.64 326.02C666.032 326.776 666.228 327.658 666.228 328.666C666.228 329.842 666.018 330.822 665.598 331.606C665.178 332.39 664.548 332.978 663.708 333.37C662.868 333.762 661.958 334.028 660.978 334.168C660.026 334.336 658.864 334.42 657.492 334.42C654.552 334.42 651.486 333.972 648.294 333.076L648.672 330.136C652.368 331.06 655.196 331.522 657.156 331.522C660.404 331.522 662.028 330.682 662.028 329.002C662.028 327.686 661.286 326.748 659.802 326.188C659.102 325.936 658.136 325.67 656.904 325.39C655.7 325.11 654.664 324.844 653.796 324.592C652.928 324.34 652.046 323.99 651.15 323.542C650.254 323.094 649.568 322.464 649.092 321.652C648.616 320.812 648.378 319.776 648.378 318.544C648.378 314.568 651.43 312.58 657.534 312.58ZM338.728 363.064V376H334.276V346.6H352.462V350.002H338.728V359.662H350.53V363.064H338.728ZM354.456 367.726V363.316C354.456 360.6 355.338 358.472 357.102 356.932C358.866 355.364 361.358 354.58 364.578 354.58C367.77 354.58 370.262 355.364 372.054 356.932C373.874 358.472 374.784 360.6 374.784 363.316V367.726C374.784 370.442 373.874 372.57 372.054 374.11C370.262 375.65 367.77 376.42 364.578 376.42C361.358 376.42 358.866 375.65 357.102 374.11C355.338 372.57 354.456 370.442 354.456 367.726ZM358.656 362.644V368.062C358.656 369.854 359.16 371.226 360.168 372.178C361.176 373.13 362.646 373.606 364.578 373.606C366.51 373.606 367.98 373.13 368.988 372.178C369.996 371.226 370.5 369.854 370.5 368.062V362.644C370.5 359.172 368.526 357.436 364.578 357.436C362.702 357.436 361.246 357.884 360.21 358.78C359.174 359.676 358.656 360.964 358.656 362.644ZM391.064 354.58L391.568 358.15H389.468C387.844 358.15 386.374 358.78 385.058 360.04C383.742 361.3 383.084 362.49 383.084 363.61V376H378.884V355H383.084V358.78C383.7 357.632 384.582 356.652 385.73 355.84C386.878 355 388.082 354.58 389.342 354.58H391.064ZM404.196 350.128V346.6H425.616V350.128H417.132V376H412.68V350.128H404.196ZM448.237 376H444.037V362.224C444.037 360.572 443.687 359.396 442.987 358.696C442.287 357.968 441.069 357.604 439.333 357.604C438.297 357.604 437.219 357.856 436.099 358.36C434.979 358.836 434.069 359.368 433.369 359.956V376H429.169V346.6H433.369V357.184C435.525 355.448 437.989 354.58 440.761 354.58C443.309 354.58 445.185 355.056 446.389 356.008C447.621 356.932 448.237 358.808 448.237 361.636V376ZM470.505 371.884L470.967 374.992C467.915 375.944 465.129 376.42 462.609 376.42C455.861 376.42 452.487 373.676 452.487 368.188V364.156C452.487 357.772 455.665 354.58 462.021 354.58C464.933 354.58 467.229 355.266 468.909 356.638C470.589 358.01 471.429 360.124 471.429 362.98V366.592H456.813V368.398C456.813 370.302 457.317 371.604 458.325 372.304C459.333 372.976 460.887 373.312 462.987 373.312C464.975 373.312 467.481 372.836 470.505 371.884ZM456.813 363.148V364.114H467.439V362.56C467.439 360.768 466.991 359.48 466.095 358.696C465.199 357.884 463.841 357.478 462.021 357.478C460.201 357.478 458.871 357.926 458.031 358.822C457.219 359.69 456.813 361.132 456.813 363.148ZM475.599 355H479.799V376H475.599V355ZM475.599 346.6H479.799V351.514H475.599V346.6ZM497.09 354.58L497.594 358.15H495.494C493.87 358.15 492.4 358.78 491.084 360.04C489.768 361.3 489.11 362.49 489.11 363.61V376H484.91V355H489.11V358.78C489.726 357.632 490.608 356.652 491.756 355.84C492.904 355 494.108 354.58 495.368 354.58H497.09ZM516.941 363.064V376H512.489V346.6H530.675V350.002H516.941V359.662H528.743V363.064H516.941ZM550.813 371.884L551.275 374.992C548.223 375.944 545.437 376.42 542.917 376.42C536.169 376.42 532.795 373.676 532.795 368.188V364.156C532.795 357.772 535.973 354.58 542.329 354.58C545.241 354.58 547.537 355.266 549.217 356.638C550.897 358.01 551.737 360.124 551.737 362.98V366.592H537.121V368.398C537.121 370.302 537.625 371.604 538.633 372.304C539.641 372.976 541.195 373.312 543.295 373.312C545.283 373.312 547.789 372.836 550.813 371.884ZM537.121 363.148V364.114H547.747V362.56C547.747 360.768 547.299 359.48 546.403 358.696C545.507 357.884 544.149 357.478 542.329 357.478C540.509 357.478 539.179 357.926 538.339 358.822C537.527 359.69 537.121 361.132 537.121 363.148ZM573.044 371.884L573.506 374.992C570.454 375.944 567.668 376.42 565.148 376.42C558.4 376.42 555.026 373.676 555.026 368.188V364.156C555.026 357.772 558.204 354.58 564.56 354.58C567.472 354.58 569.768 355.266 571.448 356.638C573.128 358.01 573.968 360.124 573.968 362.98V366.592H559.352V368.398C559.352 370.302 559.856 371.604 560.864 372.304C561.872 372.976 563.426 373.312 565.526 373.312C567.514 373.312 570.02 372.836 573.044 371.884ZM559.352 363.148V364.114H569.978V362.56C569.978 360.768 569.53 359.48 568.634 358.696C567.738 357.884 566.38 357.478 564.56 357.478C562.74 357.478 561.41 357.926 560.57 358.822C559.758 359.69 559.352 361.132 559.352 363.148ZM593.174 346.6H597.374V376H593.174V374.446C591.074 375.762 589.002 376.42 586.958 376.42C584.102 376.42 581.876 375.51 580.28 373.69C578.684 371.842 577.886 369.112 577.886 365.5C577.886 361.832 578.614 359.102 580.07 357.31C581.526 355.49 583.85 354.58 587.042 354.58C589.254 354.58 591.298 355.238 593.174 356.554V346.6ZM588.218 373.396C589.87 373.396 591.522 372.906 593.174 371.926V359.074C591.354 358.094 589.702 357.604 588.218 357.604C586.398 357.604 584.928 358.164 583.808 359.284C582.716 360.376 582.17 362.448 582.17 365.5C582.17 368.496 582.716 370.568 583.808 371.716C584.928 372.836 586.398 373.396 588.218 373.396ZM602.501 346.6H606.701V356.554C608.773 355.266 610.901 354.622 613.085 354.622C616.193 354.622 618.447 355.546 619.847 357.394C621.275 359.242 621.989 361.944 621.989 365.5C621.989 369.224 621.289 371.954 619.889 373.69C618.517 375.426 616.249 376.294 613.085 376.294C611.069 376.294 608.941 375.678 606.701 374.446V376H602.501V346.6ZM611.615 373.522C615.675 373.522 617.705 370.848 617.705 365.5C617.705 360.236 615.675 357.604 611.615 357.604C610.103 357.604 608.465 358.094 606.701 359.074V372.052C608.241 373.032 609.879 373.522 611.615 373.522ZM627.049 358.612L626.503 355.882C629.023 355.014 631.809 354.58 634.861 354.58C638.025 354.58 640.209 355.21 641.413 356.47C642.645 357.73 643.261 359.634 643.261 362.182V376H639.061V374.446C637.185 375.79 635.001 376.462 632.509 376.462C627.693 376.462 625.285 374.32 625.285 370.036C625.285 368.076 625.971 366.62 627.343 365.668C628.743 364.716 630.661 364.24 633.097 364.24H639.061V361.51C639.061 360.082 638.711 359.046 638.011 358.402C637.339 357.73 636.233 357.394 634.693 357.394C632.089 357.394 629.541 357.8 627.049 358.612ZM634.147 373.564C635.295 373.564 636.933 373.074 639.061 372.094V366.928H634.021C632.565 366.928 631.459 367.236 630.703 367.852C629.975 368.468 629.611 369.182 629.611 369.994C629.611 371.254 629.961 372.164 630.661 372.724C631.389 373.284 632.551 373.564 634.147 373.564ZM663.938 371.884L664.568 374.908C662.608 375.916 660.284 376.42 657.596 376.42C654.488 376.42 652.024 375.636 650.204 374.068C648.412 372.472 647.516 370.162 647.516 367.138V363.904C647.516 361.02 648.426 358.752 650.246 357.1C652.066 355.42 654.516 354.58 657.596 354.58C660.004 354.58 662.328 355.084 664.568 356.092L663.896 359.158C661.6 358.178 659.724 357.688 658.268 357.688C654.068 357.688 651.968 359.844 651.968 364.156V366.886C651.968 371.198 654.068 373.354 658.268 373.354C659.584 373.354 661.474 372.864 663.938 371.884ZM672.039 346.6V363.988H672.627L681.321 355H686.529L676.239 365.038L686.529 376H681.573L672.627 366.004H672.039V376H667.839V346.6H672.039Z" fill="white"/>
<g clip-path="url(#clip0)">
<path d="M343.262 125.085C343.262 124.705 343.278 124.326 343.308 123.949C341.315 123.422 339.548 122.333 338.192 120.862C336.235 122.61 335 125.152 335 127.977V140H343.262V125.085Z" fill="white"/>
<path d="M349.262 113.286C348.092 111.404 347.416 109.187 347.416 106.815C347.416 106.56 347.425 106.306 347.44 106.054C346.984 105.971 346.515 105.925 346.036 105.925C341.743 105.925 338.251 109.403 338.251 113.678C338.251 117.186 340.603 120.156 343.818 121.11C344.701 118.007 346.601 115.234 349.262 113.286Z" fill="white"/>
<path d="M359.787 116.274C354.549 116.274 350.287 112.031 350.287 106.815C350.287 101.599 354.549 97.356 359.787 97.356C365.025 97.356 369.286 101.599 369.286 106.815C369.286 112.031 365.025 116.274 359.787 116.274Z" fill="white"/>
<path d="M368.524 115.535C366.285 117.765 363.194 119.145 359.787 119.145C356.379 119.145 353.289 117.765 351.049 115.535C348.074 117.668 346.133 121.154 346.133 125.085V140H373.44V125.085C373.44 121.154 371.499 117.668 368.524 115.535Z" fill="white"/>
<path d="M377.157 102.324C376.927 102.324 376.697 102.269 376.487 102.159C376.427 102.127 374.998 101.37 373.558 100.236C371.394 98.5329 370.302 96.842 370.314 95.2104C370.33 92.8887 372.223 91 374.534 91C375.508 91 376.426 91.3374 377.157 91.9179C377.887 91.3374 378.806 91 379.779 91C380.915 91 381.981 91.4436 382.78 92.2491C383.574 93.0486 384.007 94.1073 383.999 95.2302C383.988 96.8527 382.893 98.5364 380.743 100.235C379.308 101.368 377.889 102.125 377.829 102.157C377.619 102.269 377.388 102.324 377.157 102.324Z" fill="white"/>
</g>
<defs>
<linearGradient id="paint0_linear" x1="446.595" y1="0" x2="446.595" y2="549" gradientUnits="userSpaceOnUse">
<stop stop-color="#7540E8"/>
<stop offset="1" stop-color="#B60C49" stop-opacity="0.95"/>
</linearGradient>
<clipPath id="clip0">
<rect width="49" height="49" fill="white" transform="translate(335 91)"/>
</clipPath>
</defs>
</svg>
