<?xml version="1.0" encoding="utf-8"?>
<!-- Generator: Adobe Illustrator 17.0.0, SVG Export Plug-In . SVG Version: 6.00 Build 0)  -->
<!DOCTYPE svg PUBLIC "-//W3C//DTD SVG 1.1//EN" "http://www.w3.org/Graphics/SVG/1.1/DTD/svg11.dtd">
<svg version="1.1" id="Layer_1" xmlns="http://www.w3.org/2000/svg" xmlns:xlink="http://www.w3.org/1999/xlink" x="0px" y="0px"
	 width="14px" height="14px" viewBox="-1 -1 14 14" enable-background="new -1 -1 14 14" xml:space="preserve">
<path fill="#00A2B8" d="M6-1C2.14-1-1,2.14-1,6s3.14,7,7,7s7-3.14,7-7S9.86-1,6-1z M6,11.727c-3.158,0-5.727-2.569-5.727-5.727
	c0-3.158,2.569-5.727,5.727-5.727S11.727,2.842,11.727,6C11.727,9.158,9.158,11.727,6,11.727z"/>
<path fill="#00A2B8" d="M6,1.97c-0.468,0-0.848,0.381-0.848,0.849c0,0.468,0.381,0.848,0.848,0.848c0.468,0,0.848-0.38,0.848-0.848
	C6.848,2.351,6.468,1.97,6,1.97z"/>
<path fill="#00A2B8" d="M6,4.939c-0.351,0-0.636,0.285-0.636,0.636v3.818c0,0.351,0.285,0.636,0.636,0.636
	c0.351,0,0.636-0.285,0.636-0.636V5.576C6.636,5.224,6.351,4.939,6,4.939z"/>
</svg>
