<svg width="28" height="28" viewBox="0 0 28 28" fill="none" xmlns="http://www.w3.org/2000/svg">
<path d="M24.6667 0.666504L3.33341 0.666504C1.86675 0.666504 0.680081 1.8665 0.680081 3.33317L0.666748 27.3332L6.00008 21.9998L24.6667 21.9998C26.1334 21.9998 27.3334 20.7998 27.3334 19.3332L27.3334 3.33317C27.3334 1.8665 26.1334 0.666504 24.6667 0.666504ZM19.8401 14.9332L16.6667 12.3998V15.3332C16.6667 16.0665 16.0667 16.6665 15.3334 16.6665L7.33342 16.6665C6.60008 16.6665 6.00008 16.0665 6.00008 15.3332L6.00008 7.33317C6.00008 6.59984 6.60008 5.99984 7.33342 5.99984L15.3334 5.99984C16.0667 5.99984 16.6667 6.59984 16.6667 7.33317V10.2665L19.8401 7.73317C20.7067 7.03984 22.0001 7.65317 22.0001 8.77317V13.8932C22.0001 15.0132 20.7067 15.6265 19.8401 14.9332Z" fill="white" fill-opacity="0.32"/>
</svg>
