<svg width="13" height="16" viewBox="0 0 13 16" fill="none" xmlns="http://www.w3.org/2000/svg">
<path d="M9.25 14L1.75 14L1.75 4.25C1.75 3.8375 1.4125 3.5 1 3.5C0.5875 3.5 0.25 3.8375 0.25 4.25L0.25 14C0.25 14.825 0.925 15.5 1.75 15.5L9.25 15.5C9.6625 15.5 10 15.1625 10 14.75C10 14.3375 9.6625 14 9.25 14ZM13 11L13 2C13 1.175 12.325 0.5 11.5 0.5L4.75 0.5C3.925 0.5 3.25 1.175 3.25 2L3.25 11C3.25 11.825 3.925 12.5 4.75 12.5L11.5 12.5C12.325 12.5 13 11.825 13 11ZM11.5 11L4.75 11L4.75 2L11.5 2L11.5 11Z" fill="#FFFFFF"/>
</svg>
