<svg width="14" height="14" viewBox="0 0 14 14" fill="none" xmlns="http://www.w3.org/2000/svg">
<path d="M13.6206 8.91314C13.6179 8.91045 13.6152 8.90782 13.6124 8.90518L12.1867 7.55978C12.9848 6.9563 13.3453 5.8881 13.0175 4.89992C11.4717 0.236462 5.53198 -1.24304 1.99276 2.24272C-0.657937 4.85336 -0.633204 9.06278 1.88175 11.6549C4.1411 13.9836 7.70116 14.3107 10.3287 12.5907C11.5592 11.7855 10.9935 9.86891 9.52108 9.86891C8.42139 9.86891 8.23659 8.33135 9.27537 8.06807L11.7872 10.7301C11.7898 10.7329 11.7925 10.7356 11.7952 10.7383C12.2987 11.243 13.1167 11.2444 13.6215 10.7395C14.1263 10.2347 14.1263 9.41767 13.6206 8.91314ZM8.30061 10.2062C8.63142 10.5197 9.06484 10.6924 9.52111 10.6924C10.1787 10.6924 10.4267 11.5426 9.87778 11.9017C7.57807 13.4071 4.4547 13.1243 2.47276 11.0816C0.249839 8.79041 0.262933 5.11352 2.57971 2.83464C5.68423 -0.219059 10.8767 1.05851 12.2358 5.15911C12.4661 5.85315 12.1784 6.60732 11.5748 6.98238L9.28772 4.82421C9.42618 4.1594 9.23441 3.45855 8.73195 2.95611C8.10132 2.32546 6.1146 2.01111 5.2536 1.91759C4.99246 1.88915 4.77135 2.10991 4.79976 2.37144C4.89405 3.23579 5.20655 5.21799 5.83831 5.84978C6.3411 6.35252 7.04231 6.5439 7.7066 6.40547L8.66996 7.42643C7.64412 7.98332 7.43582 9.3867 8.30061 10.2062ZM6.42057 5.26749C6.11029 4.95721 5.83307 3.77712 5.6867 2.8045C6.65934 2.95084 7.83943 3.2281 8.14968 3.53838C8.62744 4.01613 8.62752 4.78959 8.14968 5.26749C7.673 5.74423 6.89937 5.74629 6.42057 5.26749ZM13.0393 10.1572C12.8578 10.3387 12.5642 10.3395 12.3816 10.1602C12.1709 9.93679 8.69555 6.25366 8.50191 6.04847C8.66436 5.92782 8.80996 5.78222 8.93077 5.6196L13.0425 9.49961C13.222 9.68232 13.221 9.97547 13.0393 10.1572Z" fill="#00A2B8"/>
<defs>
<filter id="filter0_d" x="-4" y="0.321999" width="22" height="21.356" filterUnits="userSpaceOnUse" color-interpolation-filters="sRGB">
<feFlood flood-opacity="0" result="BackgroundImageFix"/>
<feColorMatrix in="SourceAlpha" type="matrix" values="0 0 0 0 0 0 0 0 0 0 0 0 0 0 0 0 0 0 127 0"/>
<feOffset dy="4"/>
<feGaussianBlur stdDeviation="2"/>
<feColorMatrix type="matrix" values="0 0 0 0 0 0 0 0 0 0 0 0 0 0 0 0 0 0 0.25 0"/>
<feBlend mode="normal" in2="BackgroundImageFix" result="effect1_dropShadow"/>
<feBlend mode="normal" in="SourceGraphic" in2="effect1_dropShadow" result="shape"/>
</filter>
</defs>
</svg>
