<svg width="28" height="22" viewBox="0 0 28 22" fill="none" xmlns="http://www.w3.org/2000/svg">
<path d="M24.6667 0.333496L3.33341 0.333496C1.86675 0.333496 0.666748 1.5335 0.666748 3.00016L0.666748 19.0002C0.666748 20.4668 1.86675 21.6668 3.33341 21.6668L24.6667 21.6668C26.1334 21.6668 27.3334 20.4668 27.3334 19.0002L27.3334 3.00016C27.3334 1.5335 26.1334 0.333496 24.6667 0.333496ZM24.1334 6.00016L15.4134 11.4535C14.5467 12.0002 13.4534 12.0002 12.5867 11.4535L3.86675 6.00016C3.53341 5.78683 3.33341 5.42683 3.33341 5.04016C3.33341 4.14683 4.30675 3.6135 5.06675 4.08016L14.0001 9.66683L22.9334 4.08016C23.6934 3.6135 24.6667 4.14683 24.6667 5.04016C24.6667 5.42683 24.4667 5.78683 24.1334 6.00016Z" fill="white" fill-opacity="0.32"/>
</svg>
