<svg width="2048" height="306" viewBox="0 0 2048 306" fill="none" xmlns="http://www.w3.org/2000/svg">
<g opacity="0.5">
<path d="M2048.01 59C2048.01 59 1952.01 235 1851.01 207C1792.01 183 1702.23 49 1671.96 119C1651.72 165.799 1621.85 225.867 1601.9 225.867C1569.21 225.867 1543.28 86.4402 1507.92 64.6753C1472.57 42.9105 1454.02 54.974 1445.94 64.6753C1437.87 74.3766 1406.65 143.836 1379.96 147.365C1353.27 150.893 1330.3 103.406 1305.99 74.3766C1271.87 33.6432 1235.29 74.62 1212.01 103.481C1188.74 132.341 1156.03 170.673 1156.03 170.673C1156.03 170.673 1113.12 232.599 1080.03 197.966C1046.93 163.333 995.667 60 977.868 34C960.069 8 938.216 -3.13914 908.868 43C879.52 89.1391 845.526 147.365 845.526 147.365C845.526 147.365 831.929 173.955 800.159 170.673C768.389 167.391 760.665 142.692 743.648 126.519C726.632 110.345 696.832 88.4947 655.849 126.519C614.866 164.543 589.833 197.966 569.656 218.259C549.48 238.552 508.02 273.171 450.709 223.408C411.368 182.5 410.778 182 376.294 144.5C346.868 112.5 336.98 126.975 313.706 144.5C278.948 170.673 255.948 192.875 193.948 223.408C139.948 250 11.8211 196.629 -0.0527344 202" stroke="url(#paint0_linear)" stroke-width="3" stroke-linecap="round"/>
<path opacity="0.3" d="M2056 33.1297C2056 33.1297 1948.26 144.269 1879 131C1839.13 123.361 1761.43 7.21043 1729 13.0002C1673 23.0004 1653 118.58 1609.65 118.58C1576.97 118.58 1531.05 35.5921 1495.71 20.4703C1460.36 5.3485 1443.61 11.6562 1423.74 28.8282C1403.87 46.0003 1386.46 85.4511 1359.77 87.9028C1333.08 90.3546 1334.78 73.8995 1286.79 28.8282C1255.82 4.87274 1236.27 13.0781 1212.99 33.1297C1189.72 53.1814 1138.46 128.077 1138.46 128.077C1138.46 128.077 1112.96 161.605 1079.88 137.543C1046.79 113.481 997.271 37.0298 988.74 23.3748C980.21 9.71983 944.868 -16.8828 915.525 15.1737C886.181 47.2303 845.416 102.386 845.416 102.386C845.416 102.386 831.822 120.861 800.057 118.58C768.292 116.3 760.57 99.1398 743.556 87.9028C726.542 76.6659 696.748 61.4846 655.772 87.9028C614.796 114.321 589.767 137.543 569.594 151.642C549.422 165.741 507.968 189.794 450.667 155.219C405.868 117 417.868 119 389.868 96.5003C367.111 78.2131 341.714 58.5003 315.291 85.5003C294.69 106.551 226.016 176.173 159.994 191C111.015 202 12.1267 117.416 -1.02344 118.58" stroke="url(#paint1_linear)" stroke-width="3" stroke-linecap="round"/>
</g>
<g opacity="0.8">
<path d="M1097.87 192C1089.58 192 1082.87 198.716 1082.87 207C1082.87 215.284 1089.58 222 1097.87 222C1106.15 222 1112.87 215.284 1112.87 207C1112.87 198.716 1106.15 192 1097.87 192Z" fill="#23DCF5" fill-opacity="0.2"/>
<path d="M1097.87 197C1092.34 197 1087.87 201.477 1087.87 207C1087.87 212.523 1092.34 217 1097.87 217C1103.39 217 1107.87 212.523 1107.87 207C1107.87 201.477 1103.39 197 1097.87 197Z" fill="#78EBF2" fill-opacity="0.3"/>
<path d="M1097.87 202C1095.11 202 1092.87 204.239 1092.87 207C1092.87 209.761 1095.11 212 1097.87 212C1100.63 212 1102.87 209.761 1102.87 207C1102.87 204.239 1100.63 202 1097.87 202Z" fill="#25F5F5"/>
</g>
<g opacity="0.8">
<path d="M509.867 234C501.583 234 494.867 240.716 494.867 249C494.867 257.284 501.583 264 509.867 264C518.151 264 524.867 257.284 524.867 249C524.867 240.716 518.151 234 509.867 234Z" fill="#23DCF5" fill-opacity="0.2"/>
<path d="M509.867 239C504.344 239 499.867 243.477 499.867 249C499.867 254.523 504.344 259 509.867 259C515.39 259 519.867 254.523 519.867 249C519.867 243.477 515.39 239 509.867 239Z" fill="#78EBF2" fill-opacity="0.3"/>
<path d="M509.867 244C507.106 244 504.867 246.239 504.867 249C504.867 251.761 507.106 254 509.867 254C512.629 254 514.867 251.761 514.867 249C514.867 246.239 512.629 244 509.867 244Z" fill="#25F5F5"/>
</g>
<g opacity="0.8">
<path d="M1373.87 132C1365.58 132 1358.87 138.716 1358.87 147C1358.87 155.284 1365.58 162 1373.87 162C1382.15 162 1388.87 155.284 1388.87 147C1388.87 138.716 1382.15 132 1373.87 132Z" fill="#239DF5" fill-opacity="0.2"/>
<path d="M1373.87 137C1368.34 137 1363.87 141.477 1363.87 147C1363.87 152.523 1368.34 157 1373.87 157C1379.39 157 1383.87 152.523 1383.87 147C1383.87 141.477 1379.39 137 1373.87 137Z" fill="#7893F2" fill-opacity="0.4"/>
<path d="M1373.87 142C1371.11 142 1368.87 144.239 1368.87 147C1368.87 149.761 1371.11 152 1373.87 152C1376.63 152 1378.87 149.761 1378.87 147C1378.87 144.239 1376.63 142 1373.87 142Z" fill="#255FF5"/>
</g>
<g opacity="0.8">
<path d="M806.867 103C798.583 103 791.867 109.716 791.867 118C791.867 126.284 798.583 133 806.867 133C815.151 133 821.867 126.284 821.867 118C821.867 109.716 815.151 103 806.867 103Z" fill="#239DF5" fill-opacity="0.2"/>
<path d="M806.867 108C801.344 108 796.867 112.477 796.867 118C796.867 123.523 801.344 128 806.867 128C812.39 128 816.867 123.523 816.867 118C816.867 112.477 812.39 108 806.867 108Z" fill="#7893F2" fill-opacity="0.4"/>
<path d="M806.867 113C804.106 113 801.867 115.239 801.867 118C801.867 120.761 804.106 123 806.867 123C809.629 123 811.867 120.761 811.867 118C811.867 115.239 809.629 113 806.867 113Z" fill="#255FF5"/>
</g>
<defs>
<linearGradient id="paint0_linear" x1="1515.94" y1="193.39" x2="1515.94" y2="2.59193e-06" gradientUnits="userSpaceOnUse">
<stop stop-color="#28A07C"/>
<stop offset="1" stop-color="#5E5CD1"/>
</linearGradient>
<linearGradient id="paint1_linear" x1="1051.92" y1="643.167" x2="1261.34" y2="-106.522" gradientUnits="userSpaceOnUse">
<stop stop-color="#1AB1E0"/>
<stop offset="1" stop-color="#005069"/>
</linearGradient>
</defs>
</svg>
