<svg width="1440" height="361" viewBox="0 0 1440 361" fill="none" xmlns="http://www.w3.org/2000/svg">
<g id="lines" opacity="0.4">
	<linearGradient id="line_2_1_" gradientUnits="userSpaceOnUse" x1="527.745" y1="258.323" x2="527.745" y2="30.805" gradientTransform="matrix(1 0 0 -1 119.195 390.805)">
		<stop  offset="0" style="stop-color:#28A07C"/>
		<stop  offset="1" style="stop-color:#5E5CD1"/>
		<animate
			attributeName="x1"
			attributeType="XML"
      from="-900"
  		to="2000"
      begin="0s" dur="3s"
      repeatCount="indefinite"
    />
    <animate
      attributeName="x2"
			attributeType="XML"
      from="0"
  		to="2000"
      begin="0s" dur="3s"
      repeatCount="indefinite"
    />
	</linearGradient>
	<path id="line_2" fill="none" stroke="url(#line_2_1_)" stroke-linecap="round" d="M-226,283.911
		c0,0,69.744-189.636,108.202-189.636c38.459,0,80.555,142.134,108.798,178.223s53.45,36.914,74.676,11.413
		C86.902,258.411,118.599,108.151,150,104c31.401-4.151,56.605,130.793,80.332,168.498C264,326,307.614,326.954,335,293s59-65,59-65
		s35.425-41.483,80-7c53,41,84,67,121,95s78.62,31,102.529-6.588C721.439,271.824,761,211.154,761,211.154S782,184,804,184
		s61.98,35.231,82,54.258c20.02,19.028,60.983,17.631,109.198-27.104c48.212-44.734,77.662-84.055,101.402-107.929
		c23.74-23.874,72.52-64.603,139.94-6.057c46.28,48.126,46.98,48.714,87.55,92.832c34.62,37.647,50.5,25.294,73.63,0
		c30.12-32.941,50.99-63.529,122.16-95.725"/>
	
	<linearGradient id="line_1_1_" gradientUnits="userSpaceOnUse" x1="695.8947" y1="707.621" x2="449.5177" y2="-174.366" gradientTransform="matrix(1 0 0 -1 119.195 390.805)">
		<stop  offset="0" style="stop-color:#1AB1E0"/>
		<stop  offset="1" style="stop-color:#005069"/>
	</linearGradient>
		<path id="line_1" opacity="0.3" fill="none" stroke="url(#line_1_1_)" stroke-width="2" stroke-linecap="round" enable-background="new    " d="
		M-209.529,335.918c0,0,44.155-115.424,82.607-115.424c38.452,0,92.469,97.633,134.054,115.424
		c41.585,17.79,61.287,10.369,84.666-9.833c23.379-20.203,43.862-66.615,75.258-69.5c31.396-2.884,29.398,16.475,85.864,69.5
		c36.431,28.183,59.436,18.529,86.817-5.061c27.381-23.59,87.683-111.703,87.683-111.703s29.997-39.445,68.924-11.136
		S593.526,316.436,603.562,332.5c10.036,16.065,51.615,47.362,86.136,9.649c34.521-37.714,82.481-102.603,82.481-102.603
		s15.993-21.735,53.363-19.052s46.456,22.871,66.472,36.091c20.016,13.22,55.068,31.08,103.275,0
		c48.211-31.08,77.651-58.4,101.381-74.987c23.74-16.587,72.51-44.885,139.92-4.209c52.7,44.964,38.59,42.611,71.53,69.082
		c26.77,21.514,56.65,44.705,87.74,12.941c31.08-31.765,53.81-77.814,124.02-84.032"/>
</g>
<g id="star_1" opacity="0.8">
	<path fill="#239DF5" fill-opacity="0.2" d="M151.647,122.294c9.746,0,17.647-7.901,17.647-17.647
		c0-9.746-7.901-17.647-17.647-17.647S134,94.901,134,104.647C134,114.393,141.901,122.294,151.647,122.294z"/>
	<path fill="#7893F2" fill-opacity="0.4" d="M151.647,116.412c6.497,0,11.765-5.267,11.765-11.765
		c0-6.497-5.268-11.765-11.765-11.765c-6.497,0-11.765,5.267-11.765,11.765C139.882,111.145,145.15,116.412,151.647,116.412z"/>
	<path fill="#255FF5" d="M151.647,110.529c3.249,0,5.882-2.633,5.882-5.882s-2.633-5.882-5.882-5.882
		c-3.249,0-5.882,2.633-5.882,5.882S148.398,110.529,151.647,110.529z"/>
		<animate
			attributeName="opacity"
			attributeType="XML"
      values="1; .3; 1"
      begin="0.5s" 
      dur="4.0s"
      repeatCount="indefinite"
    />
</g>
<g id="star_2" opacity="0.8">
	<path fill="#23DCF5" fill-opacity="0.2" d="M1166.94,84.706c9.75,0,17.65-7.901,17.65-17.647s-7.9-17.647-17.65-17.647
		c-9.74,0-17.65,7.901-17.65,17.647S1157.2,84.706,1166.94,84.706z"/>
	<path fill="#78EBF2" fill-opacity="0.3" d="M1166.94,78.824c6.5,0,11.77-5.267,11.77-11.765s-5.27-11.765-11.77-11.765
		s-11.76,5.267-11.76,11.765S1160.44,78.824,1166.94,78.824z"/>
	<path fill="#25F5F5" d="M1166.94,72.941c3.25,0,5.88-2.634,5.88-5.882c0-3.249-2.63-5.882-5.88-5.882s-5.88,2.634-5.88,5.882
		C1161.06,70.308,1163.69,72.941,1166.94,72.941z"/>
	<animate
		attributeName="opacity"
		attributeType="XML"
    values="1; .3; 1"
    begin="2s" 
    dur="4s"
    repeatCount="indefinite"
  />
</g>
<g id="star_3" opacity="0.8">
	<path fill="#239DF5" fill-opacity="0.2" d="M817.529,242.824c9.747,0,17.647-7.901,17.647-17.648c0-9.746-7.9-17.647-17.647-17.647
		c-9.746,0-17.647,7.901-17.647,17.647C799.882,234.923,807.783,242.824,817.529,242.824z"/>
	<path fill="#7893F2" fill-opacity="0.4" d="M817.529,236.941c6.498,0,11.765-5.267,11.765-11.765
		c0-6.497-5.267-11.764-11.765-11.764c-6.497,0-11.764,5.267-11.764,11.764C805.765,231.674,811.032,236.941,817.529,236.941z"/>
	<path fill="#255FF5" d="M817.529,231.059c3.249,0,5.883-2.634,5.883-5.883c0-3.248-2.634-5.882-5.883-5.882
		c-3.248,0-5.882,2.634-5.882,5.882C811.647,228.425,814.281,231.059,817.529,231.059z"/>
	<animate
		attributeName="opacity"
		attributeType="XML"
    values="1; .2; 1"
    begin="2s" 
    dur="4s"
    repeatCount="indefinite"
  />
</g>
</svg>
