<?xml version="1.0" encoding="utf-8"?>
<!-- Generator: Adobe Illustrator 17.0.0, SVG Export Plug-In . SVG Version: 6.00 Build 0)  -->
<!DOCTYPE svg PUBLIC "-//W3C//DTD SVG 1.1//EN" "http://www.w3.org/Graphics/SVG/1.1/DTD/svg11.dtd">
<svg version="1.1" id="Layer_1" xmlns="http://www.w3.org/2000/svg" xmlns:xlink="http://www.w3.org/1999/xlink" x="0px" y="0px"
	 width="14px" height="13.722px" viewBox="-1.085 -0.861 14 13.722" enable-background="new -1.085 -0.861 14 13.722"
	 xml:space="preserve">
<path fill="#00A2B8" d="M12.752,4.972L6.231-0.742c-0.181-0.159-0.452-0.159-0.632,0l-6.521,5.714
	c-0.2,0.175-0.219,0.477-0.044,0.677c0.175,0.2,0.477,0.219,0.677,0.044l0.505-0.442v7.131c0,0.265,0.215,0.48,0.48,0.48H4.33h3.173
	h3.633c0.265,0,0.48-0.215,0.48-0.48V5.251l0.505,0.442c0.091,0.079,0.204,0.119,0.316,0.119c0.133,0,0.266-0.055,0.361-0.163
	C12.97,5.451,12.95,5.147,12.752,4.972z M4.808,11.902V7.953h2.214v3.949H4.808z M10.655,4.415v7.488H7.981V7.474
	c0-0.265-0.215-0.48-0.48-0.48H4.328c-0.265,0-0.48,0.215-0.48,0.48v4.429H1.174V4.415c0-0.001,0-0.002,0-0.003l4.741-4.156
	l4.741,4.156C10.655,4.412,10.655,4.413,10.655,4.415z"/>
<path fill="#00A2B8" d="M4.841,3.958c0,0.265,0.215,0.48,0.48,0.48h1.189c0.265,0,0.48-0.215,0.48-0.48s-0.215-0.48-0.48-0.48H5.32
	C5.055,3.479,4.841,3.694,4.841,3.958z"/>
</svg>
