<svg width="2048" height="279" viewBox="0 0 2048 279" fill="none" xmlns="http://www.w3.org/2000/svg">
<g opacity="0.8">
<path d="M1514.1 279C1505.85 279 1499.16 272.289 1499.16 264.011C1499.16 255.732 1505.85 249.021 1514.1 249.021C1522.35 249.021 1529.04 255.732 1529.04 264.011C1529.04 272.289 1522.35 279 1514.1 279Z" fill="#656565" fill-opacity="0.2"/>
<path d="M1514.1 274.159C1508.6 274.159 1504.14 269.685 1504.14 264.166C1504.14 258.648 1508.6 254.174 1514.1 254.174C1519.6 254.174 1524.06 258.648 1524.06 264.166C1524.06 269.685 1519.6 274.159 1514.1 274.159Z" fill="#656565" fill-opacity="0.4"/>
<path d="M1514.1 269.319C1511.35 269.319 1509.12 267.082 1509.12 264.323C1509.12 261.563 1511.35 259.326 1514.1 259.326C1516.85 259.326 1519.08 261.563 1519.08 264.323C1519.08 267.082 1516.85 269.319 1514.1 269.319Z" fill="#656565"/>
</g>
<g opacity="0.8">
<path d="M1369.66 155.088C1361.41 155.088 1354.72 148.377 1354.72 140.099C1354.72 131.82 1361.41 125.109 1369.66 125.109C1377.91 125.109 1384.6 131.82 1384.6 140.099C1384.6 148.377 1377.91 155.088 1369.66 155.088Z" fill="#239DF5" fill-opacity="0.2"/>
<path d="M1369.66 150.092C1364.16 150.092 1359.7 145.618 1359.7 140.099C1359.7 134.58 1364.16 130.106 1369.66 130.106C1375.16 130.106 1379.62 134.58 1379.62 140.099C1379.62 145.618 1375.16 150.092 1369.66 150.092Z" fill="#7893F2" fill-opacity="0.4"/>
<path d="M1369.66 145.095C1366.91 145.095 1364.68 142.858 1364.68 140.099C1364.68 137.339 1366.91 135.102 1369.66 135.102C1372.41 135.102 1374.64 137.339 1374.64 140.099C1374.64 142.858 1372.41 145.095 1369.66 145.095Z" fill="#255FF5"/>
</g>
<path d="M2053 130.197C2043.21 125.471 1935 343.35 1790.48 212.197C1757.8 182.54 1761.58 141.137 1740.63 116.697C1721.36 94.2183 1698.73 77.4899 1664.93 116.697C1631.14 155.904 1623.78 165.963 1586.21 217.58C1548.63 269.197 1512.4 227.937 1469.63 212.197C1434.64 199.322 1431.12 197.893 1390.95 158.138C1350.79 118.383 1321.58 141.229 1304.9 158.138C1288.23 175.048 1280.66 200.871 1249.52 204.303C1218.38 207.734 1205.06 179.933 1205.06 179.933C1205.06 179.933 1171.74 119.057 1142.98 70.8176C1114.22 22.5781 1092.8 34.2243 1075.35 61.4079C1057.91 88.5915 1012.55 203.986 980.12 240.195C947.686 276.405 917.63 260.195 900.63 240.195C883.63 220.195 875.13 210.195 850.63 171.195C826.13 132.195 780.969 101.679 747.532 144.267C723.702 174.618 685.789 257.744 659.63 254.055C633.471 250.366 596.946 97.7292 593.63 93.4796C590.314 89.2301 578.279 38.6522 543.63 61.4079C508.981 84.1636 495.806 262.009 463.768 262.009C447.021 262.009 427.348 199.457 396.037 144.267C329 17.1969 264 254.055 160 254.055C87 254.055 -1.77251 42.803 -6 37.1969" stroke="url(#paint0_linear)" stroke-width="3" stroke-linecap="round"/>
<path opacity="0.3" d="M2053 86.2152C2053 86.2152 1981 218.196 1943 218.196C1877.1 201.392 1894 53.1968 1836 109.197C1797 166.239 1760.2 218.196 1736.63 218.196C1704.6 218.196 1694.63 118.196 1670.16 86.2152C1644.63 35.1958 1627.63 75.6765 1610.63 103.936C1593.63 132.196 1543.78 262.268 1517.63 265.196C1491.48 268.123 1462.49 217.885 1428.63 154.937C1407.63 115.902 1372.44 62.2716 1349.63 86.2152C1326.82 110.159 1283.71 154.936 1283.71 154.936C1283.71 154.936 1258.72 194.972 1226.29 166.239C1193.86 137.506 1145.33 46.2169 1136.97 29.9115C1128.61 13.6061 1093.98 -18.16 1065.22 20.1186C1036.46 58.3972 1016.51 95.5179 1000.63 126.195C984.754 156.873 971.761 204.918 940.63 202.195C909.498 199.472 898.582 158.462 875.63 117.23C859.288 87.8742 843.63 81.0527 810.644 106.964C770.484 138.51 719.901 200.36 700.13 217.195C680.359 234.031 617.107 282.738 583.574 221.467C550.041 160.195 558.63 143.596 550.041 117.23C540.373 87.5517 502.847 71.8547 476.951 104.095C455.784 130.448 424 194.176 382 231.197C323.373 282.874 285 74.1968 219 80.1968C180.424 79.9638 171 176.467 94 221.467C24 256.467 -1 125.197 -8 182.218" stroke="url(#paint1_linear)" stroke-width="3" stroke-linecap="round"/>
<defs>
<linearGradient id="paint0_linear" x1="548.007" y1="228.053" x2="548.007" y2="25.8596" gradientUnits="userSpaceOnUse">
<stop stop-color="#28A07C"/>
<stop offset="1" stop-color="#5E5CD1"/>
</linearGradient>
<linearGradient id="paint1_linear" x1="1198.89" y1="770.004" x2="1493.25" y2="-94.8683" gradientUnits="userSpaceOnUse">
<stop stop-color="#1AB1E0"/>
<stop offset="1" stop-color="#005069"/>
</linearGradient>
</defs>
</svg>
