<svg width="18" height="16" viewBox="0 0 18 16" fill="none" xmlns="http://www.w3.org/2000/svg">
<g clip-path="url(#clip0_1785_1793)">
<path d="M12.5931 3.61095L13.7768 5.76365C13.8212 5.8443 13.9276 5.8443 13.972 5.76365L16.075 1.93943L17.0374 0.189278C17.083 0.105969 17.0283 0 16.9401 0H12.8052C12.7651 0 12.728 0.0226601 12.708 0.060649L11.7103 1.87545C11.6884 1.91477 11.6884 1.96476 11.7103 2.00408L12.5943 3.61095H12.5931Z" fill="#00A2B8"/>
<path d="M17.1646 11.8685C15.92 11.8685 14.7661 11.1541 14.1235 9.98575L12.8868 7.73641L10.6865 3.73491L8.63276 0H4.23217L8.48623 7.73641L6.66897 11.0401C6.38626 11.554 5.87859 11.8685 5.33141 11.8685C4.46868 11.8685 3.7695 11.1021 3.7695 10.1564V2.3873L2.36019 0H0V10.1557C0 13.3834 2.38694 16 5.33141 16C7.20035 16 8.93249 14.927 9.89736 13.1728L10.5777 11.9352L10.6142 11.8685L10.6865 11.7379L10.7583 11.8685L10.7947 11.9352L10.8951 12.1178C12.2199 14.5271 14.5983 16 17.1646 16V11.8685V11.8685Z" fill="#00A2B8"/>
</g>
<defs>
<clipPath id="clip0_1785_1793">
<rect width="17.1646" height="16" fill="white"/>
</clipPath>
</defs>
</svg>
