<svg width="101" height="16" viewBox="0 0 101 16" fill="none" xmlns="http://www.w3.org/2000/svg">
<path d="M3.97133 12.5411H8.40868V15.8884H0V0.156206H3.97133V12.5411Z" fill="#BBBBBB"/>
<path d="M13.9242 3.65969V6.22594H18.4831V9.55091H13.9242V12.3849H19.091V15.8884H9.95285V0.156206H19.091V3.65969H13.9242Z" fill="#BBBBBB"/>
<path d="M34.953 0.156206L30.0294 15.8884H24.9436L19.9997 0.156206H24.2547L27.4966 11.5146L30.7183 0.156206H34.953Z" fill="#BBBBBB"/>
<path d="M40.1617 3.65969V6.22594H44.7206V9.55091H40.1617V12.3849H45.3285V15.8884H36.1904V0.156206H45.3285V3.65969H40.1617Z" fill="#BBBBBB"/>
<path d="M54.5244 15.8884L51.6877 10.0865H51.2622V15.8884H47.2909V0.156206H53.5518C54.7 0.156206 55.6726 0.379358 56.4695 0.825663C57.2665 1.25709 57.8676 1.8596 58.2728 2.63319C58.6781 3.39191 58.8807 4.24733 58.8807 5.19944C58.8807 6.27057 58.6105 7.21525 58.0702 8.03347C57.5434 8.83682 56.7667 9.40958 55.7401 9.75174L58.9617 15.8884H54.5244ZM51.2622 7.09623H53.2276C53.7679 7.09623 54.1732 6.9549 54.4433 6.67225C54.7135 6.38959 54.8486 5.98047 54.8486 5.44491C54.8486 4.9391 54.7067 4.54486 54.4231 4.2622C54.1529 3.96467 53.7544 3.8159 53.2276 3.8159H51.2622V7.09623Z" fill="#BBBBBB"/>
<path d="M69.7235 13.3222H64.658L63.8881 15.8884H59.7141L64.9214 0.156206H69.5006L74.6876 15.8884H70.4934L69.7235 13.3222ZM68.7306 9.97489L67.1907 4.88703L65.6711 9.97489H68.7306Z" fill="#BBBBBB"/>
<path d="M85.0999 5.33333C84.8702 4.91678 84.5528 4.59693 84.1476 4.37378C83.7558 4.15063 83.2898 4.03905 82.7495 4.03905C81.7499 4.03905 80.9597 4.39609 80.3788 5.11018C79.8115 5.82427 79.5278 6.78382 79.5278 7.98884C79.5278 9.34263 79.8318 10.3766 80.4396 11.0907C81.061 11.7899 81.9593 12.1395 83.1345 12.1395C84.5258 12.1395 85.5186 11.4477 86.113 10.0642H82.1214V6.91771H89.5372V11.1576C89.2265 11.9907 88.7673 12.7717 88.1594 13.5007C87.565 14.2297 86.8086 14.8322 85.8901 15.3082C84.9715 15.7694 83.9247 16 82.7495 16C81.3176 16 80.0479 15.6653 78.9403 14.9958C77.8461 14.3115 76.9951 13.3668 76.3873 12.1618C75.7929 10.9419 75.4957 9.55091 75.4957 7.98884C75.4957 6.44165 75.7929 5.06555 76.3873 3.86053C76.9951 2.64063 77.8461 1.69595 78.9403 1.0265C80.0344 0.342166 81.2974 0 82.7292 0C84.5258 0 86.0116 0.476058 87.1868 1.42817C88.362 2.38029 89.0914 3.68201 89.3751 5.33333H85.0999Z" fill="#BBBBBB"/>
<path d="M95.2883 3.65969V6.22594H99.8472V9.55091H95.2883V12.3849H100.455V15.8884H91.3169V0.156206H100.455V3.65969H95.2883Z" fill="#BBBBBB"/>
</svg>
