<svg width="14" height="14" viewBox="0 0 14 14" fill="none" xmlns="http://www.w3.org/2000/svg">
<path d="M11.1094 5.33492L9.27477 4.10146H9.46072C9.68727 4.10146 9.87088 3.91785 9.87088 3.6913C9.87088 3.46486 9.68727 3.28114 9.46072 3.28114H8.8911C9.52161 2.4682 9.87088 1.46428 9.87088 0.414108V0.410156C9.87088 0.183609 9.68727 0 9.46072 0H4.53896C4.31252 0 4.1288 0.183609 4.1288 0.410156V0.414108C4.1288 1.46417 4.47807 2.46788 5.1088 3.28114H4.53896C4.31252 3.28114 4.1288 3.46486 4.1288 3.6913C4.1288 3.91785 4.31252 4.10146 4.53896 4.10146H4.72502L2.89043 5.33492C1.59416 6.20639 0.820312 7.65924 0.820312 9.22115C0.820312 10.3567 1.23154 11.4528 1.97826 12.3076C2.72647 13.1641 3.75806 13.7164 4.88278 13.8629C5.58517 13.9543 6.29259 14 6.99989 14C7.7072 14 8.41461 13.9543 9.117 13.8629C10.2417 13.7164 11.2733 13.1641 12.0215 12.3076C12.7682 11.4528 13.1795 10.3567 13.1795 9.22115C13.1795 7.65924 12.4056 6.20639 11.1094 5.33492ZM9.02942 0.820312C8.93019 1.7657 8.48682 2.6407 7.77652 3.28114H6.22337C5.51265 2.64006 5.0696 1.76527 4.97037 0.820312H9.02942ZM9.01115 13.0494C7.67654 13.2231 6.32324 13.2232 4.98863 13.0494C3.07991 12.801 1.64062 11.1552 1.64062 9.22115C1.64062 7.93279 2.27893 6.73457 3.34801 6.01573L6.19528 4.10146H7.8045L10.6517 6.01573C11.7209 6.73457 12.3592 7.93279 12.3592 9.22115C12.3592 11.1552 10.9198 12.801 9.01115 13.0494Z" fill="#00A2B8"/>
<path d="M6.99988 7.41005H7.82019C8.04663 7.41005 8.23035 7.22633 8.23035 6.99989C8.23035 6.77335 8.04663 6.58974 7.82019 6.58974H7.41003V6.17958C7.41003 5.95303 7.22643 5.76942 6.99988 5.76942C6.77333 5.76942 6.58972 5.95303 6.58972 6.17958V6.66023C6.11238 6.82953 5.76941 7.28551 5.76941 7.82021C5.76941 8.49867 6.32141 9.05057 6.99988 9.05057C7.226 9.05057 7.41003 9.2346 7.41003 9.46072C7.41003 9.68695 7.226 9.87088 6.99988 9.87088H6.17957C5.95302 9.87088 5.76941 10.0545 5.76941 10.281C5.76941 10.5076 5.95302 10.6912 6.17957 10.6912H6.58972V11.1013C6.58972 11.3279 6.77333 11.5115 6.99988 11.5115C7.22643 11.5115 7.41003 11.3279 7.41003 11.1013V10.6207C7.88737 10.4513 8.23035 9.99542 8.23035 9.46072C8.23035 8.78226 7.67834 8.23026 6.99988 8.23026C6.77376 8.23026 6.58972 8.04633 6.58972 7.82021C6.58972 7.59398 6.77365 7.41005 6.99988 7.41005Z" fill="#00A2B8"/>
</svg>
