<svg width="2048" height="278" viewBox="0 0 2048 278" fill="none" xmlns="http://www.w3.org/2000/svg">
<g clip-path="url(#clip0)">
<g opacity="0.8">
<path d="M682 153.197C690.284 153.197 697 146.481 697 138.197C697 129.913 690.284 123.197 682 123.197C673.716 123.197 667 129.913 667 138.197C667 146.481 673.716 153.197 682 153.197Z" fill="#239DF5" fill-opacity="0.2"/>
<path d="M682 148.197C687.523 148.197 692 143.72 692 138.197C692 132.674 687.523 128.197 682 128.197C676.477 128.197 672 132.674 672 138.197C672 143.72 676.477 148.197 682 148.197Z" fill="#7893F2" fill-opacity="0.4"/>
<path d="M682 143.197C684.761 143.197 687 140.958 687 138.197C687 135.435 684.761 133.197 682 133.197C679.239 133.197 677 135.435 677 138.197C677 140.958 679.239 143.197 682 143.197Z" fill="#255FF5"/>
</g>
<g opacity="0.8">
<path d="M537 278.197C545.284 278.197 552 271.481 552 263.197C552 254.913 545.284 248.197 537 248.197C528.716 248.197 522 254.913 522 263.197C522 271.481 528.716 278.197 537 278.197Z" fill="#656565" fill-opacity="0.2"/>
<path d="M537 273.197C542.523 273.197 547 268.72 547 263.197C547 257.674 542.523 253.197 537 253.197C531.477 253.197 527 257.674 527 263.197C527 268.72 531.477 273.197 537 273.197Z" fill="#656565" fill-opacity="0.4"/>
<path d="M537 268.197C539.761 268.197 542 265.958 542 263.197C542 260.435 539.761 258.197 537 258.197C534.239 258.197 532 260.435 532 263.197C532 265.958 534.239 268.197 537 268.197Z" fill="#656565"/>
</g>
<g opacity="0.5">
<path d="M-4 128.197C5.7927 123.471 114 341.35 258.52 210.197C291.2 180.54 287.419 139.137 308.37 114.697C327.64 92.2183 350.27 75.4899 384.066 114.697C417.863 153.904 425.219 163.963 462.794 215.58C500.37 267.197 536.6 225.937 579.37 210.197C614.355 197.322 617.881 195.893 658.048 156.138C698.214 116.383 727.419 139.229 744.096 156.138C760.774 173.048 768.343 198.871 799.48 202.303C830.617 205.734 843.942 177.933 843.942 177.933C843.942 177.933 877.258 117.057 906.022 68.8176C934.785 20.5781 956.201 32.2243 973.646 59.4079C991.09 86.5915 1036.45 201.986 1068.88 238.195C1101.31 274.405 1131.37 258.195 1148.37 238.195C1165.37 218.195 1173.87 208.195 1198.37 169.195C1222.87 130.195 1268.03 99.6788 1301.47 142.267C1325.3 172.618 1363.21 255.744 1389.37 252.055C1415.53 248.366 1452.05 95.7292 1455.37 91.4796C1458.69 87.2301 1470.72 36.6522 1505.37 59.4079C1540.02 82.1636 1553.19 260.009 1585.23 260.009C1601.98 260.009 1621.65 197.457 1652.96 142.267C1720 15.1969 1785 252.055 1889 252.055C1962 252.055 2050.77 40.803 2055 35.1969" stroke="url(#paint0_linear)" stroke-width="3" stroke-linecap="round"/>
<path opacity="0.3" d="M-4 84.2152C-4 84.2152 68 216.196 106 216.196C171.899 199.392 155 51.1968 213 107.197C252 164.239 288.798 216.196 312.37 216.196C344.403 216.196 354.37 116.196 378.839 84.2152C404.37 33.1958 421.37 73.6765 438.37 101.936C455.37 130.196 505.216 260.268 531.37 263.196C557.524 266.123 586.506 215.885 620.37 152.937C641.37 113.902 676.56 60.2716 699.37 84.2152C722.18 108.159 765.292 152.936 765.292 152.936C765.292 152.936 790.281 192.972 822.709 164.239C855.138 135.506 903.667 44.2169 912.027 27.9115C920.388 11.6061 955.025 -20.16 983.783 18.1186C1012.54 56.3972 1032.49 93.5179 1048.37 124.195C1064.25 154.873 1077.24 202.918 1108.37 200.195C1139.5 197.472 1150.42 156.462 1173.37 115.23C1189.71 85.8742 1205.37 79.0527 1238.36 104.964C1278.52 136.51 1329.1 198.36 1348.87 215.195C1368.64 232.031 1431.89 280.738 1465.43 219.467C1498.96 158.195 1490.37 141.596 1498.96 115.23C1508.63 85.5517 1546.15 69.8547 1572.05 102.095C1593.22 128.448 1625 192.176 1667 229.197C1725.63 280.874 1764 72.1968 1830 78.1968C1868.58 77.9638 1878 174.467 1955 219.467C2025 254.467 2050 123.197 2057 180.218" stroke="url(#paint1_linear)" stroke-width="3" stroke-linecap="round"/>
</g>
</g>
<defs>
<linearGradient id="paint0_linear" x1="1500.99" y1="226.053" x2="1500.99" y2="23.8596" gradientUnits="userSpaceOnUse">
<stop stop-color="#28A07C"/>
<stop offset="1" stop-color="#5E5CD1"/>
</linearGradient>
<linearGradient id="paint1_linear" x1="850.11" y1="768.004" x2="555.752" y2="-96.8683" gradientUnits="userSpaceOnUse">
<stop stop-color="#1AB1E0"/>
<stop offset="1" stop-color="#005069"/>
</linearGradient>
<clipPath id="clip0">
<rect width="2048" height="278" fill="white"/>
</clipPath>
</defs>
</svg>
